<svg width="55" height="55" viewBox="0 0 55 55" fill="none" xmlns="http://www.w3.org/2000/svg">
<path d="M28.8618 49.7492C42.1567 49.0964 52.4053 38.0852 51.7526 25.1548C51.0999 12.2244 39.7931 2.27148 26.4981 2.92423C13.2032 3.57698 2.95465 14.5883 3.60735 27.5186C4.26004 40.449 15.5668 50.4019 28.8618 49.7492Z" fill="url(#paint0_linear_216_1161)"/>
<g filter="url(#filter0_d_216_1161)">
<path d="M28.3922 49.6261C41.5057 48.9823 51.6156 38.1427 50.9731 25.4153C50.3307 12.6879 39.1792 2.89222 26.0657 3.53606C12.9522 4.1799 2.84234 15.0195 3.4848 27.7469C4.12725 40.4743 15.2787 50.27 28.3922 49.6261Z" fill="url(#paint1_linear_216_1161)"/>
</g>
<path d="M27.868 47.8357C39.7145 47.254 48.8474 37.4617 48.2671 25.9639C47.6867 14.4661 37.6127 5.61681 25.7663 6.19845C13.9198 6.78008 4.7869 16.5724 5.36728 28.0702C5.94767 39.568 16.0216 48.4173 27.868 47.8357Z" fill="url(#paint2_linear_216_1161)"/>
<path fill-rule="evenodd" clip-rule="evenodd" d="M8.06413 18.95C7.01239 21.4542 6.47107 24.1381 6.47107 26.8486L27.3992 26.8486L12.6008 12.2539C10.6574 14.1705 9.11586 16.4458 8.06413 18.95ZM46.7341 34.7472C47.7858 32.243 48.3272 29.5591 48.3272 26.8486H27.3991L42.1975 41.4433C44.1408 39.5267 45.6824 37.2513 46.7341 34.7472Z" fill="url(#paint3_linear_216_1161)"/>
<path fill-rule="evenodd" clip-rule="evenodd" d="M35.4081 7.77956C32.869 6.74231 30.1476 6.20844 27.3992 6.20844L27.3992 26.8484L42.1976 12.2538C40.2543 10.3372 37.9472 8.81682 35.4081 7.77956ZM42.1976 41.4433C40.2542 43.3599 37.9471 44.8802 35.408 45.9175C32.8689 46.9547 30.1475 47.4886 27.3992 47.4886V26.8487L12.6009 41.4433C10.6575 39.5267 9.11598 37.2513 8.06425 34.7472C7.01251 32.243 6.47119 29.5591 6.47119 26.8486L27.3992 26.8486L27.3993 26.8486L42.1976 41.4433Z" fill="#FFEAD4"/>
<path fill-rule="evenodd" clip-rule="evenodd" d="M12.6007 12.2539C14.5441 10.3373 16.8512 8.817 19.3903 7.77974C21.9294 6.74249 24.6508 6.20862 27.3991 6.20862L27.3991 26.8486L12.6007 12.2539ZM27.3992 47.4888C24.6509 47.4888 21.9295 46.9549 19.3904 45.9176C16.8513 44.8804 14.5442 43.36 12.6008 41.4434L27.3992 26.8487L27.3992 47.4888ZM46.7342 18.9501C45.6825 16.4459 44.1409 14.1706 42.1976 12.254L27.3992 26.8487L48.3273 26.8487C48.3273 24.1382 47.7859 21.4543 46.7342 18.9501Z" fill="url(#paint4_linear_216_1161)"/>
<path d="M26.4769 26.7854L26.4718 26.7654L26.4794 26.7629L26.4769 26.7854Z" fill="url(#paint5_linear_216_1161)"/>
<path d="M26.4752 26.7871H26.4777V26.7896L26.4625 26.8172L26.4421 26.8147L26.4752 26.7871Z" fill="url(#paint6_linear_216_1161)"/>
<g style="mix-blend-mode:multiply">
<path d="M27.0474 29.5601C28.7458 29.4661 30.037 27.8861 29.9315 26.0309C29.826 24.1757 28.3637 22.748 26.6654 22.8419C24.967 22.9359 23.6757 24.5159 23.7812 26.3711C23.8867 28.2262 25.349 29.654 27.0474 29.5601Z" fill="#D66382"/>
</g>
<path d="M26.9184 29.7472C28.4205 29.6641 29.5631 28.2746 29.4703 26.6437C29.3776 25.0128 28.0847 23.758 26.5825 23.8411C25.0804 23.9242 23.9379 25.3137 24.0306 26.9446C24.1233 28.5755 25.4163 29.8303 26.9184 29.7472Z" fill="#FF5C2C"/>
<g style="mix-blend-mode:soft-light">
<path d="M5.92764 31.8892L4.29807 32.7145C4.29807 32.7145 3.12007 29.5922 3.69189 24.0616L5.52025 24.7418C5.52025 24.7418 4.93861 27.8229 5.92764 31.8892Z" fill="#FFC0F4"/>
</g>
<path d="M24.0296 26.9421C23.9388 25.3495 25.026 23.9965 26.4592 23.9166C27.8925 23.8367 29.1269 25.0639 29.2153 26.654C29.3061 28.2467 28.2189 29.5997 26.7856 29.6795C25.3524 29.7594 24.1179 28.5323 24.0296 26.9421Z" fill="url(#paint7_radial_216_1161)"/>
<g style="mix-blend-mode:soft-light">
<path d="M46.9567 39.4263L44.8166 38.3202C44.8166 38.3202 42.9171 41.3747 41.1354 42.4954L42.3845 44.3349C42.3845 44.3349 45.4891 41.8491 46.9567 39.4263Z" fill="#FFC0F4"/>
</g>
<path d="M26.2706 4.81486C26.3049 4.46391 26.0644 4.142 25.7282 4.10085C25.3944 4.05728 25.095 4.309 25.0582 4.65996C25.0238 5.01092 25.2643 5.33283 25.6006 5.37397C25.9343 5.41754 26.2337 5.16582 26.2706 4.81486Z" fill="url(#paint8_linear_216_1161)"/>
<path d="M26.2756 4.80268C26.3075 4.49529 26.1112 4.21694 25.8388 4.18064C25.5664 4.14433 25.3209 4.36701 25.289 4.6744C25.2571 4.98179 25.4535 5.26013 25.7259 5.29644C25.9983 5.33274 26.2437 5.11007 26.2756 4.80268Z" fill="url(#paint9_radial_216_1161)"/>
<path d="M15.8868 9.55151C15.8402 9.57814 15.7911 9.60718 15.7445 9.63865C15.7789 9.61202 15.8157 9.59024 15.8525 9.56604L15.8868 9.55151Z" fill="url(#paint10_linear_216_1161)"/>
<g style="mix-blend-mode:multiply">
<path d="M15.5109 9.79352C12.4162 12.0058 7.4269 18.6449 6.92379 25.5212C6.54585 30.6815 9.96942 41.3844 20.1371 44.8069C30.3047 48.2293 39.0342 44.6786 43.5523 39.8015C44.0947 39.2182 44.5757 38.5913 45.0076 37.9402H45.0665C45.0469 37.9741 45.0297 38.0056 45.0076 38.037C44.9463 38.1314 44.8849 38.2258 44.8187 38.3202C44.8015 38.3517 44.7818 38.3807 44.7598 38.4098C44.6959 38.5066 44.6297 38.6034 44.561 38.6978C44.4849 38.8116 44.4064 38.9229 44.3229 39.0318C44.2542 39.1262 44.183 39.223 44.1119 39.3174C44.0112 39.453 43.9082 39.5861 43.8026 39.7192C43.5057 40.092 43.194 40.4526 42.875 40.8036C42.767 40.9221 42.6565 41.0407 42.5436 41.1569C42.3203 41.3917 42.0896 41.6192 41.8565 41.8419C41.7411 41.9532 41.6233 42.0621 41.5055 42.1711C41.5055 42.1711 41.5055 42.1711 41.5006 42.1759C41.3804 42.2824 41.2601 42.3889 41.1374 42.4954C41.0221 42.5971 40.9018 42.6987 40.7815 42.8004C40.7717 42.8101 40.7595 42.8173 40.7496 42.8246C40.6294 42.9238 40.5116 43.0182 40.3913 43.115C40.1361 43.3159 39.876 43.5095 39.6109 43.7008C39.5569 43.7419 39.5005 43.783 39.4416 43.8218C39.3851 43.8629 39.3262 43.9016 39.2673 43.9404C36.1652 46.0703 32.4472 47.3967 28.4027 47.5952C16.8583 48.1664 7.03423 39.3562 6.45996 27.9174C6.08447 20.465 9.73137 13.7339 15.5109 9.79352Z" fill="#CC639B"/>
</g>
<path style="mix-blend-mode:screen" d="M28.5871 28.3772C28.5871 28.3772 26.5158 26.9153 24.3242 27.4744C24.3242 27.4744 24.6825 29.1638 26.0618 29.401C27.441 29.6382 28.3073 28.808 28.5871 28.3772Z" fill="url(#paint11_linear_216_1161)"/>
<g style="mix-blend-mode:hard-light" filter="url(#filter1_f_216_1161)">
<path d="M25.7503 29.0331C25.7503 29.0331 25.7257 28.5975 25.284 28.2078C24.8422 27.8181 24.4324 27.8229 24.4324 27.8229C24.4324 27.8229 24.7367 28.8153 25.7503 29.0331Z" fill="white"/>
</g>
<path style="mix-blend-mode:screen" d="M28.5869 25.3179C28.5869 25.3179 27.4211 25.6858 26.6456 25.3179C25.8701 24.95 26.1646 24.0593 26.1646 24.0593C26.1646 24.0593 27.9562 23.9794 28.5844 25.3155L28.5869 25.3179Z" fill="url(#paint12_linear_216_1161)"/>
<g style="mix-blend-mode:soft-light">
<path d="M51.7277 27.915H50.9619C50.9619 27.915 51.2295 25.5091 50.4858 21.5832L51.2884 21.5663C51.2884 21.5663 52.1105 25.0371 51.7277 27.9125V27.915Z" fill="#FF9AA0"/>
</g>
<g style="mix-blend-mode:soft-light">
<path d="M50.6575 19.2088L49.8796 19.4024C49.8796 19.4024 49.1384 17.5073 48.7678 16.7739L49.563 16.4665C49.563 16.4665 50.2428 17.7759 50.6575 19.2064V19.2088Z" fill="#FF9AA0"/>
</g>
<path d="M41.9995 8.47929C41.9995 8.47929 34.5609 2.9487 25.424 3.75953C16.6086 4.54374 10.9321 9.80566 10.9321 9.80566C10.9321 9.80566 18.0492 3.27545 27.2278 3.28755C36.5807 3.29966 41.997 8.47687 41.997 8.47687L41.9995 8.47929Z" fill="#FF568A"/>
<path d="M12.2275 42.3332C12.2275 42.3332 6.77435 36.9818 5.52026 29.7278C5.52026 29.7278 6.1019 36.8317 12.2275 42.3332Z" fill="#FF568A"/>
<g style="mix-blend-mode:multiply">
<path d="M14.8878 43.5265L14.2546 43.9428C14.2546 43.9428 17.796 46.7964 23.8922 47.7283L24.1204 47.3749C24.1204 47.3749 17.7617 46.1284 14.8878 43.5265Z" fill="#AE63A0"/>
</g>
<path d="M29.6421 1.16477L24.6626 7.78453C24.6626 7.78453 21.1433 4.29917 20.3997 1.56897C20.3997 1.56897 22.6403 0.554827 29.6421 1.16235V1.16477Z" fill="url(#paint13_linear_216_1161)"/>
<path d="M29.6424 1.16486L32.5113 3.35531L30.8277 2.92206L25.2862 8.08717L24.6628 7.78704L29.6424 1.16486Z" fill="#FE6C03"/>
<g style="mix-blend-mode:multiply" opacity="0.5">
<path d="M29.0583 4.62595L27.679 3.87079L24.6628 7.78698L25.2862 8.08711L29.0583 4.62595Z" fill="#CC639B"/>
</g>
<g style="mix-blend-mode:soft-light">
<path d="M28.8276 1.99261C28.8276 1.99261 25.1194 1.59809 20.5424 2.02408C20.5424 2.02408 21.1093 3.42548 21.6467 4.246L27.0778 4.11771L28.8276 1.99019V1.99261Z" fill="#FFC0F4"/>
</g>
<g style="mix-blend-mode:multiply">
<path d="M25.2861 8.08711H26.442L29.1932 6.22583L28.5772 6.18468L31.4706 3.17372L30.8277 2.922L25.2861 8.08711Z" fill="#CC639B"/>
</g>
<path d="M28.1014 48.9167C28.1357 48.5657 27.8952 48.2438 27.559 48.2027C27.2252 48.1591 26.9258 48.4108 26.889 48.7618C26.8547 49.1127 27.0952 49.4346 27.4314 49.4782C27.7651 49.5218 28.0646 49.27 28.1014 48.9191V48.9167Z" fill="url(#paint14_linear_216_1161)"/>
<path d="M25.522 48.9313C25.522 48.2875 26.0521 47.7646 26.7049 47.7646C27.3577 47.7646 27.8878 48.2875 27.8878 48.9313C27.8878 49.5751 27.3577 50.0979 26.7049 50.0979C26.0521 50.0979 25.522 49.5751 25.522 48.9313Z" fill="url(#paint15_radial_216_1161)"/>
<path d="M50.4811 25.3033C50.5155 24.9524 50.275 24.6304 49.9388 24.5869C49.605 24.5433 49.3056 24.795 49.2688 25.146C49.2344 25.4969 49.4749 25.8189 49.8111 25.86C50.1449 25.9036 50.4443 25.6518 50.4811 25.3009V25.3033Z" fill="url(#paint16_linear_216_1161)"/>
<path d="M49.0843 26.4844C49.7376 26.4844 50.2672 25.9621 50.2672 25.3178C50.2672 24.6735 49.7376 24.1512 49.0843 24.1512C48.431 24.1512 47.9014 24.6735 47.9014 25.3178C47.9014 25.9621 48.431 26.4844 49.0843 26.4844Z" fill="url(#paint17_radial_216_1161)"/>
<path d="M4.99517 25.3033C5.02953 24.9524 4.78902 24.6304 4.4528 24.5869C4.11903 24.5433 3.81962 24.795 3.78281 25.146C3.74845 25.4969 3.98896 25.8189 4.32518 25.86C4.65895 25.9036 4.95836 25.6518 4.99517 25.3009V25.3033Z" fill="url(#paint18_linear_216_1161)"/>
<path d="M2.41626 25.3178C2.41626 24.674 2.94636 24.1512 3.59917 24.1512C4.25198 24.1512 4.78208 24.674 4.78208 25.3178C4.78208 25.9616 4.25198 26.4844 3.59917 26.4844C2.94636 26.4844 2.41626 25.9616 2.41626 25.3178Z" fill="url(#paint19_radial_216_1161)"/>
<path d="M10.6838 41.3675C10.7181 41.0165 10.4776 40.6946 10.1414 40.6535C9.80763 40.6099 9.50822 40.8616 9.47141 41.2126C9.43705 41.5635 9.67756 41.8854 10.0138 41.9266C10.35 41.9677 10.647 41.7184 10.6838 41.3675Z" fill="url(#paint20_linear_216_1161)"/>
<path d="M8.10486 41.3821C8.10486 40.7383 8.63496 40.2155 9.28777 40.2155C9.94058 40.2155 10.4707 40.7383 10.4707 41.3821C10.4707 42.0259 9.94058 42.5487 9.28777 42.5487C8.63496 42.5487 8.10486 42.0259 8.10486 41.3821Z" fill="url(#paint21_radial_216_1161)"/>
<path d="M45.0668 41.3118C45.1012 40.9608 44.8607 40.6389 44.5245 40.5977C44.1907 40.5542 43.8913 40.8059 43.8545 41.1568C43.8201 41.5078 44.0606 41.8297 44.3968 41.8733C44.7331 41.9169 45.03 41.6651 45.0668 41.3142V41.3118Z" fill="url(#paint22_linear_216_1161)"/>
<path d="M42.4873 41.3288C42.4873 40.685 43.0174 40.1622 43.6702 40.1622C44.323 40.1622 44.8531 40.685 44.8531 41.3288C44.8531 41.9726 44.323 42.4954 43.6702 42.4954C43.0174 42.4954 42.4873 41.9726 42.4873 41.3288Z" fill="url(#paint23_radial_216_1161)"/>
<path d="M42.2786 10.1179C42.313 9.76693 42.0725 9.44502 41.7362 9.40145C41.4 9.35788 41.1031 9.6096 41.0663 9.96056C41.0319 10.3115 41.2724 10.6334 41.6086 10.6746C41.9424 10.7181 42.2418 10.4664 42.2786 10.1155V10.1179Z" fill="url(#paint24_linear_216_1161)"/>
<path d="M39.6992 10.1348C39.6992 9.49094 40.2293 8.96814 40.8821 8.96814C41.5349 8.96814 42.065 9.49094 42.065 10.1348C42.065 10.7786 41.5349 11.3014 40.8821 11.3014C40.2293 11.3014 39.6992 10.7786 39.6992 10.1348Z" fill="url(#paint25_radial_216_1161)"/>
<path d="M12.9588 10.1179C12.9931 9.76693 12.7526 9.44502 12.4164 9.40145C12.0827 9.35788 11.7832 9.6096 11.7464 9.96056C11.7121 10.3115 11.9526 10.6334 12.2888 10.6746C12.6226 10.7181 12.922 10.4664 12.9588 10.1155V10.1179Z" fill="url(#paint26_linear_216_1161)"/>
<path d="M10.3794 10.1348C10.3794 9.49094 10.9095 8.96814 11.5623 8.96814C12.2151 8.96814 12.7452 9.49094 12.7452 10.1348C12.7452 10.7786 12.2151 11.3014 11.5623 11.3014C10.9095 11.3014 10.3794 10.7786 10.3794 10.1348Z" fill="url(#paint27_radial_216_1161)"/>
<defs>
<filter id="filter0_d_216_1161" x="0.455811" y="2.50604" width="53.5463" height="52.1501" filterUnits="userSpaceOnUse" color-interpolation-filters="sRGB">
<feFlood flood-opacity="0" result="BackgroundImageFix"/>
<feColorMatrix in="SourceAlpha" type="matrix" values="0 0 0 0 0 0 0 0 0 0 0 0 0 0 0 0 0 0 127 0" result="hardAlpha"/>
<feOffset dy="2"/>
<feGaussianBlur stdDeviation="1.5"/>
<feComposite in2="hardAlpha" operator="out"/>
<feColorMatrix type="matrix" values="0 0 0 0 0 0 0 0 0 0 0 0 0 0 0 0 0 0 0.45 0"/>
<feBlend mode="normal" in2="BackgroundImageFix" result="effect1_dropShadow_216_1161"/>
<feBlend mode="normal" in="SourceGraphic" in2="effect1_dropShadow_216_1161" result="shape"/>
</filter>
<filter id="filter1_f_216_1161" x="23.4324" y="26.8229" width="3.31787" height="3.21021" filterUnits="userSpaceOnUse" color-interpolation-filters="sRGB">
<feFlood flood-opacity="0" result="BackgroundImageFix"/>
<feBlend mode="normal" in="SourceGraphic" in2="BackgroundImageFix" result="shape"/>
<feGaussianBlur stdDeviation="0.5" result="effect1_foregroundBlur_216_1161"/>
</filter>
<linearGradient id="paint0_linear_216_1161" x1="51.7847" y1="26.3371" x2="3.57987" y2="26.3371" gradientUnits="userSpaceOnUse">
<stop stop-color="#9A0065"/>
<stop offset="1" stop-color="#CC1A6D"/>
</linearGradient>
<linearGradient id="paint1_linear_216_1161" x1="26.0732" y1="3.53812" x2="28.336" y2="49.6265" gradientUnits="userSpaceOnUse">
<stop stop-color="#D11A80"/>
<stop offset="1" stop-color="#FE1157"/>
</linearGradient>
<linearGradient id="paint2_linear_216_1161" x1="25.7737" y1="6.19809" x2="27.818" y2="47.8357" gradientUnits="userSpaceOnUse">
<stop stop-color="#9A0065"/>
<stop offset="1" stop-color="#CC1A6D"/>
</linearGradient>
<linearGradient id="paint3_linear_216_1161" x1="7.83157" y1="19.1771" x2="46.8716" y2="36.7957" gradientUnits="userSpaceOnUse">
<stop stop-color="#FEB803"/>
<stop offset="1" stop-color="#FE9A03"/>
</linearGradient>
<linearGradient id="paint4_linear_216_1161" x1="35.264" y1="7.9974" x2="19.9881" y2="45.7101" gradientUnits="userSpaceOnUse">
<stop stop-color="#BF004C"/>
<stop offset="1" stop-color="#F60053"/>
</linearGradient>
<linearGradient id="paint5_linear_216_1161" x1="35.3219" y1="1.48737" x2="20.5304" y2="44.964" gradientUnits="userSpaceOnUse">
<stop stop-color="#B31A8F"/>
<stop offset="1" stop-color="#FE117E"/>
</linearGradient>
<linearGradient id="paint6_linear_216_1161" x1="35.3129" y1="1.49117" x2="20.5232" y2="44.9551" gradientUnits="userSpaceOnUse">
<stop stop-color="#B31A8F"/>
<stop offset="1" stop-color="#FE117E"/>
</linearGradient>
<radialGradient id="paint7_radial_216_1161" cx="0" cy="0" r="1" gradientUnits="userSpaceOnUse" gradientTransform="translate(26.5842 27.7403) rotate(176.824) scale(3.72137 4.21892)">
<stop stop-color="#FEB803"/>
<stop offset="0.77" stop-color="#FE8403"/>
<stop offset="0.98" stop-color="#FFD990"/>
</radialGradient>
<linearGradient id="paint8_linear_216_1161" x1="24.0371" y1="3.72662" x2="24.0178" y2="5.00676" gradientUnits="userSpaceOnUse">
<stop stop-color="#9A0065"/>
<stop offset="1" stop-color="#CC1A6D"/>
</linearGradient>
<radialGradient id="paint9_radial_216_1161" cx="0" cy="0" r="1" gradientUnits="userSpaceOnUse" gradientTransform="translate(25.6204 4.77605) rotate(180) scale(0.535009 0.527645)">
<stop stop-color="#FFFF8E"/>
<stop offset="1" stop-color="#FFBD36"/>
</radialGradient>
<linearGradient id="paint10_linear_216_1161" x1="15.8132" y1="9.55151" x2="15.8132" y2="9.63865" gradientUnits="userSpaceOnUse">
<stop stop-color="#FF9036"/>
<stop offset="1" stop-color="#FFBD0C"/>
</linearGradient>
<linearGradient id="paint11_linear_216_1161" x1="26.4544" y1="27.3461" x2="26.4544" y2="29.4422" gradientUnits="userSpaceOnUse">
<stop/>
<stop offset="0.12" stop-color="#040302"/>
<stop offset="0.27" stop-color="#130E07"/>
<stop offset="0.42" stop-color="#2A1F11"/>
<stop offset="0.59" stop-color="#4C381E"/>
<stop offset="0.76" stop-color="#765830"/>
<stop offset="0.93" stop-color="#A97E45"/>
<stop offset="1" stop-color="#C2904F"/>
</linearGradient>
<linearGradient id="paint12_linear_216_1161" x1="26.9843" y1="25.4825" x2="27.5386" y2="24.3292" gradientUnits="userSpaceOnUse">
<stop/>
<stop offset="0.12" stop-color="#040302"/>
<stop offset="0.27" stop-color="#130E07"/>
<stop offset="0.42" stop-color="#2A1F11"/>
<stop offset="0.59" stop-color="#4C381E"/>
<stop offset="0.76" stop-color="#765830"/>
<stop offset="0.93" stop-color="#A97E45"/>
<stop offset="1" stop-color="#C2904F"/>
</linearGradient>
<linearGradient id="paint13_linear_216_1161" x1="25.0184" y1="7.78695" x2="25.0184" y2="0.971134" gradientUnits="userSpaceOnUse">
<stop stop-color="#FEB803"/>
<stop offset="1" stop-color="#FFBD0C"/>
</linearGradient>
<linearGradient id="paint14_linear_216_1161" x1="25.142" y1="47.6674" x2="25.1227" y2="48.9476" gradientUnits="userSpaceOnUse">
<stop stop-color="#9A0065"/>
<stop offset="1" stop-color="#CC1A6D"/>
</linearGradient>
<radialGradient id="paint15_radial_216_1161" cx="0" cy="0" r="1" gradientUnits="userSpaceOnUse" gradientTransform="translate(26.322 49.0111) rotate(180) scale(1.15101 1.13516)">
<stop stop-color="#FFFF8E"/>
<stop offset="1" stop-color="#FFBD9A"/>
</radialGradient>
<linearGradient id="paint16_linear_216_1161" x1="47.9026" y1="24.1418" x2="47.8832" y2="25.4194" gradientUnits="userSpaceOnUse">
<stop stop-color="#9A0065"/>
<stop offset="1" stop-color="#CC1A6D"/>
</linearGradient>
<radialGradient id="paint17_radial_216_1161" cx="0" cy="0" r="1" gradientUnits="userSpaceOnUse" gradientTransform="translate(48.7039 25.3953) rotate(180) scale(1.15101 1.13516)">
<stop stop-color="#FFFF8E"/>
<stop offset="1" stop-color="#FFBD9A"/>
</radialGradient>
<linearGradient id="paint18_linear_216_1161" x1="2.4345" y1="24.1385" x2="2.4152" y2="25.4161" gradientUnits="userSpaceOnUse">
<stop stop-color="#9A0065"/>
<stop offset="1" stop-color="#CC1A6D"/>
</linearGradient>
<radialGradient id="paint19_radial_216_1161" cx="0" cy="0" r="1" gradientUnits="userSpaceOnUse" gradientTransform="translate(3.21632 25.3953) rotate(180) scale(1.15101 1.13516)">
<stop stop-color="#FFFF8E"/>
<stop offset="1" stop-color="#FFBD9A"/>
</radialGradient>
<linearGradient id="paint20_linear_216_1161" x1="7.85779" y1="40.1443" x2="7.83846" y2="41.4245" gradientUnits="userSpaceOnUse">
<stop stop-color="#9A0065"/>
<stop offset="1" stop-color="#CC1A6D"/>
</linearGradient>
<radialGradient id="paint21_radial_216_1161" cx="0" cy="0" r="1" gradientUnits="userSpaceOnUse" gradientTransform="translate(8.90492 41.4595) rotate(180) scale(1.15101 1.13516)">
<stop stop-color="#FFFF8E"/>
<stop offset="1" stop-color="#FFBD9A"/>
</radialGradient>
<linearGradient id="paint22_linear_216_1161" x1="42.227" y1="40.0924" x2="42.2077" y2="41.3725" gradientUnits="userSpaceOnUse">
<stop stop-color="#9A0065"/>
<stop offset="1" stop-color="#CC1A6D"/>
</linearGradient>
<radialGradient id="paint23_radial_216_1161" cx="0" cy="0" r="1" gradientUnits="userSpaceOnUse" gradientTransform="translate(43.2874 41.4063) rotate(180) scale(1.15101 1.13516)">
<stop stop-color="#FFFF8E"/>
<stop offset="1" stop-color="#FFBD9A"/>
</radialGradient>
<linearGradient id="paint24_linear_216_1161" x1="39.9506" y1="9.012" x2="39.9313" y2="10.2921" gradientUnits="userSpaceOnUse">
<stop stop-color="#9A0065"/>
<stop offset="1" stop-color="#CC1A6D"/>
</linearGradient>
<radialGradient id="paint25_radial_216_1161" cx="0" cy="0" r="1" gradientUnits="userSpaceOnUse" gradientTransform="translate(40.4993 10.2122) rotate(180) scale(1.151 1.13516)">
<stop stop-color="#FFFF8E"/>
<stop offset="1" stop-color="#FFBD9A"/>
</radialGradient>
<linearGradient id="paint26_linear_216_1161" x1="10.6434" y1="9.01077" x2="10.6241" y2="10.2883" gradientUnits="userSpaceOnUse">
<stop stop-color="#9A0065"/>
<stop offset="1" stop-color="#CC1A6D"/>
</linearGradient>
<radialGradient id="paint27_radial_216_1161" cx="0" cy="0" r="1" gradientUnits="userSpaceOnUse" gradientTransform="translate(11.1795 10.2122) rotate(180) scale(1.15101 1.13516)">
<stop stop-color="#FFFF8E"/>
<stop offset="1" stop-color="#FFBD9A"/>
</radialGradient>
</defs>
</svg>
