<svg width="204" height="62" viewBox="0 0 204 62" fill="none" xmlns="http://www.w3.org/2000/svg">
<path d="M203.718 10.7662V11.0558C203.68 15.2575 201.952 19.0581 199.177 21.8233C197.736 23.2578 196.017 24.4124 194.103 25.1992C193.781 25.3322 193.456 25.4536 193.124 25.5652C192.175 25.8841 191.186 26.1131 190.166 26.2462H190.162C181.914 27.4087 183.015 31.1426 184.981 32.4812H184.983C185.293 32.6887 185.636 32.8492 186.003 32.9548C186.923 33.3208 187.912 33.5498 188.946 33.6202C188.212 33.949 187.46 34.2445 186.692 34.5028C185.934 34.6907 185.141 34.7905 184.326 34.7905C183.511 34.7905 182.755 34.6946 182.015 34.5165C181.628 34.4265 181.247 34.3091 180.88 34.1701C180.012 33.8472 179.203 33.403 178.472 32.8628C178.462 32.857 178.455 32.8492 178.445 32.8413C176.688 31.5282 176.171 29.1054 177.251 27.2051C177.908 26.0466 178.798 25.0368 179.86 24.2383C179.911 24.1992 179.962 24.162 180.014 24.1248C180.148 24.0289 180.284 23.935 180.422 23.8449C181.022 23.4535 181.666 23.1287 182.348 22.8762C183.414 22.4789 184.569 22.2636 185.776 22.2636C185.688 22.2636 185.601 22.2636 185.51 22.2636C184.423 22.2636 183.359 22.1541 182.333 21.9427C181.606 21.794 180.898 21.5944 180.211 21.3478C179.424 21.0679 178.666 20.7254 177.943 20.3262C177.64 20.1579 177.357 19.9563 177.097 19.7274C176.909 19.563 176.72 19.4025 176.524 19.2499C175.988 18.8193 175.423 18.4279 174.831 18.0717C174.583 17.921 174.33 17.7801 174.073 17.6451C171.948 16.5218 169.53 15.872 166.963 15.8407V15.8349C165.331 15.7957 163.809 15.3436 162.461 14.6234C157.426 11.9345 158.776 8.60366 163.548 7.51947C164.579 7.28659 165.654 7.19266 166.753 7.19266C167.853 7.19266 168.905 7.30228 169.931 7.51364C170.764 7.6839 171.571 7.92067 172.348 8.21814C172.479 8.26706 172.605 8.31795 172.731 8.37079C172.958 8.46277 173.183 8.56258 173.406 8.6663C174.061 8.9716 174.687 9.31996 175.287 9.71137C175.287 9.71137 175.289 9.71137 175.291 9.71333C175.451 9.82683 176.065 10.2319 176.067 10.226C178.461 11.7095 181.289 12.5666 184.32 12.5666C186.266 12.5666 188.127 12.2144 189.846 11.5666C188.5 13.4532 186.489 14.8426 184.154 15.3984H184.152C183.426 15.4102 182.717 15.5022 182.039 15.6666H182.031C181.973 15.6666 181.918 15.6666 181.861 15.6666C181.445 15.6666 181.034 15.6411 180.631 15.5903C179.339 15.4298 178.125 15.0188 177.04 14.4062C177.845 15.2106 178.737 15.9288 179.702 16.5433C180.264 16.9034 180.854 17.2263 181.464 17.51C181.668 17.6059 181.873 17.6979 182.08 17.7821C183.937 18.5571 185.978 18.9837 188.117 18.9837C189.307 18.9837 190.468 18.8506 191.585 18.6001C193.234 18.2283 194.786 17.5981 196.191 16.7527C196.201 16.7468 196.211 16.7409 196.22 16.7351C198.23 15.5198 199.714 13.598 200.41 11.369C200.862 9.92272 201.105 8.38448 201.105 6.78951C201.105 4.63483 200.661 2.58192 199.858 0.718842C201.476 2.55257 202.664 4.76598 203.268 7.2103C203.532 8.27687 203.684 9.38845 203.71 10.5294C203.712 10.6057 203.712 10.682 203.714 10.7583L203.718 10.7662Z" fill="#BF004C"/>
<path d="M23.6419 20.2143V28.5429H10.497V33.1805H19.9538V41.0832H10.497V53.7181H0V20.2143H23.6419Z" fill="white"/>
<path d="M37.6945 45.768H47.8132V53.7181H27.1975V20.2143H37.6945V45.768Z" fill="white"/>
<path d="M72.5833 48.6547H61.4244L59.7694 53.7181H48.7523L60.9988 20.2143H73.1035L85.3027 53.7181H74.2383L72.5833 48.6547ZM70.03 40.7519L67.0039 31.4295L63.9777 40.7519H70.03Z" fill="white"/>
<path d="M127.926 20.2143V53.7181H117.476V37.0135L112.322 53.7181H103.339L98.1846 37.0135V53.7181H87.6876V20.2143H100.549L107.925 40.326L115.112 20.2143H127.926Z" fill="white"/>
<path d="M172.901 20.2143V53.7181H162.452V37.0135L157.298 53.7181H148.314L143.16 37.0135V53.7181H132.663V20.2143H145.524L152.9 40.326L160.087 20.2143H172.901Z" fill="white"/>
</svg>
