<svg width="40" height="40" viewBox="0 0 40 40" fill="none" xmlns="http://www.w3.org/2000/svg">
<g clip-path="url(#clip0_107_9877)">
<circle cx="20" cy="20" r="20" fill="#E8661D"/>
<circle cx="20" cy="20" r="20" fill="url(#paint0_linear_107_9877)"/>
<path fill-rule="evenodd" clip-rule="evenodd" d="M20 16.343C17.9802 16.343 16.3429 17.9803 16.3429 20.0001C16.3429 22.0199 17.9802 23.6573 20 23.6573C22.0198 23.6573 23.6571 22.0199 23.6571 20.0001C23.6571 17.9803 22.0198 16.343 20 16.343ZM14.5143 20.0001C14.5143 16.9704 16.9703 14.5144 20 14.5144C23.0297 14.5144 25.4857 16.9704 25.4857 20.0001C25.4857 23.0298 23.0297 25.4858 20 25.4858C16.9703 25.4858 14.5143 23.0298 14.5143 20.0001Z" fill="white"/>
<path fill-rule="evenodd" clip-rule="evenodd" d="M14.9714 10.4001C12.4467 10.4001 10.4 12.4468 10.4 14.9715V25.0287C10.4 27.5534 12.4467 29.6001 14.9714 29.6001H25.0286C27.5533 29.6001 29.6 27.5534 29.6 25.0287V14.9715C29.6 12.4468 27.5533 10.4001 25.0286 10.4001H14.9714ZM8.57141 14.9715C8.57141 11.4369 11.4368 8.57153 14.9714 8.57153H25.0286C28.5632 8.57153 31.4286 11.4369 31.4286 14.9715V25.0287C31.4286 28.5633 28.5632 31.4287 25.0286 31.4287H14.9714C11.4368 31.4287 8.57141 28.5633 8.57141 25.0287V14.9715Z" fill="white"/>
<path d="M25.9428 15.4286C26.7003 15.4286 27.3143 14.8146 27.3143 14.0572C27.3143 13.2998 26.7003 12.6858 25.9428 12.6858C25.1854 12.6858 24.5714 13.2998 24.5714 14.0572C24.5714 14.8146 25.1854 15.4286 25.9428 15.4286Z" fill="white"/>
</g>
<defs>
<linearGradient id="paint0_linear_107_9877" x1="6.77826" y1="35.302" x2="32.9528" y2="4.76512" gradientUnits="userSpaceOnUse">
<stop stop-color="#FCBA5A"/>
<stop offset="0.369792" stop-color="#E8455A"/>
<stop offset="0.692708" stop-color="#8C46B8"/>
<stop offset="1" stop-color="#625CCA"/>
</linearGradient>
<clipPath id="clip0_107_9877">
<rect width="40" height="40" fill="white"/>
</clipPath>
</defs>
</svg>
