<svg width="83" height="37" viewBox="0 0 83 37" fill="none" xmlns="http://www.w3.org/2000/svg">
<rect x="0.901733" width="81.7425" height="36.569" rx="6.45336" fill="#FFDD00"/>
<mask id="mask0_107_10144" style="mask-type:alpha" maskUnits="userSpaceOnUse" x="5" y="7" width="50" height="22">
<path d="M5.20428 7.8833H54.132V28.5356H5.20428V7.8833Z" fill="white"/>
</mask>
<g mask="url(#mask0_107_10144)">
<path fill-rule="evenodd" clip-rule="evenodd" d="M50.7241 21.9392C50.205 21.9392 49.5968 22.0256 49.0658 22.4038V22.0102H47.599V28.4629H49.0658V24.5646C49.0658 23.9896 49.5402 23.2994 50.4703 23.2994C51.2861 23.2994 51.8347 23.8398 51.8347 24.6443V28.4629H53.302V24.554C53.302 22.9553 52.2524 21.9392 50.7241 21.9392ZM50.7239 11.3295C50.2048 11.3295 49.5967 11.4159 49.0657 11.7942V11.4006H47.5988V17.8533H49.0657V13.955C49.0657 13.38 49.54 12.6898 50.4701 12.6898C51.2864 12.6898 51.8345 13.2302 51.8345 14.0346V17.8533H53.3018V13.9444C53.3018 12.3456 52.2522 11.3295 50.7239 11.3295ZM33.2565 21.9392C32.7374 21.9392 32.1293 22.0256 31.5983 22.4038V22.0102H30.1314V28.4629H31.5983V24.5646C31.5983 23.9896 32.0726 23.2994 33.0027 23.2994C33.8185 23.2994 34.3671 23.8398 34.3671 24.6443V28.4629H35.834V24.554C35.834 22.9553 34.7848 21.9392 33.2565 21.9392ZM27.1572 13.9055C26.5204 13.7582 26.0694 13.6008 26.0623 13.2336C26.0537 12.7411 26.4957 12.5933 27.2629 12.5933L28.5859 12.5919V11.4011L27.2753 11.403C26.1228 11.403 24.675 11.6458 24.675 13.3224C24.6893 14.0759 25.2131 14.6581 26.1918 14.9581C26.4161 15.0267 26.6457 15.0795 26.8671 15.1309C27.5467 15.2883 28.1325 15.4496 28.1415 15.944C28.1496 16.3918 27.5386 16.6591 27.0262 16.6677C26.1247 16.6677 25.5289 16.1609 25.3427 15.9776L24.3854 16.8482C24.3854 16.8482 25.2231 17.9248 27.0838 17.9248C28.3035 17.9248 29.5517 17.154 29.5288 15.894C29.5065 14.6447 28.3178 14.1753 27.1572 13.9055ZM40.0028 13.9506C39.9371 13.5345 39.7342 13.152 39.3942 12.9062C39.0246 12.6389 38.6669 12.5899 38.2779 12.5899C37.7368 12.5899 37.2468 12.8405 36.9058 13.2254C36.6344 13.5316 36.512 13.9506 36.512 13.9506H40.0028ZM38.405 17.9248C36.4772 17.9185 35.0337 16.5113 35.0294 14.6293C35.0294 14.2137 35.1018 13.7966 35.2513 13.4068C35.4821 12.8103 35.884 12.2967 36.4058 11.9314C36.9782 11.5321 37.6811 11.3291 38.3822 11.3291C39.3108 11.33 40.0614 11.6434 40.6005 12.2084C40.971 12.5971 41.2215 13.0905 41.3658 13.5988C41.4958 14.0562 41.5096 14.5137 41.5096 14.984H36.4758L36.5053 15.1247C36.6901 15.9915 37.4511 16.5722 38.4055 16.5737C39.2313 16.5713 39.7714 16.1926 40.0552 15.9147L41.0591 16.8281C40.4495 17.5087 39.457 17.9224 38.405 17.9248ZM22.0428 13.9506C21.9771 13.5345 21.7737 13.152 21.4337 12.9062C21.0646 12.6389 20.7065 12.5899 20.3174 12.5899C19.7764 12.5899 19.2863 12.8405 18.9458 13.2254C18.6743 13.5316 18.5515 13.9506 18.5515 13.9506H22.0428ZM20.445 17.9248C18.5167 17.9185 17.0732 16.5113 17.0694 14.6293C17.0694 14.2137 17.1409 13.7966 17.2909 13.4068C17.5217 12.8102 17.9238 12.2965 18.4458 11.9314C19.0177 11.5321 19.7211 11.3291 20.4222 11.3291C21.3503 11.33 22.1014 11.6434 22.6405 12.2084C23.0105 12.5971 23.261 13.0905 23.4053 13.5988C23.5353 14.0562 23.5496 14.5137 23.5496 14.984H18.5153L18.5448 15.1247C18.7296 15.9915 19.4911 16.5722 20.4455 16.5737C21.2713 16.5713 21.8109 16.1926 22.0952 15.9147L23.0991 16.8281C22.4895 17.5087 21.4966 17.9224 20.445 17.9248ZM15.7036 9.26904L14.0262 15.3766L12.0136 9.26904H10.4368L8.42374 15.3766L6.74641 9.26904H5.20435L7.56174 17.8533H9.10476L11.2245 11.4855L13.3457 17.8533H14.8878L17.2451 9.26904H15.7036ZM45.4186 11.3435C44.9781 11.3996 44.5147 11.5436 44.1028 11.8661V11.4006H42.6355V17.8533H44.1023V13.9295C44.1023 13.7975 44.1247 13.666 44.1766 13.5446C44.3023 13.2504 44.5457 12.9413 44.9005 12.7925C45.1391 12.6917 45.3658 12.6581 45.5615 12.6581C45.7739 12.6581 46.0839 12.6912 46.3025 12.8021V11.4227C46.3025 11.4227 45.8596 11.2868 45.4186 11.3435ZM37.8627 18.9773C37.2474 18.9773 36.7493 19.4635 36.7493 20.0639C36.7493 20.338 36.8541 20.5881 37.0265 20.7791H38.6981C38.8709 20.5881 38.9762 20.338 38.9762 20.0639C38.9762 19.464 38.4776 18.9773 37.8627 18.9773ZM27.2883 25.0671C27.2883 25.0671 27.4221 27.0782 25.169 27.0782C22.9164 27.0782 23.0512 25.0566 23.0512 25.0566V19.8782H21.5034V25.0091C21.5034 27.1545 22.9426 28.5344 25.17 28.5344C27.3969 28.5344 28.8361 27.155 28.8361 25.0196V19.8777H27.2883V25.0671ZM45.0111 25.237C45.0111 24.1024 44.2091 23.2788 43.1038 23.2788C41.9913 23.2788 41.1836 24.1024 41.1836 25.237C41.1836 26.3717 41.9913 27.1953 43.1038 27.1953C44.2091 27.1953 45.0111 26.3717 45.0111 25.237ZM46.4732 25.237C46.4732 27.1171 45.0249 28.5344 43.1038 28.5344C41.1755 28.5344 39.7215 27.1171 39.7215 25.237C39.7215 23.3565 41.1755 21.9392 43.1038 21.9392C45.0249 21.9392 46.4732 23.3565 46.4732 25.237ZM37.1293 22.0102V28.4629H38.5962V22.0102H37.1293ZM34.1255 16.385L34.4494 17.5643L34.2941 17.6416C33.9317 17.8115 33.5783 17.9248 33.0335 17.9248C31.8448 17.9248 31.1061 17.2096 31.1061 16.0577L31.1042 12.5919H29.8822V11.4011H31.1042V9.69237L32.5706 9.3084V11.4011H34.1184V12.5914H32.5696L32.5706 15.8748C32.5706 16.2939 32.8573 16.5823 33.3007 16.6092C33.5469 16.6236 33.7912 16.5535 34.0069 16.445L34.1255 16.385Z" fill="black"/>
</g>
<path fill-rule="evenodd" clip-rule="evenodd" d="M58.018 28.4648L55.5996 19.8806H56.2168L58.6352 28.4648H58.018Z" fill="black"/>
<mask id="mask1_107_10144" style="mask-type:alpha" maskUnits="userSpaceOnUse" x="59" y="19" width="20" height="10">
<path d="M59.0088 19.8779H78.3418V28.6853H59.0088V19.8779Z" fill="white"/>
</mask>
<g mask="url(#mask1_107_10144)">
<path fill-rule="evenodd" clip-rule="evenodd" d="M76.4454 19.8784V25.1782C76.4464 25.1854 76.4845 25.9054 76.0082 26.3988C75.6987 26.7189 75.2343 26.8811 74.6271 26.8811C74.0204 26.8811 73.5556 26.7189 73.247 26.3988C72.7707 25.9058 72.8088 25.1854 72.8093 25.1787L72.8103 19.8784H72.0278L70.9129 23.8765V25.1197C70.9129 26.1775 71.2644 27.0741 71.9297 27.712C72.5936 28.3489 73.5265 28.6858 74.6276 28.6858C75.7277 28.6858 76.6611 28.3489 77.325 27.712C77.9903 27.0741 78.3418 26.1775 78.3418 25.1197V19.8779H76.4454V19.8784ZM70.9129 19.8784L68.5184 28.4626H66.7815L64.967 22.7721L63.1526 28.4626H61.4271L59.0088 19.8784H60.8914L62.3715 25.3112L64.1012 19.8779H65.8433L67.6045 25.351L69.0522 19.8784H70.9129Z" fill="black"/>
</g>
<path fill-rule="evenodd" clip-rule="evenodd" d="M59.7232 28.4648L57.3053 19.8806H57.9225L60.3404 28.4648H59.7232Z" fill="black"/>
</svg>
