<svg width="83" height="38" viewBox="0 0 83 38" fill="none" xmlns="http://www.w3.org/2000/svg">
<rect x="0.572021" y="0.571533" width="81.7425" height="36.569" rx="6.45336" fill="#002A6C"/>
<path d="M30.1625 18.3267C31.928 18.9152 32.9301 19.9332 33.0573 21.6987C33.2005 23.6552 32.3575 25.1185 30.7828 26.2001C29.8762 26.8363 28.8423 27.218 27.7607 27.4089C25.7088 27.7907 23.6411 27.8066 21.5893 27.4725C19.5215 27.1385 18.6149 25.882 19.0602 23.8142C19.9828 19.5515 20.9689 15.2887 21.9392 11.0419C22.0187 10.7079 22.1141 10.4534 22.5436 10.4216C24.8658 10.2148 27.1722 9.86486 29.5103 10.2625C30.3692 10.4057 31.1963 10.6124 31.9598 10.9942C34.6002 12.2984 34.8706 15.4478 32.5324 17.2133C31.8644 17.7064 31.1168 18.0245 30.1625 18.3267ZM24.0865 19.9491C23.7842 21.3329 23.4979 22.6054 23.2116 23.8619C23.1003 24.3391 23.1639 24.7208 23.7365 24.7527C25.0726 24.8163 26.4087 24.7527 27.6016 24.0528C28.5083 23.5279 28.89 22.7008 28.7628 21.651C28.6355 20.649 27.9197 20.2513 27.0449 19.9809C26.0747 19.6946 24.9238 19.6025 24.0865 19.9491ZM26.7179 12.8747C25.8208 12.8747 25.8361 12.6166 25.5816 13.4755C25.3112 14.4298 25.1203 15.416 24.8977 16.4021C24.8181 16.7361 24.9295 17.0384 25.2953 17.0543C26.7268 17.1338 28.1583 17.1497 29.3195 16.1317C30.4488 15.1456 30.0988 13.6186 28.6673 13.1574C28.1583 13.0142 27.6149 12.8747 26.7179 12.8747Z" fill="white"/>
<path d="M64.6925 13.2361C63.8813 11.0093 61.8294 10.4844 59.7299 10.2776C57.7894 10.0868 55.8329 10.1822 53.8924 10.4049C53.2244 10.4844 52.8904 10.7389 52.7313 11.4388C51.5861 16.6558 50.3932 21.8729 49.2321 27.09C49.1843 27.2809 49.0889 27.4877 49.3434 27.7262H50.8703C52.8108 27.7262 53.3835 27.265 53.8129 25.3881C54.0674 24.2747 54.3219 23.1454 54.5605 22.0638C54.9581 21.9206 55.2762 22.032 55.5944 22.0479C58.3938 22.1433 61.05 21.6821 63.1019 19.5825C64.8515 17.8011 65.5832 15.6379 64.6925 13.2361ZM61.1932 16.0196C60.8114 17.8329 59.2527 18.9622 57.1054 18.9781C55.7057 18.9781 55.5784 18.819 55.8807 17.4034C56.1352 16.2423 56.4056 15.0971 56.6123 13.936C56.7078 13.3633 56.9941 13.1407 57.5508 13.1407C58.1393 13.1248 58.7278 13.093 59.3163 13.2043C60.8433 13.4906 61.5113 14.4927 61.1932 16.0196Z" fill="white"/>
<path d="M48.9956 10.5796C45.3214 9.24355 41.7903 9.48213 38.7523 12.1066C35.8416 14.6197 34.919 17.9599 35.2849 21.7137C35.4917 23.8609 36.3983 25.6583 38.3229 26.7558C40.7724 28.1555 43.3968 28.2032 46.0372 27.4238C46.6257 27.2489 47.071 26.8353 47.2301 26.215C47.4687 25.2766 47.6755 24.3381 47.914 23.2724C47.0869 23.7178 46.4189 24.1313 45.6554 24.3699C43.2537 25.1175 40.8519 24.195 40.0089 22.1908C38.8478 19.4232 40.502 15.0651 43.2537 13.7926C45.5123 12.7587 47.6914 13.22 49.8705 14.4288C49.9977 13.9517 50.1249 13.5222 50.2363 13.0927C50.5544 11.7726 50.284 11.0568 48.9956 10.5796Z" fill="white"/>
<path d="M12.0927 11.8835C14.2558 12.981 15.9896 14.5557 17.262 16.5916C18.0414 17.8482 17.946 19.232 17.0712 20.4408C15.2738 22.954 12.8879 24.799 10.1203 26.0715C8.25936 26.9304 6.20752 25.9283 5.41223 23.9083C6.52563 23.3198 7.63904 22.7154 8.65701 21.9678C10.184 20.8544 11.5041 19.566 12.1563 17.7369C13.047 15.7805 13.1265 13.824 12.0927 11.8835Z" fill="#FF4C00"/>
<path d="M71.7422 11.8835C73.9054 12.9651 75.6391 14.5716 76.9275 16.5916C77.7069 17.8164 77.6433 19.1684 76.8003 20.3613C74.987 22.938 72.5534 24.8149 69.7222 26.1033C67.8771 26.9304 65.873 25.9124 65.0936 23.9401C66.1434 23.3675 67.2091 22.7949 68.1793 22.0791C69.754 20.9339 71.1537 19.6296 71.8218 17.7369C72.7284 15.7646 72.792 13.8081 71.7422 11.8835Z" fill="#FF4C00"/>
<path d="M12.0955 11.8846C13.1296 13.8256 13.0341 15.7665 12.1432 17.7234C10.7909 16.2597 9.10449 15.2574 7.32263 14.4619C8.26129 11.9323 10.3932 10.8187 12.0955 11.8846Z" fill="white"/>
<path d="M71.7418 11.882C72.7919 13.8229 72.7282 15.7639 71.8055 17.7367C70.4691 16.273 68.7986 15.2866 66.9213 14.4434C67.5417 13.0434 68.4327 12.0252 69.8327 11.5002C70.5486 11.2138 71.1691 11.4206 71.7418 11.882Z" fill="white"/>
</svg>
