<svg width="82" height="38" viewBox="0 0 82 38" fill="none" xmlns="http://www.w3.org/2000/svg">
<rect x="0.24231" y="0.571533" width="81.7425" height="36.569" rx="6.45336" fill="#26A17B"/>
<path d="M31.9713 18.0649C31.9713 26.0841 25.4704 32.585 17.4512 32.585C9.43207 32.585 2.93121 26.0842 2.93121 18.0649C2.93121 10.0457 9.43207 3.54486 17.4512 3.54486C25.4704 3.54486 31.9713 10.0457 31.9713 18.0649Z" fill="#26A17B" stroke="white" stroke-width="1.07556"/>
<path d="M19.4605 18.7847V18.7822C19.3538 18.7895 18.8034 18.8212 17.5786 18.8212C16.5993 18.8212 15.9126 18.7944 15.6696 18.7822V18.7847C11.9035 18.6211 9.09444 17.9768 9.09444 17.2032C9.09444 16.432 11.906 15.7853 15.6696 15.6219V18.1428C15.915 18.1598 16.6216 18.2014 17.596 18.2014C18.7663 18.2014 19.3514 18.1525 19.4605 18.1428V15.6243C23.2191 15.7903 26.0208 16.4346 26.0208 17.2056C26.0208 17.9768 23.2166 18.6211 19.4605 18.7871V18.7847ZM19.4605 15.3632V13.1083H24.7043V9.66968H10.4283V13.1083H15.672V15.3632C11.4101 15.5559 8.20679 16.3857 8.20679 17.3814C8.20679 18.3771 11.4125 19.2068 15.672 19.4021V26.6305H19.4629V19.4021C23.7175 19.2092 26.9158 18.3795 26.9158 17.3838C26.9158 16.3906 23.7175 15.5584 19.4629 15.3656" fill="#F7F7FC"/>
<path d="M39.957 16.1361C38.7093 16.1361 37.737 15.7877 37.0401 15.0907C36.3431 14.3851 35.9946 13.3784 35.9946 12.0705V6.97238H37.6725V12.006C37.6725 13.7785 38.4383 14.6648 39.9699 14.6648C41.4929 14.6648 42.2544 13.7785 42.2544 12.006V6.97238H43.9064V12.0705C43.9064 13.3784 43.558 14.3851 42.861 15.0907C42.1726 15.7877 41.2046 16.1361 39.957 16.1361ZM49.057 16.1361C48.3601 16.1361 47.6846 16.0372 47.0307 15.8393C46.3853 15.6414 45.8734 15.379 45.4948 15.052L46.0756 13.7484C46.4456 14.041 46.8973 14.2819 47.4308 14.4712C47.9729 14.6519 48.515 14.7422 49.057 14.7422C49.7282 14.7422 50.2272 14.6347 50.5542 14.4196C50.8898 14.2044 51.0576 13.9205 51.0576 13.5677C51.0576 13.3096 50.9629 13.0988 50.7736 12.9353C50.5929 12.7632 50.3606 12.6298 50.0767 12.5352C49.7927 12.4405 49.4055 12.333 48.9151 12.2125C48.2267 12.049 47.6674 11.8855 47.2372 11.7221C46.8156 11.5586 46.4499 11.3047 46.1401 10.9606C45.839 10.6078 45.6884 10.1345 45.6884 9.54082C45.6884 9.04176 45.8217 8.59002 46.0885 8.18561C46.3638 7.7726 46.7725 7.44563 47.3146 7.2047C47.8653 6.96378 48.5365 6.84331 49.3281 6.84331C49.8788 6.84331 50.4208 6.91215 50.9543 7.04982C51.4878 7.18749 51.9481 7.3854 52.3353 7.64353L51.8062 8.94711C51.4104 8.71479 50.9973 8.5384 50.5671 8.41793C50.1369 8.29747 49.7196 8.23724 49.3152 8.23724C48.6526 8.23724 48.1579 8.3491 47.8309 8.57281C47.5125 8.79653 47.3533 9.09338 47.3533 9.46338C47.3533 9.72151 47.4437 9.93232 47.6244 10.0958C47.8137 10.2593 48.0503 10.3884 48.3343 10.483C48.6182 10.5777 49.0054 10.6852 49.4959 10.8057C50.167 10.9606 50.7177 11.124 51.1479 11.2961C51.5781 11.4596 51.9438 11.7134 52.245 12.0576C52.5548 12.4018 52.7096 12.8664 52.7096 13.4516C52.7096 13.9506 52.572 14.4023 52.2966 14.8068C52.0299 15.2112 51.6212 15.5338 51.0705 15.7748C50.5198 16.0157 49.8486 16.1361 49.057 16.1361ZM54.3734 6.97238H58.3228C59.2865 6.97238 60.1427 7.16168 60.8913 7.54028C61.6399 7.91027 62.2207 8.43944 62.6337 9.1278C63.0467 9.80756 63.2532 10.5949 63.2532 11.4897C63.2532 12.3846 63.0467 13.1762 62.6337 13.8646C62.2207 14.5443 61.6399 15.0735 60.8913 15.4521C60.1427 15.8221 59.2865 16.0071 58.3228 16.0071H54.3734V6.97238ZM58.2454 14.5873C58.9079 14.5873 59.4887 14.4626 59.9878 14.213C60.4955 13.9549 60.8827 13.5935 61.1494 13.1289C61.4248 12.6556 61.5624 12.1093 61.5624 11.4897C61.5624 10.8702 61.4248 10.3281 61.1494 9.86349C60.8827 9.39024 60.4955 9.02885 59.9878 8.77932C59.4887 8.52119 58.9079 8.39212 58.2454 8.39212H56.0513V14.5873H58.2454ZM66.7433 8.39212H63.7489V6.97238H71.4155V8.39212H68.4211V16.0071H66.7433V8.39212Z" fill="white"/>
<path d="M42.8693 28.298V29.7048H36.0933V20.6701H42.6886V22.077H37.7712V24.426H42.1337V25.807H37.7712V28.298H42.8693ZM50.6511 29.7048L48.8054 27.059C48.728 27.0676 48.6118 27.0719 48.4569 27.0719H46.4177V29.7048H44.7398V20.6701H48.4569C49.2399 20.6701 49.9197 20.7992 50.4962 21.0573C51.0813 21.3155 51.5287 21.6855 51.8385 22.1673C52.1483 22.6492 52.3031 23.2214 52.3031 23.8839C52.3031 24.5637 52.1353 25.1488 51.7998 25.6392C51.4728 26.1297 50.9996 26.4954 50.38 26.7363L52.458 29.7048H50.6511ZM50.6124 23.8839C50.6124 23.3074 50.4231 22.8643 50.0445 22.5545C49.6659 22.2448 49.1109 22.0899 48.3795 22.0899H46.4177V25.6908H48.3795C49.1109 25.6908 49.6659 25.536 50.0445 25.2262C50.4231 24.9078 50.6124 24.4604 50.6124 23.8839ZM58.3621 29.8339C57.4501 29.8339 56.624 29.636 55.884 29.2402C55.1527 28.8358 54.5762 28.2808 54.1545 27.5752C53.7415 26.8697 53.535 26.0737 53.535 25.1875C53.535 24.3012 53.7458 23.5053 54.1674 22.7997C54.5891 22.0942 55.1656 21.5435 55.8969 21.1477C56.6369 20.7433 57.463 20.5411 58.375 20.5411C59.115 20.5411 59.7905 20.6701 60.4014 20.9283C61.0123 21.1864 61.5286 21.5607 61.9502 22.0512L60.866 23.0708C60.2121 22.3652 59.4076 22.0124 58.4525 22.0124C57.833 22.0124 57.278 22.1501 56.7875 22.4254C56.2971 22.6922 55.9142 23.0665 55.6388 23.5483C55.3635 24.0302 55.2258 24.5766 55.2258 25.1875C55.2258 25.7984 55.3635 26.3448 55.6388 26.8266C55.9142 27.3085 56.2971 27.6871 56.7875 27.9624C57.278 28.2292 57.833 28.3625 58.4525 28.3625C59.4076 28.3625 60.2121 28.0055 60.866 27.2913L61.9502 28.3238C61.5286 28.8143 61.008 29.1886 60.3885 29.4467C59.7776 29.7048 59.1021 29.8339 58.3621 29.8339ZM69.3932 28.2851V29.7048H62.7334V28.582L66.3214 25.1746C66.7258 24.7874 66.9969 24.4518 67.1346 24.1679C67.2808 23.8753 67.354 23.5871 67.354 23.3031C67.354 22.8815 67.212 22.5588 66.9281 22.3351C66.6441 22.1114 66.2268 21.9995 65.6761 21.9995C64.7554 21.9995 64.0499 22.3136 63.5594 22.9417L62.3849 22.0382C62.7377 21.565 63.2109 21.1993 63.8046 20.9412C64.4069 20.6744 65.0781 20.5411 65.8181 20.5411C66.799 20.5411 67.582 20.7734 68.1671 21.238C68.7522 21.7027 69.0448 22.3351 69.0448 23.1353C69.0448 23.6258 68.9415 24.0861 68.735 24.5163C68.5285 24.9466 68.1327 25.437 67.5476 25.9877L65.134 28.2851H69.3932ZM74.0926 29.8339C73.3698 29.8339 72.7245 29.6532 72.1566 29.2918C71.5887 28.9218 71.1413 28.3883 70.8143 27.6914C70.4873 26.9858 70.3238 26.1512 70.3238 25.1875C70.3238 24.2238 70.4873 23.3935 70.8143 22.6965C71.1413 21.9909 71.5887 21.4574 72.1566 21.0961C72.7245 20.7261 73.3698 20.5411 74.0926 20.5411C74.8154 20.5411 75.4607 20.7261 76.0286 21.0961C76.6051 21.4574 77.0568 21.9909 77.3838 22.6965C77.7108 23.3935 77.8743 24.2238 77.8743 25.1875C77.8743 26.1512 77.7108 26.9858 77.3838 27.6914C77.0568 28.3883 76.6051 28.9218 76.0286 29.2918C75.4607 29.6532 74.8154 29.8339 74.0926 29.8339ZM74.0926 28.3754C74.7379 28.3754 75.2456 28.1087 75.6156 27.5752C75.9942 27.0417 76.1835 26.2458 76.1835 25.1875C76.1835 24.1291 75.9942 23.3332 75.6156 22.7997C75.2456 22.2663 74.7379 21.9995 74.0926 21.9995C73.4559 21.9995 72.9482 22.2663 72.5696 22.7997C72.1996 23.3332 72.0146 24.1291 72.0146 25.1875C72.0146 26.2458 72.1996 27.0417 72.5696 27.5752C72.9482 28.1087 73.4559 28.3754 74.0926 28.3754Z" fill="white"/>
</svg>
