<svg width="82" height="37" viewBox="0 0 82 37" fill="none" xmlns="http://www.w3.org/2000/svg">
<rect x="0.0152588" width="81.7425" height="36.569" rx="6.45336" fill="#FFCE00"/>
<path fill-rule="evenodd" clip-rule="evenodd" d="M28.1125 21.4897C26.6655 22.8166 25.0793 24.0009 23.4449 25.074C20.0476 27.3046 16.2583 29.1907 12.4939 30.6851C11.2485 31.1795 9.77372 31.4653 8.53092 30.8046C7.7141 30.3703 7.17628 29.6154 6.8914 28.7357C6.68036 28.084 6.5894 27.3176 6.47037 26.6379C5.50747 21.1399 5.92275 14.7275 7.00675 9.24282C7.27561 7.88225 7.90984 6.04608 9.32387 5.55778C10.0028 5.32339 10.772 5.33703 11.4679 5.48692C11.6967 5.53619 11.8968 5.6061 12.1146 5.68892C16.7462 7.44996 20.8911 9.64907 24.7869 12.7701C25.8901 13.6539 27.0989 14.572 28.1125 15.5582C28.7736 16.2014 29.3853 16.9305 29.5489 17.8778C29.5935 18.1366 29.6027 18.3979 29.5831 18.6596C29.5051 19.7036 28.9586 20.8597 28.1125 21.4897H28.1125Z" fill="#FEFEFE"/>
<path fill-rule="evenodd" clip-rule="evenodd" d="M7.90233 28.3422C8.23531 29.3728 9.23411 30.8634 12.2091 29.6795C16.5084 27.9686 22.9331 24.8359 27.4044 20.7095C27.4044 20.7095 28.4047 19.9976 28.5101 18.5832C28.6155 17.1689 27.5397 16.3187 24.1248 13.5761C20.7642 10.8771 16.9994 8.66554 11.8466 6.70154C11.6644 6.63211 11.5338 6.58267 11.3411 6.54107C10.9864 6.46449 10.319 6.37263 9.71609 6.5813C8.84396 6.88325 8.30335 8.2042 8.04543 9.51256C7.79972 10.7588 6.2053 18.876 7.51895 26.3955C7.61144 26.9253 7.74397 27.8519 7.90237 28.3422H7.90233Z" fill="#FFB700"/>
<path fill-rule="evenodd" clip-rule="evenodd" d="M8.42908 8.00445L8.42904 8.00449C8.27843 8.52039 8.15168 9.18851 8.08203 10.053L8.08417 10.0294C8.96165 9.73172 10.2101 9.61625 11.9805 9.83423C17.6358 10.5306 23.4424 13.7148 26.5901 15.6275L27.4421 16.1334C27.2186 15.918 26.958 15.6866 26.657 15.4325L26.6569 15.4325L26.5963 15.3815L26.5656 15.3558C26.5026 15.303 26.4393 15.2505 26.3758 15.1982L26.3433 15.1713L26.2773 15.1171L26.2439 15.0898L26.2102 15.0623L26.142 15.0067L26.1074 14.9787L26.0375 14.9221L26.0022 14.8935L25.9306 14.8358L25.8943 14.8067L25.821 14.7479L25.784 14.7182L25.7466 14.6884L25.709 14.6583L25.6711 14.6281L25.6328 14.5977L25.5555 14.5362L25.5164 14.5052L25.477 14.4739L25.4373 14.4425L25.3974 14.4109L25.3165 14.3469L25.2756 14.3147L25.2345 14.2822L25.1989 14.2541L25.193 14.2495L25.1513 14.2166L25.1092 14.1835L25.0669 14.1501L25.0598 14.1446L25.0242 14.1166L24.9812 14.0828L24.938 14.0488L24.9175 14.0326L24.8944 14.0146L24.8505 13.9802L24.8063 13.9455L24.7718 13.9183L24.7619 13.9105L24.7171 13.8754L24.672 13.8401L24.6266 13.8045L24.6228 13.8015L24.5809 13.7687L24.5349 13.7326L24.4886 13.6963L24.4704 13.6822L24.4419 13.6598L24.3949 13.623L24.3477 13.586L24.3147 13.5601L24.3001 13.5487L24.2522 13.5113L24.204 13.4735L24.1555 13.4355C20.7776 10.7898 16.9932 8.62189 11.8138 6.69664C11.6307 6.62859 11.4994 6.58012 11.3057 6.53934C10.9492 6.46427 10.2783 6.37423 9.6723 6.57878C9.66025 6.58285 9.64827 6.58717 9.63643 6.59162L9.62773 6.59489C9.61609 6.59934 9.6045 6.60391 9.59299 6.6087L9.58795 6.61088C9.57648 6.61566 9.56505 6.62066 9.55375 6.62582L9.55039 6.62733C9.53888 6.63261 9.52749 6.63815 9.51611 6.64378L9.50804 6.6478C9.49701 6.65331 9.48608 6.65899 9.47523 6.66484L9.46809 6.66878C9.4583 6.67411 9.44855 6.67957 9.43885 6.68515L9.43284 6.68859C9.42209 6.69492 9.41142 6.70139 9.40083 6.70797L9.39264 6.71309C9.38192 6.71981 9.3713 6.72665 9.36075 6.73369L9.35466 6.73781C9.34521 6.74414 9.3358 6.75065 9.32643 6.75728L9.32017 6.76164C9.30983 6.76903 9.29958 6.77658 9.28938 6.78421L9.28135 6.79034C9.27102 6.79819 9.26077 6.80608 9.2506 6.81417L9.24963 6.81497L9.2485 6.81594C9.23804 6.82429 9.22766 6.8328 9.21737 6.84149L9.21208 6.84594C9.20191 6.85454 9.19174 6.86331 9.18174 6.8722L9.17515 6.87808C9.1657 6.88651 9.15633 6.89503 9.147 6.90372L9.14444 6.90607L9.14368 6.90678L9.14339 6.90703C9.13356 6.91622 9.12377 6.92566 9.11402 6.93514L9.10705 6.94198C9.0973 6.95159 9.08756 6.96133 9.07785 6.97127L9.0739 6.97534C9.065 6.98457 9.05605 6.99393 9.04718 7.00341L9.04193 7.00895C9.03261 7.01898 9.02341 7.02922 9.01416 7.03946L9.00744 7.04701C8.99807 7.05758 8.9887 7.06824 8.97946 7.07902L8.97547 7.08372C8.96715 7.09358 8.95879 7.10349 8.95056 7.11351L8.94472 7.12056C8.9359 7.13135 8.92716 7.14226 8.91842 7.15325L8.91166 7.16189C8.90301 7.1729 8.89444 7.18396 8.88595 7.19509L8.88431 7.19727L8.88196 7.20046C8.87418 7.21078 8.86641 7.22118 8.85877 7.23163L8.85129 7.24183C8.84322 7.25299 8.83516 7.26423 8.82717 7.27552L8.8194 7.28664C8.81108 7.29856 8.80281 7.31052 8.79462 7.32256L8.79445 7.32281L8.42908 8.00445ZM8.91577 7.47202C8.90544 7.47987 8.89515 7.48775 8.88502 7.49585L8.91577 7.47202ZM8.577 7.81966C8.56839 7.83065 8.55982 7.84169 8.55129 7.85285L8.577 7.81966ZM8.5105 7.91121C8.50218 7.92313 8.4939 7.93509 8.48571 7.94713L8.5105 7.91121ZM8.48382 7.95137L8.47949 7.958C8.47101 7.97105 8.46252 7.98418 8.45416 7.99744L8.45021 8.00365C8.44198 8.01678 8.43383 8.02996 8.42572 8.04326L8.42463 8.04498L8.42345 8.04691C8.41534 8.06025 8.40732 8.07372 8.3993 8.08723L8.39535 8.09391C8.38711 8.10796 8.37892 8.12206 8.37081 8.13624L8.36703 8.14296L8.34716 8.17837L8.34132 8.1889C8.33401 8.20225 8.3267 8.21576 8.31948 8.22923L8.31393 8.23959L8.29297 8.27949L8.29087 8.28352L8.28835 8.28847L8.26839 8.32775L8.26402 8.33639C8.25705 8.35036 8.25012 8.36438 8.24327 8.37844L8.23793 8.38947C8.23087 8.40411 8.22377 8.41876 8.21684 8.43353L8.21604 8.43521L8.21571 8.43592C8.20886 8.45052 8.2021 8.46525 8.19533 8.47994L8.18975 8.4921L8.16988 8.53633L8.16584 8.54552L8.48382 7.95137ZM8.55587 7.79532C8.54881 7.80996 8.54175 7.82461 8.53478 7.83938L8.55587 7.79532Z" fill="#FFDF77"/>
<path fill-rule="evenodd" clip-rule="evenodd" d="M8.14083 9.99449C9.00502 9.69049 10.2346 9.57256 11.9781 9.79518C17.5478 10.5064 23.2665 13.7584 26.3665 15.7117C23.7724 23.4802 12.3916 29.04 12.3916 29.04C11.0297 27.6294 9.71641 26.3195 8.45176 16.5964C8.06714 13.6391 8.02022 11.5173 8.14083 9.99449Z" fill="#FFCE00"/>
<path d="M34.885 6.60522C36.1468 6.44142 37.4217 6.44649 38.6915 6.45869C39.5357 6.47903 40.411 6.69679 41.098 7.21371C41.6758 7.66446 41.6999 8.47439 41.6668 9.14999C41.6117 10.2916 41.3884 11.5228 40.5562 12.3602C39.8682 13.0938 38.8868 13.4795 37.9073 13.5751C36.968 13.7044 36.0136 13.7379 35.0722 13.6047C34.8419 14.5296 34.6065 15.4535 34.4282 16.3906C34.3792 16.6643 34.2701 16.9899 33.9676 17.0581C33.6111 17.1222 33.2476 17.0459 32.8891 17.0723C32.6727 17.0703 32.4424 17.117 32.2381 17.0245C32.0448 16.9085 32.166 16.6551 32.171 16.4761C32.4324 15.1676 32.6947 13.8601 32.9632 12.5526C33.0393 12.173 33.1004 11.7885 33.2346 11.4242C34.255 11.4038 35.2765 11.416 36.298 11.415C36.4602 11.3977 36.6044 11.4791 36.7447 11.5504C36.6836 11.8465 36.6375 12.1446 36.6275 12.4478C37.1523 12.1537 37.5979 11.7417 38.0656 11.3652C38.5883 10.9124 39.1151 10.4606 39.5858 9.95083C38.8998 9.0788 38.1958 8.22006 37.4988 7.3572C37.2985 7.64619 37.4106 8.12542 37.0712 8.30453C36.5844 8.41337 36.0787 8.335 35.585 8.33807C34.9982 8.30245 34.4043 8.42354 33.8264 8.27701C33.8465 7.81509 33.8715 7.32258 34.1089 6.91658C34.2741 6.65814 34.6166 6.65507 34.885 6.60522ZM43.1329 9.67098C44.1124 9.42167 45.1859 9.32499 46.1463 9.70858C46.64 9.89787 47.0346 10.3354 47.1477 10.8635C47.3771 11.7843 47.0466 12.7061 46.9194 13.6158C46.7842 14.559 46.608 15.4961 46.4518 16.4374C46.4017 16.7609 46.2585 17.1252 45.91 17.2097C44.9476 17.464 43.9381 17.5383 42.9467 17.4722C42.2517 17.404 41.4595 17.2514 41.0269 16.6338C40.5943 16.0243 40.7004 15.2164 40.8627 14.5296C41.0089 13.8621 41.4585 13.2445 42.1075 13.0125C42.9046 12.7205 43.7699 12.753 44.6051 12.698C44.8153 12.6706 45.0678 12.7154 45.243 12.5648C45.3792 12.2198 45.4263 11.8158 45.3182 11.4567C45.1599 11.0558 44.6702 11.0049 44.3007 11.0253C43.5245 11.0222 42.7824 11.2603 42.0534 11.5015C41.9702 11.0996 41.8451 10.6345 42.0835 10.2611C42.3087 9.89276 42.7474 9.77678 43.1329 9.67098ZM42.6392 14.6761C42.5611 14.9884 42.4509 15.3456 42.6012 15.6519C42.9517 16.0975 43.5786 16.1799 44.1024 16.0894C44.3638 16.0508 44.7503 15.9907 44.7663 15.6498C44.8044 15.0973 45.0307 14.555 44.9345 13.9984C44.3587 13.9679 43.7728 13.9465 43.2061 14.0707C42.9186 14.1358 42.7194 14.4024 42.6392 14.6761ZM50.1181 9.74117C51.3709 9.27415 52.7388 9.46339 54.0197 9.70252C54.2581 9.76661 54.5415 9.76458 54.7297 9.9498C54.8599 10.1299 54.7979 10.3619 54.7698 10.5633C54.3301 13.0043 53.9426 15.4545 53.4659 17.8873C53.3177 18.6087 52.9852 19.3668 52.3193 19.7331C51.5281 20.1777 50.5897 20.1218 49.7155 20.1391C48.9123 20.1502 48.039 19.9712 47.4542 19.375C47.3 19.0107 47.5394 18.6393 47.6655 18.3065C47.8528 18.3168 48.042 18.33 48.2243 18.3819C49.1416 18.6454 50.1221 18.6963 51.0624 18.5467C51.5662 18.4226 51.6643 17.8355 51.7064 17.3918C50.817 17.516 49.8627 17.575 49.0325 17.1608C48.3525 16.8352 47.8788 16.127 47.8217 15.367C47.7246 14.0015 47.993 12.6259 48.4827 11.357C48.7691 10.6122 49.374 10.0068 50.1181 9.74125V9.74117ZM51.461 10.9479C50.9553 11.0435 50.5026 11.362 50.2182 11.7924C49.9839 12.1638 49.9158 12.6095 49.8207 13.0308C49.6755 13.7908 49.5222 14.5753 49.6554 15.3476C49.7045 15.6794 50.028 15.8554 50.3214 15.9225C50.8401 16.0385 51.386 15.9714 51.8957 15.8371C52.067 15.8015 52.073 15.6 52.111 15.4626C52.3353 14.1918 52.5366 12.9178 52.761 11.6469C52.78 11.4781 52.8351 11.2949 52.7509 11.1341C52.3674 10.9082 51.8916 10.8665 51.4611 10.9479H51.461ZM58.358 9.48373C59.1341 9.35347 59.9703 9.4308 60.6663 9.82356C61.3553 10.2275 61.804 10.9947 61.84 11.7995C61.8841 12.7224 61.7028 13.6402 61.4805 14.5295C61.2832 15.2754 60.9758 16.0222 60.405 16.5543C59.4225 17.521 57.8863 17.7245 56.6204 17.2961C55.9194 17.0631 55.4267 16.4109 55.2505 15.7017C54.919 14.4684 55.1964 13.1691 55.5719 11.9796C55.9465 10.7026 57.0741 9.72074 58.358 9.48368L58.358 9.48373ZM58.375 11.1626C57.8793 11.3091 57.4888 11.7294 57.3305 12.2228C57.0661 13.0297 56.9079 13.8794 56.9029 14.731C56.9139 15.0546 56.967 15.429 57.2373 15.6406C57.5959 15.9296 58.0926 15.892 58.5172 15.8156C58.9318 15.7475 59.2513 15.4229 59.4256 15.0505C59.8412 14.1989 59.9804 13.2384 60.0134 12.2971C60.0324 11.9268 59.9413 11.4994 59.6159 11.2847C59.2553 11.0263 58.7806 11.0446 58.375 11.1627V11.1626ZM11.3959 14.0371C11.6292 13.3055 11.8726 12.5769 12.109 11.8474C13.9927 11.8474 15.8754 11.8464 17.7591 11.8474C18.7115 11.8464 19.7009 12.0967 20.445 12.7265C21.0209 13.1895 21.3694 13.8926 21.5035 14.6161C21.796 16.1698 21.3583 17.8721 20.2738 19.0208C19.2954 20.0922 17.8783 20.6549 16.4673 20.8014C15.2615 20.9134 14.0498 20.8228 12.844 20.7719C12.4966 22.1985 12.2151 23.6423 11.8886 25.0749C10.9783 25.0343 10.068 24.9793 9.15771 24.963C9.60037 22.7082 10.1151 20.4677 10.5607 18.2129C12.0659 18.1946 13.5712 18.2098 15.0763 18.2058C15.0813 18.6758 15.0793 19.1469 15.0793 19.6181C16.3442 18.5283 17.5749 17.3999 18.8307 16.299C17.8984 15.1075 16.949 13.9282 16.0277 12.7276C15.9014 13.1569 15.7843 13.5894 15.6812 14.0249C14.2531 14.0452 12.825 14.0229 11.396 14.0371L11.3959 14.0371ZM40.1206 18.5243C40.9358 18.1051 41.9061 18.1112 42.7714 18.3564C42.7925 18.7389 42.8335 19.1938 42.5762 19.5072C42.1425 19.7218 41.6037 19.557 41.1831 19.8144C40.8536 20.1095 40.9237 20.6132 40.8617 21.0131C41.3183 21.0701 41.784 21.0192 42.2366 21.1209C42.3097 21.5228 42.3338 22.0122 42.0514 22.3358C41.6508 22.5912 41.142 22.4671 40.6944 22.5169C40.5812 22.6899 40.4851 22.8771 40.4601 23.0878C40.1186 25.022 39.7971 26.9593 39.4546 28.8936C39.3104 29.554 39.1562 30.2937 38.6014 30.7312C38.0345 31.181 37.2674 31.2095 36.5794 31.1851C36.298 31.1505 35.9375 31.18 35.7583 30.9104C35.6871 30.5451 35.8104 30.1829 35.9325 29.843C36.321 29.7647 36.7297 29.843 37.1102 29.724C37.5128 29.5836 37.5939 29.1063 37.666 28.737C37.9304 27.0734 38.2248 25.4138 38.5173 23.7543C38.5754 23.3696 38.6845 22.9861 38.6665 22.5943C38.2919 22.4518 37.8123 22.576 37.5229 22.2423C37.2875 21.9574 37.3956 21.5229 37.5559 21.2258C37.8804 20.8829 38.3931 21.1759 38.7887 21.0457C39.0701 20.8829 39.076 20.5105 39.1391 20.2246C39.2413 19.5673 39.5127 18.855 40.1206 18.5243V18.5243ZM60.8116 19.2213C60.8897 18.9017 60.8937 18.4582 61.2342 18.3035C61.7249 18.2505 62.2226 18.279 62.7173 18.2739C62.9217 18.8478 62.6923 19.441 62.5481 19.9986C62.0574 20.1268 61.5326 20.1136 61.0349 20.0393C60.6774 19.9477 60.7745 19.495 60.8116 19.2212V19.2213ZM33.1885 18.6271C34.4153 18.4062 35.6711 18.4744 36.9019 18.6209C37.0561 18.6413 37.2074 18.6871 37.3576 18.7308C37.4286 19.1165 37.4246 19.5336 37.2524 19.8928C37.1313 20.1442 36.8288 20.1726 36.5875 20.1818C35.7673 20.1981 34.9471 20.1645 34.1269 20.194C33.7564 20.2134 33.3117 20.3192 33.1605 20.7119C32.8851 21.3743 32.853 22.1069 32.7429 22.811C33.8595 22.81 34.9761 22.8069 36.0927 22.81C36.275 22.8008 36.5804 22.8445 36.5564 23.0959C36.5554 23.4174 36.4933 23.7379 36.3972 24.0442C36.315 24.2955 36.0356 24.3962 35.7953 24.384C34.8229 24.3901 33.8495 24.3738 32.8761 24.386C32.6197 24.3596 32.3813 24.5498 32.3693 24.8164C32.2912 25.4921 32.0869 26.1687 32.155 26.8514C32.186 27.2126 32.5746 27.3235 32.8741 27.3337C33.8174 27.3551 34.7628 27.3184 35.7062 27.3561C35.9185 27.3633 35.8834 27.6258 35.9215 27.7774C35.9746 28.1864 35.8644 28.7735 35.3797 28.8386C33.9997 28.9872 32.5306 29.2274 31.2026 28.6779C30.5667 28.4235 30.2843 27.7113 30.2062 27.0682C30.1151 26.5228 30.2613 25.9826 30.3484 25.4473C30.5888 24.0483 30.8301 22.6502 31.0875 21.2552C31.2087 20.6182 31.399 19.9681 31.8156 19.4614C32.1711 19.0473 32.6518 18.7308 33.1886 18.6271H33.1885ZM56.8078 19.8175C57.3355 19.5031 57.9774 19.4675 58.5763 19.4939C58.5933 20.0027 58.4111 20.4921 58.4351 21.0009C58.8256 21.0568 59.2373 21.0192 59.6128 21.1636C59.8481 21.2735 59.8061 21.5828 59.765 21.7945C59.6929 22.0814 59.5877 22.4925 59.2212 22.4823C58.8436 22.5688 58.2007 22.3399 58.0805 22.8639C57.8542 23.9872 57.686 25.1228 57.4897 26.2522C57.4226 26.647 57.3535 27.0428 57.3505 27.4447C57.7481 27.5831 58.1696 27.5434 58.5802 27.5139C58.9337 28.0573 58.6003 28.9282 57.9253 28.9536C57.2663 28.9496 56.5252 29.0808 55.9584 28.6545C55.5328 28.3391 55.4467 27.752 55.5178 27.2544C55.7131 25.6956 56.0656 24.1602 56.2489 22.5984C55.8232 22.4823 55.2975 22.5851 54.97 22.229C54.8018 21.9186 54.8258 21.4649 55.0681 21.1993C55.4797 20.9235 56.0105 21.1555 56.4511 20.9836C56.7425 20.6651 56.5562 20.1554 56.8076 19.8175H56.8078ZM44.8785 21.0416C45.6146 20.9561 46.4337 20.8717 47.0907 21.299C47.9479 21.8362 48.2974 22.927 48.2794 23.9059C48.2524 24.4594 48.3014 25.0291 48.1342 25.5654C47.3661 25.7231 46.5779 25.6254 45.8008 25.6519C45.0527 25.6682 44.3046 25.6194 43.5585 25.6672C43.3443 26.1983 43.4374 26.9065 43.9441 27.2291C44.3317 27.4214 44.7803 27.3898 45.2009 27.3908C45.9851 27.3837 46.7312 27.113 47.4943 26.9686C47.4913 27.455 47.6215 28.1112 47.1458 28.4205C46.6351 28.7085 46.0582 28.8489 45.4974 28.9995C44.6622 29.2152 43.7429 29.1379 42.9878 28.6993C42.3228 28.3473 41.7991 27.6879 41.7169 26.9156C41.5547 25.4148 41.8541 23.8641 42.5532 22.5332C43.0108 21.6663 43.9402 21.1586 44.8785 21.0416H44.8785ZM44.4358 22.9168C44.0363 23.2587 43.873 23.7868 43.8019 24.2956C44.7142 24.3057 45.6305 24.3433 46.5419 24.2721C46.6831 23.857 46.634 23.3859 46.3626 23.0369C45.9219 22.4284 44.9636 22.4263 44.4358 22.9168V22.9168ZM49.9038 22.2575C50.5257 21.3499 51.6563 20.9358 52.7158 20.9785C53.3127 21.005 53.9256 21.121 54.4494 21.4272C54.8499 21.6847 54.5625 22.2107 54.5094 22.578C54.4814 22.9301 54.0538 22.8161 53.8205 22.8161C53.2677 22.8436 52.772 22.3928 52.2211 22.5811C51.7645 22.693 51.3669 23.0288 51.1927 23.4744C50.7981 24.441 50.6279 25.4982 50.6599 26.5432C50.6529 26.8698 50.8241 27.2117 51.1506 27.3053C51.9698 27.5739 52.805 27.233 53.6112 27.0763C53.6383 27.5241 53.6933 28.0166 53.4469 28.4164C53.2297 28.7064 52.8521 28.7908 52.5146 28.8315C52.08 28.8712 51.6474 28.9353 51.2128 28.9781C50.1912 28.9934 49.1688 28.2699 48.9264 27.2423C48.7752 26.4252 48.8553 25.5817 48.9795 24.7667C49.1508 23.8895 49.4001 23.0013 49.9039 22.2575H49.9038ZM72.2972 21.0385C73.0143 20.9408 73.7774 20.9399 74.4584 21.2196C75.2235 21.5961 75.7983 22.4111 75.8244 23.2862C75.9165 24.3607 75.6401 25.4189 75.3477 26.4405C75.1484 27.1344 74.7759 27.7938 74.209 28.2414C73.2536 29.0096 71.9257 29.1887 70.77 28.857C70.095 28.6912 69.5983 28.1132 69.2979 27.5037C68.8763 26.5879 69.1157 25.5572 69.2799 24.6099C69.4582 23.568 69.8477 22.4956 70.6539 21.7874C71.1155 21.3804 71.6954 21.1311 72.2972 21.0385ZM72.4845 22.6309C71.9467 22.7449 71.5201 23.1824 71.3329 23.6962C71.0494 24.4776 70.9183 25.309 70.8642 26.1372C70.8451 26.4598 70.8922 26.8271 71.1496 27.0509C71.6202 27.4467 72.3192 27.4254 72.845 27.1558C73.2486 26.9441 73.4869 26.5168 73.5871 26.0802C73.7674 25.2642 74.0628 24.4513 73.9857 23.6016C73.9727 23.3015 73.8575 22.9911 73.6082 22.8141C73.2797 22.5963 72.862 22.5526 72.4845 22.6309ZM60.5722 21.1627C61.0639 21.0009 61.6027 20.9948 62.1095 21.0873C62.3929 21.1301 62.2807 21.4811 62.2787 21.6785C61.9412 23.7847 61.5406 25.8808 61.1921 27.985C61.138 28.3147 61.128 28.8143 60.7114 28.8774C60.2808 28.9221 59.8181 28.9639 59.4035 28.8092C59.2853 28.6107 59.3324 28.3706 59.3594 28.1559C59.6669 26.3254 59.9713 24.4939 60.2708 22.6624C60.3559 22.1598 60.422 21.6511 60.5722 21.1627ZM63.0659 21.1861C63.184 21.0619 63.3683 21.0711 63.5265 21.0538C63.8901 21.0446 64.2636 21.0161 64.6201 21.1118C64.8124 21.1453 64.7733 21.4048 64.8134 21.5524C64.8876 22.813 64.9306 24.0758 64.9907 25.3385C65.0287 26.0681 65.0307 26.8057 65.204 27.519C65.7007 27.0306 65.8629 26.3286 66.1283 25.7048C66.7342 24.1847 67.304 22.6492 67.957 21.1495C68.4867 21.011 69.0536 21.0131 69.5914 21.0935C69.8627 21.1627 69.7205 21.4893 69.6484 21.6684C68.703 23.7675 67.7957 25.886 66.8393 27.981C66.4298 28.9232 65.223 29.1949 64.3307 28.8866C63.8711 28.7319 63.6758 28.2232 63.6317 27.7734C63.4134 25.8076 63.2251 23.8398 63.0409 21.8709C63.0268 21.6429 63.0018 21.4079 63.0659 21.1861H63.0659Z" fill="black"/>
</svg>
