<svg width="83" height="37" viewBox="0 0 83 37" fill="none" xmlns="http://www.w3.org/2000/svg">
<rect x="0.685547" width="81.7425" height="36.569" rx="6.45336" fill="#024583"/>
<path d="M57.1881 10.8339L51.0888 21.9949C50.9588 22.2335 50.5805 22.2335 50.4505 21.9949L44.3512 10.8339C44.2921 10.7203 44.1739 10.6521 44.0439 10.6521H41.0888C40.8879 10.6521 40.7578 10.8567 40.8524 11.0272L50.4623 28.3254C50.5924 28.5641 50.947 28.5641 51.0888 28.3254L60.6987 11.0272C60.7933 10.8567 60.6633 10.6521 60.4623 10.6521H57.5073C57.3654 10.6521 57.2472 10.7203 57.1881 10.8339Z" fill="white"/>
<path d="M60.648 25.7347L66.7472 14.5738C66.8773 14.3351 67.2555 14.3351 67.3855 14.5738L73.4848 25.7347C73.5439 25.8484 73.6621 25.9166 73.7922 25.9166H76.7473C76.9482 25.9166 77.0782 25.712 76.9837 25.5415L67.3737 8.24322C67.2437 8.00454 66.8891 8.00454 66.7472 8.24322L57.1373 25.5415C57.0427 25.712 57.1728 25.9166 57.3737 25.9166H60.3288C60.4588 25.9052 60.5889 25.837 60.648 25.7347Z" fill="white"/>
<path d="M18.9593 18.8813C20.2359 18.2676 21.0278 16.9378 21.0278 15.3126C21.0278 12.528 18.7702 10.6414 15.5905 10.6414H6.45336C6.25242 10.6414 6.09875 10.7891 6.09875 10.9823V28.1556C6.09875 28.3488 6.25242 28.4965 6.45336 28.4965H15.2004C19.5739 28.4965 21.8789 26.6894 21.8789 23.1434C21.8789 19.6883 18.9593 18.8813 18.9593 18.8813ZM9.52665 13.2327H14.9522C16.9498 13.2327 17.9664 14.051 17.9664 15.574C17.9664 17.097 16.9498 17.9153 14.9522 17.9153H9.52665C9.33753 17.9153 9.17204 17.7675 9.17204 17.5743V13.5737C9.17204 13.3804 9.32571 13.2327 9.52665 13.2327ZM15.0231 25.9052H9.52665C9.32571 25.9052 9.17204 25.7575 9.17204 25.5643V20.8248C9.17204 20.643 9.32571 20.4839 9.52665 20.4839H15.0231C17.6472 20.4839 18.8174 21.1999 18.8174 23.1889C18.8056 25.2006 17.6709 25.9052 15.0231 25.9052Z" fill="white"/>
<path d="M37.7177 18.8813C38.9943 18.2676 39.7862 16.9378 39.7862 15.3126C39.7862 12.528 37.5286 10.6414 34.3489 10.6414H25.1999C24.999 10.6414 24.8453 10.7891 24.8453 10.9823V28.1556C24.8453 28.3488 24.999 28.4965 25.1999 28.4965H33.947C38.3205 28.4965 40.6255 26.6894 40.6255 23.1434C40.6373 19.6883 37.7177 18.8813 37.7177 18.8813ZM28.2851 13.2327H33.7106C35.7082 13.2327 36.7248 14.051 36.7248 15.574C36.7248 17.097 35.7082 17.9153 33.7106 17.9153H28.2851C28.0841 17.9153 27.9304 17.7675 27.9304 17.5743V13.5737C27.9304 13.3804 28.0841 13.2327 28.2851 13.2327ZM33.7697 25.9052H28.2732C28.0841 25.9052 27.9186 25.7575 27.9186 25.5643V20.8248C27.9186 20.643 28.0723 20.4839 28.2732 20.4839H33.7697C36.3938 20.4839 37.564 21.1999 37.564 23.1889C37.564 25.2006 36.4174 25.9052 33.7697 25.9052Z" fill="white"/>
</svg>
