<svg width="82" height="37" viewBox="0 0 82 37" fill="none" xmlns="http://www.w3.org/2000/svg">
<rect x="0.24231" width="81.7425" height="36.569" rx="6.45336" fill="#E30613"/>
<path fill-rule="evenodd" clip-rule="evenodd" d="M4.9809 18.2435C4.6165 17.5692 4.44167 16.8088 4.475 16.043C4.50549 14.9434 4.9529 13.8965 5.72656 13.1144C6.50021 12.3324 7.54225 11.8737 8.6415 11.8313H15.3005L12.7175 14.4266H8.60449C6.95927 14.4266 4.94388 16.1047 4.98913 18.2312L4.9809 18.2435ZM7.5351 16.3762C7.78044 15.7323 8.20066 15.1696 8.74844 14.7516C8.17259 14.7678 7.60938 14.9242 7.10767 15.2073C6.60595 15.4904 6.18088 15.8916 5.86932 16.3762H7.5351ZM8.86772 15.0765C8.45476 15.4431 8.11433 15.8839 7.86414 16.3762H9.86307C9.61451 15.8851 9.27702 15.4444 8.86772 15.0765ZM5.70479 16.7217C5.46663 17.1712 5.32645 17.666 5.29349 18.1736H7.12379C7.12279 17.678 7.21055 17.1863 7.38291 16.7217H5.70479ZM7.73663 16.7217C7.57815 17.1911 7.48137 17.6792 7.44872 18.1736H10.2785C10.2458 17.6792 10.1491 17.1911 9.99058 16.7217H7.73663ZM11.8209 16.3844C11.5219 15.9003 11.107 15.4982 10.6136 15.2146C10.1203 14.9309 9.56409 14.7746 8.99522 14.7598C9.52429 15.1941 9.93819 15.7521 10.2003 16.3844H11.8209ZM10.3237 16.7217C10.4921 17.187 10.5757 17.6788 10.5705 18.1736H12.4378C12.4151 17.6643 12.2743 17.1673 12.0265 16.7217H10.3237ZM5.85286 20.1849C6.15619 20.6771 6.57941 21.0843 7.08294 21.3684C7.58647 21.6526 8.15385 21.8043 8.73199 21.8095C8.19538 21.3843 7.78216 20.8234 7.5351 20.1849H5.85286ZM8.85127 21.5175C9.26256 21.1386 9.60004 20.6868 9.84662 20.1849H7.84769C8.09614 20.6878 8.43653 21.1398 8.85127 21.5175ZM7.39937 19.897C7.2321 19.4361 7.13909 18.9516 7.12379 18.4615H5.27293C5.30888 18.9686 5.44889 19.4628 5.68423 19.9134L7.39937 19.897ZM9.97413 19.897C10.1303 19.4269 10.227 18.9391 10.262 18.4451H7.43227C7.46732 18.9391 7.56404 19.4269 7.72018 19.897H9.97413ZM10.1839 20.1849C9.91929 20.8216 9.50606 21.3858 8.97877 21.8301C9.5523 21.8259 10.1148 21.6719 10.6104 21.3833C11.1061 21.0947 11.5177 20.6816 11.8044 20.1849H10.1839ZM12.0101 19.897C12.2544 19.45 12.395 18.9538 12.4214 18.4451H10.5541C10.5503 18.9391 10.467 19.4294 10.3073 19.897H12.0101ZM12.7175 18.2518C12.7628 20.4563 10.7679 22.1221 9.09805 22.1221H4.98501L2.3938 24.738H9.05692C10.154 24.6967 11.1944 24.2399 11.9673 23.4602C12.7402 22.6804 13.1877 21.636 13.2193 20.5386C13.2557 19.7718 13.0822 19.0096 12.7175 18.334V18.2888V18.2518Z" fill="white"/>
<path fill-rule="evenodd" clip-rule="evenodd" d="M30.6786 22.5673C28.6748 22.5673 27.2421 21.286 27.2421 19.2726C27.2421 17.2592 28.7271 15.9576 30.6786 15.9576C32.6302 15.9576 34.1152 17.2694 34.1152 19.2624C34.1152 21.2555 32.6873 22.5571 30.6786 22.5571V22.5673ZM64.916 16.1203V22.4351H62.9216L62.8883 21.7995H62.8455C62.5907 22.0759 62.2821 22.2889 61.9415 22.4234C61.6009 22.5579 61.2367 22.6104 60.8749 22.5774C59.447 22.5774 58.1951 21.2504 58.1951 19.2726C58.1951 17.4372 59.3042 15.9729 61.0082 15.9729C61.3398 15.9477 61.6726 15.9991 61.9839 16.1237C62.2952 16.2483 62.5777 16.4431 62.8121 16.6948H62.8693V16.1203H64.916ZM49.4989 16.1203V22.4351H47.4998L47.4713 21.7995H47.4284C47.1724 22.0705 46.8647 22.2793 46.5263 22.4118C46.1879 22.5443 45.8267 22.5973 45.4674 22.5673C44.0394 22.5673 42.7876 21.2403 42.7876 19.2675C42.7876 17.4321 43.8966 15.9678 45.5959 15.9678C45.9277 15.9435 46.2606 15.9949 46.5724 16.1185C46.8843 16.2421 47.1679 16.4351 47.4046 16.6847H47.457V16.1152L49.4989 16.1203ZM39.7937 16.1203H41.8547V22.4402H39.7937V16.1152V16.1203ZM50.8222 22.4249V13.512H52.8784V16.5626C53.4116 16.1733 54.0413 15.9626 54.6871 15.9576C56.2817 15.9576 57.4574 17.3304 57.4574 19.1455C57.4574 21.4182 56.1579 22.5622 54.6729 22.5622C54.3374 22.5821 54.0017 22.5283 53.6865 22.4042C53.3713 22.28 53.0833 22.088 52.8403 21.8402H52.807L52.7785 22.4198L50.8222 22.4249ZM30.6786 20.981C31.5116 20.981 32.0066 20.198 32.0066 19.2624C32.0066 18.3269 31.5306 17.5388 30.6786 17.5388C29.8266 17.5388 29.3507 18.3168 29.3507 19.2624C29.3507 20.2081 29.8266 20.981 30.6786 20.981ZM38.7703 20.7064C38.586 20.7652 38.3959 20.801 38.2039 20.8132C38.0857 20.8174 37.9681 20.7939 37.8593 20.7444C37.7506 20.6949 37.6533 20.6205 37.5743 20.5264C37.4954 20.4324 37.4367 20.321 37.4024 20.2002C37.368 20.0793 37.3589 19.9518 37.3757 19.8268V17.6965H38.6656V16.1051H37.3757V14.0713H35.2957V16.1051H34.3961V17.6965H35.2957V20.1929C35.2957 21.5657 35.8954 22.552 37.4185 22.552C37.7957 22.548 38.1717 22.5072 38.5419 22.43L38.7941 20.7013L38.7703 20.7064ZM15.3854 22.1961C16.1594 22.4319 16.9604 22.5517 17.7653 22.552C19.5216 22.552 21.2732 21.886 21.2732 19.8268C21.2732 17.005 17.6225 17.3965 17.6225 16.2678C17.6225 15.6932 18.1841 15.5712 18.7363 15.5712C19.404 15.6244 20.0587 15.7963 20.6735 16.0796L20.8401 14.1323C20.1585 13.9197 19.451 13.8169 18.741 13.8273C17.0085 13.8273 15.2997 14.5492 15.2997 16.3694C15.2997 19.1455 18.9362 18.5659 18.9362 20.0251C18.9362 20.5844 18.4126 20.7979 17.7462 20.7979C16.9908 20.7415 16.2555 20.5127 15.59 20.1268L15.3901 22.2063L15.3854 22.1961ZM60.3466 19.2014C60.3466 20.2488 60.8939 20.8996 61.6032 20.8996C61.9701 20.8635 62.3087 20.6736 62.5451 20.3717C62.7814 20.0697 62.8962 19.68 62.8645 19.2879C62.8645 18.3117 62.3124 17.6405 61.6032 17.6405C61.4237 17.652 61.2483 17.7018 61.0872 17.7871C60.9262 17.8724 60.7828 17.9913 60.6656 18.1369C60.5484 18.2825 60.4598 18.4517 60.405 18.6346C60.3502 18.8175 60.3303 19.0102 60.3466 19.2014ZM44.9295 19.2014C44.9295 20.2488 45.4769 20.8996 46.1814 20.8996C46.5492 20.8647 46.889 20.6755 47.1263 20.3733C47.3637 20.0712 47.4792 19.6808 47.4475 19.2879C47.4475 18.3117 46.8906 17.6405 46.1814 17.6405C46.0023 17.6527 45.8274 17.703 45.6669 17.7885C45.5064 17.8741 45.3636 17.9931 45.2469 18.1386C45.1302 18.2842 45.042 18.4532 44.9875 18.6357C44.933 18.8183 44.9133 19.0106 44.9295 19.2014ZM26.7185 16.2067C26.2447 16.0431 25.7504 15.9574 25.2525 15.9525C23.3961 15.9525 22.011 17.1931 22.011 19.2523C21.9972 19.6959 22.0699 20.1377 22.2245 20.5498C22.379 20.9618 22.612 21.335 22.9088 21.6457C23.2055 21.9565 23.5594 22.1979 23.9481 22.3548C24.3368 22.5117 24.7518 22.5806 25.1668 22.5571C25.6943 22.5527 26.2178 22.4601 26.7185 22.2826L26.6185 20.4369C26.2988 20.6295 25.9425 20.7425 25.5761 20.7674C25.3868 20.7745 25.1982 20.7399 25.0219 20.6658C24.8456 20.5916 24.6856 20.4795 24.5516 20.3365C24.4177 20.1934 24.3127 20.0224 24.2433 19.8341C24.1739 19.6458 24.1415 19.4443 24.1482 19.2421C24.1434 19.0374 24.1781 18.8338 24.2503 18.644C24.3225 18.4543 24.4305 18.2825 24.5677 18.1393C24.7048 17.9962 24.8681 17.8848 25.0473 17.8121C25.2266 17.7394 25.4179 17.7069 25.6094 17.7168C25.9668 17.7352 26.3153 17.8413 26.628 18.0269L26.728 16.1966L26.7185 16.2067ZM73.6788 22.4249H75.7303V19.5167L77.5533 22.4402H79.8332L77.6342 19.0947L79.7761 16.1305H77.4962L75.7303 18.7388V13.5222H73.6788V22.4249ZM66.2487 22.4249H68.2479V19.1608C68.2355 18.9995 68.2541 18.8373 68.3024 18.684C68.3507 18.5307 68.4278 18.3896 68.5289 18.2692C68.6301 18.1488 68.7531 18.0517 68.8906 17.9838C69.028 17.9159 69.177 17.8787 69.3283 17.8744C70.0233 17.8744 70.4136 18.3829 70.4136 19.1608V22.4249H72.4175V18.6218C72.4385 18.2704 72.39 17.9183 72.2752 17.5883C72.1603 17.2583 71.9817 16.9578 71.7509 16.7064C71.52 16.4551 71.2422 16.2585 70.9356 16.1295C70.6289 16.0005 70.3002 15.9419 69.9709 15.9576C69.6228 15.9565 69.2782 16.0323 68.9588 16.1802C68.6393 16.328 68.3519 16.5448 68.1146 16.8169H68.0717V16.1152H66.2678V22.4198L66.2487 22.4249ZM40.8266 12.907C40.5976 12.906 40.3735 12.9776 40.1827 13.1127C39.9918 13.2479 39.8429 13.4405 39.7546 13.6662C39.6663 13.8918 39.6427 14.1404 39.6868 14.3804C39.7309 14.6204 39.8407 14.841 40.0023 15.0143C40.1638 15.1876 40.3699 15.3058 40.5944 15.3539C40.8189 15.402 41.0517 15.3778 41.2633 15.2844C41.4749 15.1911 41.6559 15.0327 41.7832 14.8294C41.9105 14.6261 41.9784 14.3871 41.9784 14.1425C41.9772 13.8161 41.8556 13.5034 41.64 13.2721C41.4244 13.0409 41.1321 12.9097 40.8266 12.907ZM55.3297 19.2624C55.3297 18.4184 54.8775 17.666 54.0922 17.666C53.402 17.666 52.8451 18.2964 52.8451 19.2624C52.8451 20.2285 53.3211 20.8589 54.0922 20.8589C54.8061 20.8589 55.3297 20.2285 55.3297 19.2624Z" fill="white"/>
</svg>
