<svg width="83" height="37" viewBox="0 0 83 37" fill="none" xmlns="http://www.w3.org/2000/svg">
<rect x="0.799072" width="81.7425" height="36.5716" rx="6.45336" fill="#20A6FF"/>
<path fill-rule="evenodd" clip-rule="evenodd" d="M17.8159 18.1577C17.8231 18.1925 17.8531 18.1984 17.876 18.2116C18.8224 18.7363 19.3773 19.5484 19.6247 20.5833C19.8038 21.405 19.866 22.2477 19.8096 23.0867C19.791 23.617 19.7137 24.1436 19.579 24.657C19.2079 26.0321 18.3252 26.9328 16.974 27.3988C16.3802 27.5926 15.766 27.7176 15.1436 27.7713C14.5658 27.8228 13.9857 27.8444 13.4057 27.836C11.4152 27.836 9.42423 27.836 7.43291 27.836C7.15281 27.8417 6.87283 27.82 6.59698 27.7713C6.50941 27.7546 6.42312 27.7318 6.33876 27.703C6.20513 27.6605 6.08352 27.587 5.98392 27.4885C5.88433 27.39 5.80959 27.2693 5.76586 27.1364C5.68444 26.8765 5.64076 26.6062 5.63615 26.3339C5.63615 26.2453 5.63615 26.1566 5.63615 26.0668V11.0464C5.63187 10.7738 5.65359 10.5015 5.701 10.2331C5.71904 10.1406 5.74434 10.0497 5.77667 9.96116C5.82105 9.83151 5.89504 9.71393 5.99279 9.61768C6.09055 9.52144 6.2094 9.44917 6.33996 9.40658C6.58492 9.33162 6.83922 9.2913 7.09541 9.2868C7.22392 9.27842 7.35244 9.27842 7.48095 9.27842C9.43865 9.27842 11.3963 9.27842 13.354 9.27842C14.213 9.26792 15.0703 9.35716 15.9087 9.54433C16.2286 9.62037 16.5419 9.72211 16.8455 9.84857C18.0465 10.3532 18.8072 11.2316 19.1274 12.4837C19.3204 13.3029 19.3825 14.1474 19.3112 14.9859C19.2873 15.453 19.2038 15.9151 19.0626 16.361C18.8545 17.039 18.4444 17.6376 17.8868 18.0775C17.8627 18.1002 17.8219 18.1146 17.8159 18.1577ZM11.9488 19.9353H9.68966C9.54193 19.9353 9.54193 19.9353 9.53953 20.0802V24.4019C9.53953 24.4342 9.53953 24.4677 9.53953 24.5013C9.53953 24.5624 9.56115 24.5959 9.62721 24.5923C9.67165 24.5923 9.71609 24.5923 9.76172 24.5923C11.0216 24.5923 12.2839 24.5923 13.5426 24.5923C13.766 24.5923 13.9894 24.5827 14.2104 24.5636C14.4559 24.5466 14.6981 24.4979 14.931 24.4186C15.1096 24.3606 15.2713 24.26 15.4021 24.1256C15.5329 23.9912 15.6288 23.827 15.6817 23.6472C15.7273 23.5044 15.7595 23.3576 15.7777 23.2088C15.8344 22.6552 15.8424 22.0977 15.8018 21.5427C15.7913 21.3691 15.7656 21.1968 15.7249 21.0277C15.6836 20.7868 15.5694 20.5643 15.3976 20.39C15.2259 20.2157 15.0048 20.098 14.7641 20.0526C14.4159 19.9722 14.0597 19.932 13.7023 19.9329C13.1198 19.9293 12.5337 19.9353 11.9488 19.9353ZM11.6798 12.5233H9.67285C9.54434 12.5233 9.54193 12.5233 9.54073 12.6514C9.54073 12.8131 9.54073 12.9748 9.54073 13.1305V16.5191C9.54073 16.6808 9.54073 16.6844 9.67045 16.6844C10.8919 16.6844 12.1134 16.6844 13.3336 16.6844C13.691 16.6875 14.047 16.6391 14.3905 16.5407C14.6066 16.486 14.8021 16.3702 14.9536 16.2072C15.1051 16.0442 15.2062 15.8409 15.2445 15.622C15.3367 15.135 15.3637 14.638 15.3249 14.1439C15.3185 13.9325 15.2891 13.7225 15.2373 13.5174C15.1974 13.3431 15.1152 13.1811 14.9979 13.0458C14.8806 12.9105 14.7319 12.8059 14.5647 12.7413C14.4717 12.704 14.3767 12.672 14.28 12.6454C13.944 12.5632 13.5991 12.523 13.2532 12.5257C12.7283 12.5173 12.2046 12.5233 11.6798 12.5233Z" fill="white"/>
<path fill-rule="evenodd" clip-rule="evenodd" d="M60.3937 18.1585C60.4321 18.1836 60.4537 18.1992 60.4766 18.2124C61.3942 18.7202 61.9442 19.506 62.2049 20.5025C62.3451 21.0754 62.4165 21.6629 62.4174 22.2525C62.4434 22.9255 62.3939 23.5993 62.2697 24.2612C62.1571 24.8816 61.914 25.4711 61.5563 25.9909C61.1008 26.6098 60.4694 27.078 59.7439 27.3348C59.2016 27.5354 58.6371 27.6701 58.0625 27.7361C57.4248 27.812 56.7829 27.846 56.1408 27.8379C54.1054 27.8379 52.0697 27.8379 50.0335 27.8379C49.7713 27.8428 49.5091 27.8235 49.2504 27.7804C48.6295 27.6678 48.3653 27.3863 48.2812 26.7635C48.2546 26.5537 48.2418 26.3424 48.2428 26.131C48.2428 21.0859 48.2428 16.0403 48.2428 10.9944C48.2393 10.7216 48.2631 10.4492 48.3136 10.1811C48.343 9.96907 48.441 9.77242 48.5928 9.62106C48.7446 9.46971 48.9417 9.37194 49.1543 9.34264C49.4182 9.29462 49.686 9.27176 49.9542 9.27436C52.0909 9.27436 54.2275 9.26717 56.363 9.28275C57.2515 9.28061 58.1352 9.4135 58.9837 9.67682C59.5841 9.85584 60.1388 10.1618 60.6099 10.574C61.1745 11.0957 61.567 11.7761 61.7352 12.5252C61.9081 13.2626 61.9708 14.0214 61.9214 14.7771C61.9059 15.2667 61.8325 15.7527 61.7028 16.2252C61.505 16.9681 61.0694 17.6264 60.4621 18.0998C60.4429 18.1129 60.4273 18.1285 60.3937 18.1585ZM54.5422 19.9348H52.2831C52.1353 19.9348 52.1353 19.9348 52.1329 20.0797V24.4014C52.1329 24.4349 52.1329 24.4685 52.1329 24.502C52.1329 24.5643 52.1569 24.5942 52.2206 24.5918C52.2662 24.5918 52.3107 24.5918 52.3551 24.5918C53.6102 24.5918 54.8641 24.5918 56.1192 24.5918C56.3486 24.5918 56.5768 24.5823 56.805 24.5631C57.0612 24.547 57.3139 24.495 57.5556 24.4086C57.7253 24.3505 57.879 24.2535 58.0041 24.1253C58.1293 23.9972 58.2225 23.8414 58.2763 23.6707C58.3093 23.5704 58.3354 23.468 58.3543 23.3641C58.4197 22.9462 58.4438 22.523 58.4264 22.1004C58.4328 21.7386 58.3997 21.3771 58.3279 21.0224C58.2842 20.7861 58.1702 20.5683 58.0008 20.3974C57.8314 20.2265 57.6143 20.1104 57.3779 20.0642C57.0299 19.9826 56.6736 19.9424 56.3162 19.9444C55.7192 19.9288 55.1331 19.9348 54.5422 19.9348ZM54.2876 12.524H52.2807C52.1365 12.524 52.1341 12.524 52.1341 12.6546C52.1341 13.9554 52.1341 15.2562 52.1341 16.557C52.1341 16.6852 52.1341 16.6888 52.2626 16.6888C53.4889 16.6888 54.7152 16.6888 55.9414 16.6888C56.2821 16.6908 56.6215 16.6469 56.9503 16.5582C57.1723 16.5082 57.3748 16.3947 57.5329 16.2314C57.691 16.0682 57.7979 15.8625 57.8403 15.6395C57.8607 15.553 57.8764 15.4654 57.8871 15.3772C57.9363 14.9241 57.9448 14.4675 57.9123 14.0129C57.903 13.8292 57.8711 13.6474 57.8175 13.4715C57.773 13.3097 57.6914 13.1605 57.579 13.0357C57.4666 12.911 57.3266 12.8141 57.1701 12.7528C57.0777 12.7146 56.9831 12.6822 56.8866 12.6558C56.5506 12.5736 56.2057 12.5333 55.8598 12.536C55.3361 12.5168 54.8112 12.524 54.2876 12.524Z" fill="white"/>
<path fill-rule="evenodd" clip-rule="evenodd" d="M29.4259 26.8338C28.859 27.0734 28.3065 27.2986 27.7444 27.4843C26.9735 27.7468 26.171 27.9059 25.358 27.9574C24.9007 27.9857 24.4417 27.9518 23.9936 27.8568C23.0436 27.6472 22.389 27.0734 21.977 26.2062C21.735 25.6721 21.5658 25.1081 21.4738 24.5293C21.318 23.5628 21.2405 22.5855 21.242 21.6066C21.2324 20.8389 21.248 20.0711 21.3105 19.3057C21.3705 18.4277 21.4906 17.5629 21.8005 16.7304C21.8975 16.4638 22.0206 16.2075 22.168 15.965C22.3732 15.6182 22.6522 15.3205 22.9852 15.0929C23.3183 14.8653 23.6973 14.7132 24.0957 14.6474C24.7231 14.5395 25.364 14.5338 25.9933 14.6306C27.1199 14.7828 28.1756 15.1661 29.2193 15.5949L29.3742 15.656C29.3879 15.6632 29.4025 15.6689 29.4175 15.6727C29.4331 15.6188 29.4511 15.5625 29.4655 15.5062C29.5024 15.3295 29.5903 15.1673 29.7183 15.0396C29.8463 14.912 30.0089 14.8244 30.1861 14.7876C30.3757 14.7421 30.5691 14.7145 30.7638 14.7049C31.2046 14.6709 31.6479 14.687 32.085 14.7528C32.1663 14.7671 32.2465 14.7867 32.3252 14.8115C32.4769 14.8526 32.6148 14.9331 32.725 15.0449C32.8352 15.1567 32.9136 15.2956 32.9521 15.4475C33.0072 15.6517 33.0386 15.8615 33.0458 16.0728C33.0542 16.2177 33.0542 16.3627 33.0542 16.5076V26.0038C33.0607 26.3043 33.0381 26.6047 32.987 26.9009C32.9587 27.1134 32.8611 27.3107 32.7091 27.4623C32.5571 27.6138 32.3593 27.7112 32.1462 27.7394C31.9052 27.7859 31.6603 27.8091 31.4148 27.8089C31.0468 27.8265 30.6779 27.8044 30.3147 27.743C30.2333 27.7254 30.1531 27.703 30.0744 27.6759C29.9386 27.6316 29.8156 27.5551 29.716 27.4528C29.6164 27.3506 29.5432 27.2257 29.5028 27.089C29.4763 27.0063 29.4547 26.9321 29.4259 26.8338ZM29.373 21.2784C29.373 20.4831 29.373 19.6878 29.373 18.8936C29.373 18.8086 29.3622 18.7535 29.2698 18.7128C28.6167 18.4133 27.9456 18.1545 27.2604 17.9378C26.81 17.7888 26.3381 17.7152 25.8636 17.7198C25.7573 17.7198 25.6529 17.748 25.5611 17.8015C25.4694 17.8549 25.3934 17.9317 25.3411 18.024C25.2551 18.1738 25.1912 18.3352 25.1514 18.5031C25.0623 18.8592 25.0076 19.223 24.988 19.5895C24.9032 20.8098 24.9132 22.0349 25.0181 23.2536C25.0419 23.5923 25.1097 23.9265 25.2198 24.2478C25.376 24.6706 25.5802 24.806 26.0281 24.7916C26.3459 24.7783 26.6612 24.7305 26.9686 24.6491C27.74 24.4302 28.4949 24.1572 29.2277 23.8322C29.2748 23.8197 29.3156 23.7906 29.3426 23.7502C29.3696 23.7099 29.3808 23.661 29.3742 23.613C29.3706 22.8344 29.373 22.057 29.373 21.2784Z" fill="white"/>
<path fill-rule="evenodd" clip-rule="evenodd" d="M38.4568 15.6719C38.8579 15.5078 39.2603 15.3437 39.6686 15.1927C40.3791 14.927 41.1159 14.7375 41.8665 14.6274C42.5287 14.5232 43.2042 14.5374 43.8615 14.6693C44.2234 14.7464 44.5658 14.8964 44.8677 15.1099C45.1697 15.3235 45.4247 15.5962 45.6174 15.9114C45.9083 16.3991 46.1276 16.9259 46.2683 17.4757C46.4665 18.1585 46.4965 18.858 46.499 19.5587C46.5062 21.7783 46.499 23.9978 46.499 26.2173C46.5014 26.4847 46.4711 26.7514 46.4089 27.0114C46.3715 27.1862 46.2849 27.3467 46.1591 27.4741C46.0333 27.6014 45.8737 27.6902 45.6991 27.7301C45.5268 27.7769 45.3501 27.8054 45.1718 27.8152C44.6841 27.8578 44.193 27.8425 43.7089 27.7697C43.6046 27.7508 43.5024 27.7215 43.4039 27.6822C43.2832 27.6373 43.1738 27.5665 43.0835 27.4748C42.9933 27.3831 42.9243 27.2728 42.8814 27.1516C42.8105 26.9523 42.77 26.7436 42.7613 26.5323C42.7505 26.3778 42.7493 26.2209 42.7493 26.0652C42.7493 23.8516 42.7493 21.6377 42.7493 19.4234C42.7541 19.0783 42.7239 18.7335 42.6592 18.3945C42.6402 18.302 42.6108 18.212 42.5715 18.1262C42.5203 17.9986 42.4303 17.8903 42.3142 17.8164C42.1981 17.7425 42.0617 17.7068 41.9242 17.7141C41.4832 17.7226 41.0458 17.7952 40.6259 17.9297C39.9288 18.1479 39.2468 18.4112 38.5841 18.7179C38.5144 18.749 38.4724 18.7849 38.4832 18.8664C38.4863 18.9063 38.4863 18.9463 38.4832 18.9862V26.0281C38.4919 26.3396 38.4673 26.6512 38.4099 26.9575C38.3795 27.1515 38.29 27.3315 38.1536 27.4731C38.0172 27.6148 37.8404 27.7112 37.6473 27.7493C37.4959 27.7864 37.3416 27.8101 37.1861 27.82C36.7079 27.8634 36.2262 27.8473 35.752 27.772C35.6648 27.7547 35.5789 27.7311 35.495 27.7014C35.362 27.6568 35.2416 27.5813 35.1436 27.4811C35.0457 27.381 34.973 27.259 34.9317 27.1252C34.8706 26.9401 34.8355 26.7474 34.8272 26.5527C34.8164 26.3419 34.8092 26.1299 34.8092 25.9191C34.8092 22.8096 34.8092 19.6997 34.8092 16.5894C34.7958 16.239 34.8216 15.8883 34.8861 15.5437C34.9172 15.3527 35.0075 15.1762 35.1443 15.0389C35.281 14.9017 35.4574 14.8105 35.6487 14.7783C36.1096 14.6908 36.5802 14.6646 37.048 14.7004C37.2539 14.7079 37.4586 14.7351 37.6593 14.7819C37.8414 14.818 38.0088 14.907 38.1404 15.0376C38.272 15.1682 38.362 15.3347 38.3991 15.5161C38.4099 15.5593 38.4207 15.6024 38.434 15.6443C38.4352 15.6527 38.446 15.6599 38.4568 15.6719Z" fill="white"/>
<path fill-rule="evenodd" clip-rule="evenodd" d="M74.0589 22.2066V26.1773C74.0607 26.3888 74.0475 26.6001 74.0193 26.8097C73.9388 27.3799 73.6818 27.6721 73.1173 27.7763C72.5286 27.8835 71.9256 27.8859 71.3361 27.7835C70.7356 27.6817 70.4798 27.3835 70.4017 26.775C70.3753 26.5596 70.3633 26.3427 70.3657 26.1258C70.3657 23.4004 70.3657 20.6746 70.3657 17.9484C70.3657 17.7088 70.4065 17.7268 70.1435 17.7244C69.8981 17.725 69.6531 17.7021 69.4121 17.6561C69.209 17.6291 69.0197 17.5384 68.8716 17.3972C68.7235 17.256 68.6243 17.0715 68.5882 16.8703C68.4975 16.4499 68.4975 16.0151 68.5882 15.5947C68.6926 15.088 68.9749 14.8413 69.4997 14.7562C69.7486 14.7235 69.9993 14.7063 70.2504 14.7047C70.3705 14.7047 70.3777 14.7047 70.3825 14.5766C70.4077 13.998 70.4366 13.4207 70.511 12.8469C70.5813 12.2504 70.715 11.6629 70.9098 11.0945C71.0168 10.7824 71.1903 10.497 71.4183 10.2579C71.6464 10.0189 71.9236 9.83197 72.2309 9.70989C72.7274 9.49749 73.2543 9.36411 73.7923 9.31461C74.4595 9.26172 75.1295 9.25252 75.798 9.28706C76.0713 9.29458 76.3426 9.33479 76.6063 9.40684C77.3269 9.60328 77.6596 10.0153 77.7017 10.7556C77.7129 10.9447 77.6988 11.1344 77.6596 11.3197C77.6148 11.5505 77.5123 11.7663 77.3615 11.947C77.2108 12.1277 77.0167 12.2675 76.7973 12.3534C76.4077 12.5075 75.9912 12.5828 75.5722 12.575C75.3214 12.5674 75.0703 12.5802 74.8216 12.6134C74.376 12.6984 74.1598 12.9164 74.1009 13.3668C74.0621 13.7825 74.0545 14.2005 74.0781 14.6173C74.0781 14.67 74.0985 14.6999 74.1562 14.6987C74.2138 14.6975 74.2451 14.6987 74.2907 14.6987C74.7711 14.6987 75.2611 14.6987 75.7452 14.7203C75.9237 14.7288 76.1008 14.7561 76.2736 14.8017C76.4375 14.8406 76.5875 14.9239 76.7068 15.0425C76.8261 15.1611 76.9103 15.3104 76.9498 15.4737C77.0407 15.8304 77.0655 16.2006 77.0231 16.5661C77.012 16.7047 76.9858 16.8416 76.945 16.9746C76.9022 17.1311 76.8189 17.2736 76.7033 17.3878C76.5878 17.5019 76.4441 17.5838 76.2868 17.625C76.0667 17.689 75.8387 17.7225 75.6094 17.7244C75.147 17.7244 74.6846 17.7244 74.221 17.7316C74.0685 17.7316 74.0673 17.7316 74.0673 17.8885L74.0589 22.2066Z" fill="white"/>
<path fill-rule="evenodd" clip-rule="evenodd" d="M67.5422 21.2595C67.5422 22.8837 67.5422 24.5079 67.5422 26.1321C67.5484 26.416 67.5226 26.6997 67.4653 26.9778C67.432 27.1655 67.3428 27.3389 67.2094 27.4754C67.0759 27.6119 66.9044 27.7052 66.7171 27.7432C66.5595 27.7823 66.3987 27.8072 66.2366 27.8174C65.7529 27.8602 65.2657 27.8441 64.7858 27.7695C64.6816 27.7504 64.5797 27.7203 64.4819 27.6797C64.3649 27.6334 64.2592 27.5627 64.172 27.4721C64.0847 27.3816 64.018 27.2735 63.9763 27.155C63.8962 26.9178 63.8524 26.6699 63.8466 26.4196C63.8394 26.2866 63.8406 26.1525 63.8406 26.0195C63.8406 22.8541 63.8406 19.6891 63.8406 16.5246C63.8337 16.2189 63.8559 15.9133 63.9066 15.6118C63.9337 15.4036 64.0273 15.2097 64.1735 15.0587C64.3198 14.9077 64.5109 14.8076 64.7185 14.7734C64.8875 14.7376 65.0589 14.7148 65.2314 14.7051C65.6765 14.6689 66.1244 14.685 66.5657 14.753C66.6531 14.7695 66.7394 14.7915 66.824 14.8189C66.9688 14.8616 67.1005 14.9402 67.2066 15.0475C67.3126 15.1547 67.3897 15.2871 67.4305 15.4322C67.5164 15.744 67.5537 16.0672 67.541 16.3904C67.5434 18.013 67.5438 19.636 67.5422 21.2595Z" fill="white"/>
<path fill-rule="evenodd" clip-rule="evenodd" d="M65.9652 8.63007C64.3782 8.40363 63.2021 9.73589 63.2394 11.0095C63.237 11.1545 63.249 11.2993 63.2754 11.442C63.3741 12.1125 63.6793 12.7359 64.1488 13.2259C64.5632 13.6512 65.069 13.904 65.6697 13.8765C65.9918 13.8634 66.308 13.7858 66.5994 13.6483C66.8908 13.5108 67.1515 13.3162 67.3659 13.0761C68.0062 12.3932 68.2285 11.5726 68.0867 10.656C68.0132 10.1453 67.7744 9.67241 67.4068 9.30938C67.0153 8.9294 66.5081 8.69037 65.9652 8.63007ZM64.3006 11.497C64.218 11.3021 64.1754 11.0928 64.1752 10.8813C64.1776 10.6268 64.2639 10.3803 64.421 10.1797C64.578 9.97919 64.7969 9.83583 65.0438 9.77184C65.144 9.74671 65.2464 9.73473 65.3484 9.73572C65.5062 9.73656 65.6633 9.7684 65.8104 9.83053C66.0511 9.93215 66.2519 10.1092 66.3825 10.335C66.476 10.5082 66.53 10.7 66.5406 10.8964C66.5512 11.0929 66.5182 11.2893 66.444 11.4716C66.3698 11.6538 66.2561 11.8176 66.1111 11.951C65.9661 12.0844 65.7934 12.1843 65.6053 12.2435C65.5089 12.275 65.4084 12.2903 65.3079 12.2892C65.2367 12.2889 65.1654 12.2803 65.0954 12.2634C64.9287 12.2232 64.7764 12.1375 64.6557 12.0158C64.5038 11.8682 64.3831 11.6918 64.3006 11.497Z" fill="#BDCD0D"/>
</svg>
