<svg width="22" height="24" viewBox="0 0 22 24" fill="none" xmlns="http://www.w3.org/2000/svg">
<mask id="mask0_107_9900" style="mask-type:luminance" maskUnits="userSpaceOnUse" x="10" y="0" width="12" height="19">
<path fill-rule="evenodd" clip-rule="evenodd" d="M10.2013 0.710938H21.4621V18.9207H10.2013V0.710938Z" fill="white"/>
</mask>
<g mask="url(#mask0_107_9900)">
<path fill-rule="evenodd" clip-rule="evenodd" d="M10.2203 3.62362V0.731777C10.3047 0.724854 10.3824 0.713015 10.4601 0.713015C13.6205 0.712115 16.7809 0.714331 19.9413 0.710938C20.6565 0.710177 21.2662 1.20919 21.4084 1.80845C21.4267 1.88578 21.4431 1.96457 21.4496 2.04349C21.457 2.13522 21.4532 2.22792 21.4533 2.32021C21.4534 7.35079 21.4469 12.3813 21.4621 17.4119C21.464 18.0534 21.0024 18.7207 20.3314 18.8854C20.1982 18.9181 20.0547 18.9193 19.9161 18.9193C17.1654 18.9211 14.4146 18.9207 11.6639 18.9207H10.2628C10.1995 18.6506 10.1814 17.2979 10.2259 16.2466C10.3553 16.1952 10.4978 16.2103 10.6288 16.2357C10.9537 16.2987 11.2743 16.301 11.599 16.2392C11.701 16.2197 11.8088 16.2259 11.914 16.2267C12.3925 16.2305 12.8623 16.1525 13.3356 16.0984C14.2028 15.9995 15.0416 15.7879 15.8603 15.5071C16.5692 15.264 17.2627 14.9745 17.9217 14.5233C17.9217 14.6276 17.9364 14.6924 17.9194 14.748C17.786 15.1833 17.6465 15.6168 17.5148 16.0321C17.5417 16.1135 17.5677 16.1666 17.5762 16.2222C17.6283 16.5644 17.8043 16.8322 18.1182 16.9762C18.5209 17.1611 18.944 17.2718 19.3923 17.121C19.7331 17.0064 19.9711 16.7901 20.0792 16.4474C20.1651 16.1758 20.2484 15.9033 20.3265 15.6293C20.6011 14.6654 20.8826 13.7033 21.1429 12.7356C21.3562 11.9424 20.7122 11.3659 20.1266 11.3689C17.973 11.3802 15.8193 11.3734 13.6629 11.3734C13.3158 11.51 13.0069 11.692 12.9498 12.0973C12.8904 12.5191 13.0105 12.8721 13.4644 13.1005C14.0091 13.1644 14.5962 13.122 15.1826 13.0483C15.2058 13.0454 15.229 13.0428 15.2523 13.0411C15.5769 13.0169 15.9015 12.9915 16.2263 12.9699C16.3176 12.9639 16.4097 12.969 16.561 12.969C16.0687 13.2967 15.5928 13.5218 15.1053 13.7258C14.4847 13.9855 13.8314 14.1345 13.1757 14.2685C12.8929 14.3263 12.5956 14.3122 12.3094 14.3583C11.6116 14.4706 10.9105 14.4015 10.211 14.4153L10.2201 14.4244C10.218 14.3209 10.2142 14.2174 10.2142 14.1139C10.2139 11.2942 10.2139 8.47455 10.2144 5.65485C10.2144 5.41323 10.2184 5.17162 10.2205 4.93L10.21 4.94032C10.4291 4.91567 10.6482 4.8706 10.8673 4.87067C11.3323 4.87074 11.7954 4.86112 12.2628 4.91747C12.7351 4.97445 13.2046 5.03495 13.6647 5.14794C14.6246 5.3836 15.5448 5.71812 16.3785 6.25743C16.5039 6.33857 16.6449 6.39596 16.7763 6.46852C16.9216 6.54869 17.0632 6.54626 17.2091 6.47025C17.3008 6.42248 17.3965 6.38253 17.4692 6.34889C17.5531 6.23348 17.6325 6.14618 17.6854 6.04531C17.7373 5.94652 17.7826 5.83623 17.7954 5.72705C17.8374 5.36865 17.6336 5.14531 17.3377 4.98629C16.5297 4.55186 15.6659 4.25735 14.7771 4.03976C14.1944 3.89701 13.6037 3.79385 13.0004 3.74214C12.398 3.69056 11.7985 3.61579 11.1923 3.61995C10.8649 3.62216 10.5374 3.61621 10.2099 3.61399L10.2203 3.62362Z" fill="#E0E0F6"/>
</g>
<path fill-rule="evenodd" clip-rule="evenodd" d="M10.2111 14.4147V16.1657C9.89403 16.1378 9.6093 16.1308 9.32029 16.1004C8.85759 16.0516 8.40233 15.9726 7.95255 15.8688C6.63531 15.5649 5.38479 15.0933 4.25571 14.3456C3.48524 13.8355 2.81689 13.2173 2.28971 12.4582C1.97261 12.0017 1.748 11.4982 1.59988 10.9715C1.48848 10.5753 1.48701 10.155 1.49509 9.73972C1.51475 8.72237 1.92302 7.8527 2.54221 7.06817C3.5009 5.85345 4.79595 5.10403 6.21145 4.52616C6.98297 4.21109 7.7908 4.01489 8.60264 3.84147C9.00866 3.75472 9.42971 3.73665 9.8436 3.68473C9.96974 3.66894 10.0948 3.64381 10.2203 3.62297L10.2099 3.61328C10.2099 4.05539 10.21 4.4975 10.21 4.9396L10.2206 4.92936C9.41749 4.96058 8.63431 5.11247 7.87684 5.36475C6.60504 5.78817 5.44505 6.39574 4.59325 7.46265C3.95651 8.26012 3.63364 9.1399 3.80719 10.1755C3.89639 10.7079 4.08687 11.1911 4.39955 11.6184C5.05441 12.5132 5.92187 13.1518 6.94764 13.5901C7.52173 13.8353 8.1091 14.03 8.71775 14.1778C9.21424 14.2982 9.7155 14.365 10.2201 14.4237L10.2111 14.4147Z" fill="#E0E0F6"/>
<path fill-rule="evenodd" clip-rule="evenodd" d="M12.5188 21.275C11.5894 21.2671 11.2291 21.747 11.5137 22.5688C11.6568 22.7829 11.8645 22.9051 12.1318 23.0021H12.4399C12.7161 22.9375 12.8522 22.706 13.0338 22.5365H13.8369C13.7965 23.2671 12.9567 23.8802 12.0571 23.7594C11.2116 23.6458 10.6303 23.0342 10.5801 22.1035C10.5429 21.4138 11.0291 20.5744 12.13 20.4571C12.8062 20.3851 13.6518 20.805 13.8666 21.7164C13.6304 21.7872 13.3876 21.7474 13.1505 21.7425C13.0851 21.7412 13.004 21.6701 12.9602 21.6098C12.8472 21.4539 12.7027 21.3471 12.5188 21.275" fill="#E0E0F6"/>
<path fill-rule="evenodd" clip-rule="evenodd" d="M18.4963 21.4848C18.3876 21.2274 18.1635 21.2905 18.0031 21.2129C17.9383 21.2408 17.8763 21.2674 17.801 21.2999C17.801 21.4742 17.8002 21.6442 17.8015 21.8142C17.8019 21.8578 17.8092 21.9014 17.8129 21.9418C18.368 22.012 18.4967 21.9208 18.4963 21.4848V21.4848ZM17.8041 23.6839H17.0666C17.0109 23.4176 16.9938 21.1177 17.0415 20.55C17.4182 20.4822 18.3314 20.5202 18.5952 20.5754C19.1016 20.6814 19.4193 21.2585 19.2866 21.7751C19.1653 22.2468 19.028 22.4459 18.6442 22.6373C18.7864 23.0291 19.1397 23.2889 19.3284 23.675H18.4179C18.2324 23.3859 18.0321 23.0733 17.8041 22.7178V23.6839Z" fill="#E0E0F6"/>
<path fill-rule="evenodd" clip-rule="evenodd" d="M14.959 22.5936C15.1044 22.5936 15.1949 22.5965 15.2852 22.5928C15.3739 22.589 15.4624 22.5785 15.5507 22.5709C15.5273 22.2706 15.4416 22.0042 15.2617 21.6777C15.162 21.9794 15.0705 22.2561 14.959 22.5936M14.9804 20.5234H15.5875C16.0821 21.5247 16.377 22.6155 16.8527 23.6635C16.5382 23.7155 16.2638 23.6892 15.977 23.6857C15.9279 23.5497 15.8827 23.4248 15.8341 23.29H14.7929C14.7267 23.4062 14.6546 23.533 14.5733 23.6756H13.7285C14.1468 22.6223 14.5577 21.5879 14.9804 20.5234" fill="#E0E0F6"/>
<path fill-rule="evenodd" clip-rule="evenodd" d="M7.33625 21.1041V22.3799V23.6745H6.93359V20.53H7.59091C7.89088 21.3132 8.19851 22.1162 8.52397 22.966C8.97558 22.1696 9.17364 21.3127 9.54089 20.5234H10.2106C10.2132 21.5756 10.2105 22.6179 10.2118 23.677H9.79065V21.0886C9.77716 21.087 9.76375 21.0855 9.75033 21.084C9.40338 21.9499 9.05635 22.8157 8.70827 23.6844H8.38505C8.07061 22.8131 7.77078 21.9305 7.33625 21.1041" fill="#E0E0F6"/>
<mask id="mask1_107_9900" style="mask-type:luminance" maskUnits="userSpaceOnUse" x="19" y="20" width="3" height="4">
<path fill-rule="evenodd" clip-rule="evenodd" d="M19.6855 20.5273H21.477V23.7487H19.6855V20.5273Z" fill="white"/>
</mask>
<g mask="url(#mask1_107_9900)">
<path fill-rule="evenodd" clip-rule="evenodd" d="M19.7694 20.5273H21.4403V21.2424C21.1391 21.3056 20.825 21.2445 20.5041 21.2793C20.4327 21.4161 20.4914 21.5664 20.4599 21.7271C20.801 21.8012 21.1405 21.7109 21.477 21.7855C21.4662 22.0031 21.4563 22.2045 21.4452 22.427C21.1662 22.4975 20.8749 22.4261 20.5707 22.4674C20.5174 22.6481 20.5291 22.8333 20.5664 23.0337H21.4317V23.7487H19.6993C19.6767 23.2092 19.6857 22.672 19.6993 22.1361C19.7128 21.6019 19.6352 21.0613 19.7694 20.5273" fill="#E0E0F6"/>
</g>
<mask id="mask2_107_9900" style="mask-type:luminance" maskUnits="userSpaceOnUse" x="0" y="20" width="4" height="4">
<path fill-rule="evenodd" clip-rule="evenodd" d="M0.5 20.4475H3.75821V23.7677H0.5V20.4475Z" fill="white"/>
</mask>
<g mask="url(#mask2_107_9900)">
<path fill-rule="evenodd" clip-rule="evenodd" d="M3.55763 21.3147C3.35732 21.3002 3.19831 21.2887 3.03354 21.2769C2.58545 20.8554 2.07021 20.8092 1.53854 21.0979C1.13497 21.3168 0.888734 21.9199 0.983128 22.3413C1.11426 22.9268 1.49394 23.2975 2.06242 23.3366C2.30128 23.353 2.55799 23.3114 2.76448 23.1784C2.98838 23.0342 3.16341 22.8331 3.26475 22.5493C3.01627 22.4936 2.77515 22.5272 2.53755 22.5213C2.30374 22.5155 2.06965 22.5201 1.81021 22.5201V22.1292C2.11432 22.0738 2.43978 22.1154 2.76258 22.1076C3.07779 22.0999 3.39342 22.1059 3.74143 22.1059C3.7453 22.213 3.77227 22.3171 3.7486 22.4086C3.58439 23.044 3.26054 23.5438 2.56712 23.7212C1.92714 23.8849 1.12388 23.6093 0.752409 23.0051C0.478426 22.5595 0.445697 22.0902 0.567202 21.6138C0.721155 21.0103 1.18519 20.68 1.75802 20.5149C2.44898 20.3158 3.00847 20.5728 3.4605 21.0922C3.50594 21.1444 3.51921 21.2238 3.55763 21.3147" fill="#E0E0F6"/>
</g>
<path fill-rule="evenodd" clip-rule="evenodd" d="M4.73452 22.3539H5.60416C5.51594 21.9219 5.34506 21.5455 5.17348 21.0859C4.98961 21.5358 4.81922 21.915 4.73452 22.3539M4.94558 20.5215H5.36762C5.85694 21.5344 6.21204 22.6024 6.65754 23.6477C6.48476 23.7241 6.33509 23.6819 6.17412 23.6918C5.98385 23.4273 5.96756 23.0934 5.80841 22.8041H4.55051C4.43041 23.0886 4.31144 23.3707 4.18452 23.6715H3.75195C3.8165 23.2969 3.99721 22.9682 4.12314 22.6231C4.25188 22.2701 4.40155 21.9246 4.53893 21.5747C4.67567 21.2265 4.80856 20.8768 4.94558 20.5215" fill="#E0E0F6"/>
</svg>
