<svg width="85" height="27" viewBox="0 0 85 27" fill="none" xmlns="http://www.w3.org/2000/svg">
<g clip-path="url(#clip0_107_10032)">
<path fill-rule="evenodd" clip-rule="evenodd" d="M78.4811 19.6236C78.2085 19.6236 77.967 19.6651 77.7552 19.7473C77.5504 19.8261 77.3642 19.9467 77.2084 20.1013C77.0517 20.2598 76.9245 20.445 76.8326 20.6481C76.7325 20.8695 76.6638 21.1038 76.6284 21.3442H80.2525C80.1703 20.8003 79.9757 20.3768 79.6696 20.0761C79.3634 19.7746 78.9663 19.6236 78.4811 19.6236ZM83.2416 25.435V25.0111H83.1309L83.0034 25.3025L82.8764 25.0111H82.7657V25.4346H82.8433V25.1151L82.9632 25.3906H83.0441L83.1632 25.1146V25.4346H83.2416V25.435ZM82.5409 25.435V25.0832H82.6822V25.0119H82.3216V25.0832H82.4633V25.435H82.5409ZM78.5101 18.2678C78.9961 18.2678 79.4423 18.3559 79.8478 18.5333C80.2457 18.7052 80.6015 18.9616 80.8903 19.2848C81.1797 19.6081 81.4053 19.9943 81.5684 20.4439C81.7311 20.8934 81.8129 21.3912 81.8129 21.9351C81.814 22.1251 81.8042 22.3149 81.7835 22.5037H76.6217C76.6699 22.8199 76.7601 23.0892 76.8913 23.3131C77.0226 23.537 77.1807 23.7207 77.3652 23.8637C77.5497 24.0075 77.7565 24.1132 77.985 24.1807C78.217 24.2493 78.4577 24.2837 78.6996 24.2826C79.0498 24.2826 79.4008 24.2189 79.753 24.0897C80.1053 23.961 80.4274 23.7798 80.7196 23.5467L81.4774 24.6328C81.0497 24.9976 80.5964 25.2526 80.1174 25.3985C79.6267 25.5461 79.1168 25.6197 78.6044 25.617C78.0802 25.617 77.5988 25.5294 77.1614 25.3549C76.7369 25.1885 76.3518 24.9353 76.0308 24.6114C75.7151 24.2902 75.4693 23.9035 75.2944 23.4515C75.1196 22.9994 75.0323 22.4966 75.0323 21.9418C75.0323 21.3979 75.1166 20.8997 75.2873 20.4481C75.4576 19.9956 75.6954 19.6081 76.0019 19.2848C76.3107 18.96 76.6845 18.7039 77.0989 18.5333C77.525 18.3563 77.9951 18.2678 78.5101 18.2678ZM69.8986 19.7041C69.5682 19.7041 69.2729 19.7637 69.0125 19.8828C68.7615 19.9953 68.5369 20.1593 68.3533 20.3642C68.1697 20.5716 68.0284 20.8129 67.9373 21.0746C67.8389 21.3531 67.7896 21.6465 67.7914 21.9418C67.7914 22.2484 67.84 22.5381 67.9373 22.8103C68.0283 23.0721 68.1696 23.3135 68.3533 23.5211C68.537 23.7258 68.7616 23.8898 69.0125 24.0025C69.2729 24.1216 69.5682 24.1807 69.8986 24.1807C70.2148 24.1807 70.5016 24.1237 70.7591 24.0088C71.017 23.8956 71.238 23.7383 71.4225 23.5391C71.6112 23.3341 71.7574 23.0938 71.8528 22.8321C71.9572 22.547 72.0092 22.2454 72.0063 21.9418C72.0063 21.6214 71.9547 21.3245 71.8528 21.0528C71.7571 20.7912 71.6109 20.551 71.4225 20.3457C71.238 20.1465 71.017 19.9901 70.7591 19.8748C70.5016 19.7616 70.2148 19.7041 69.8986 19.7041ZM69.7166 18.2678C70.2173 18.2678 70.6476 18.3614 71.007 18.5488C71.3589 18.7297 71.6675 18.9846 71.9115 19.2961V14.9352H73.4354V25.435H71.9111V24.5963C71.6675 24.9074 71.3588 25.1613 71.0065 25.3403C70.6472 25.5248 70.2169 25.617 69.7162 25.617C69.2251 25.617 68.7684 25.5265 68.3457 25.3436C67.9292 25.166 67.5524 24.907 67.2374 24.5816C66.915 24.2472 66.6623 23.8521 66.4939 23.4192C66.3131 22.9696 66.2238 22.4769 66.2238 21.9418C66.2238 21.408 66.3131 20.9152 66.4939 20.4657C66.6624 20.0327 66.9151 19.6375 67.2374 19.3028C67.5587 18.9713 67.9442 18.7086 68.3702 18.5307C68.7963 18.3527 69.2541 18.2633 69.7158 18.2678H69.7166ZM61.3681 19.7041C61.0706 19.7013 60.7756 19.757 60.4996 19.8681C60.2401 19.9724 60.0046 20.1286 59.8077 20.3273C59.6092 20.5303 59.4528 20.7706 59.3476 21.0343C59.2335 21.3231 59.1766 21.6313 59.1799 21.9418C59.1799 22.2731 59.2365 22.5759 59.3476 22.8505C59.4527 23.1144 59.6089 23.3548 59.8073 23.558C60.0046 23.7562 60.2402 23.9123 60.4996 24.0168C60.7755 24.1275 61.0704 24.1832 61.3677 24.1807C61.6788 24.1807 61.9678 24.1262 62.2353 24.0172C62.5024 23.9073 62.7344 23.7543 62.9314 23.558C63.1319 23.3557 63.2895 23.1151 63.3948 22.8505C63.5068 22.5759 63.5626 22.2731 63.5626 21.9418C63.5662 21.6313 63.5093 21.323 63.3948 21.0343C63.2895 20.7699 63.1319 20.5294 62.9314 20.3273C62.7344 20.1302 62.5024 19.9771 62.2353 19.8681C61.9598 19.7572 61.6651 19.7016 61.3681 19.7045V19.7041ZM61.3681 18.2678C61.9074 18.2678 62.4068 18.3614 62.866 18.5488C63.31 18.7259 63.7149 18.9883 64.0578 19.3213C64.3953 19.6524 64.6632 20.0476 64.8458 20.4837C65.0353 20.9316 65.1297 21.4176 65.1297 21.9418C65.1297 22.4677 65.0353 22.9533 64.8458 23.4007C64.6632 23.837 64.3953 24.2324 64.0578 24.5636C63.7148 24.8965 63.3099 25.1591 62.866 25.3365C62.4068 25.5239 61.9074 25.6175 61.3681 25.6175C60.8284 25.6175 60.3285 25.5239 59.8693 25.3365C59.4261 25.1597 59.0222 24.897 58.6809 24.5636C58.3452 24.2316 58.0787 23.8364 57.8967 23.4007C57.708 22.9533 57.6128 22.4677 57.6128 21.9418C57.6128 21.4176 57.708 20.9316 57.8967 20.4837C58.0787 20.0482 58.3452 19.6531 58.6809 19.3213C59.0221 18.9876 59.426 18.725 59.8693 18.5484C60.3285 18.3614 60.8284 18.2678 61.3681 18.2678ZM52.3629 15.0371C52.8149 15.0371 53.2527 15.0858 53.6754 15.1831C54.085 15.2755 54.4818 15.4177 54.8568 15.6066C55.2208 15.7911 55.5525 16.0155 55.8481 16.2805C56.1395 16.5391 56.3902 16.8402 56.5916 17.1737L55.2141 18.0921C54.9082 17.64 54.4963 17.2697 54.0143 17.0135C53.5253 16.751 52.976 16.6202 52.3629 16.6202C51.8425 16.6202 51.3615 16.7099 50.9195 16.8894C50.4898 17.0611 50.1 17.3192 49.7742 17.6476C49.4538 17.9739 49.2022 18.3651 49.0198 18.8218C48.8378 19.2789 48.7464 19.7821 48.7464 20.3311C48.7464 20.8804 48.8378 21.3836 49.0198 21.8403C49.2022 22.297 49.4538 22.6883 49.7742 23.0145C50.0998 23.3431 50.4895 23.6012 50.919 23.7727C51.3615 23.9522 51.8425 24.0419 52.3629 24.0419C52.9701 24.0419 53.5161 23.9136 53.9996 23.6557C54.4831 23.3988 54.8973 23.0287 55.2069 22.5771L56.5489 23.5614C56.3311 23.8803 56.0724 24.1694 55.7794 24.421C55.4815 24.6767 55.1533 24.8947 54.8023 25.0702C54.4363 25.2535 54.0495 25.3919 53.6503 25.4824C53.2393 25.5768 52.8103 25.625 52.3629 25.625C51.5804 25.625 50.8607 25.4921 50.2049 25.2266C49.5482 24.9624 48.9845 24.5938 48.5132 24.1225C48.0414 23.6511 47.6745 23.0921 47.4124 22.4459C47.1495 21.7988 47.0186 21.0943 47.0186 20.3311C47.0186 19.5678 47.1495 18.8633 47.4124 18.2163C47.6745 17.57 48.0414 17.011 48.5132 16.5397C48.9845 16.0683 49.5482 15.7001 50.2049 15.4351C50.8607 15.1701 51.5804 15.0371 52.3629 15.0371ZM42.4539 19.6236C42.1814 19.6236 41.9402 19.6651 41.7285 19.7473C41.5237 19.826 41.3376 19.9466 41.182 20.1013C41.0252 20.2597 40.898 20.4449 40.8063 20.6481C40.7062 20.8695 40.6374 21.1038 40.6021 21.3442H44.2265C44.1431 20.8003 43.9489 20.3768 43.6428 20.0761C43.3367 19.7746 42.9404 19.6236 42.4539 19.6236ZM42.4833 18.2678C42.9697 18.2678 43.4151 18.3559 43.8214 18.5333C44.2194 18.7054 44.5752 18.9618 44.8644 19.2848C45.1529 19.6081 45.3794 19.9943 45.5421 20.4439C45.7048 20.8934 45.7865 21.3912 45.7865 21.9351C45.7862 22.125 45.7763 22.3148 45.7568 22.5037H40.5945C40.6436 22.8199 40.7333 23.0892 40.8642 23.3131C40.9856 23.5253 41.1466 23.7122 41.3385 23.8637C41.5234 24.0074 41.7338 24.115 41.9587 24.1807C42.1904 24.2493 42.4308 24.2836 42.6724 24.2826C43.023 24.2826 43.3744 24.2189 43.7267 24.0897C44.0762 23.9627 44.4026 23.7792 44.6929 23.5467L45.4511 24.6328C45.0233 24.9976 44.5704 25.2526 44.0911 25.3985C43.6004 25.5461 43.0905 25.6197 42.5781 25.617C42.053 25.617 41.5716 25.5294 41.1342 25.3549C40.71 25.1885 40.3252 24.9352 40.0045 24.6114C39.6879 24.2902 39.443 23.9035 39.2681 23.4515C39.0928 22.9994 39.0052 22.4966 39.0052 21.9418C39.0052 21.3979 39.0903 20.8997 39.261 20.4481C39.4308 19.9956 39.669 19.6081 39.9751 19.2848C40.2837 18.9597 40.6576 18.7036 41.0722 18.5333C41.4978 18.3563 41.9679 18.2678 42.4837 18.2678H42.4833ZM37.3646 18.2678C37.5758 18.266 37.7868 18.2819 37.9954 18.3152C38.181 18.346 38.363 18.3959 38.5384 18.4641L38.1744 19.9738C37.9966 19.8853 37.8076 19.8215 37.6125 19.7842C37.4159 19.7421 37.2155 19.7201 37.0145 19.7184C36.7713 19.7184 36.5482 19.7595 36.3435 19.8425C36.143 19.9225 35.9634 20.0473 35.8185 20.2074C35.6659 20.3791 35.5493 20.5797 35.4759 20.7974C35.3933 21.0305 35.3522 21.2956 35.3522 21.5925V25.435H33.8282V18.4503H35.3379V19.2374C35.5711 18.9019 35.86 18.6566 36.2051 18.501C36.5507 18.3458 36.9369 18.2678 37.3646 18.2678ZM31.8019 22.4748C31.8019 23.0288 31.7088 23.5052 31.5243 23.9035C31.3398 24.3019 31.0965 24.6282 30.7955 24.8806C30.4917 25.1351 30.1392 25.3251 29.7596 25.4388C29.3721 25.5573 28.969 25.6174 28.5636 25.617C28.156 25.617 27.7568 25.5575 27.3685 25.4388C26.9881 25.3247 26.6346 25.135 26.3293 24.8811C26.0257 24.6282 25.7825 24.3024 25.6005 23.9035C25.4181 23.5052 25.3271 23.0288 25.3271 22.4748V18.4503H26.8577V22.3356C26.8577 22.6711 26.9022 22.9571 26.9894 23.1923C27.0766 23.4284 27.1974 23.6188 27.35 23.7647C27.5043 23.911 27.6903 24.0195 27.8935 24.0818C28.1106 24.1485 28.3366 24.1817 28.5636 24.1803C28.8027 24.1803 29.0258 24.1472 29.2355 24.0818C29.4439 24.0164 29.625 23.9103 29.7781 23.7647C29.9316 23.6188 30.0515 23.4284 30.1387 23.1923C30.2268 22.9571 30.2704 22.6711 30.2704 22.3356V18.4498H31.8019V22.4748ZM21.3746 18.2678C21.8997 18.2678 22.3882 18.3614 22.8399 18.5488C23.2838 18.7298 23.6769 19.0162 23.9851 19.3833L23.008 20.4254C22.7602 20.1923 22.5023 20.0136 22.2352 19.8899C21.9676 19.7662 21.6665 19.7041 21.331 19.7041C21.0392 19.7041 20.7666 19.7586 20.5145 19.8681C20.2662 19.9739 20.0427 20.1303 19.8583 20.3273C19.6686 20.5322 19.5211 20.7725 19.4242 21.0343C19.3168 21.3247 19.2635 21.6322 19.267 21.9418C19.267 22.2731 19.3198 22.5759 19.4242 22.8505C19.5211 23.1126 19.6686 23.3529 19.8583 23.558C20.043 23.7546 20.2665 23.9108 20.5145 24.0168C20.7725 24.1271 21.0505 24.183 21.331 24.1807C21.6665 24.1807 21.9802 24.1115 22.2712 23.9727C22.5631 23.8344 22.821 23.6607 23.0441 23.4515L23.9851 24.5015C23.6712 24.8657 23.2766 25.1516 22.8327 25.3365C22.3861 25.5239 21.8997 25.6175 21.3746 25.6175C20.8203 25.6175 20.317 25.5239 19.8654 25.3365C19.4137 25.149 19.0267 24.8915 18.7063 24.5636C18.382 24.2305 18.129 23.8349 17.9628 23.4007C17.7875 22.9533 17.6998 22.4677 17.6998 21.9418C17.6998 21.4176 17.7879 20.9316 17.9628 20.4837C18.129 20.0497 18.382 19.6542 18.7063 19.3213C19.0267 18.9929 19.4137 18.7358 19.8654 18.5484C20.317 18.3614 20.8203 18.2678 21.3746 18.2678ZM13.2744 19.6236C13.0018 19.6236 12.7603 19.6651 12.5485 19.7473C12.3436 19.8261 12.1574 19.9467 12.0016 20.1013C11.8451 20.2599 11.718 20.445 11.6263 20.6481C11.5261 20.8694 11.4575 21.1038 11.4225 21.3442H15.0466C14.964 20.8003 14.7694 20.3768 14.4628 20.0761C14.1567 19.7746 13.7604 19.6236 13.2748 19.6236H13.2744ZM13.3033 18.2678C13.7894 18.2678 14.2355 18.3559 14.6411 18.5333C15.039 18.7054 15.3948 18.9618 15.684 19.2848C15.9734 19.6081 16.199 19.9943 16.3625 20.4439C16.5244 20.8934 16.6062 21.3912 16.6062 21.9351C16.606 22.125 16.5962 22.3148 16.5768 22.5037H11.4158C11.4645 22.8199 11.5542 23.0892 11.6855 23.3131C11.8163 23.537 11.9748 23.7207 12.1593 23.8637C12.3442 24.0074 12.5544 24.115 12.7791 24.1807C13.0111 24.2493 13.2518 24.2837 13.4937 24.2826C13.8439 24.2826 14.1949 24.2189 14.5471 24.0897C14.8967 23.9627 15.2231 23.7792 15.5133 23.5467L16.2715 24.6328C15.8438 24.9976 15.3909 25.2526 14.9124 25.3985C14.4214 25.5461 13.9112 25.6197 13.3985 25.617C12.8735 25.617 12.3921 25.5294 11.9543 25.3549C11.53 25.1883 11.1451 24.935 10.8241 24.6114C10.5083 24.2902 10.2626 23.9035 10.0877 23.4515C9.91284 22.9994 9.82561 22.4966 9.82561 21.9418C9.82561 21.3979 9.91032 20.8997 10.0806 20.4481C10.2504 19.9956 10.489 19.6081 10.7952 19.2848C11.104 18.9598 11.478 18.7038 11.8926 18.5333C12.3174 18.3563 12.7879 18.2678 13.3033 18.2678ZM7.74058 17.4874C7.31277 17.2149 6.85196 16.998 6.36929 16.842C5.88611 16.6881 5.38183 16.6105 4.87471 16.6122C4.56052 16.6093 4.24716 16.645 3.94164 16.7183C3.65942 16.7884 3.41745 16.8907 3.21616 17.0245C3.02517 17.1472 2.86434 17.3115 2.74565 17.505C2.63368 17.6925 2.5779 17.9034 2.5779 18.1366C2.5779 18.35 2.62655 18.5325 2.72384 18.6834C2.82113 18.8344 2.96077 18.9619 3.14319 19.0659C3.32561 19.1703 3.54787 19.2571 3.80997 19.325C4.10324 19.3994 4.40029 19.4579 4.69984 19.5003L5.40729 19.5947C5.81716 19.6521 6.22174 19.7424 6.61713 19.8647C6.99336 19.9774 7.34913 20.1496 7.67097 20.3747C7.97697 20.5906 8.23109 20.872 8.4149 21.1983C8.60194 21.5296 8.69545 21.9309 8.69545 22.4018C8.69545 22.9218 8.586 23.3819 8.3671 23.7798C8.14962 24.1775 7.84566 24.5213 7.47764 24.7859C7.10358 25.058 6.66955 25.2648 6.17639 25.4057C5.66488 25.549 5.13585 25.6201 4.60465 25.617C4.25994 25.617 3.90139 25.5881 3.52942 25.5294C3.15787 25.4711 2.79052 25.3851 2.42861 25.2711C2.07072 25.1584 1.72296 25.0157 1.38903 24.8446C1.05858 24.6743 0.762516 24.4747 0.5 24.2462L1.397 22.9336C1.58885 23.1065 1.80057 23.256 2.02771 23.3789C2.28133 23.5185 2.54566 23.6377 2.81819 23.7354C3.10397 23.8391 3.39801 23.9185 3.69716 23.9727C4.00077 24.0285 4.30103 24.0566 4.59752 24.0566C4.933 24.0566 5.24542 24.0231 5.53477 23.9547C5.82371 23.8868 6.07532 23.787 6.28961 23.6557C6.50306 23.5249 6.67206 23.3655 6.79619 23.1781C6.92032 22.991 6.98239 22.7814 6.98239 22.5482C6.98239 22.149 6.78613 21.8454 6.39529 21.6361C6.00361 21.4268 5.43413 21.2713 4.68516 21.1694L3.8909 21.0595C3.51285 21.0069 3.14053 20.9191 2.77877 20.7974C2.42857 20.6829 2.10062 20.5091 1.80923 20.2837C1.52266 20.0602 1.28873 19.7764 1.124 19.4525C0.951226 19.12 0.864419 18.7153 0.864419 18.2381C0.864419 17.7277 0.970935 17.2748 1.18229 16.8785C1.39163 16.4849 1.68688 16.1435 2.04616 15.8796C2.41058 15.6096 2.83706 15.4045 3.32603 15.2636C3.81416 15.1227 4.33584 15.0522 4.88981 15.0522C5.63332 15.0522 6.30555 15.1508 6.90565 15.3475C7.49711 15.5399 8.06013 15.8107 8.57971 16.1526L7.741 17.4874H7.74058Z" fill="#F79E1B"/>
<path fill-rule="evenodd" clip-rule="evenodd" d="M78.1975 5.08723C77.8549 5.08723 77.5483 5.14929 77.2791 5.27217C77.0185 5.38901 76.7852 5.55915 76.5943 5.77162C76.4042 5.98728 76.2578 6.2378 76.1632 6.50926C76.0613 6.79829 76.0101 7.10274 76.0118 7.4092C76.0118 7.72707 76.0626 8.02649 76.1632 8.30913C76.2638 8.59136 76.4081 8.83752 76.5943 9.04636C76.7849 9.25895 77.0181 9.42911 77.2787 9.54581C77.5483 9.66868 77.8549 9.73075 78.1975 9.73075C78.5258 9.73075 78.8223 9.67162 79.0907 9.55294C79.351 9.43939 79.5851 9.27352 79.7785 9.06565C79.9738 8.85265 80.1252 8.60329 80.2242 8.33178C80.3329 8.03648 80.3869 7.72385 80.3836 7.4092C80.3836 7.07623 80.3307 6.76842 80.2242 6.4862C80.1252 6.21478 79.9739 5.96544 79.7789 5.75233C79.585 5.54467 79.3506 5.37884 79.0903 5.26504C78.8227 5.14636 78.5258 5.08723 78.1975 5.08723ZM83.6323 10.6869V10.8009H83.7372C83.7615 10.8009 83.7812 10.7959 83.795 10.7867C83.8097 10.7775 83.8168 10.7632 83.8168 10.7435C83.8173 10.7351 83.8155 10.7268 83.8117 10.7194C83.8078 10.7119 83.8021 10.7056 83.795 10.7011C83.7777 10.6908 83.7577 10.6859 83.7376 10.6869H83.6323ZM83.7384 10.6064C83.7839 10.6036 83.829 10.6166 83.8659 10.6433C83.8806 10.6554 83.8923 10.6707 83.9 10.6881C83.9077 10.7055 83.9112 10.7245 83.9104 10.7435C83.9109 10.7597 83.908 10.7758 83.9019 10.7908C83.8959 10.8058 83.8867 10.8194 83.8751 10.8307C83.8469 10.8557 83.8112 10.8706 83.7737 10.8731L83.9137 11.0349H83.8047L83.6743 10.8743H83.6323V11.0349H83.5413V10.6059H83.7384V10.6064ZM83.7116 11.1813C83.7615 11.1813 83.808 11.1716 83.8504 11.1532C83.9152 11.1256 83.9704 11.0794 84.009 11.0204C84.0476 10.9615 84.0679 10.8924 84.0672 10.8219C84.0676 10.775 84.0587 10.7285 84.041 10.6851C84.0232 10.6417 83.9971 10.6022 83.964 10.569C83.9309 10.5358 83.8916 10.5094 83.8483 10.4915C83.8049 10.4736 83.7585 10.4644 83.7116 10.4646C83.664 10.4641 83.6169 10.473 83.5728 10.4908C83.5288 10.5087 83.4887 10.5351 83.4549 10.5686C83.4217 10.6019 83.3954 10.6415 83.3776 10.6851C83.3598 10.7286 83.3509 10.7753 83.3514 10.8223C83.3511 10.8695 83.3601 10.9162 83.3778 10.9599C83.3956 11.0036 83.4218 11.0433 83.4549 11.0769C83.5234 11.1442 83.6156 11.1818 83.7116 11.1817V11.1813ZM83.7116 10.3615C83.8353 10.3618 83.954 10.41 84.0429 10.4961C84.0862 10.5387 84.1207 10.5895 84.1443 10.6454C84.1679 10.7014 84.1802 10.7616 84.1804 10.8223C84.1802 10.9134 84.1528 11.0023 84.1018 11.0777C84.0508 11.1532 83.9784 11.2117 83.894 11.2459C83.8364 11.2708 83.7743 11.2835 83.7116 11.2832C83.6453 11.2832 83.5837 11.2706 83.5262 11.2463C83.4143 11.1997 83.3248 11.1116 83.2763 11.0006C83.252 10.9443 83.2396 10.8836 83.2398 10.8223C83.2396 10.7617 83.2516 10.7016 83.275 10.6456C83.2984 10.5897 83.3328 10.5389 83.3761 10.4965C83.4659 10.4092 83.5864 10.3609 83.7116 10.3619V10.3615ZM78.0084 3.59726C78.5279 3.59726 78.9741 3.69455 79.3478 3.8883C79.7126 4.07589 80.0325 4.34027 80.2855 4.66326V0.14094H81.866V11.0316H80.285V10.1614C80.033 10.4842 79.713 10.7474 79.3478 10.9326C78.9741 11.1251 78.5279 11.2207 78.0084 11.2207C77.5201 11.2247 77.0362 11.1282 76.5867 10.9372C76.155 10.7525 75.7644 10.4836 75.4377 10.1463C75.1094 9.80875 74.8527 9.40659 74.6661 8.94026C74.4799 8.47352 74.386 7.96317 74.386 7.40878C74.386 6.85439 74.4799 6.34362 74.6661 5.87688C74.8527 5.41139 75.1094 5.00881 75.4377 4.67123C75.7643 4.33379 76.1549 4.06491 76.5867 3.88033C77.0362 3.68947 77.5201 3.59298 78.0084 3.59684V3.59726ZM72.8201 3.59726C73.0625 3.59726 73.2806 3.61404 73.4743 3.64633C73.667 3.67876 73.8558 3.73075 74.0379 3.80149L73.6597 5.36694C73.4936 5.28139 73.2994 5.21597 73.078 5.17068C72.8739 5.12724 72.666 5.10434 72.4574 5.10233C72.2193 5.09978 71.983 5.14351 71.7617 5.23107C71.5538 5.31413 71.3677 5.4435 71.2173 5.60933C71.0588 5.78738 70.9378 5.99563 70.8617 6.22158C70.7762 6.46397 70.733 6.73823 70.733 7.04604V11.0316H69.152V3.78681H70.7183V4.60287C70.9598 4.25523 71.2597 4.00068 71.6182 3.83923C71.9759 3.6782 72.3768 3.59726 72.8201 3.59726ZM63.1552 5.08723C62.8126 5.08723 62.5061 5.14929 62.236 5.27217C61.9756 5.3892 61.7425 5.55932 61.5516 5.77162C61.3617 5.98742 61.2153 6.2379 61.1205 6.50926C61.019 6.79838 60.968 7.10279 60.9696 7.4092C60.9696 7.72707 61.0207 8.02649 61.1205 8.30913C61.2153 8.58041 61.3617 8.83076 61.5516 9.04636C61.7387 9.25604 61.9668 9.4221 62.236 9.54581C62.5061 9.66868 62.8126 9.73075 63.1552 9.73075C63.4832 9.73075 63.7805 9.67162 64.0476 9.55294C64.3082 9.43951 64.5426 9.27363 64.7362 9.06565C64.9278 8.85849 65.0759 8.61442 65.1824 8.33178C65.2885 8.04955 65.3409 7.74217 65.3409 7.4092C65.3444 7.09447 65.2907 6.78173 65.1824 6.4862C65.0831 6.21473 64.9315 5.96539 64.7362 5.75233C64.5424 5.54454 64.308 5.3787 64.0476 5.26504C63.7805 5.14636 63.4832 5.08723 63.1552 5.08723ZM66.8233 11.0316H65.2424V10.1614C64.9903 10.4842 64.6703 10.7474 64.3051 10.9326C63.9315 11.1251 63.4857 11.2207 62.9665 11.2207C62.457 11.2207 61.9827 11.1259 61.5445 10.9372C61.1127 10.7523 60.722 10.4835 60.395 10.1463C60.0611 9.79887 59.7989 9.38905 59.6234 8.94026C59.4372 8.47352 59.3437 7.96317 59.3437 7.40878C59.3437 6.85439 59.4372 6.34362 59.6234 5.87688C59.81 5.41139 60.0671 5.00881 60.395 4.67123C60.7219 4.33392 61.1126 4.06506 61.5445 3.88033C61.9939 3.68942 62.4778 3.59293 62.9661 3.59684C63.4861 3.59684 63.9315 3.69413 64.3051 3.88788C64.6699 4.07547 64.9898 4.33985 65.2428 4.66284V3.78639H66.8233V11.0316ZM55.6907 3.59726C56.2355 3.59726 56.742 3.69455 57.2105 3.8883C57.6707 4.0764 58.0781 4.37377 58.3977 4.75468L57.3845 5.83662C57.1274 5.59381 56.8603 5.40888 56.5835 5.28013C56.3055 5.15223 55.9935 5.08723 55.645 5.08723C55.354 5.08487 55.0657 5.14299 54.7983 5.25791C54.5406 5.3675 54.3086 5.52977 54.1173 5.73429C53.9207 5.94668 53.7679 6.19578 53.6678 6.46733C53.5587 6.75249 53.505 7.06617 53.505 7.4092C53.505 7.75223 53.5587 8.06591 53.6678 8.35107C53.7681 8.62267 53.9208 8.87188 54.1173 9.08452C54.3088 9.28876 54.5407 9.45086 54.7983 9.56049C55.0657 9.67531 55.354 9.73329 55.645 9.73075C55.9931 9.73075 56.3181 9.65862 56.6208 9.51562C56.9145 9.37788 57.185 9.19538 57.4227 8.97465L58.3977 10.0637C58.0727 10.4417 57.6636 10.7383 57.2033 10.9297C56.7391 11.1238 56.2355 11.2211 55.6907 11.2211C55.1162 11.2211 54.5937 11.1238 54.1253 10.9297C53.656 10.7355 53.2551 10.4684 52.9226 10.1287C52.5865 9.78271 52.3242 9.37213 52.1514 8.92181C51.9698 8.45759 51.8792 7.9531 51.8792 7.4092C51.8792 6.86488 51.9698 6.36039 52.1518 5.89617C52.3244 5.44609 52.5866 5.03576 52.9226 4.6901C53.2551 4.34958 53.6564 4.08288 54.1253 3.8883C54.5937 3.69455 55.1162 3.59726 55.6907 3.59726ZM50.2836 3.59726C50.5255 3.59726 50.7436 3.61404 50.9378 3.64633C51.1315 3.67946 51.3194 3.73062 51.5005 3.80149L51.1227 5.36694C50.9383 5.27512 50.7422 5.20908 50.5398 5.17068C50.3361 5.12719 50.1286 5.10429 49.9204 5.10233C49.6822 5.0998 49.4458 5.14352 49.2243 5.23107C49.0165 5.31427 48.8304 5.44362 48.6799 5.60933C48.5218 5.78767 48.4009 5.99584 48.3243 6.22158C48.2388 6.46397 48.196 6.73823 48.196 7.04604V11.0316H46.6155V3.78681H48.1805V4.60287C48.4225 4.25523 48.7227 4.00068 49.0808 3.83923C49.4386 3.6782 49.8395 3.59726 50.2836 3.59726ZM41.3517 5.00462C41.0695 5.00462 40.8183 5.04697 40.599 5.13252C40.3864 5.21397 40.1931 5.33895 40.0316 5.49946C39.8691 5.66385 39.7373 5.85601 39.6424 6.06684C39.5384 6.29631 39.4671 6.53925 39.4307 6.78855H43.1898C43.1034 6.22452 42.9021 5.78546 42.5842 5.47304C42.2663 5.16062 41.8554 5.00462 41.3517 5.00462ZM41.3819 3.59726C41.8856 3.59726 42.3485 3.68952 42.77 3.8732C43.1826 4.05139 43.5515 4.31726 43.8511 4.65236C44.1509 4.98784 44.3858 5.38875 44.5543 5.85507C44.7233 6.32139 44.8076 6.83678 44.8076 7.40165C44.8082 7.59857 44.7984 7.79538 44.7783 7.99126H39.4231C39.473 8.3192 39.5665 8.59933 39.7028 8.83123C39.8286 9.05118 39.9955 9.24494 40.1943 9.40197C40.3863 9.55058 40.6043 9.66208 40.8372 9.73075C41.0777 9.80201 41.3273 9.83761 41.5782 9.83642C41.9515 9.83482 42.3217 9.76709 42.6714 9.63639C43.0339 9.50446 43.3723 9.31407 43.6733 9.07278L44.46 10.1996C44.0159 10.5778 43.5458 10.8429 43.0493 10.9938C42.5405 11.1471 42.0118 11.2237 41.4805 11.2211C40.9357 11.2211 40.4363 11.1297 39.9825 10.9486C39.5424 10.776 39.1432 10.5135 38.8104 10.1778C38.4829 9.84439 38.2275 9.44349 38.0468 8.97423C37.8648 8.50581 37.7742 7.98371 37.7742 7.4092C37.7742 6.84475 37.8623 6.32726 38.0388 5.85842C38.2154 5.38959 38.4624 4.98784 38.7802 4.65236C39.1005 4.31517 39.4885 4.04963 39.9188 3.8732C40.3599 3.68952 40.8472 3.59726 41.3819 3.59726ZM36.5191 5.2231H33.7429V8.37707C33.7429 8.61862 33.7736 8.82578 33.8339 8.99729C33.8853 9.15308 33.9692 9.29617 34.0801 9.41707C34.1806 9.52376 34.3047 9.60535 34.4424 9.65526C34.5808 9.70559 34.7318 9.73075 34.8932 9.73075C35.1505 9.72901 35.4053 9.68041 35.6451 9.58733C35.9001 9.49088 36.1358 9.37513 36.3526 9.23926L36.9799 10.5019C36.6712 10.7075 36.3404 10.8777 35.9936 11.0094C35.6279 11.1498 35.2157 11.2211 34.7565 11.2211C33.9346 11.2211 33.2955 10.993 32.8392 10.5367C32.383 10.0796 32.1549 9.37094 32.1549 8.40726V5.2231H30.7098V3.78681H32.1544V1.59317H33.7425V3.78639H36.5187V5.2231H36.5191ZM29.0168 5.60178C28.7179 5.43048 28.4007 5.29333 28.0712 5.19291C27.8741 5.13252 27.6669 5.08262 27.4476 5.04194C27.2266 5.00157 27.0025 4.98136 26.7779 4.98155C26.3443 4.98155 26.0079 5.06123 25.7681 5.21975C25.5286 5.37784 25.4091 5.58668 25.4091 5.84375C25.4091 5.96955 25.4401 6.07523 25.5035 6.16078C25.5704 6.2502 25.6571 6.32297 25.7568 6.37339C25.8629 6.42875 25.9887 6.47278 26.1354 6.50507C26.2814 6.5382 26.4378 6.56713 26.6039 6.59188L27.3524 6.70594C28.1441 6.82168 28.7614 7.05191 29.2055 7.39788C29.6496 7.743 29.8715 8.2261 29.8715 8.84591C29.8715 9.19397 29.7964 9.51268 29.6479 9.80288C29.4945 10.0986 29.2746 10.3547 29.0055 10.551C28.7254 10.7607 28.3798 10.923 27.9693 11.0391C27.5583 11.1557 27.0928 11.2132 26.5737 11.2132C26.387 11.2132 26.1698 11.2018 25.9237 11.1792C25.6762 11.1561 25.4141 11.1108 25.1365 11.0433C24.8472 10.9711 24.564 10.8763 24.2894 10.7598C23.9964 10.6351 23.7197 10.4751 23.4654 10.2835L24.1993 9.09584C24.3349 9.19996 24.4776 9.29468 24.6262 9.37933C24.7801 9.46739 24.9537 9.54581 25.1479 9.61333C25.3571 9.68567 25.5722 9.7401 25.7907 9.77604C26.0256 9.8163 26.2914 9.83642 26.5888 9.83642C27.1335 9.83642 27.5445 9.75717 27.8217 9.59907C28.0989 9.44013 28.2377 9.22417 28.2377 8.952C28.2377 8.74568 28.1366 8.575 27.9353 8.44165C27.7332 8.30788 27.4157 8.21059 26.9825 8.1502L26.226 8.05165C25.4192 7.94094 24.8078 7.70568 24.3918 7.34504C23.9758 6.98439 23.7678 6.51178 23.7678 5.92636C23.7678 5.56865 23.8374 5.24617 23.9758 4.95849C24.1145 4.67159 24.3191 4.42156 24.5729 4.22881C24.8329 4.03004 25.1466 3.87613 25.5148 3.76752C25.883 3.65933 26.299 3.60481 26.7628 3.60481C27.3323 3.60481 27.869 3.67191 28.3739 3.80568C28.878 3.93862 29.3192 4.12649 29.697 4.36888L29.0164 5.60178H29.0168ZM18.0876 5.08723C17.7446 5.08723 17.438 5.14929 17.1688 5.27217C16.9084 5.3892 16.6753 5.55932 16.4844 5.77162C16.2941 5.98714 16.1477 6.23769 16.0533 6.50926C15.9513 6.79825 15.9002 7.10274 15.9023 7.4092C15.9023 7.72707 15.9518 8.02649 16.0533 8.30913C16.1476 8.58061 16.294 8.83105 16.4844 9.04636C16.671 9.25604 16.8991 9.4221 17.1688 9.54581C17.438 9.66868 17.7446 9.73075 18.0872 9.73075C18.4151 9.73075 18.7129 9.67162 18.9796 9.55294C19.2403 9.43961 19.4748 9.27372 19.6686 9.06565C19.8598 8.85849 20.0082 8.61442 20.1148 8.33178C20.2204 8.04955 20.2729 7.74217 20.2729 7.4092C20.2762 7.09452 20.2226 6.78183 20.1148 6.4862C20.0153 6.21483 19.8637 5.96554 19.6686 5.75233C19.4747 5.54443 19.2402 5.37858 18.9796 5.26504C18.7129 5.14636 18.4151 5.08723 18.0872 5.08723H18.0876ZM21.7553 11.0316H20.1743V10.1614C19.9224 10.4842 19.6026 10.7475 19.2375 10.9326C18.8642 11.1251 18.4176 11.2207 17.8985 11.2207C17.41 11.2247 16.926 11.1282 16.4764 10.9372C16.0447 10.7523 15.654 10.4835 15.327 10.1463C14.9933 9.79922 14.7313 9.38965 14.5562 8.9411C14.3696 8.47436 14.2761 7.964 14.2761 7.40962C14.2761 6.85523 14.3696 6.34446 14.5562 5.87771C14.7313 5.42895 14.9934 5.01922 15.3274 4.67207C15.6543 4.33476 16.045 4.0659 16.4769 3.88117C16.9263 3.69031 17.4102 3.59382 17.8985 3.59768C18.4185 3.59768 18.8642 3.69497 19.2379 3.88871C19.6026 4.0763 19.9224 4.34069 20.1751 4.66368V3.78723H21.7557V11.0316H21.7553ZM12.7559 11.0316H11.0466V2.31949L7.95388 9.99536H6.15401L3.06085 2.4021V11.0316H1.35156V0.443714H3.97547L7.05437 8.00594L10.1324 0.443295H12.7563V11.0316H12.7559Z" fill="#EB001B"/>
</g>
<defs>
<clipPath id="clip0_107_10032">
<rect width="84" height="26" fill="white" transform="translate(0.5 0.140625)"/>
</clipPath>
</defs>
</svg>
