<svg width="53" height="27" viewBox="0 0 53 27" fill="none" xmlns="http://www.w3.org/2000/svg">
<g clip-path="url(#clip0_107_10044)">
<path d="M3.3518 9.2698L0.591797 0.806797H1.7718L3.0898 4.9768C3.4538 6.1188 3.7678 7.1498 3.9938 8.1418H4.0198C4.2578 7.1608 4.6098 6.0928 4.9858 4.9888L6.4178 0.805797H7.5848L4.5578 9.2708H3.3518V9.2698ZM11.4038 5.6408C11.4178 4.9378 11.1148 3.8448 9.8718 3.8448C8.7538 3.8448 8.2648 4.8748 8.1768 5.6408H11.4038ZM8.1638 6.4328C8.1898 7.9278 9.1428 8.5428 10.2488 8.5428C11.0408 8.5428 11.5168 8.4028 11.9318 8.2278L12.1208 9.0198C11.7308 9.1948 11.0658 9.3968 10.0988 9.3968C8.2268 9.3968 7.1088 8.1648 7.1088 6.3308C7.1088 4.4978 8.1888 3.0538 9.9588 3.0538C11.9438 3.0538 12.4728 4.8008 12.4728 5.9168C12.4728 6.1418 12.4468 6.3178 12.4338 6.4328H8.1638ZM13.3388 5.0878C13.3388 4.3738 13.3258 3.7578 13.2888 3.1918H14.2558L14.2928 4.3848H14.3428C14.6188 3.5688 15.2848 3.0548 16.0268 3.0548C16.1508 3.0548 16.2408 3.0668 16.3398 3.0918V4.1348C16.2161 4.10704 16.0896 4.09396 15.9628 4.0958C15.1848 4.0958 14.6328 4.6858 14.4818 5.5158C14.45 5.6857 14.4326 5.85797 14.4298 6.0308V9.2708H13.3398V5.0878H13.3388ZM16.9928 3.1908H18.0998V9.2698H16.9928V3.1898V3.1908ZM18.2248 1.4838C18.2378 1.8608 17.9598 2.1628 17.5218 2.1628C17.4328 2.16393 17.3446 2.14701 17.2623 2.11305C17.1801 2.0791 17.1056 2.02882 17.0433 1.96526C16.9811 1.9017 16.9324 1.82617 16.9001 1.74325C16.8679 1.66032 16.8528 1.57172 16.8558 1.4828C16.8558 1.0948 17.1438 0.792797 17.5478 0.792797C17.9598 0.792797 18.2248 1.0948 18.2248 1.4828V1.4838ZM19.5438 9.2698V4.0338H18.6888V3.1918H19.5438V2.9038C19.5438 2.0508 19.7328 1.2718 20.2468 0.780797C20.6618 0.379797 21.2128 0.216797 21.7288 0.216797C22.1188 0.216797 22.4568 0.303797 22.6708 0.392797L22.5208 1.2458C22.2986 1.14914 22.058 1.10237 21.8158 1.1088C20.8758 1.1088 20.6368 1.9378 20.6368 2.8668V3.1918H22.1048V4.0338H20.6368V9.2718H19.5438V9.2698ZM23.1958 3.1908H24.2998V9.2698H23.1958V3.1898V3.1908ZM24.4238 1.4838C24.4388 1.8608 24.1598 2.1628 23.7218 2.1628C23.6328 2.16407 23.5444 2.14724 23.462 2.11335C23.3797 2.07946 23.305 2.0292 23.2427 1.96563C23.1803 1.90205 23.1315 1.82648 23.0992 1.74348C23.0669 1.66049 23.0518 1.5718 23.0548 1.4828C23.0548 1.0948 23.3448 0.792797 23.7468 0.792797C24.1598 0.792797 24.4238 1.0948 24.4238 1.4828V1.4838ZM29.4858 5.6408C29.4978 4.9378 29.1978 3.8448 27.9538 3.8448C26.8368 3.8448 26.3478 4.8748 26.2578 5.6408H29.4858ZM26.2458 6.4328C26.2718 7.9278 27.2258 8.5428 28.3318 8.5428C29.1238 8.5428 29.5988 8.4028 30.0148 8.2278L30.2048 9.0198C29.8138 9.1948 29.1458 9.3968 28.1808 9.3968C26.3088 9.3968 25.1908 8.1648 25.1908 6.3308C25.1908 4.4978 26.2718 3.0538 28.0408 3.0538C30.0268 3.0538 30.5538 4.8008 30.5538 5.9168C30.5538 6.1418 30.5298 6.3178 30.5148 6.4328H26.2468H26.2458ZM35.5658 5.6668C35.5658 5.5278 35.5528 5.3388 35.5158 5.2008C35.3528 4.4978 34.7488 3.9208 33.9208 3.9208C32.7778 3.9208 32.1008 4.9248 32.1008 6.2708C32.1008 7.5008 32.7018 8.5158 33.8968 8.5158C34.6358 8.5158 35.3138 8.0278 35.5158 7.1968C35.5528 7.0468 35.5658 6.8968 35.5658 6.7218V5.6668ZM36.6718 0.354797V7.6998C36.6718 8.2398 36.6838 8.8538 36.7208 9.2698H35.7308L35.6788 8.2158H35.6528C35.3138 8.8928 34.5738 9.4068 33.5808 9.4068C32.1108 9.4068 30.9828 8.1638 30.9828 6.3168C30.9698 4.2948 32.2258 3.0538 33.7078 3.0538C34.6358 3.0538 35.2648 3.4938 35.5398 3.9828H35.5658V0.353797H36.6718V0.354797ZM41.9068 6.8338C41.9068 6.9708 41.9328 7.1098 41.9578 7.2358C42.1708 8.0018 42.8098 8.5288 43.6148 8.5288C44.7708 8.5288 45.4608 7.5878 45.4608 6.1938C45.4608 4.9768 44.8318 3.9338 43.6538 3.9338C42.8998 3.9338 42.1968 4.4478 41.9698 5.2888C41.9438 5.4148 41.9068 5.5648 41.9068 5.7408V6.8338ZM40.7638 9.2708C40.7888 8.8548 40.8138 8.2408 40.8138 7.7008V0.352797H41.9068V4.1708H41.9328C42.3208 3.4928 43.0238 3.0528 44.0048 3.0528C45.5128 3.0528 46.5788 4.3088 46.5678 6.1538C46.5678 8.3268 45.1978 9.4068 43.8418 9.4068C42.9618 9.4068 42.2588 9.0678 41.8068 8.2648H41.7698L41.7178 9.2698H40.7638V9.2708ZM47.7738 3.1908L49.1038 6.7838C49.2438 7.1858 49.3938 7.6638 49.4928 8.0278H49.5178C49.6328 7.6628 49.7578 7.1978 49.9088 6.7578L51.1138 3.1908H52.2818L50.6238 7.5248C49.8328 9.6098 49.2928 10.6768 48.5398 11.3298C47.9998 11.8058 47.4598 11.9948 47.1838 12.0458L46.9058 11.1158C47.1838 11.0288 47.5458 10.8528 47.8728 10.5758C48.1748 10.3368 48.5508 9.9108 48.8038 9.3458C48.8538 9.2318 48.8908 9.1458 48.8908 9.0818C48.8806 8.98242 48.855 8.88525 48.8148 8.7938L46.5678 3.1898H47.7738V3.1908ZM18.9218 13.4178L15.5718 21.8898L14.2158 14.6878C14.0598 13.8838 13.4318 13.4178 12.7328 13.4178H7.2548L7.1808 13.7778C8.3038 14.0258 9.5808 14.4178 10.3558 14.8358C10.8288 15.0958 10.9648 15.3208 11.1178 15.9318L13.6878 25.8648H17.0918L22.3078 13.4178H18.9218ZM23.6868 13.4178L21.0268 25.8648H24.2458L26.9028 13.4178H23.6868ZM31.1288 16.8678C31.1388 16.4218 31.5648 15.9478 32.4948 15.8218C32.9578 15.7638 34.2268 15.7188 35.6698 16.3798L36.2348 13.7428C35.2722 13.38 34.2525 13.192 33.2238 13.1878C30.0398 13.1878 27.8038 14.8828 27.7808 17.3078C27.7638 19.0968 29.3818 20.0968 30.5998 20.6938C31.8548 21.3008 32.2778 21.6918 32.2698 22.2418C32.2628 23.0768 31.2688 23.4418 30.3448 23.4568C28.7248 23.4818 27.7848 23.0208 27.0348 22.6728L26.4548 25.3998C27.2048 25.7448 28.5948 26.0458 30.0368 26.0598C33.4138 26.0598 35.6268 24.3888 35.6388 21.8018C35.6528 18.5148 31.0968 18.3348 31.1288 16.8678ZM41.6728 13.4178C41.0538 13.4178 40.5328 13.7768 40.3008 14.3318L35.4708 25.8648H38.8548L39.5258 24.0048H43.6458L44.0338 25.8648H47.0188L44.4218 13.4178H41.6728ZM40.4508 21.4578L42.1608 16.7828L43.1248 21.4568H40.4498L40.4508 21.4578Z" fill="#E0E0F6"/>
</g>
<defs>
<clipPath id="clip0_107_10044">
<rect width="52" height="26" fill="white" transform="translate(0.5 0.140625)"/>
</clipPath>
</defs>
</svg>
