<svg width="67" height="27" viewBox="0 0 67 27" fill="none" xmlns="http://www.w3.org/2000/svg">
<path fill-rule="evenodd" clip-rule="evenodd" d="M44.2873 14.7074L44.9073 14.8583C44.8706 14.9899 44.8028 15.1108 44.7097 15.2109C44.617 15.3072 44.503 15.3802 44.3768 15.4241C44.2437 15.472 44.0751 15.497 43.8702 15.497C43.6634 15.5032 43.4572 15.4732 43.2606 15.4085C43.0841 15.3425 42.9328 15.2223 42.8286 15.0652C42.7244 14.9081 42.6724 14.7221 42.6802 14.5337C42.6802 14.2268 42.7811 13.9918 42.9819 13.8264C43.1837 13.662 43.4687 13.5798 43.8369 13.5798C44.1251 13.5798 44.3518 13.6266 44.5172 13.7213C44.6826 13.8149 44.8043 13.9606 44.8855 14.1561L44.2613 14.2685C44.2458 14.223 44.2222 14.1807 44.1916 14.1436C44.1513 14.0998 44.1015 14.0657 44.046 14.0438C43.9851 14.0195 43.9201 14.0075 43.8546 14.0084C43.7852 14.0043 43.7158 14.0162 43.6518 14.0433C43.5877 14.0704 43.5308 14.1118 43.4853 14.1644C43.4208 14.2425 43.3886 14.3642 43.3886 14.5296C43.3886 14.7355 43.4271 14.8759 43.5041 14.9529C43.548 14.9926 43.5995 15.0232 43.6554 15.0428C43.7113 15.0624 43.7705 15.0708 43.8296 15.0673C43.9649 15.0673 44.0668 15.0361 44.1365 14.9737C44.212 14.9014 44.2645 14.8084 44.2873 14.7064V14.7074ZM45.1611 14.5389C45.1611 14.2373 45.2651 14.0011 45.4732 13.8316C45.6812 13.6641 45.9725 13.5798 46.3438 13.5798C46.7246 13.5798 47.0179 13.6631 47.2239 13.8284C47.4309 13.9938 47.5339 14.2258 47.5339 14.5233C47.5416 14.7102 47.4946 14.8953 47.3986 15.0559C47.3028 15.1994 47.1673 15.3118 47.0085 15.3794C46.8069 15.4625 46.5899 15.5018 46.3719 15.4949C46.114 15.4949 45.8997 15.4616 45.7301 15.395C45.5656 15.3319 45.4228 15.2224 45.3192 15.0798C45.2095 14.9213 45.154 14.7316 45.1611 14.5389ZM45.8685 14.541C45.8685 14.7282 45.9122 14.8635 45.9975 14.9446C46.0937 15.0298 46.2197 15.0735 46.348 15.0663C46.4771 15.0748 46.6043 15.0318 46.7017 14.9467C46.7849 14.8666 46.8265 14.723 46.8265 14.516C46.8265 14.3413 46.7828 14.2144 46.6954 14.1343C46.5976 14.0499 46.4708 14.0066 46.3418 14.0136C46.2158 14.0075 46.0925 14.0512 45.9985 14.1353C45.9122 14.2175 45.8685 14.3527 45.8685 14.541ZM47.9073 13.611H48.8372L49.1972 14.7386L49.554 13.611H50.4818V15.4626H49.9045V14.0521L49.4562 15.4647H48.9329L48.4857 14.0521V15.4647H47.9073V13.6131V13.611ZM50.9302 13.611H52.1056C52.3625 13.611 52.5539 13.661 52.6819 13.7588C52.8088 13.8576 52.8733 13.998 52.8733 14.18C52.8733 14.3673 52.8036 14.5129 52.6652 14.618C52.5248 14.7241 52.3137 14.7761 52.0276 14.7761H51.6406V15.4626H50.9302V13.611ZM51.6406 14.4016H51.8143C51.9496 14.4016 52.0463 14.3818 52.1014 14.3434C52.1267 14.3281 52.1476 14.3065 52.1622 14.2809C52.1767 14.2552 52.1845 14.2262 52.1847 14.1967C52.1846 14.1681 52.178 14.14 52.1654 14.1144C52.1527 14.0888 52.1344 14.0664 52.1118 14.049C52.064 14.0074 51.9745 13.9876 51.8414 13.9876H51.6406V14.4006V14.4016ZM53.2426 13.611H53.9499V15.007H55.0546V15.4637H53.2426V13.6121V13.611ZM55.4041 13.611H56.1136V15.4626H55.4041V13.611ZM58.0296 15.1578H57.2235L57.1122 15.4637H56.3892L57.2505 13.6121H58.0213L58.8816 15.4637H58.142L58.0296 15.1578ZM57.8809 14.7574L57.6281 14.0916L57.3764 14.7574H57.8809ZM59.1135 13.611H59.7741L60.6354 14.6357V13.611H61.3022V15.4626H60.6364L59.7782 14.4463V15.4637H59.1125V13.6121L59.1135 13.611ZM61.6121 13.611H63.7623V14.0687H63.0404V15.4626H62.333V14.0687H61.6121V13.611Z" fill="#E0E0F6"/>
<path d="M35.8591 17.0578L37.9219 16.4035L37.2541 14.9066C36.7579 15.5235 36.268 16.3213 35.8591 17.0578ZM35.157 10.2059L31.1095 1.14038L1.49976 2.83177L9.70186 25.3504L25.4944 20.3438C24.4937 18.8906 24.1213 17.1649 25.2833 16.3203C26.5835 15.3757 28.5381 16.468 29.7936 18.0221C30.9993 15.9832 34.381 11.2783 35.156 10.2059H35.157Z" fill="#225E63"/>
<path d="M30.1918 7.69004C31.4317 7.69004 32.4366 6.7372 32.4366 5.56072C32.4366 4.38528 31.4317 3.4314 30.1918 3.4314C28.9519 3.4314 27.947 4.38528 27.947 5.56072C27.947 6.73616 28.9519 7.69004 30.1918 7.69004ZM28.3558 8.61376H32.0278V18.2607H28.3558V8.61376Z" fill="#FEFEFE"/>
<path d="M26.5425 11.4288C26.5685 11.4444 26.5893 11.4319 26.5893 11.4007V8.95623C26.5886 8.93968 26.5839 8.92354 26.5756 8.90922C26.5672 8.8949 26.5555 8.88283 26.5415 8.87405C26.5415 8.87405 26.0599 8.55887 24.589 8.47045C24.511 8.42676 23.2315 8.42052 22.8768 8.47045C17.5353 8.9011 17.3376 12.7884 17.3376 12.9663V13.9108C17.3376 14.0262 17.3376 18.0009 22.8758 18.3525C23.4167 18.3941 24.4777 18.3525 24.589 18.3525C25.8653 18.3525 26.7485 17.9666 26.7485 17.9666C26.7634 17.9597 26.7761 17.949 26.7853 17.9354C26.7944 17.9218 26.7997 17.906 26.8005 17.8896V15.6011C26.8005 15.571 26.7797 15.5595 26.7526 15.5762C26.7526 15.5762 26.3574 15.8966 24.6129 16.0682C24.1188 16.1244 23.8848 16.0973 23.7059 16.0682C21.2343 15.65 21.1157 13.8276 21.1157 13.8276C21.1123 13.7909 21.1105 13.7541 21.1105 13.7173V13.0204C21.1104 12.9832 21.1125 12.946 21.1168 12.9091C21.1168 12.9091 21.2842 10.9576 23.7069 10.7516H24.6129C25.6833 10.8973 26.5425 11.4278 26.5425 11.4278V11.4288Z" fill="#FEFEFE"/>
<path d="M7.15015 18.2232C7.15015 18.2534 7.17511 18.2783 7.20528 18.2783H10.7836C10.7909 18.2782 10.798 18.2767 10.8046 18.2738C10.8113 18.2709 10.8173 18.2667 10.8223 18.2615C10.8273 18.2562 10.8313 18.2501 10.8339 18.2434C10.8366 18.2366 10.8379 18.2294 10.8377 18.2222V15.423C10.8377 15.4158 10.8392 15.4086 10.842 15.402C10.8449 15.3954 10.8491 15.3895 10.8544 15.3846C10.8597 15.3797 10.8659 15.376 10.8727 15.3736C10.8795 15.3713 10.8867 15.3704 10.8939 15.3709C10.8939 15.3709 16.6047 15.787 16.6047 11.9299C16.6047 8.88727 13.0211 8.55336 11.8415 8.60849H7.20632C7.19142 8.60849 7.17713 8.61441 7.1666 8.62494C7.15606 8.63548 7.15015 8.64977 7.15015 8.66466V18.2222V18.2232ZM10.7743 13.2323V10.7097H11.6501C11.6501 10.7097 12.9233 10.768 13.0222 11.6386C13.0451 11.7073 13.0399 12.1338 13.0222 12.1567C12.8578 13.1823 11.7521 13.2323 11.7521 13.2323H10.7743Z" fill="#FEFEFE"/>
<path d="M30.2934 22.9189C30.592 22.9189 30.8208 22.9189 31.1984 22.7504C32.5018 22.0597 36.8915 11.2768 41.5205 7.96057C41.5538 7.93727 41.5836 7.90924 41.6089 7.87735C41.6271 7.85086 41.6379 7.81997 41.6401 7.78789C41.6401 7.78789 41.6401 7.56529 40.9536 7.56529C36.8322 7.45294 32.5465 16.144 30.2934 19.5829C30.2653 19.6204 30.1103 19.5829 30.1103 19.5829C30.1103 19.5829 28.601 17.7917 27.2893 17.103C27.1833 17.0636 27.0702 17.0473 26.9575 17.0552C26.8534 17.0552 26.2439 17.179 25.9588 17.4806C25.6239 17.8364 25.6301 18.0371 25.6333 18.4709C25.6333 18.5063 25.6561 18.6488 25.6977 18.7227C26.0181 19.2864 27.4838 21.3128 28.6832 22.43C28.8694 22.5631 29.1513 22.9189 30.2934 22.9189Z" fill="#2BBC5D"/>
<path fill-rule="evenodd" clip-rule="evenodd" d="M42.6796 5.08174H46.0884C46.7603 5.08174 47.3023 5.17328 47.7163 5.35532C48.1303 5.53736 48.4715 5.79845 48.742 6.1386C49.0124 6.47979 49.208 6.87611 49.3297 7.32757C49.4514 7.77902 49.5117 8.25752 49.5117 8.76307C49.5117 9.55571 49.4212 10.1705 49.2413 10.6063C49.0603 11.0432 48.8096 11.4094 48.4892 11.7038C48.1981 11.9822 47.843 12.1848 47.4552 12.2936C46.9528 12.4288 46.4961 12.4954 46.0884 12.4954H42.6796V5.08174ZM44.9732 6.76065V10.8113H45.535C46.0155 10.8113 46.3567 10.7592 46.5585 10.6521C46.7614 10.546 46.9205 10.3608 47.035 10.0956C47.1494 9.83137 47.2076 9.4028 47.2076 8.80884C47.2076 8.02347 47.0786 7.48568 46.8228 7.1965C46.5658 6.90524 46.1404 6.76065 45.5464 6.76065H44.9743H44.9732ZM50.3168 10.0425L52.5003 9.90731C52.5471 10.261 52.6438 10.5304 52.7884 10.7156C53.0256 11.0151 53.3626 11.166 53.8016 11.166C54.1292 11.166 54.382 11.089 54.5588 10.935C54.7357 10.7821 54.8251 10.6043 54.8251 10.4024C54.8251 10.21 54.7409 10.0384 54.5713 9.8865C54.4028 9.73463 54.0117 9.59108 53.3959 9.45689C52.39 9.23012 51.6733 8.93054 51.2437 8.55606C51.035 8.38152 50.8684 8.16219 50.7562 7.91438C50.644 7.66658 50.5891 7.39667 50.5956 7.12473C50.5956 6.74401 50.7059 6.38409 50.9285 6.04602C51.149 5.70691 51.4808 5.44062 51.925 5.24609C52.3692 5.05261 52.9777 4.95483 53.7516 4.95483C54.7003 4.95483 55.4233 5.13167 55.9215 5.4843C56.4198 5.83694 56.7163 6.39657 56.8099 7.16529L54.6473 7.2922C54.5901 6.95829 54.4704 6.71592 54.2853 6.56405C54.1012 6.41218 53.8484 6.33624 53.5228 6.33624C53.2565 6.33624 53.0547 6.39241 52.9205 6.5058C52.8574 6.5543 52.8062 6.61668 52.7711 6.68811C52.7359 6.75954 52.7176 6.8381 52.7177 6.91772C52.7177 7.03631 52.7738 7.14241 52.8851 7.23603C52.9933 7.33381 53.2492 7.42535 53.6549 7.50961C54.6577 7.72493 55.3765 7.94338 55.8102 8.16494C56.244 8.38547 56.5592 8.65905 56.7568 8.98671C56.9554 9.31761 57.0581 9.69722 57.0533 10.0831C57.0533 10.5585 56.9222 10.9975 56.658 11.3979C56.3883 11.8047 56.0043 12.1224 55.5543 12.3112C55.0821 12.5193 54.486 12.6223 53.7662 12.6223C52.5034 12.6223 51.6286 12.3789 51.1428 11.8941C50.657 11.4083 50.3813 10.7915 50.3168 10.0425Z" fill="#E0E0F6"/>
<path fill-rule="evenodd" clip-rule="evenodd" d="M58.0115 10.0425L60.1855 9.90731C60.2323 10.261 60.3291 10.5304 60.4737 10.7156C60.7088 11.0151 61.0447 11.166 61.4827 11.166C61.8083 11.166 62.059 11.089 62.2358 10.935C62.4126 10.7821 62.501 10.6043 62.501 10.4024C62.501 10.21 62.4168 10.0384 62.2483 9.8865C62.0808 9.73463 61.6907 9.59108 61.078 9.45689C60.0763 9.23012 59.3617 8.93054 58.9352 8.55606C58.7272 8.38111 58.5613 8.16163 58.4497 7.91387C58.338 7.6661 58.2835 7.3964 58.2903 7.12473C58.2903 6.74401 58.3995 6.38409 58.62 6.04602C58.8395 5.70691 59.1713 5.44062 59.6134 5.24609C60.0555 5.05261 60.6619 4.95483 61.4317 4.95483C62.3762 4.95483 63.096 5.13167 63.5922 5.4843C64.0884 5.83694 64.3828 6.39657 64.4775 7.16529L62.3242 7.2922C62.267 6.95829 62.1474 6.71592 61.9633 6.56405C61.7802 6.41218 61.5264 6.33624 61.2039 6.33624C60.9386 6.33624 60.7389 6.39241 60.6047 6.5058C60.5418 6.55446 60.491 6.6169 60.456 6.68831C60.421 6.75972 60.4028 6.8382 60.4029 6.91772C60.4029 7.03631 60.4581 7.14241 60.5694 7.23603C60.6765 7.33381 60.9324 7.42535 61.336 7.50961C62.3346 7.72493 63.0492 7.94338 63.482 8.16494C63.9137 8.38547 64.2278 8.65905 64.4244 8.98671C64.622 9.31334 64.7198 9.67846 64.7198 10.0831C64.7198 10.5585 64.5888 10.9975 64.3266 11.3979C64.0584 11.8044 63.6758 12.1222 63.2271 12.3112C62.7559 12.5193 62.163 12.6223 61.4463 12.6223C60.1886 12.6223 59.318 12.3789 58.8343 11.8941C58.3495 11.4083 58.0749 10.7915 58.0125 10.0425H58.0115Z" fill="#E0E0F6"/>
</svg>
