<svg width="52" height="27" viewBox="0 0 52 27" fill="none" xmlns="http://www.w3.org/2000/svg">
<g clip-path="url(#clip0_107_10059)">
<path fill-rule="evenodd" clip-rule="evenodd" d="M30.9028 8.04585V15.9458H28.2703V8.04585H26.1074V5.81635H33.0665V8.04585H30.9028ZM37.3484 5.81635V13.7155H40.5049V15.9458H34.715V5.81635H37.3475H37.3484ZM48.0652 8.40822C47.8071 8.19255 47.5172 8.01823 47.2056 7.89147C46.9407 7.7837 46.6579 7.72664 46.372 7.72329C46.0324 7.72329 45.7545 7.80453 45.5392 7.96541C45.4377 8.03608 45.3552 8.13064 45.299 8.24074C45.2427 8.35084 45.2144 8.4731 45.2166 8.59672C45.2166 8.77547 45.271 8.92416 45.3783 9.04035C45.4855 9.15654 45.6269 9.25729 45.8008 9.3426C45.9763 9.42791 46.1729 9.50185 46.3923 9.56441C46.6117 9.62697 46.8294 9.69441 47.0439 9.76591C47.9035 10.0527 48.5332 10.4354 48.9314 10.9148C49.3295 11.3942 49.5294 12.0182 49.5294 12.7884C49.5364 13.2713 49.4474 13.7507 49.2677 14.1989C49.093 14.6198 48.8371 14.9805 48.5015 15.2803C48.166 15.581 47.754 15.8133 47.2657 15.9791C46.7782 16.1448 46.2249 16.2277 45.6066 16.2277C44.3261 16.2277 43.139 15.8475 42.0462 15.0862L43.1756 12.9631C43.5689 13.3125 43.9589 13.5725 44.344 13.7431C44.7291 13.9129 45.1094 13.9974 45.4855 13.9974C45.9162 13.9974 46.2355 13.8999 46.4459 13.7025C46.6572 13.505 46.762 13.2808 46.762 13.0305C46.762 12.8778 46.7352 12.7462 46.6807 12.634C46.6175 12.511 46.5256 12.4051 46.4126 12.3253C46.2613 12.217 46.0966 12.1288 45.9227 12.0628C45.7212 11.9824 45.4766 11.8922 45.1898 11.7947C44.8494 11.6867 44.5154 11.568 44.1896 11.438C43.8724 11.3141 43.5775 11.1396 43.3162 10.9213C43.0545 10.6978 42.844 10.4207 42.6987 10.1088C42.541 9.78135 42.463 9.36697 42.463 8.86566C42.463 8.36435 42.5459 7.90935 42.7117 7.50228C42.8686 7.10783 43.1067 6.75074 43.4104 6.45416C43.7102 6.16328 44.0767 5.9366 44.5114 5.77572C44.9789 5.60876 45.4726 5.52677 45.969 5.5336C46.4711 5.5336 46.9952 5.60347 47.5412 5.74241C48.0872 5.88053 48.6112 6.08447 49.1134 6.35341L48.0652 8.40903V8.40822Z" fill="#009922"/>
<path fill-rule="evenodd" clip-rule="evenodd" d="M28.3368 18.8167C28.2458 18.7408 28.1435 18.6794 28.0337 18.6347C27.9402 18.5967 27.8405 18.5766 27.7396 18.5754C27.6348 18.5708 27.5314 18.6007 27.4455 18.6607C27.4097 18.6857 27.3806 18.719 27.3608 18.7578C27.3409 18.7967 27.3309 18.8398 27.3317 18.8834C27.3317 18.9467 27.3512 18.9987 27.3886 19.0402C27.4313 19.0846 27.4821 19.1207 27.5381 19.1466C27.5998 19.1767 27.6697 19.2035 27.7469 19.2246C27.8241 19.2474 27.9013 19.2709 27.9768 19.2961C28.2799 19.3969 28.5025 19.5317 28.6431 19.7015C28.7836 19.8705 28.8543 20.0915 28.8543 20.3629C28.8543 20.5465 28.8235 20.7123 28.7617 20.861C28.7 21.0097 28.6098 21.1372 28.4911 21.2429C28.3725 21.3485 28.2271 21.4305 28.0548 21.489C27.8659 21.5501 27.6683 21.5797 27.4698 21.5768C27.019 21.5774 26.5793 21.4364 26.2129 21.1738L26.611 20.4247C26.75 20.5482 26.8873 20.6392 27.0238 20.6993C27.1595 20.7594 27.2943 20.7895 27.4268 20.7895C27.5787 20.7895 27.6916 20.7545 27.7656 20.6855C27.8185 20.6402 27.8553 20.5789 27.8702 20.5109C27.8852 20.4428 27.8775 20.3718 27.8485 20.3085C27.8262 20.2651 27.7939 20.2278 27.7542 20.1996C27.7008 20.1614 27.6426 20.1302 27.5811 20.107C27.4958 20.0732 27.4096 20.0415 27.3228 20.0119C27.2035 19.9742 27.0856 19.9322 26.9693 19.886C26.8572 19.8424 26.753 19.781 26.6606 19.704C26.5712 19.6276 26.4981 19.5325 26.4428 19.4172C26.383 19.2789 26.3547 19.129 26.36 18.9784C26.36 18.8013 26.3892 18.6412 26.4477 18.4974C26.5062 18.3536 26.5883 18.2293 26.6939 18.1269C26.7995 18.0245 26.9295 17.9449 27.0831 17.888C27.2366 17.8312 27.4081 17.8027 27.5974 17.8027C27.985 17.8099 28.3654 17.909 28.7073 18.092L28.3368 18.8167ZM31.8386 18.6892H30.7336V19.2864H31.7769V20.0737H30.7336V20.6904H31.8386V21.4769H29.8041V17.9019H31.8386V18.6892ZM35.4486 19.097C35.2333 18.8346 34.9684 18.703 34.6523 18.703C34.5239 18.7021 34.3965 18.7267 34.2776 18.7752C34.1586 18.8237 34.0505 18.8953 33.9593 18.9857C33.8724 19.075 33.8039 19.1804 33.7578 19.2961C33.709 19.4164 33.6846 19.5455 33.6846 19.6845C33.6846 19.8275 33.709 19.9583 33.7578 20.0785C33.8523 20.313 34.0357 20.5005 34.268 20.6002C34.385 20.6505 34.5118 20.6757 34.6475 20.6757C34.944 20.6757 35.2113 20.5498 35.4486 20.2963V21.3964L35.3535 21.4297C35.2238 21.4768 35.0907 21.514 34.9554 21.541C34.595 21.6144 34.2209 21.5782 33.8813 21.437C33.6585 21.3457 33.4557 21.2119 33.2841 21.043C33.1095 20.8703 32.9689 20.6664 32.8697 20.4417C32.7637 20.2021 32.7102 19.9425 32.7129 19.6804C32.7129 19.405 32.7641 19.1523 32.8673 18.924C32.9696 18.6949 33.107 18.4974 33.2792 18.3309C33.4515 18.1651 33.6513 18.0359 33.8788 17.9425C34.1063 17.849 34.3452 17.8027 34.5946 17.8027C34.7368 17.8027 34.8774 17.8174 35.0147 17.8474C35.1528 17.8775 35.2966 17.9238 35.4486 17.9872V19.097ZM37.3328 17.9027V19.8462C37.3328 19.9502 37.3368 20.0574 37.345 20.1663C37.3531 20.2752 37.3758 20.3743 37.4156 20.4629C37.4554 20.5515 37.5204 20.6264 37.6025 20.6782C37.6886 20.7334 37.8081 20.761 37.9633 20.761C38.1176 20.761 38.2379 20.7334 38.3208 20.6782C38.4024 20.6256 38.4675 20.5509 38.5085 20.4629C38.5491 20.3735 38.5743 20.2752 38.5816 20.1663C38.5897 20.0574 38.5938 19.9502 38.5938 19.8462V17.901H39.5184V19.9729C39.5184 20.5295 39.3916 20.9357 39.1365 21.1917C38.8822 21.4476 38.4914 21.576 37.9633 21.576C37.4351 21.576 37.0435 21.4476 36.7876 21.1917C36.5316 20.9357 36.4033 20.5295 36.4033 19.9729V17.901H37.3328V17.9027ZM41.5643 19.5H41.7398C41.9226 19.5 42.0631 19.4619 42.1623 19.3863C42.2111 19.3474 42.2499 19.2974 42.2754 19.2404C42.3008 19.1834 42.3122 19.1212 42.3085 19.0589C42.3085 18.9167 42.2598 18.807 42.1623 18.7314C42.0631 18.6559 41.9226 18.6177 41.7398 18.6177H41.5643V19.5ZM43.6077 21.4769H42.4507L41.5643 20.1021V21.4769H40.6348V17.9019H42.081C42.2801 17.9019 42.454 17.9311 42.6026 17.9896C42.7513 18.0481 42.8732 18.1277 42.9699 18.2293C43.0666 18.33 43.1389 18.447 43.1884 18.5803C43.2372 18.7127 43.2616 18.8549 43.2616 19.0069C43.2616 19.279 43.1966 19.4992 43.065 19.6682C42.9333 19.8372 42.74 19.9526 42.484 20.0119L43.6077 21.4769ZM46.3978 18.6892H45.2928V19.2864H46.3361V20.0737H45.292V20.6904H46.397V21.4769H44.3625V17.9019H46.397V18.6892H46.3978ZM48.3624 20.6904H48.5761C48.737 20.6904 48.8808 20.6652 49.0068 20.614C49.1335 20.5636 49.2408 20.4937 49.3277 20.4052C49.4155 20.3153 49.4833 20.2078 49.5268 20.0899C49.5723 19.968 49.595 19.8348 49.595 19.6894C49.595 19.5472 49.5714 19.4147 49.5243 19.2912C49.4797 19.1728 49.4111 19.065 49.3228 18.9744C49.232 18.8829 49.1229 18.8114 49.0027 18.7647C48.8666 18.7125 48.7218 18.6869 48.5761 18.6892H48.3624V20.6904ZM47.433 17.9019H48.8085C49.0523 17.9019 49.2798 17.9506 49.4935 18.0489C49.7063 18.1464 49.8932 18.2772 50.0525 18.4405C50.2125 18.603 50.3385 18.7924 50.4295 19.0093C50.5206 19.2238 50.5678 19.4544 50.5682 19.6875C50.5686 19.9206 50.5223 20.1513 50.4319 20.3662C50.2555 20.7953 49.921 21.1403 49.4975 21.3298C49.2813 21.4284 49.0461 21.4785 48.8085 21.4769H47.433V17.9019Z" fill="#E0E0F6"/>
<path fill-rule="evenodd" clip-rule="evenodd" d="M15.7243 7.25325C15.7243 5.99566 15.2248 4.78958 14.3355 3.90033C13.4462 3.01108 12.2402 2.5115 10.9826 2.5115C9.72499 2.5115 8.5189 3.01108 7.62965 3.90033C6.7404 4.78958 6.24083 5.99566 6.24083 7.25325V14.3659H15.7243V7.25325ZM18.0952 7.25325V14.3659H3.86914V7.25325C3.86914 5.36686 4.6185 3.55774 5.95238 2.22386C7.28626 0.889989 9.09538 0.140625 10.9818 0.140625C12.8681 0.140625 14.6773 0.889989 16.0112 2.22386C17.345 3.55774 18.0944 5.36686 18.0944 7.25325H18.0952Z" fill="#999999"/>
<path fill-rule="evenodd" clip-rule="evenodd" d="M20.467 15.9471C20.467 21.1844 16.2209 25.4306 10.9835 25.4306C5.74694 25.4306 1.5 21.1844 1.5 15.9471V11.2532C1.5 10.3538 2.22069 9.625 3.11688 9.625H18.8501C19.7431 9.625 20.467 10.3497 20.467 11.2532V15.9471Z" fill="#009922"/>
<path d="M7.0332 17.0009L9.93058 19.8982L16.2526 13.5762" stroke="white" stroke-width="3" stroke-linecap="round" stroke-linejoin="round"/>
</g>
<defs>
<clipPath id="clip0_107_10059">
<rect width="51" height="26" fill="white" transform="translate(0.5 0.140625)"/>
</clipPath>
</defs>
</svg>
