<svg width="44" height="44" viewBox="0 0 44 44" fill="none" xmlns="http://www.w3.org/2000/svg">
<g clip-path="url(#clip0_228_10413)">
<path d="M44.4469 15.0473V15.337C44.4094 19.5387 42.6805 23.3392 39.9057 26.1045C38.465 27.539 36.7461 28.6936 34.8317 29.4803C34.5101 29.6134 34.1844 29.7348 33.8528 29.8463C32.9036 30.1653 31.9148 30.3943 30.8945 30.5273H30.8905C22.6431 31.6898 23.7443 35.4238 25.71 36.7624H25.712C26.0218 36.9698 26.3652 37.1303 26.7323 37.236C27.652 37.602 28.6407 37.8309 29.6749 37.9014C28.9407 38.2301 28.1888 38.5257 27.4211 38.784C26.6632 38.9719 25.8699 39.0717 25.0548 39.0717C24.2397 39.0717 23.4838 38.9758 22.7438 38.7977C22.357 38.7077 21.9761 38.5903 21.609 38.4513C20.7406 38.1284 19.9314 37.6841 19.2012 37.144C19.1914 37.1381 19.1835 37.1303 19.1736 37.1225C17.4171 35.8093 16.9001 33.3865 17.9796 31.4863C18.6368 30.3277 19.5269 29.3179 20.5886 28.5194C20.64 28.4803 20.6913 28.4431 20.7426 28.4059C20.8768 28.31 21.013 28.2161 21.1511 28.1261C21.7511 27.7347 22.3944 27.4098 23.0773 27.1574C24.143 26.7601 25.2975 26.5448 26.5053 26.5448C26.4165 26.5448 26.3297 26.5448 26.2389 26.5448C25.1515 26.5448 24.0877 26.4352 23.0615 26.2239C22.3352 26.0751 21.6267 25.8755 20.9399 25.6289C20.1525 25.3491 19.3947 25.0066 18.6723 24.6074C18.3684 24.4391 18.0862 24.2375 17.8257 24.0085C17.6382 23.8441 17.4487 23.6837 17.2533 23.531C16.7165 23.1005 16.1521 22.7091 15.56 22.3529C15.3114 22.2022 15.0588 22.0613 14.8022 21.9263C12.6767 20.8029 10.2591 20.1532 7.69152 20.1219V20.116C6.05939 20.0769 4.53778 19.6248 3.18985 18.9046C-1.84467 16.2157 -0.494765 12.8848 4.27727 11.8006C5.30746 11.5677 6.38304 11.4738 7.48231 11.4738C8.58158 11.4738 9.63347 11.5834 10.6597 11.7948C11.4926 11.9651 12.2997 12.2018 13.0773 12.4993C13.2076 12.5482 13.3339 12.5991 13.4602 12.652C13.6872 12.7439 13.9121 12.8437 14.1352 12.9475C14.7904 13.2528 15.416 13.6011 16.0159 13.9925C16.0159 13.9925 16.0179 13.9925 16.0199 13.9945C16.1797 14.108 16.7935 14.5131 16.7955 14.5072C19.1894 15.9906 22.0175 16.8478 25.0489 16.8478C26.9948 16.8478 28.8558 16.4955 30.5748 15.8478C29.2288 17.7343 27.2178 19.1238 24.8831 19.6796H24.8811C24.1548 19.6913 23.4463 19.7833 22.7674 19.9477H22.7595C22.7023 19.9477 22.6471 19.9477 22.5898 19.9477C22.1734 19.9477 21.7629 19.9223 21.3603 19.8714C20.0676 19.7109 18.8539 19.3 17.7684 18.6874C18.5736 19.4917 19.4657 20.2099 20.4308 20.8244C20.9932 21.1845 21.5833 21.5074 22.1931 21.7912C22.3964 21.8871 22.6017 21.9791 22.8089 22.0633C24.666 22.8382 26.7066 23.2648 28.846 23.2648C30.036 23.2648 31.1965 23.1318 32.3135 22.8813C33.9634 22.5094 35.5146 21.8793 36.9197 21.0339C36.9296 21.028 36.9395 21.0221 36.9494 21.0162C38.9584 19.8009 40.4425 17.8792 41.1392 15.6501C41.5911 14.2039 41.8339 12.6656 41.8339 11.0707C41.8339 8.91599 41.3898 6.86308 40.5866 5C42.2049 6.83372 43.393 9.04714 43.9969 11.4915C44.2613 12.558 44.4133 13.6696 44.439 14.8105C44.4409 14.8869 44.4409 14.9632 44.4429 15.0395L44.4469 15.0473Z" fill="#BF004C"/>
</g>
<defs>
<clipPath id="clip0_228_10413">
<rect width="44" height="44" fill="white"/>
</clipPath>
</defs>
</svg>
