<svg width="50" height="57" viewBox="0 0 50 57" fill="none" xmlns="http://www.w3.org/2000/svg">
<path d="M44.6786 14.0174C46.4423 13.315 48.1345 12.9824 49.7653 12.9354L49.4501 36.0389C49.4391 36.8436 48.9468 37.5634 48.2008 37.8654L42.0282 40.3645L42.3714 15.1326C43.1035 14.7198 43.8454 14.3539 44.6013 14.0468C44.6271 14.037 44.6529 14.0252 44.6786 14.0154V14.0174Z" fill="#FFF500"/>
<path d="M42.0281 40.3664L36.5228 37.8347L36.866 12.6028L42.3713 15.1327L42.0281 40.3664Z" fill="#6C6800"/>
<path d="M45.5675 13.6946C45.7143 13.6457 45.8611 13.5968 46.0079 13.5518C46.2063 13.4911 46.4027 13.4364 46.5991 13.3874C46.6526 13.3737 46.7082 13.362 46.7617 13.3483C46.9046 13.3131 47.0494 13.2798 47.1922 13.2485C47.2617 13.2329 47.3311 13.2192 47.4006 13.2055C47.5295 13.18 47.6585 13.1566 47.7854 13.135C47.8568 13.1233 47.9263 13.1116 47.9977 13.0998C48.1703 13.0724 48.3409 13.049 48.5115 13.0274C48.5195 13.0274 48.5254 13.0255 48.5333 13.0255C48.7178 13.004 48.9004 12.9883 49.0829 12.9726C49.1285 12.9687 49.1722 12.9668 49.2178 12.9629C49.4003 12.9511 49.5828 12.9413 49.7633 12.9355L44.2601 10.4056C44.0796 10.4115 43.897 10.4213 43.7145 10.433C43.6689 10.4369 43.6253 10.4389 43.5796 10.4428C43.3971 10.4565 43.2126 10.4741 43.0301 10.4956C43.0222 10.4956 43.0162 10.4976 43.0083 10.4976C42.8813 10.5133 42.7523 10.5289 42.6234 10.5485C42.5798 10.5543 42.5381 10.5622 42.4944 10.57C42.423 10.5817 42.3536 10.5935 42.2822 10.6052C42.1552 10.6267 42.0263 10.6502 41.8973 10.6756C41.8279 10.6893 41.7584 10.703 41.689 10.7187C41.5462 10.75 41.4033 10.7833 41.2585 10.8185C41.2049 10.8322 41.1514 10.8439 41.0958 10.8576C40.9054 10.9065 40.7149 10.9593 40.5225 11.0161C40.5165 11.0161 40.5106 11.02 40.5046 11.022C40.3598 11.065 40.213 11.1159 40.0682 11.1628C39.9928 11.1883 39.9194 11.2098 39.844 11.2352C39.6218 11.3135 39.3996 11.3957 39.1754 11.4857C39.1496 11.4954 39.1239 11.5052 39.0981 11.517C38.9175 11.5913 38.737 11.6676 38.5565 11.7478C38.4969 11.7752 38.4355 11.8046 38.3759 11.832C38.2569 11.8868 38.1379 11.9415 38.0188 12.0002C37.9494 12.0335 37.878 12.0707 37.8085 12.1059C37.7014 12.1607 37.5923 12.2135 37.4852 12.2702C37.4118 12.3094 37.3364 12.3485 37.263 12.3896C37.1955 12.4268 37.1261 12.462 37.0586 12.4992C36.9952 12.5344 36.9317 12.5696 36.8662 12.6068L42.3714 15.1366C42.5024 15.0623 42.6353 14.9918 42.7662 14.9214C42.8396 14.8823 42.915 14.8412 42.9884 14.802C43.0956 14.7453 43.2027 14.6925 43.3118 14.6377C43.3812 14.6025 43.4527 14.5672 43.5221 14.532C43.6411 14.4733 43.7602 14.4185 43.8812 14.3638C43.9407 14.3364 44.0002 14.307 44.0617 14.2796C44.2422 14.1994 44.4228 14.1211 44.6033 14.0488C44.6291 14.039 44.6549 14.0272 44.6807 14.0175C44.9048 13.9274 45.127 13.8453 45.3492 13.767C45.4226 13.7416 45.496 13.7201 45.5714 13.6946H45.5675Z" fill="#AAA301"/>
<path d="M41.0601 15.9388L40.7408 39.5663C40.7299 40.3712 40.2375 41.0911 39.4913 41.3932L33.317 43.8922L33.6027 22.7691C35.9615 20.0456 38.4394 17.6723 41.0601 15.9407V15.9388Z" fill="#F60053"/>
<path d="M33.3149 43.8902L27.8097 41.3603L28.0974 20.2373L33.6026 22.7671L33.3149 43.8902Z" fill="#700026"/>
<path d="M34.1882 22.1039C34.3231 21.9532 34.456 21.8045 34.5909 21.6558C34.6485 21.5932 34.708 21.5287 34.7655 21.4661C34.8845 21.3369 35.0055 21.2078 35.1266 21.0787C35.1841 21.018 35.2416 20.9554 35.2992 20.8947C35.44 20.746 35.5809 20.5993 35.7237 20.4545C35.7574 20.4193 35.7912 20.3841 35.8269 20.3489C36.0015 20.1708 36.178 19.9947 36.3546 19.8206C36.4022 19.7736 36.4498 19.7286 36.4954 19.6836C36.6264 19.5565 36.7593 19.4293 36.8902 19.3041C36.9517 19.2473 37.0112 19.1906 37.0727 19.1319C37.1977 19.0145 37.3227 18.899 37.4477 18.7856C37.5052 18.7327 37.5628 18.6799 37.6203 18.629C37.783 18.4823 37.9476 18.3356 38.1123 18.1927C38.1282 18.179 38.146 18.1634 38.1619 18.1497C38.3424 17.9932 38.5249 17.8405 38.7074 17.6899C38.767 17.641 38.8245 17.594 38.884 17.5471C39.0011 17.4512 39.1201 17.3573 39.2371 17.2634C39.3046 17.2105 39.3701 17.1597 39.4375 17.1068C39.5506 17.0188 39.6657 16.9327 39.7787 16.8466C39.8462 16.7957 39.9117 16.7468 39.9791 16.696C40.1001 16.606 40.2231 16.5179 40.3461 16.4299C40.4037 16.3888 40.4612 16.3477 40.5187 16.3066C40.6993 16.1814 40.8798 16.0562 41.0603 15.9368L35.5551 13.407C35.3745 13.5263 35.194 13.6496 35.0135 13.7768C34.956 13.8179 34.8984 13.8589 34.8409 13.9C34.7179 13.9881 34.5949 14.0761 34.4739 14.1661C34.4064 14.215 34.341 14.2659 34.2755 14.3148C34.1604 14.4009 34.0473 14.489 33.9323 14.577C33.8648 14.6279 33.7994 14.6807 33.7339 14.7335C33.6149 14.8274 33.4978 14.9214 33.3808 15.0172C33.3391 15.0525 33.2955 15.0857 33.2518 15.1209C33.2359 15.1346 33.2201 15.1483 33.2042 15.1601C33.0217 15.3107 32.8392 15.4633 32.6586 15.6199C32.6408 15.6355 32.6229 15.6512 32.6071 15.6668C32.4424 15.8096 32.2797 15.9544 32.117 16.1012C32.0595 16.152 32.002 16.2049 31.9444 16.2577C31.8195 16.3712 31.6945 16.4866 31.5695 16.604C31.508 16.6607 31.4485 16.7175 31.387 16.7762C31.256 16.9014 31.1251 17.0266 30.9942 17.1558C30.9466 17.2027 30.8989 17.2477 30.8513 17.2947C30.6748 17.4688 30.5002 17.6429 30.3256 17.821C30.2919 17.8562 30.2582 17.8914 30.2224 17.9266C30.0816 18.0714 29.9387 18.2182 29.7999 18.3669C29.7423 18.4275 29.6828 18.4901 29.6253 18.5527C29.5043 18.6799 29.3852 18.809 29.2662 18.9382C29.2087 19.0008 29.1492 19.0634 29.0916 19.128C28.9567 19.2747 28.8238 19.4234 28.6889 19.5721C28.6592 19.6073 28.6274 19.6406 28.5957 19.6738C28.5877 19.6836 28.5798 19.6934 28.5719 19.7012C28.4151 19.8793 28.2584 20.0573 28.1017 20.2373L33.6069 22.7672C33.7636 22.5872 33.9204 22.4072 34.0771 22.2311C34.1148 22.188 34.1525 22.1469 34.1922 22.1039H34.1882Z" fill="#A7023A"/>
<path d="M32.2812 24.3403L32.0274 43.0921C32.0165 43.897 31.5241 44.6169 30.7779 44.9189L24.6036 47.4179L24.7762 34.7629C27.1608 31.1902 29.6486 27.5745 32.2812 24.3403Z" fill="#F60053"/>
<path d="M24.6017 47.4179L19.0964 44.8881L19.271 32.233L24.7763 34.7629L24.6017 47.4179Z" fill="#88012F"/>
<path d="M25.7919 33.2504C26.0081 32.9296 26.2263 32.6087 26.4465 32.2878C26.508 32.1978 26.5695 32.1058 26.633 32.0158C26.9028 31.6206 27.1746 31.2274 27.4484 30.8341C27.5099 30.746 27.5714 30.658 27.6329 30.5699C27.8531 30.253 28.0753 29.9399 28.2975 29.6249C28.3748 29.5154 28.4522 29.4058 28.5316 29.2962C28.8113 28.903 29.095 28.5116 29.3787 28.1223C29.3846 28.1145 29.3886 28.1086 29.3946 28.1008C29.6544 27.7466 29.9143 27.3964 30.1762 27.0462C30.4083 26.737 30.6424 26.4318 30.8765 26.1286C30.9916 25.9779 31.1066 25.8253 31.2237 25.6766C31.5748 25.2266 31.928 24.7805 32.2831 24.3422L26.7778 21.8124C26.4227 22.2506 26.0696 22.6948 25.7184 23.1468C25.6014 23.2955 25.4863 23.4481 25.3713 23.5987C25.1372 23.9039 24.9031 24.2072 24.671 24.5163C24.6313 24.5711 24.5896 24.622 24.548 24.6768C24.3278 24.9722 24.1075 25.2716 23.8873 25.5709C23.8814 25.5788 23.8774 25.5846 23.8715 25.5925C23.5878 25.9799 23.3061 26.3712 23.0263 26.7644C22.947 26.874 22.8696 26.9855 22.7903 27.097C22.5681 27.4101 22.3479 27.7251 22.1276 28.0401C22.0661 28.1282 22.0046 28.2162 21.9431 28.3042C21.6694 28.6975 21.3996 29.0908 21.1298 29.486C21.0663 29.578 21.0048 29.6699 20.9413 29.7619C20.7231 30.0808 20.5068 30.3997 20.2906 30.7206C20.2152 30.8341 20.1378 30.9456 20.0624 31.0591C19.8006 31.4465 19.5407 31.8358 19.2808 32.2232C19.2768 32.2272 19.2748 32.233 19.2709 32.2369L24.7761 34.7668C25.038 34.3735 25.3018 33.9802 25.5677 33.587C25.6431 33.4754 25.7184 33.3639 25.7919 33.2543V33.2504Z" fill="#A7023A"/>
<path d="M17.1344 45.9368C17.1642 45.8976 17.192 45.8605 17.2217 45.8213C17.2316 45.8076 17.2435 45.792 17.2535 45.7763C17.4737 45.4809 17.6959 45.1796 17.9161 44.8744C17.9637 44.8098 18.0093 44.7452 18.0569 44.6807C18.2791 44.3735 18.5013 44.0624 18.7255 43.7454C18.7493 43.7102 18.7751 43.675 18.7989 43.6398C19.0112 43.3385 19.2254 43.0313 19.4397 42.7221C19.4774 42.6674 19.5171 42.6106 19.5548 42.5558C19.7789 42.231 20.0031 41.9023 20.2293 41.5717C20.2769 41.5032 20.3225 41.4328 20.3701 41.3643C20.5983 41.0278 20.8284 40.6893 21.0585 40.3449C21.0724 40.3253 21.0863 40.3038 21.1002 40.2843C21.3283 39.9438 21.5565 39.6014 21.7866 39.2571C21.8283 39.1945 21.8679 39.1338 21.9096 39.0712C22.1397 38.7249 22.3718 38.3766 22.604 38.0264C22.6714 37.9227 22.7408 37.8209 22.8083 37.7173C23.0107 37.4101 23.215 37.1048 23.4193 36.7957C23.4273 36.782 23.4372 36.7703 23.4451 36.7566L17.9399 34.2267C17.7217 34.5554 17.5054 34.8822 17.2892 35.2089C17.2277 35.3029 17.1642 35.3968 17.1027 35.4887C16.8706 35.839 16.6385 36.1892 16.4064 36.5355C16.3627 36.6001 16.3191 36.6646 16.2774 36.7292C16.0512 37.0696 15.8251 37.4081 15.5989 37.7427C15.583 37.7662 15.5672 37.7896 15.5513 37.8131C15.3212 38.1536 15.093 38.492 14.8669 38.8266C14.8193 38.8971 14.7716 38.9675 14.722 39.0379C14.4959 39.3686 14.2717 39.6973 14.0475 40.0221C14.0098 40.0769 13.9721 40.1316 13.9345 40.1864C13.7202 40.4956 13.5059 40.8027 13.2917 41.106C13.2679 41.1412 13.2421 41.1765 13.2183 41.2117C12.9941 41.5286 12.7719 41.8397 12.5477 42.1489C12.5021 42.2134 12.4545 42.278 12.4089 42.3406C12.1867 42.6458 11.9665 42.9471 11.7443 43.2445C11.7046 43.2974 11.6649 43.3502 11.6252 43.403C11.4705 43.6085 11.3157 43.8119 11.163 44.0135C11.1094 44.0839 11.0559 44.1524 11.0023 44.2209C10.8118 44.4693 10.6194 44.7139 10.429 44.9526L15.9342 47.4824C16.1246 47.2437 16.3171 46.9992 16.5075 46.7507C16.5611 46.6822 16.6147 46.6137 16.6662 46.5433C16.821 46.3418 16.9757 46.1383 17.1305 45.9329L17.1344 45.9368Z" fill="#A09A00"/>
<path d="M23.4472 36.7565L23.3143 46.6177C23.3034 47.4226 22.8111 48.1426 22.065 48.4446L15.8926 50.9436L15.9402 47.4863C18.3645 44.4478 20.8503 40.6794 23.4491 36.7565H23.4472Z" fill="#FFF500"/>
<path d="M15.8926 50.9436L10.3873 48.4137L10.433 44.9565L15.9382 47.4863L15.8926 50.9436Z" fill="#664B05"/>
<path d="M14.6169 49.0712L14.6018 50.1444C14.5905 50.9489 14.0983 51.6682 13.3526 51.9702L8.69702 53.855C10.6591 53.0607 12.6191 51.3545 14.6169 49.0712Z" fill="#FFF500"/>
<path d="M13.5992 50.1845C13.6667 50.1141 13.7321 50.0456 13.7996 49.9732C13.8531 49.9145 13.9087 49.8578 13.9623 49.7971C14.0297 49.7247 14.0952 49.6523 14.1626 49.578C14.2162 49.5193 14.2717 49.4586 14.3253 49.398C14.3551 49.3627 14.3868 49.3295 14.4166 49.2962C14.484 49.2219 14.5495 49.1456 14.6169 49.0693L9.1117 46.5394C9.01449 46.651 8.91728 46.7605 8.82007 46.8681C8.76651 46.9288 8.71096 46.9894 8.65739 47.0481C8.58994 47.1225 8.52249 47.1949 8.45702 47.2673C8.40346 47.326 8.34989 47.3827 8.29633 47.4414C8.22888 47.5138 8.16143 47.5842 8.09398 47.6547C8.04041 47.7095 7.98685 47.7662 7.93328 47.821C7.86583 47.8914 7.79838 47.9599 7.72894 48.0284C7.67736 48.0812 7.6238 48.134 7.57222 48.1869C7.50278 48.2553 7.43335 48.3219 7.36391 48.3884C7.31233 48.4373 7.26273 48.4882 7.21115 48.5351C7.13973 48.6036 7.06633 48.6701 6.99491 48.7366C6.9473 48.7817 6.89969 48.8266 6.85207 48.8697C6.77272 48.9421 6.69336 49.0125 6.61401 49.081C6.57433 49.1162 6.53465 49.1534 6.49299 49.1886C6.38586 49.2806 6.27874 49.3725 6.17161 49.4606C6.1597 49.4704 6.14582 49.4821 6.13391 49.4919C6.12994 49.4958 6.12598 49.4978 6.12201 49.5017C5.97719 49.621 5.83435 49.7345 5.68953 49.8441C5.64588 49.8773 5.60025 49.9106 5.55661 49.9438C5.44551 50.026 5.3364 50.1062 5.2253 50.1845C5.18166 50.2139 5.13999 50.2452 5.09635 50.2745C4.94756 50.3762 4.80075 50.4741 4.65196 50.566C4.64204 50.5719 4.63014 50.5778 4.62022 50.5856C4.48333 50.6717 4.34645 50.7519 4.20758 50.8282C4.16195 50.8536 4.1183 50.8771 4.07267 50.9026C3.96753 50.9593 3.8604 51.0141 3.75525 51.0669C3.71161 51.0884 3.66796 51.11 3.62432 51.1315C3.4795 51.2 3.33269 51.2665 3.18787 51.3252L8.6931 53.855C8.83793 53.7963 8.98473 53.7298 9.12956 53.6613C9.1732 53.6398 9.21685 53.6183 9.26049 53.5967C9.36762 53.5439 9.47277 53.4891 9.57989 53.4324C9.60568 53.4187 9.63346 53.405 9.65925 53.3913C9.6771 53.3815 9.69496 53.3698 9.71281 53.36C9.8497 53.2837 9.98857 53.2015 10.1255 53.1174C10.1354 53.1115 10.1453 53.1057 10.1572 53.0998C10.306 53.0078 10.4528 52.908 10.6016 52.8063C10.6432 52.7769 10.6869 52.7456 10.7286 52.7163C10.8397 52.638 10.9488 52.5578 11.0599 52.4756C11.1035 52.4424 11.1472 52.4111 11.1908 52.3759C11.3356 52.2643 11.4785 52.1508 11.6233 52.0335C11.6272 52.0315 11.6292 52.0276 11.6332 52.0256C11.6451 52.0158 11.659 52.0041 11.6709 51.9924C11.778 51.9043 11.8832 51.8143 11.9903 51.7224C12.032 51.6871 12.0716 51.65 12.1133 51.6128C12.1907 51.5443 12.27 51.4739 12.3494 51.4034C12.397 51.3604 12.4446 51.3134 12.4942 51.2704C12.5656 51.2039 12.637 51.1374 12.7085 51.0689C12.76 51.02 12.8096 50.971 12.8612 50.9202C12.9306 50.8536 12.9981 50.7871 13.0675 50.7186C13.1211 50.6658 13.1727 50.613 13.2262 50.5602C13.2937 50.4917 13.3611 50.4252 13.4286 50.3547C13.4822 50.2999 13.5357 50.2432 13.5893 50.1865L13.5992 50.1845Z" fill="#A09A00"/>
<path d="M46.6466 3.01765C46.9309 3.16138 47.3429 4.0364 47.1972 4.31679L44.5226 8.35485C44.3769 8.63524 44.012 9.59598 43.7277 9.45226C43.4434 9.30853 43.3473 8.11475 43.493 7.83435L45.2796 4.39713C45.2621 4.4008 45.2446 4.40447 45.2269 4.40812C45.2271 4.43795 45.2274 4.43795 45.2274 4.43795L45.2161 4.43823C45.2038 4.43858 45.1826 4.43936 45.1528 4.44106C45.116 4.44317 45.0659 4.4467 45.003 4.45258C44.9391 4.46473 44.8741 4.4766 44.8084 4.48808L44.8059 4.47443C44.5522 4.50653 44.1872 4.56689 43.7196 4.68036C42.7007 4.92758 41.1918 5.42761 39.2821 6.43965C35.4636 8.46337 30.0299 12.5416 23.7097 20.7624C18.933 26.9757 16.2102 31.238 14.0687 34.5902C13.3653 35.6914 12.7244 36.6946 12.0942 37.6363C9.52778 41.4713 7.05983 43.6513 1.5093 47.687L0.93071 47.3486C6.36905 43.3944 8.63539 40.7334 11.1286 37.0078C11.7452 36.0865 12.3775 35.0967 13.075 34.0047C15.2182 30.6495 17.9773 26.3302 22.7878 20.0731C29.1897 11.7459 34.7448 7.54898 38.7345 5.43455C40.729 4.37752 42.3291 3.84272 43.4432 3.57238C43.9994 3.43741 44.4338 3.36853 44.7349 3.33341L41.4119 2.0362C41.4119 2.0362 41.266 1.46347 41.4117 1.18308C41.5574 0.902686 41.7293 0.531701 42.0136 0.675431L46.6466 3.01765Z" fill="#910031"/>
<path d="M0.93071 47.3486L1.5093 47.687L1.50973 49.3676L0.931118 48.7972L0.93071 47.3486Z" fill="#910031"/>
<path d="M46.8825 4.03796C47.1668 4.18169 47.1976 4.31684 47.1976 4.31684L44.7586 9.37515C44.6128 9.65554 44.2642 9.76632 43.9799 9.62259C43.6956 9.47886 43.7281 9.45229 43.7281 9.45229L45.5155 5.41743C45.4981 5.42111 45.4805 5.42477 45.4629 5.42843C45.463 5.45826 45.4634 5.45826 45.4634 5.45826L45.452 5.45853C45.4397 5.45888 45.4186 5.45966 45.3888 5.46137C45.3519 5.46347 45.3019 5.467 45.239 5.47289C45.1751 5.48504 45.1101 5.49691 45.0443 5.50839L45.0419 5.49473C44.7881 5.52684 44.4231 5.5872 43.9555 5.70066C42.9367 5.94787 41.4277 6.4479 39.5181 7.45993C35.6996 9.48364 30.2659 13.5619 23.9457 21.7827C19.169 27.9959 16.4462 32.2582 14.3048 35.6104C13.6013 36.7116 12.9605 37.7148 12.3303 38.6565C9.76387 42.4914 7.06072 45.3627 1.5102 49.3984L1.50976 47.6869C6.94808 43.7327 8.87148 41.7535 11.3647 38.028C11.9812 37.1067 12.6135 36.1168 13.311 35.0249C15.4543 31.6697 18.2133 27.3504 23.0238 21.0933C29.4257 12.7661 34.9808 8.56925 38.9705 6.45483C40.965 5.3978 42.565 4.86301 43.6791 4.59268C44.2354 4.45771 44.6698 4.38884 44.9709 4.35371L41.7218 2.71111C41.4375 2.56738 41.2664 1.74609 41.4122 1.4657C41.5579 1.18531 41.9652 1.55199 42.2495 1.69573L46.8825 4.03796Z" fill="#F60053"/>
<g filter="url(#filter0_d_216_332)">
<path d="M38.9395 7.41591C35.1209 9.43962 29.6872 13.5178 23.3671 21.7386C18.5904 27.9519 15.8676 32.2142 13.7262 35.5664L13.7256 35.5673C13.0223 36.6682 12.3817 37.671 11.7516 38.6125C9.18523 42.4474 9.67011 42.7438 4.1196 46.7795L4.11932 45.7174C9.55764 41.7632 8.29283 41.7095 10.7861 37.9839C11.4026 37.0627 12.0348 36.073 12.7322 34.9811L12.7324 34.9809C14.8756 31.6257 17.6347 27.3064 22.4452 21.0493C28.8471 12.7221 34.4021 8.52523 38.3918 6.41081L43.9548 4.28521C44.3139 4.63916 44.8167 5.34711 43.9551 5.34732C43.0936 5.34754 40.2524 6.72647 38.9395 7.41591Z" fill="#39D235" fill-opacity="0.01" shape-rendering="crispEdges"/>
</g>
<defs>
<filter id="filter0_d_216_332" x="2.11926" y="4.28522" width="44.3115" height="52.4943" filterUnits="userSpaceOnUse" color-interpolation-filters="sRGB">
<feFlood flood-opacity="0" result="BackgroundImageFix"/>
<feColorMatrix in="SourceAlpha" type="matrix" values="0 0 0 0 0 0 0 0 0 0 0 0 0 0 0 0 0 0 127 0" result="hardAlpha"/>
<feOffset dy="8"/>
<feGaussianBlur stdDeviation="1"/>
<feComposite in2="hardAlpha" operator="out"/>
<feColorMatrix type="matrix" values="0 0 0 0 0 0 0 0 0 0 0 0 0 0 0 0 0 0 0.5 0"/>
<feBlend mode="normal" in2="BackgroundImageFix" result="effect1_dropShadow_216_332"/>
<feBlend mode="normal" in="SourceGraphic" in2="effect1_dropShadow_216_332" result="shape"/>
</filter>
</defs>
</svg>
