<svg width="40" height="40" viewBox="0 0 40 40" fill="none" xmlns="http://www.w3.org/2000/svg">
<g clip-path="url(#clip0_107_9878)">
<circle cx="20" cy="20" r="20" fill="#375690"/>
<path fill-rule="evenodd" clip-rule="evenodd" d="M20 7.85718C13.2937 7.85718 7.85718 13.3461 7.85718 20.0524C7.85718 26.2168 12.4506 31.3526 18.4013 32.1424V22.2128H16.4286V18.5394H18.4013V16.1634C18.4013 14.4617 19.1778 11.8027 22.5893 11.8027L25.6644 11.815V15.3808H23.4324C23.0691 15.3808 22.5525 15.5699 22.5525 16.3814V18.5401H25.7143L25.3517 22.2128H22.5511V31.9768C28.0326 30.7945 32.1429 25.8837 32.1429 20.0524C32.1429 13.3461 26.7063 7.85718 20 7.85718Z" fill="white"/>
</g>
<defs>
<clipPath id="clip0_107_9878">
<rect width="40" height="40" fill="white"/>
</clipPath>
</defs>
</svg>
