<svg width="40" height="40" viewBox="0 0 40 40" fill="none" xmlns="http://www.w3.org/2000/svg">
<g clip-path="url(#clip0_107_9880)">
<circle cx="20" cy="20" r="20" fill="#479BE9"/>
<g clip-path="url(#clip1_107_9880)">
<path d="M32.3066 13.0674C31.925 13.2366 31.5328 13.3794 31.132 13.4954C31.6065 12.9587 31.9683 12.3273 32.1891 11.6363C32.2386 11.4815 32.1873 11.3119 32.06 11.2106C31.9329 11.1093 31.7562 11.0971 31.6162 11.1801C30.765 11.6849 29.8467 12.0477 28.8838 12.2599C27.9139 11.3121 26.5965 10.7727 25.2346 10.7727C22.3599 10.7727 20.0211 13.1114 20.0211 15.9861C20.0211 16.2125 20.0355 16.4376 20.0638 16.6596C16.4966 16.3464 13.1801 14.5931 10.9028 11.7995C10.8216 11.6999 10.6966 11.6463 10.5686 11.6565C10.4405 11.6666 10.3254 11.7388 10.2607 11.8498C9.79879 12.6424 9.5546 13.5489 9.5546 14.4712C9.5546 15.7274 10.0031 16.9193 10.7954 17.8506C10.5545 17.7671 10.3207 17.6629 10.0976 17.539C9.9778 17.4723 9.83161 17.4734 9.71261 17.5416C9.59353 17.6098 9.51887 17.7353 9.51574 17.8725C9.51519 17.8956 9.51519 17.9187 9.51519 17.9422C9.51519 19.8172 10.5244 21.5054 12.0673 22.4255C11.9348 22.4123 11.8023 22.3931 11.6707 22.368C11.535 22.342 11.3955 22.3896 11.304 22.4931C11.2123 22.5965 11.182 22.7406 11.2242 22.8722C11.7953 24.6553 13.2657 25.9668 15.0432 26.3666C13.5689 27.29 11.883 27.7737 10.1131 27.7737C9.74379 27.7737 9.37238 27.752 9.00887 27.709C8.8283 27.6875 8.65564 27.7942 8.59414 27.9659C8.53264 28.1377 8.59782 28.3292 8.75145 28.4277C11.0251 29.8856 13.6542 30.6561 16.3542 30.6561C21.6621 30.6561 24.9826 28.1531 26.8334 26.0533C29.1413 23.4351 30.465 19.9695 30.465 16.5453C30.465 16.4023 30.4628 16.2578 30.4584 16.1138C31.369 15.4278 32.1529 14.5975 32.7909 13.6433C32.8878 13.4983 32.8773 13.3068 32.765 13.1734C32.6529 13.0399 32.4661 12.9967 32.3066 13.0674Z" fill="white"/>
</g>
</g>
<defs>
<clipPath id="clip0_107_9880">
<rect width="40" height="40" fill="white"/>
</clipPath>
<clipPath id="clip1_107_9880">
<rect width="24.2857" height="24.2857" fill="white" transform="translate(8.57141 8.57153)"/>
</clipPath>
</defs>
</svg>
