<svg width="40" height="40" viewBox="0 0 40 40" fill="none" xmlns="http://www.w3.org/2000/svg">
<g clip-path="url(#clip0_245_10377)">
<mask id="mask0_245_10377" style="mask-type:luminance" maskUnits="userSpaceOnUse" x="0" y="0" width="40" height="40">
<path d="M39.766 0H0.467773V40H39.766V0Z" fill="white"/>
</mask>
<g mask="url(#mask0_245_10377)">
<path d="M20.1169 40C30.9688 40 39.766 31.0457 39.766 20C39.766 8.95431 30.9688 0 20.1169 0C9.26499 0 0.467773 8.95431 0.467773 20C0.467773 31.0457 9.26499 40 20.1169 40Z" fill="url(#paint0_linear_245_10377)"/>
<path fill-rule="evenodd" clip-rule="evenodd" d="M11.1633 25.035L9.59058 30.7143L15.3509 29.2066C17.0199 30.1588 18.9065 30.6602 20.8331 30.6602C27.0163 30.6602 32.0467 25.5455 32.0467 19.2587C32.0467 12.9718 27.0163 7.85718 20.8331 7.85718C14.6499 7.85718 9.61949 12.9718 9.61949 19.2587C9.61949 21.3005 10.1519 23.288 11.1633 25.035ZM15.9887 27.3455L15.6455 27.1323L12.3175 28.0034L13.2231 24.7328L12.9919 24.3668C12.0302 22.844 11.5217 21.0776 11.5217 19.2587C11.5217 14.0383 15.6988 9.79125 20.8331 9.79125C25.9675 9.79125 30.1445 14.0383 30.1445 19.2587C30.1445 24.479 25.9675 28.7261 20.8331 28.7261C19.119 28.7261 17.4438 28.2487 15.9887 27.3455ZM16.9596 13.9117L17.6864 13.9521C17.8295 13.96 17.9558 14.05 18.0121 14.1842L19.071 16.7057C19.1276 16.8405 19.1038 16.9962 19.0097 17.107L18.088 18.1922C18.0133 18.2803 18.0003 18.4056 18.0529 18.5088C19.2667 20.8887 21.4789 21.8317 22.1393 22.068C22.2519 22.1082 22.3766 22.0702 22.4495 21.974L23.4138 20.7015C23.5211 20.5601 23.7102 20.5128 23.8697 20.5876L26.3261 21.7401C26.4862 21.8152 26.5736 21.9931 26.5368 22.1685L26.4207 22.7202C26.2898 23.3427 25.9266 23.8933 25.3997 24.2363C24.7344 24.6695 23.8722 24.8822 22.776 24.5667C19.3746 23.5877 17.4511 21.2955 16.4189 19.8628C15.3866 18.4302 14.9878 16.9975 15.2459 15.8275C15.4189 15.0429 15.9824 14.4407 16.3347 14.1293C16.5073 13.9767 16.7312 13.899 16.9596 13.9117Z" fill="white"/>
</g>
</g>
<defs>
<linearGradient id="paint0_linear_245_10377" x1="26.6683" y1="6.668" x2="16.5463" y2="29.8703" gradientUnits="userSpaceOnUse">
<stop stop-color="#79CD6F"/>
<stop offset="1" stop-color="#56AF4B"/>
</linearGradient>
<clipPath id="clip0_245_10377">
<rect width="40" height="40" fill="white"/>
</clipPath>
</defs>
</svg>
