<svg width="57" height="56" viewBox="0 0 57 56" fill="none" xmlns="http://www.w3.org/2000/svg">
<g clip-path="url(#clip0)">
<circle cx="28.6665" cy="28" r="28" fill="url(#paint0_linear)"/>
<path fill-rule="evenodd" clip-rule="evenodd" d="M15.9076 35.049L13.6665 43L21.875 40.8893C24.2533 42.2223 26.9417 42.9243 29.6871 42.9243C38.4982 42.9243 45.6665 35.7637 45.6665 26.9622C45.6665 18.1606 38.4982 11.0001 29.6871 11.0001C20.876 11.0001 13.7077 18.1606 13.7077 26.9622C13.7077 29.8207 14.4664 32.6033 15.9076 35.049ZM22.7838 38.2837L22.2947 37.9853L17.5523 39.2048L18.8428 34.626L18.5134 34.1136C17.1429 31.9817 16.4183 29.5087 16.4183 26.9622C16.4183 19.6537 22.3707 13.7078 29.6871 13.7078C37.0036 13.7078 42.9559 19.6537 42.9559 26.9622C42.9559 34.2707 37.0036 40.2166 29.6871 40.2166C27.2445 40.2166 24.8574 39.5482 22.7838 38.2837ZM24.1673 19.4765L25.203 19.533C25.4069 19.5441 25.5869 19.67 25.6672 19.858L27.1761 23.3881C27.2568 23.5767 27.2229 23.7948 27.0887 23.9499L25.7753 25.4692C25.6689 25.5925 25.6503 25.7679 25.7253 25.9124C27.455 29.2443 30.6074 30.5645 31.5485 30.8953C31.7089 30.9516 31.8866 30.8983 31.9904 30.7637L33.3646 28.9822C33.5175 28.7842 33.7869 28.718 34.0142 28.8227L37.5146 30.4362C37.7427 30.5413 37.8673 30.7904 37.8148 31.0359L37.6494 31.8083C37.4629 32.6798 36.9453 33.4507 36.1945 33.9309C35.2465 34.5373 34.0178 34.8351 32.4558 34.3934C27.6088 33.0228 24.8677 29.8137 23.3968 27.808C21.9259 25.8023 21.3576 23.7966 21.7253 22.1586C21.9719 21.0601 22.7748 20.2171 23.2769 19.7811C23.5228 19.5675 23.8419 19.4587 24.1673 19.4765Z" fill="white"/>
</g>
<defs>
<linearGradient id="paint0_linear" x1="38.0022" y1="9.3352" x2="24.0022" y2="42" gradientUnits="userSpaceOnUse">
<stop stop-color="#79CD6F"/>
<stop offset="1" stop-color="#56AF4B"/>
</linearGradient>
<clipPath id="clip0">
<rect width="56" height="56" fill="white" transform="translate(0.666504)"/>
</clipPath>
</defs>
</svg>
