<svg width="40" height="40" viewBox="0 0 40 40" fill="none" xmlns="http://www.w3.org/2000/svg">
<g clip-path="url(#clip0_107_9874)">
<circle cx="20" cy="20" r="20" fill="url(#paint0_linear_107_9874)"/>
<path d="M29.6811 10.9152L26.1641 28.9603C26.1641 28.9603 25.6701 30.2143 24.3208 29.6136L16.2104 23.2832L13.2611 21.8339L8.29897 20.1293C8.29897 20.1293 7.53954 19.8514 7.46581 19.2507C7.39207 18.6499 8.32847 18.327 8.32847 18.327L28.0664 10.4422C28.059 10.4422 29.6811 9.71374 29.6811 10.9152Z" fill="white"/>
<path d="M15.5913 28.7652C15.5913 28.7652 15.3554 28.7426 15.0605 27.789C14.7655 26.8353 13.2688 21.834 13.2688 21.834L25.1912 14.1219C25.1912 14.1219 25.8769 13.6938 25.8548 14.1219C25.8548 14.1219 25.9801 14.197 25.6115 14.5499C25.2428 14.9029 16.2476 23.1331 16.2476 23.1331" fill="#CBE1E5"/>
<path d="M19.3291 25.7091L16.1218 28.6903C16.1218 28.6903 15.8711 28.8855 15.5983 28.7654L16.2102 23.231" fill="#ABC8D3"/>
</g>
<defs>
<linearGradient id="paint0_linear_107_9874" x1="26.6683" y1="6.668" x2="16.6683" y2="30" gradientUnits="userSpaceOnUse">
<stop stop-color="#37AEE2"/>
<stop offset="1" stop-color="#1E96C8"/>
</linearGradient>
<clipPath id="clip0_107_9874">
<rect width="40" height="40" fill="white"/>
</clipPath>
</defs>
</svg>
