<svg width="83" height="38" viewBox="0 0 83 38" fill="none" xmlns="http://www.w3.org/2000/svg">
<rect x="0.901733" y="0.571533" width="81.7425" height="36.569" rx="4.30224" fill="#062750"/>
<path d="M42.9265 18.574C42.9142 19.0088 42.7983 19.4345 42.5883 19.8165C42.3294 20.2987 41.9789 20.7268 41.5561 21.0774C41.0405 21.506 40.4466 21.8328 39.8067 22.0398C39.0419 22.2929 38.2395 22.4163 37.4332 22.4046C35.5626 22.4046 34.1021 21.8438 33.0518 20.7222C32.0015 19.6006 31.4766 18.0973 31.4773 16.2121C31.4773 14.9352 31.7177 13.8063 32.1985 12.8252C32.6487 11.8786 33.3748 11.0872 34.2832 10.5528C35.1904 10.0171 36.2773 9.74918 37.544 9.74918C38.2786 9.74092 39.0089 9.86048 39.7017 10.1024C40.3047 10.31 40.8672 10.6187 41.3647 11.0148C41.7831 11.3453 42.1366 11.7492 42.4075 12.2063C42.6476 12.6289 42.7681 13.0216 42.7681 13.3873C42.7712 13.5643 42.7367 13.74 42.6669 13.9029C42.5971 14.0659 42.4935 14.2126 42.3628 14.3334C42.2334 14.4591 42.0798 14.5579 41.9112 14.624C41.7427 14.6901 41.5625 14.7222 41.3812 14.7184C41.1554 14.7265 40.9339 14.656 40.7553 14.5191C40.5398 14.3303 40.3511 14.1133 40.1945 13.8743C39.8251 13.2968 39.439 12.8634 39.0359 12.574C38.6329 12.2846 38.1207 12.1403 37.4993 12.1409C36.6052 12.1409 35.8843 12.5002 35.3368 13.2189C34.7893 13.9375 34.5158 14.9202 34.5165 16.1669C34.5111 16.7116 34.5818 17.2544 34.7264 17.78C34.849 18.2312 35.0561 18.6556 35.3368 19.0312C35.5899 19.3664 35.921 19.6362 36.3019 19.8175C36.6901 19.9989 37.1148 20.0908 37.544 20.086C38.0947 20.1008 38.637 19.9498 39.0991 19.6529C39.5313 19.3635 39.9142 18.9224 40.2479 18.3295C40.3994 18.0245 40.6018 17.7469 40.8466 17.5085C41.0596 17.3113 41.3424 17.2049 41.6339 17.2121C41.8106 17.2095 41.9855 17.2472 42.1451 17.3223C42.3048 17.3974 42.4448 17.5079 42.5543 17.6452C42.7881 17.8998 42.9204 18.2299 42.9265 18.574Z" fill="white"/>
<path d="M53.2187 20.6732C52.5744 21.2047 51.8608 21.6479 51.097 21.9908C50.3684 22.292 49.5849 22.4414 48.7955 22.4296C48.0841 22.4448 47.3804 22.282 46.7496 21.9561C46.1839 21.6627 45.7125 21.2183 45.3889 20.6732C45.073 20.1409 44.9081 19.534 44.9117 18.9167C44.9117 18.0658 45.1744 17.3398 45.6999 16.7386C46.2254 16.1374 46.9462 15.7344 47.8624 15.5298C48.0568 15.4848 48.5337 15.3822 49.2931 15.2218C50.0525 15.0614 50.705 14.9151 51.2506 14.7829C51.7942 14.6501 52.3838 14.4897 53.0195 14.3017C52.9825 13.4804 52.8205 12.8779 52.5335 12.4942C52.2465 12.1105 51.6568 11.918 50.7646 11.9167C49.9948 11.9167 49.4162 12.027 49.0287 12.2478C48.6172 12.4903 48.2739 12.8316 48.0306 13.2401C47.7526 13.6809 47.5566 13.9715 47.4426 14.1121C47.3285 14.2526 47.0826 14.3228 46.7049 14.3228C46.3782 14.3279 46.0623 14.2075 45.8233 13.9869C45.7015 13.8781 45.6051 13.7441 45.541 13.5945C45.4768 13.4449 45.4465 13.2832 45.4521 13.1207C45.4521 12.5734 45.6403 12.0412 46.0168 11.524C46.3932 11.0068 46.9812 10.5811 47.7808 10.2468C48.5797 9.91251 49.5743 9.74536 50.7646 9.74536C52.0948 9.74536 53.1409 9.90577 53.9029 10.2266C54.6649 10.5474 55.204 11.0607 55.5202 11.7665C55.8345 12.4666 55.9916 13.3941 55.9916 14.549C55.9916 15.2792 55.9896 15.899 55.9858 16.4085C55.9819 16.9179 55.9764 17.4842 55.9692 18.1072C55.9748 18.727 56.07 19.3429 56.2521 19.9359C56.4406 20.5711 56.5349 20.9799 56.5349 21.1621C56.5349 21.4807 56.3881 21.7723 56.0966 22.0341C55.8292 22.2868 55.4738 22.4278 55.1042 22.4277C54.7932 22.4277 54.4861 22.2776 54.1828 21.9773C53.8088 21.5833 53.485 21.1453 53.2187 20.6732ZM53.0185 16.1688C52.3863 16.3887 51.7398 16.5659 51.0834 16.6991C50.2365 16.8852 49.6504 17.0219 49.3252 17.1092C48.9793 17.2079 48.6608 17.3837 48.3941 17.6231C48.098 17.8798 47.9499 18.2349 47.9499 18.6886C47.9472 18.9139 47.9923 19.1373 48.0824 19.3442C48.1725 19.5511 48.3055 19.737 48.4728 19.8897C48.8208 20.2208 49.2743 20.3863 49.8335 20.3863C50.412 20.3933 50.983 20.2556 51.4935 19.986C51.9604 19.7539 52.348 19.3911 52.6083 18.9426C52.8811 18.471 53.0178 17.6956 53.0185 16.6164V16.1688Z" fill="white"/>
<path d="M62.1159 11.6292V22.1893C62.1159 22.9419 62.0919 23.556 62.0439 24.0315C61.996 24.5069 61.9273 24.8508 61.8379 25.0632C61.3357 26.3869 60.2666 27.0485 58.6305 27.0478C57.7143 27.0478 57.0194 26.9195 56.5458 26.6628C56.0721 26.4062 55.8356 26.0298 55.8363 25.5339C55.8228 25.2056 55.9381 24.8848 56.158 24.6388C56.2646 24.5237 56.3951 24.433 56.5406 24.3728C56.6861 24.3127 56.8431 24.2845 57.0006 24.2904C57.0731 24.2925 57.1455 24.2982 57.2174 24.3077C57.3165 24.3192 57.4642 24.3327 57.6606 24.3481C57.855 24.3625 57.991 24.3702 58.0649 24.3702C58.4724 24.3702 58.7443 24.2069 58.8803 23.8804C59.0164 23.5538 59.0848 22.9683 59.0854 22.1239V11.633C59.0854 11.017 59.226 10.5531 59.5072 10.2413C59.6458 10.0872 59.8171 9.96542 60.0089 9.88456C60.2006 9.80369 60.408 9.76579 60.6162 9.77354C60.8197 9.76673 61.0223 9.80462 61.2093 9.8845C61.3964 9.96437 61.5632 10.0842 61.6979 10.2355C61.9759 10.5409 62.1152 11.0055 62.1159 11.6292ZM60.6181 8.32215C60.2196 8.33036 59.833 8.18748 59.5374 7.92273C59.2367 7.65581 59.0867 7.27948 59.0874 6.79376C59.0812 6.59013 59.1192 6.38755 59.1986 6.19964C59.2781 6.01172 59.3972 5.84282 59.548 5.70425C59.8337 5.42805 60.2179 5.2745 60.6172 5.27692C61.0008 5.27345 61.3723 5.41056 61.66 5.6619C61.9633 5.91856 62.1149 6.29488 62.1149 6.79087C62.1149 7.2721 61.9662 7.64458 61.6707 7.91407C61.3868 8.18041 61.0092 8.32678 60.6181 8.32215Z" fill="white"/>
<path d="M72.8712 20.6719C72.2263 21.2037 71.512 21.6469 70.7475 21.9895C70.0189 22.2908 69.2355 22.4402 68.446 22.4284C67.7343 22.4437 67.0303 22.2808 66.3991 21.9549C65.8335 21.6615 65.3621 21.217 65.0384 20.6719C64.7228 20.1396 64.5583 19.5327 64.5622 18.9154C64.5622 18.0646 64.8246 17.3386 65.3495 16.7374C65.8743 16.1361 66.5951 15.7332 67.512 15.5285C67.7064 15.4836 68.1833 15.3809 68.9427 15.2205C69.7021 15.0601 70.3545 14.9138 70.9001 14.7816C71.4444 14.6488 72.0343 14.4884 72.67 14.3004C72.6317 13.4791 72.4698 12.8766 72.184 12.4929C71.8983 12.1092 71.3086 11.9167 70.4151 11.9154C69.6551 11.9141 69.0807 12.0239 68.6919 12.2446C68.2806 12.4874 67.9374 12.8286 67.6937 13.2369C67.5115 13.5389 67.3139 13.8315 67.1018 14.1137C66.9871 14.2542 66.7412 14.3245 66.3641 14.3245C66.0375 14.3278 65.7223 14.2057 65.4846 13.9838C65.3627 13.8749 65.2663 13.7409 65.2022 13.5913C65.138 13.4417 65.1077 13.28 65.1133 13.1175C65.1133 12.5702 65.3018 12.038 65.6789 11.5208C66.056 11.0037 66.6437 10.5779 67.442 10.2436C68.2409 9.90934 69.2355 9.74219 70.4258 9.74219C71.756 9.74219 72.8022 9.9026 73.5641 10.2234C74.3261 10.5442 74.8636 11.0582 75.1766 11.7653C75.4908 12.4653 75.6479 13.3928 75.6479 14.5478C75.6479 15.2779 75.646 15.8978 75.6421 16.4072C75.6382 16.9167 75.6327 17.483 75.6256 18.106C75.6311 18.7258 75.7264 19.3416 75.9084 19.9347C76.097 20.5699 76.1912 20.9786 76.1912 21.1608C76.1912 21.4794 76.0455 21.771 75.7529 22.0328C75.4856 22.2857 75.1302 22.4267 74.7606 22.4265C74.4496 22.4265 74.1428 22.2763 73.8402 21.976C73.4647 21.5821 73.1393 21.1441 72.8712 20.6719ZM72.6768 16.1676C72.0442 16.3873 71.3974 16.5645 70.7407 16.6979C69.8932 16.884 69.3074 17.0206 68.9835 17.1079C68.6377 17.2069 68.3192 17.3826 68.0524 17.6219C67.7569 17.8785 67.6089 18.2337 67.6082 18.6873C67.6049 18.9124 67.6495 19.1357 67.7391 19.3427C67.8287 19.5496 67.9613 19.7356 68.1282 19.8885C68.4748 20.2196 68.9284 20.3851 69.4889 20.3851C70.0681 20.3923 70.6397 20.2545 71.1509 19.9847C71.6176 19.7529 72.005 19.39 72.2647 18.9414C72.5394 18.4679 72.6768 17.6928 72.6768 16.6161V16.1676Z" fill="white"/>
<path d="M34.5691 31.5354C34.3613 31.7004 34.1325 31.8376 33.8886 31.9436C33.6535 32.0369 33.4021 32.0831 33.1488 32.0793C32.9204 32.084 32.6942 32.0338 32.4897 31.933C32.3078 31.8438 32.1546 31.7061 32.0474 31.5354C31.9457 31.3716 31.8925 31.1828 31.8938 30.9905C31.8886 30.7423 31.9789 30.5013 32.1465 30.3166C32.3324 30.1216 32.5762 29.9904 32.8426 29.9421C32.9074 29.928 33.061 29.8959 33.3034 29.8459C33.5484 29.7968 33.7583 29.7496 33.9333 29.7101C34.1083 29.6707 34.2979 29.6187 34.502 29.56C34.4904 29.3032 34.4389 29.1165 34.3475 28.9997C34.2561 28.8829 34.0662 28.8232 33.7778 28.8206C33.5861 28.8096 33.3946 28.845 33.2198 28.9236C33.0883 28.9977 32.9776 29.1033 32.898 29.2307C32.8086 29.3674 32.7463 29.4579 32.7094 29.5012C32.6764 29.5275 32.6384 29.5469 32.5976 29.5581C32.5568 29.5694 32.5141 29.5723 32.4722 29.5667C32.3677 29.5687 32.2664 29.5315 32.1883 29.4627C32.1496 29.4297 32.1188 29.3885 32.0981 29.3422C32.0775 29.2959 32.0674 29.2457 32.0688 29.1951C32.0725 29.0148 32.1364 28.8408 32.2505 28.7003C32.4003 28.5201 32.5964 28.3834 32.8183 28.3046C33.1252 28.1929 33.4509 28.1403 33.7778 28.1496C34.121 28.136 34.4638 28.1869 34.7879 28.2998C35.017 28.385 35.2034 28.5557 35.307 28.7754C35.4195 29.0501 35.4712 29.3456 35.4586 29.6418C35.4586 29.868 35.4586 30.0606 35.4586 30.2194C35.4586 30.3782 35.4586 30.5525 35.4538 30.746C35.4555 30.9384 35.486 31.1295 35.5442 31.313C35.5887 31.4357 35.6193 31.5629 35.6356 31.6923C35.6339 31.7449 35.6203 31.7965 35.5959 31.8433C35.5715 31.8901 35.5369 31.9309 35.4946 31.9628C35.4073 32.042 35.2931 32.0856 35.1748 32.0851C35.0629 32.0781 34.9582 32.028 34.8831 31.9455C34.7618 31.8222 34.6563 31.6844 34.5691 31.5354ZM34.505 30.1395C34.3013 30.2071 34.0935 30.2618 33.8828 30.3032C33.6096 30.3609 33.422 30.3994 33.317 30.4302C33.2065 30.461 33.1042 30.5155 33.0176 30.59C32.9698 30.6305 32.932 30.6814 32.9073 30.7386C32.8825 30.7959 32.8713 30.858 32.8747 30.9202C32.8737 30.9906 32.8882 31.0604 32.917 31.1247C32.9459 31.189 32.9885 31.2463 33.0419 31.2928C33.1625 31.3989 33.3201 31.4541 33.4813 31.4468C33.6668 31.4482 33.8498 31.4052 34.015 31.3217C34.1636 31.2504 34.2882 31.1381 34.3737 30.9982C34.4612 30.8519 34.505 30.6115 34.505 30.2772V30.1395Z" fill="white"/>
<path d="M37.4177 30.6815V31.4873C37.4297 31.6462 37.3799 31.8035 37.2787 31.9273C37.2335 31.975 37.1786 32.0128 37.1176 32.038C37.0566 32.0632 36.9909 32.0754 36.9248 32.0736C36.8597 32.0755 36.7949 32.0632 36.7351 32.0375C36.6753 32.0119 36.6219 31.9736 36.5787 31.9253C36.4802 31.8011 36.432 31.6449 36.4436 31.4873V28.8014C36.4436 28.3672 36.6011 28.1506 36.918 28.1506C36.9845 28.1449 37.0514 28.1559 37.1126 28.1824C37.1737 28.209 37.2272 28.2504 37.268 28.3027C37.3489 28.4384 37.3897 28.5939 37.3856 28.7514C37.4786 28.5828 37.5999 28.4311 37.7443 28.3027C37.8831 28.1968 38.0553 28.1429 38.2304 28.1506C38.4387 28.1519 38.6434 28.2042 38.8263 28.3027C39.0208 28.399 39.118 28.5386 39.118 28.7052C39.119 28.7592 39.1086 28.8128 39.0873 28.8626C39.066 28.9123 39.0344 28.9571 38.9945 28.994C38.925 29.0658 38.8295 29.1073 38.7291 29.1095C38.6408 29.097 38.5541 29.0751 38.4705 29.044C38.3538 29.0036 38.2315 28.9815 38.1079 28.9786C37.9815 28.9729 37.8572 29.0125 37.7579 29.0902C37.6581 29.1786 37.5853 29.293 37.548 29.4204C37.4931 29.5895 37.4582 29.7642 37.4439 29.9412C37.4274 30.1453 37.4177 30.3918 37.4177 30.6815Z" fill="white"/>
<path d="M42.1893 30.3486H40.2839C40.2822 30.5488 40.3278 30.7466 40.4171 30.9262C40.4941 31.0822 40.6145 31.2131 40.7641 31.3036C40.9079 31.3891 41.0728 31.4334 41.2405 31.4316C41.3482 31.4324 41.4555 31.4185 41.5594 31.3902C41.6586 31.3619 41.7529 31.3191 41.8393 31.2632C41.9272 31.2076 42.0107 31.1454 42.0892 31.0774C42.166 31.0119 42.2642 30.9224 42.3808 30.8088C42.4421 30.7628 42.518 30.7402 42.5947 30.7452C42.6832 30.7416 42.7698 30.7708 42.8377 30.8271C42.8693 30.8561 42.8939 30.8917 42.9099 30.9314C42.9258 30.971 42.9327 31.0136 42.9301 31.0562C42.9234 31.1654 42.8878 31.2709 42.827 31.3623C42.7452 31.4927 42.6393 31.6066 42.515 31.6983C42.3559 31.8151 42.1786 31.9051 41.99 31.965C41.7553 32.039 41.5101 32.0747 41.2638 32.0709C40.6378 32.0709 40.1517 31.894 39.8056 31.5404C39.4595 31.1868 39.2858 30.7074 39.2845 30.1022C39.282 29.8325 39.3254 29.5643 39.4129 29.3089C39.4919 29.0761 39.6194 28.8622 39.7871 28.6812C39.956 28.5038 40.1634 28.3669 40.3938 28.2808C40.6492 28.1848 40.9206 28.1375 41.1938 28.1412C41.536 28.1313 41.8744 28.2139 42.1728 28.3799C42.4311 28.5245 42.6433 28.738 42.7852 28.996C42.9163 29.2321 42.9861 29.4968 42.9884 29.7662C42.9884 30.0097 42.9184 30.1667 42.7775 30.2389C42.5925 30.3196 42.3913 30.3571 42.1893 30.3486ZM40.2839 29.8018H42.0503C42.0263 29.4726 41.9366 29.2258 41.781 29.0615C41.7017 28.9797 41.6057 28.9155 41.4995 28.8732C41.3932 28.8309 41.2791 28.8114 41.1647 28.816C41.0529 28.8126 40.9418 28.8332 40.8388 28.8762C40.7357 28.9192 40.6433 28.9837 40.5678 29.0653C40.4116 29.2316 40.3169 29.4771 40.2839 29.8018Z" fill="white"/>
<path d="M46.4806 32.8603V31.499C46.3117 31.6726 46.1145 31.8167 45.8973 31.9255C45.6863 32.0246 45.4552 32.0746 45.2217 32.0718C44.9288 32.0745 44.6415 31.9921 44.3953 31.835C44.1393 31.6678 43.937 31.4317 43.812 31.1544C43.6709 30.8222 43.5981 30.4654 43.5981 30.1051C43.5981 29.7447 43.6709 29.3879 43.812 29.0557C43.9384 28.7779 44.1451 28.5433 44.406 28.3818C44.6601 28.2288 44.9525 28.1494 45.2498 28.1527C45.4926 28.1503 45.7322 28.2068 45.9478 28.3173C46.1645 28.4325 46.3477 28.6009 46.4796 28.8064V28.6899C46.4694 28.5442 46.5152 28.4001 46.6079 28.2865C46.6513 28.243 46.703 28.2085 46.76 28.1849C46.817 28.1613 46.8782 28.1492 46.9399 28.1492C47.0017 28.1492 47.0628 28.1613 47.1198 28.1849C47.1768 28.2085 47.2285 28.243 47.2719 28.2865C47.3654 28.4001 47.4113 28.5448 47.4002 28.6909V32.8612C47.4002 33.2896 47.2476 33.5043 46.9404 33.5043C46.7499 33.5043 46.6254 33.4465 46.5671 33.331C46.5024 33.1827 46.4728 33.0217 46.4806 32.8603ZM44.5713 30.1031C44.5652 30.3341 44.6086 30.5638 44.6986 30.777C44.7669 30.9449 44.8827 31.0896 45.0321 31.1939C45.1637 31.2824 45.3192 31.3297 45.4783 31.3296C45.6476 31.3306 45.8136 31.2835 45.9566 31.1939C46.1112 31.092 46.2324 30.9479 46.3056 30.7789C46.3989 30.5609 46.4427 30.3253 46.4339 30.0887C46.4365 29.9115 46.4106 29.735 46.3571 29.5659C46.314 29.4253 46.2433 29.2945 46.1491 29.1809C46.0666 29.0827 45.963 29.0041 45.8458 28.9508C45.7312 28.8998 45.6068 28.8739 45.4812 28.8747C45.3544 28.8736 45.2292 28.9021 45.1157 28.958C45.0022 29.0139 44.9036 29.0955 44.8279 29.1963C44.6575 29.4061 44.5719 29.7084 44.5713 30.1031Z" fill="white"/>
<path d="M50.9051 31.5334V31.4092C50.798 31.5459 50.6746 31.6694 50.5377 31.777C50.4117 31.8746 50.2691 31.9492 50.1167 31.9974C49.9479 32.0482 49.7721 32.0729 49.5956 32.0706C49.3756 32.074 49.158 32.0241 48.9618 31.9252C48.7819 31.8355 48.6315 31.6969 48.5282 31.5257C48.407 31.321 48.3464 31.0267 48.3464 30.6429V28.7262C48.334 28.5705 48.3812 28.4158 48.4787 28.293C48.523 28.2453 48.5772 28.2078 48.6377 28.1831C48.6981 28.1583 48.7633 28.1469 48.8286 28.1496C48.8952 28.1469 48.9615 28.1586 49.023 28.1837C49.0846 28.2088 49.14 28.2467 49.1854 28.2949C49.2843 28.4164 49.3326 28.5706 49.3205 28.7262V30.2665C49.3171 30.4558 49.3363 30.6449 49.3779 30.8297C49.4071 30.967 49.4788 31.0918 49.583 31.1868C49.6961 31.2775 49.8392 31.3235 49.9845 31.3158C50.1503 31.3154 50.312 31.265 50.4482 31.1714C50.5892 31.0788 50.6998 30.9473 50.7661 30.7931C50.8206 30.6564 50.8478 30.357 50.8478 29.8949V28.7262C50.836 28.5705 50.8846 28.4162 50.9839 28.2949C51.0286 28.2469 51.0833 28.209 51.1442 28.1839C51.2052 28.1589 51.2708 28.1471 51.3368 28.1496C51.4021 28.147 51.4672 28.1585 51.5277 28.1832C51.5881 28.208 51.6424 28.2454 51.6867 28.293C51.7842 28.4158 51.8314 28.5705 51.819 28.7262V31.518C51.83 31.6667 51.785 31.8142 51.6926 31.932C51.65 31.976 51.5988 32.0109 51.542 32.0346C51.4853 32.0583 51.4243 32.0703 51.3627 32.0697C51.3012 32.0692 51.2404 32.0562 51.1841 32.0315C51.1278 32.0068 51.0772 31.971 51.0354 31.9262C50.9445 31.8157 50.8981 31.6758 50.9051 31.5334Z" fill="white"/>
<path d="M53.2843 27.7035C53.1567 27.7065 53.0326 27.6622 52.9363 27.5793C52.8902 27.5345 52.8535 27.481 52.8285 27.422C52.8034 27.363 52.7905 27.2996 52.7905 27.2356C52.7905 27.1716 52.8034 27.1083 52.8285 27.0492C52.8535 26.9902 52.8902 26.9368 52.9363 26.8919C53.0298 26.806 53.1529 26.7588 53.2804 26.7601C53.4033 26.7585 53.5225 26.8012 53.6158 26.8804C53.6657 26.9236 53.7049 26.9776 53.7303 27.0382C53.7558 27.0988 53.7668 27.1644 53.7626 27.2298C53.7662 27.2948 53.7552 27.3597 53.7305 27.4199C53.7058 27.4801 53.668 27.5342 53.6197 27.5783C53.5277 27.6603 53.408 27.7049 53.2843 27.7035ZM53.7704 28.6999V31.4917C53.782 31.65 53.7319 31.8068 53.6304 31.9297C53.5859 31.9781 53.5313 32.0165 53.4704 32.042C53.4094 32.0676 53.3437 32.0799 53.2775 32.0779C53.2107 32.0799 53.1443 32.0668 53.0833 32.0396C53.0224 32.0124 52.9684 31.9719 52.9256 31.921C52.8288 31.7974 52.7811 31.6429 52.7915 31.4868V28.7287C52.7796 28.5734 52.8275 28.4193 52.9256 28.2975C52.9694 28.2496 53.0233 28.2118 53.0834 28.1867C53.1435 28.1616 53.2084 28.1498 53.2736 28.1521C53.3395 28.15 53.4051 28.1619 53.4659 28.187C53.5268 28.2121 53.5816 28.2497 53.6265 28.2975C53.725 28.408 53.7753 28.5527 53.7665 28.6999H53.7704Z" fill="white"/>
<path d="M55.6699 28.6907V28.8072C55.825 28.6069 56.019 28.4393 56.2405 28.3143C56.4473 28.2073 56.678 28.1533 56.9113 28.1574C57.2037 28.1552 57.4907 28.2346 57.7396 28.3865C58.0001 28.5496 58.2076 28.7836 58.3374 29.0604C58.4907 29.3876 58.5659 29.7453 58.5572 30.1059C58.5601 30.3837 58.517 30.6601 58.4298 30.9242C58.3563 31.1533 58.238 31.3659 58.0818 31.5499C57.9377 31.7139 57.7597 31.8453 57.5597 31.935C57.356 32.026 57.1348 32.0723 56.9113 32.0707C56.6668 32.0786 56.4247 32.0211 56.2104 31.9042C56.0013 31.7763 55.8181 31.6111 55.6699 31.4171V32.8659C55.6699 33.2901 55.514 33.5022 55.2023 33.5022C55.0185 33.5022 54.898 33.4474 54.8387 33.3376C54.7701 33.1867 54.7394 33.0215 54.7492 32.8563V28.6975C54.7374 28.5503 54.7806 28.404 54.8708 28.2864C54.9122 28.2406 54.9635 28.2046 55.0209 28.1809C55.0782 28.1573 55.1402 28.1466 55.2023 28.1497C55.2653 28.1477 55.328 28.1592 55.3862 28.1833C55.4444 28.2074 55.4967 28.2435 55.5396 28.2893C55.6326 28.4021 55.6791 28.5454 55.6699 28.6907ZM57.5792 30.0895C57.5844 29.8654 57.5444 29.6425 57.4615 29.4339C57.3942 29.2664 57.2811 29.1207 57.1349 29.0132C57.0001 28.9173 56.8381 28.866 56.6722 28.8669C56.5421 28.8655 56.4135 28.8931 56.2957 28.9475C56.1779 29.002 56.074 29.0821 55.9916 29.1817C55.8069 29.3916 55.7149 29.7003 55.7156 30.1078C55.7156 30.4929 55.8069 30.7913 55.9897 31.0031C56.0711 31.1041 56.1748 31.1854 56.2927 31.2408C56.4106 31.2961 56.5397 31.3242 56.6702 31.3227C56.8318 31.3252 56.9901 31.2777 57.1232 31.187C57.2719 31.0816 57.3869 30.9363 57.4547 30.7682C57.544 30.5532 57.5864 30.3219 57.5792 30.0895Z" fill="white"/>
<path d="M61.8014 31.5341C61.5934 31.6987 61.3646 31.8359 61.1209 31.9423C60.8855 32.0355 60.6337 32.0817 60.3802 32.078C60.152 32.0828 59.9262 32.0326 59.722 31.9317C59.5418 31.8418 59.3904 31.7042 59.2846 31.5341C59.1833 31.3701 59.1302 31.1814 59.131 30.9892C59.1256 30.7408 59.2164 30.4997 59.3847 30.3153C59.5702 30.1199 59.8142 29.9886 60.0807 29.9408C60.142 29.9264 60.2956 29.8946 60.5406 29.8446C60.7856 29.7945 60.9955 29.7483 61.1705 29.7088C61.3455 29.6694 61.5351 29.6174 61.7402 29.5587C61.7279 29.3019 61.676 29.1152 61.5847 28.9984C61.4933 28.8816 61.3024 28.8203 61.0121 28.8145C60.8204 28.8035 60.6289 28.8388 60.4541 28.9175C60.3244 28.992 60.2155 29.0972 60.1371 29.2236C60.0792 29.3171 60.0162 29.4074 59.9485 29.4942C59.9156 29.5205 59.8775 29.5399 59.8368 29.5511C59.796 29.5624 59.7533 29.5653 59.7113 29.5596C59.6069 29.5616 59.5055 29.5244 59.4275 29.4556C59.3888 29.4226 59.358 29.3814 59.3373 29.3352C59.3166 29.2889 59.3066 29.2386 59.3079 29.188C59.3116 29.0077 59.3756 28.8337 59.4897 28.6932C59.6396 28.5132 59.8357 28.3765 60.0574 28.2975C60.3644 28.1858 60.69 28.1332 61.0169 28.1425C61.3602 28.1289 61.7029 28.1799 62.027 28.2927C62.2562 28.3779 62.4425 28.5487 62.5461 28.7683C62.6586 29.043 62.7103 29.3385 62.6978 29.6347C62.6978 29.8606 62.6978 30.0532 62.6978 30.2123C62.6978 30.3702 62.6978 30.5454 62.6919 30.7389C62.6936 30.9314 62.7244 31.1225 62.7833 31.3059C62.8272 31.4288 62.8575 31.5559 62.8737 31.6852C62.872 31.7379 62.8585 31.7895 62.8341 31.8362C62.8097 31.883 62.7751 31.9239 62.7328 31.9557C62.6458 32.0348 62.5319 32.0785 62.4139 32.078C62.3576 32.0752 62.3025 32.0614 62.2516 32.0374C62.2007 32.0135 62.1551 31.9798 62.1174 31.9384C61.9957 31.817 61.8896 31.6812 61.8014 31.5341ZM61.7373 30.1382C61.5333 30.2057 61.3251 30.2604 61.1141 30.3019C60.8419 30.3596 60.6533 30.402 60.5483 30.4289C60.4379 30.4597 60.3356 30.5142 60.2489 30.5887C60.2011 30.6292 60.1634 30.6801 60.1386 30.7373C60.1138 30.7946 60.1027 30.8567 60.106 30.9189C60.1051 30.9893 60.1195 31.0591 60.1484 31.1234C60.1772 31.1877 60.2198 31.245 60.2732 31.2915C60.3939 31.3976 60.5515 31.4528 60.7126 31.4455C60.8981 31.4468 61.0812 31.4039 61.2463 31.3204C61.3952 31.2494 61.5198 31.137 61.6051 30.9969C61.6926 30.8506 61.7373 30.6118 61.7373 30.2759V30.1382Z" fill="white"/>
<path d="M20.7451 5.15346C20.7451 5.15346 24.6726 4.28704 25.9947 5.60015C27.3168 6.91325 26.6918 9.54716 26.4137 10.4839C26.4137 10.4839 24.7611 8.86558 22.4522 8.86558C22.3511 8.86558 21.0941 5.46633 20.7451 5.15346Z" fill="#B26B3D"/>
<path d="M12.7865 8.86558C10.4719 8.86558 8.82504 10.4839 8.82504 10.4839C8.54603 9.54428 7.919 6.91325 9.24306 5.60015C10.5671 4.28704 14.4927 5.15346 14.4927 5.15346C14.1466 5.46633 12.8896 8.86558 12.7865 8.86558Z" fill="#747530"/>
<path d="M17.7245 6.60017C17.7245 6.60017 19.2342 5.05217 20.7449 5.15614C20.7449 5.15614 22.7437 6.52508 22.418 8.96356C22.418 8.96356 20.3765 9.54695 19.1457 10.4865C19.1457 10.4856 17.1664 7.89691 17.7245 6.60017Z" fill="#ED6B61"/>
<path d="M17.5254 6.60104C17.5254 6.60104 16.0108 5.05304 14.504 5.15604C14.504 5.15604 12.4624 6.42872 12.7842 8.86817C12.7842 8.86817 14.8685 9.54686 16.1041 10.4864C16.108 10.4864 18.0824 7.89778 17.5254 6.60104Z" fill="#F8AC33"/>
<path d="M19.688 9.13751C19.6716 9.66895 19.4468 10.1732 19.0614 10.5433C18.6759 10.9135 18.1601 11.1205 17.6232 11.1205C17.0863 11.1205 16.5705 10.9135 16.185 10.5433C15.7996 10.1732 15.5748 9.66895 15.5583 9.13751C15.5583 8.03427 16.7385 6.60083 17.6232 6.60083C18.4262 6.60083 19.688 8.03427 19.688 9.13751Z" fill="#E00814"/>
<path d="M22.4542 18.8822C24.765 18.8822 26.4157 17.2639 26.4157 17.2639C26.6937 18.2035 27.3217 20.8345 25.9967 22.1467C24.6716 23.4588 20.7471 22.5943 20.7471 22.5943C21.0941 22.2814 22.3511 18.8822 22.4542 18.8822Z" fill="#067AA3"/>
<path d="M14.4947 22.5943C14.4947 22.5943 10.5682 23.4607 9.24512 22.1467C7.92203 20.8326 8.54809 18.1996 8.8271 17.2639C8.8271 17.2639 10.4798 18.8822 12.7886 18.8822C12.8897 18.8822 14.1467 22.2814 14.4947 22.5943Z" fill="#228539"/>
<path d="M17.7245 21.1503C17.7245 21.1503 19.2342 22.6992 20.7449 22.5943C20.7449 22.5943 22.7437 21.2254 22.418 18.7859C22.418 18.7859 20.3765 18.2035 19.1457 17.2639C19.1457 17.2658 17.1664 19.8545 17.7245 21.1503Z" fill="#ED6B61"/>
<path d="M17.5271 21.1484C17.5271 21.1484 16.0124 22.6973 14.5056 22.5943C14.5056 22.5943 12.4923 21.3582 12.817 18.9197C12.817 18.9197 14.8702 18.2035 16.1058 17.2639C16.1097 17.2639 18.0841 19.8526 17.5271 21.1484Z" fill="#F8AC33"/>
<path d="M19.688 18.6145C19.6716 18.0831 19.4468 17.5789 19.0614 17.2087C18.6759 16.8386 18.1601 16.6316 17.6232 16.6316C17.0863 16.6316 16.5705 16.8386 16.185 17.2087C15.7996 17.5789 15.5748 18.0831 15.5583 18.6145C15.5583 19.7178 16.7385 21.1503 17.6232 21.1503C18.4262 21.1503 19.688 19.7178 19.688 18.6145Z" fill="#E00814"/>
<path d="M10.363 14.0178C10.363 14.0178 8.721 15.7709 8.82405 17.2669C8.82405 17.2669 10.3532 19.2443 12.8167 18.9227C12.8167 18.9227 13.3368 16.646 14.2856 15.4224C14.2856 15.4224 11.6715 13.4624 10.363 14.0178Z" fill="#06B2B7"/>
<path d="M10.363 13.8171C10.363 13.8171 8.721 11.9774 8.82405 10.4813C8.82405 10.4813 10.3221 8.54056 12.7856 8.86306C12.7856 8.86306 13.3368 11.186 14.2856 12.4096C14.2856 12.4096 11.6715 14.3687 10.363 13.8171Z" fill="#94C131"/>
<path d="M12.9263 15.9601C13.463 15.9438 13.9721 15.7212 14.3459 15.3395C14.7197 14.9578 14.9288 14.447 14.9288 13.9154C14.9288 13.3837 14.7197 12.8729 14.3459 12.4912C13.9721 12.1095 13.463 11.8869 12.9263 11.8706C11.8132 11.8706 10.3657 13.0393 10.3657 13.9154C10.3657 14.7105 11.8132 15.9601 12.9263 15.9601Z" fill="#428937"/>
<path d="M24.8684 14.0178C24.8684 14.0178 26.5113 15.7747 26.4073 17.2707C26.4073 17.2707 24.8771 19.2481 22.4137 18.9266C22.4137 18.9266 21.8936 16.6498 20.9448 15.4262C20.9448 15.4224 23.5589 13.4624 24.8684 14.0178Z" fill="#06B2B7"/>
<path d="M24.8684 13.8171C24.8684 13.8171 26.5103 11.9774 26.4073 10.4813C26.4073 10.4813 24.9092 8.54056 22.4458 8.86306C22.4458 8.86306 21.8936 11.186 20.9448 12.4096C20.9448 12.4096 23.5589 14.3687 24.8684 13.8171Z" fill="#94C131"/>
<path d="M22.3066 15.9601C21.77 15.9438 21.2608 15.7212 20.887 15.3395C20.5132 14.9578 20.3042 14.447 20.3042 13.9154C20.3042 13.3837 20.5132 12.8729 20.887 12.4912C21.2608 12.1095 21.77 11.8869 22.3066 11.8706C23.4207 11.8706 24.8683 13.0393 24.8683 13.9154C24.8683 14.7105 23.4207 15.9601 22.3066 15.9601Z" fill="#428937"/>
</svg>
