<svg width="83" height="38" viewBox="0 0 83 38" fill="none" xmlns="http://www.w3.org/2000/svg">
<rect x="0.458496" y="0.571533" width="81.7425" height="36.569" rx="6.45336" fill="#FFEE00"/>
<path d="M33.9068 12.6592H36.5765L37.7758 16.7713H38.4254L39.6575 12.6592H42.2945L47.2244 28.6067L46.4383 29.3424H41.7813L40.8222 26.1667H40.0342L39.2134 29.3424H37.1243L36.0633 26.1667H35.4118L34.4873 29.3424H29.7975L29.0095 28.6067L33.9068 12.6592Z" fill="#AF1280"/>
<path d="M6.12002 13.4515L6.98991 12.7158H17.7744L18.5296 13.5084L16.1511 21.0379L15.2248 22.0579H12.4404L10.6424 28.3434L10.0054 29.1911H5.59773L4.96078 28.5122L6.87344 22.0579H4.61318L3.68506 21.0379L6.12002 13.4515Z" fill="#AF1280"/>
<path d="M58.5971 20.9828H57.0903L58.0166 19.1133L56.0984 13.169L55.4615 12.7158H44.5078L43.8108 13.4515L48.5661 28.5691L49.3195 29.3617H60.3369L60.8592 28.4554L58.5971 20.9828ZM50.0165 15.5467H51.4069L52.4988 19.1133H51.1448L50.0165 15.5467ZM53.4942 26.5308L51.971 21.7185H53.2977L54.77 26.5308H53.4942Z" fill="#AF1280"/>
<path d="M70.0181 13.4518L69.2647 12.6592H58.3055L57.6667 13.5033L62.2473 28.6262L63.059 29.2482H74.1928L74.7151 28.5125L70.0181 13.4518ZM67.3502 26.531L63.8706 15.5469H65.2628L68.6259 26.531H67.3502Z" fill="#AF1280"/>
<path d="M31.6323 12.716L20.6732 12.6592L19.978 13.2812L16.9042 23.4727H13.4265L11.9178 28.4485L12.3819 29.3548H19.9197L20.7314 28.6191L22.7041 22.1079H24.16L22.1236 28.6262L22.877 29.3051H27.11L27.8052 28.4556L32.2711 13.3949L31.6323 12.716ZM25.1063 19.0264H23.6759L24.8388 15.5345H26.1345L25.1063 19.0264Z" fill="#AF1280"/>
<path d="M75.0762 8.3501C74.3047 8.34975 73.5504 8.57284 72.9088 8.99117C72.2672 9.40949 71.7671 10.0042 71.4717 10.7002C71.1763 11.3961 71.0989 12.162 71.2493 12.9009C71.3997 13.6398 71.7712 14.3185 72.3167 14.8512C72.8622 15.3839 73.5573 15.7467 74.314 15.8936C75.0707 16.0404 75.855 15.9649 76.5677 15.6764C77.2804 15.388 77.8894 14.8996 78.3178 14.273C78.7462 13.6465 78.9747 12.91 78.9743 12.1566C78.9739 11.1472 78.563 10.1793 77.8321 9.46552C77.1011 8.75176 76.1099 8.35057 75.0762 8.3501ZM77.078 12.5671H75.6913V14.0136H74.4666V12.5671H73.0816V11.7479H74.4666V10.3049H75.6913V11.7514H77.078V12.5671Z" fill="#AF1280"/>
</svg>
