<svg width="83" height="38" viewBox="0 0 83 38" fill="none" xmlns="http://www.w3.org/2000/svg">
<rect x="0.355835" y="0.571533" width="81.7425" height="36.569" rx="6.45336" fill="#BA9F33"/>
<path d="M17.5648 33.9138C25.8809 33.9138 32.6226 27.1721 32.6226 18.8559C32.6226 10.5396 25.8809 3.7981 17.5648 3.7981C9.24858 3.7981 2.50696 10.5396 2.50696 18.8559C2.50696 27.1721 9.24858 33.9138 17.5648 33.9138Z" fill="white"/>
<path d="M17.5637 33.1232C25.6135 33.1232 31.8321 26.9046 31.8321 18.8548C31.8321 10.805 25.6135 4.58648 17.5637 4.58648C9.51392 4.58648 3.29535 10.805 3.29535 18.8548C3.29535 26.9046 9.51392 33.1232 17.5637 33.1232Z" fill="#7A6A2A"/>
<path d="M17.5637 33.1232C25.4439 33.1232 31.8321 26.735 31.8321 18.8548C31.8321 10.9746 25.4439 4.58648 17.5637 4.58648C9.68352 4.58648 3.29535 10.9746 3.29535 18.8548C3.29535 26.735 9.68352 33.1232 17.5637 33.1232Z" fill="#BA9F33"/>
<path fill-rule="evenodd" clip-rule="evenodd" d="M9.09098 17.2478C9.00569 17.1699 8.91559 17.0919 8.83272 17.0139C8.74983 16.936 8.66471 16.8579 8.57942 16.7801L8.32596 16.5391C8.28452 16.4977 8.24067 16.4612 8.19923 16.4196C8.1578 16.3831 8.10913 16.3418 8.06769 16.3051C7.73136 15.986 7.39311 15.6668 7.06143 15.3475C7.40499 15.6618 7.74132 15.9739 8.08488 16.2929L8.20422 16.4124C8.24566 16.4537 8.28951 16.4903 8.33094 16.5318L8.58423 16.7656C8.66952 16.8435 8.7524 16.9216 8.83769 17.0066C8.92298 17.0915 9.00569 17.1702 9.09098 17.2478ZM4.62728 17.1996C4.62728 17.1996 5.85038 17.3262 6.44739 17.4114C7.00039 17.4895 8.7304 17.755 8.7304 17.755L4.62728 17.1996ZM4.62728 17.1996C4.97084 17.2288 5.3144 17.2653 5.65796 17.3019C5.83335 17.319 6.00151 17.3384 6.16968 17.3554L6.42779 17.3848C6.51308 17.3969 6.59596 17.4091 6.68125 17.4213L7.70469 17.5845L8.21626 17.6698C8.38442 17.699 8.55259 17.7308 8.72798 17.76C8.55982 17.743 8.38442 17.7186 8.21626 17.6942L7.70469 17.6211L6.68125 17.4701C6.59596 17.4579 6.51308 17.4407 6.42779 17.4286L6.16952 17.399C6.00136 17.3819 5.82596 17.3575 5.6578 17.3378C5.31424 17.2966 4.97084 17.253 4.62728 17.1996ZM8.60865 18.0737C8.60865 18.0737 7.30267 18.4052 6.86163 18.532C6.42795 18.6512 5.11459 19.0508 5.11459 19.0508L8.60865 18.0737Z" fill="#CFB66C"/>
<path fill-rule="evenodd" clip-rule="evenodd" d="M8.60865 18.0737C8.31874 18.159 8.02927 18.2419 7.73519 18.32L6.86288 18.5539C6.57296 18.6392 6.28467 18.7221 5.99555 18.8074L5.56189 18.9266C5.41813 18.9681 5.27198 19.0046 5.1234 19.0462C5.26699 18.998 5.41331 18.9487 5.55706 18.9072L5.99072 18.7685C6.28064 18.6783 6.56895 18.5929 6.85806 18.5029C7.15279 18.4298 7.44286 18.3517 7.7376 18.281C8.01772 18.2103 8.31375 18.1396 8.60865 18.0737ZM5.29638 19.8551C5.43997 19.8014 7.0969 19.0292 7.48189 18.8488C7.67463 18.7586 8.23487 18.5597 8.23487 18.5597L5.29638 19.8551Z" fill="#CFB66C"/>
<path fill-rule="evenodd" clip-rule="evenodd" d="M5.29946 19.8549C5.42603 19.8066 5.54552 19.7477 5.66727 19.6917L6.02785 19.5235L6.75159 19.1752C6.99251 19.0607 7.2267 18.9342 7.47518 18.8266C7.6019 18.7731 7.72863 18.7293 7.8552 18.6878L8.04793 18.6269C8.11362 18.6099 8.17465 18.5903 8.24067 18.5733C7.99975 18.6878 7.74613 18.7853 7.50489 18.8973C7.26397 19.0167 7.01757 19.1143 6.76895 19.2214L6.03316 19.5453C5.78613 19.6454 5.54537 19.7526 5.29946 19.8549ZM5.46007 20.5295C5.46007 20.5295 6.96088 19.6499 7.47742 19.3673C7.7479 19.2163 8.62262 18.7824 8.62262 18.7824L5.46007 20.5295Z" fill="#CFB66C"/>
<path fill-rule="evenodd" clip-rule="evenodd" d="M5.45634 20.5293C5.70964 20.3733 5.96791 20.2149 6.22618 20.0541L6.61165 19.8202C6.7432 19.7423 6.86994 19.6692 7.00404 19.5912C7.13559 19.5132 7.26231 19.4353 7.39627 19.3622C7.46005 19.3228 7.52685 19.2886 7.59608 19.2599L7.80071 19.1577C8.07119 19.0261 8.34166 18.892 8.62676 18.7774C8.36849 18.9408 8.10282 19.0797 7.83732 19.2232C7.70577 19.2963 7.57167 19.3622 7.44012 19.4353C7.30857 19.5083 7.18185 19.5864 7.04773 19.6571C6.91619 19.735 6.78946 19.8081 6.65551 19.8787L6.25831 20.0956L5.45634 20.5293ZM8.60669 18.9746C8.60669 18.9746 7.6735 19.691 7.37137 19.92C7.06926 20.1491 6.17992 20.7923 6.17992 20.7923L8.60669 18.9746Z" fill="#CFB66C"/>
<path fill-rule="evenodd" clip-rule="evenodd" d="M13.9622 24.7497L13.4847 23.8458L13.7624 22.7152L15.7433 21.9502L14.9002 20.2203L15.3169 18.4733L16.0991 16.9089L18.5162 16.5288L20.2923 14.8355L24.1275 15.1253L24.8803 19.2261L23.4306 24.3891L22.6046 27.062L19.2568 27.1888L17.7023 26.1119L15.8822 25.3515L13.9622 24.7497Z" fill="#E2CC85"/>
<path fill-rule="evenodd" clip-rule="evenodd" d="M19.8361 24.7248C19.8361 24.7248 19.3731 24.9368 18.5833 24.888C18.3548 24.581 16.7541 24.4374 16.7541 24.4374C16.7541 24.4374 16.5542 24.3765 16.2008 24.5226C15.8453 24.6672 15.5089 24.6494 15.1946 24.7272C14.8802 24.8051 14.5682 24.3959 14.3272 24.3106C14.0863 24.2205 13.7668 24.0036 13.7668 24.0036L13.0923 23.9378L11.7376 23.3652L9.58552 21.2211L9.00072 22.1366L8.82034 23.2696L9.471 24.6122L11.2228 26.2081L14.6388 27.0754L16.6635 26.4789L19.2 25.4068L19.8361 24.7248Z" fill="#F1D789"/>
<path fill-rule="evenodd" clip-rule="evenodd" d="M7.70126 17.142L8.13494 15.8288L8.65163 14.9807L10.3156 14.8418L9.8161 16.299L8.42501 18.7745L9.00242 20.9844L7.97913 21.496L7.66464 21.0137L7.41135 19.9075L7.39433 18.6648L7.70126 17.142Z" fill="#F4ECB4"/>
<path fill-rule="evenodd" clip-rule="evenodd" d="M9.56601 24.6293L9.24686 24.1834C9.24686 24.1834 9.16158 23.9714 9.21041 23.7863C9.25859 23.5987 9.25168 23.5865 9.22742 23.5157C9.20318 23.445 8.99838 23.2014 9.0106 22.9918C9.02264 22.7797 8.99357 22.7092 9.14937 22.5411C9.31255 22.3779 9.26389 22.0952 9.26389 22.0952L9.4759 22.2268L9.52409 22.1537C9.52409 22.1537 9.60198 22.2146 9.60198 22.3097C9.61901 22.1781 9.54834 21.569 9.70911 21.4301C9.86989 21.2913 10.155 22.0806 10.155 22.0806L9.9796 20.9354L9.52875 19.7611L8.72711 18.689L8.67892 17.5072V17.4048C8.67892 17.4048 8.31095 17.9703 8.20863 18.4167C8.13556 18.7237 8.31095 19.0965 8.27449 19.5375C8.24509 19.9762 8.20863 19.942 8.31576 20.1158C8.4229 20.2895 8.68374 20.6469 8.58142 20.9052C8.49132 21.1271 8.18422 20.9711 8.18422 20.9711C8.18422 20.9711 8.12334 21.1512 8.04047 21.2171C8.01124 21.11 7.97959 21.0418 7.92113 20.9762C7.91615 21.0177 7.9041 21.0737 7.9041 21.0737C7.9041 21.0737 7.85046 20.9055 7.79681 20.6935C7.7239 20.411 7.64583 20.0382 7.57516 19.8384C7.54593 19.9529 7.47285 20.3013 7.47285 20.3013L7.51429 20.8374L7.71409 21.5733L7.90683 22.055L8.09444 22.6447L8.25746 23.0408L8.38901 23.343L8.50353 24.0228L9.05653 24.6074L9.35143 24.7391L9.56601 24.6293Z" fill="#F3E19D"/>
<path fill-rule="evenodd" clip-rule="evenodd" d="M7.98663 16.0719C7.98663 16.0719 7.58941 16.7465 7.47507 17.4266C7.3607 18.1066 7.25823 18.8253 7.3305 19.751C7.40359 20.6843 7.54253 21.2568 7.65463 21.6661C7.84737 22.3461 8.34656 23.2915 8.34656 23.2915L8.36359 23.2549C8.27968 23.0958 8.21272 22.9284 8.16378 22.7553C8.09794 22.4971 8.07352 22.1901 8.01265 22.0512C7.959 21.9124 7.8689 21.7929 7.82504 21.6223C7.78361 21.4591 7.77686 21.2009 7.64965 21.0085C7.596 20.9304 7.53015 20.7257 7.51072 20.5212C7.48631 20.2141 7.52293 19.8705 7.4937 19.588C7.44005 19.1177 7.40359 18.7985 7.45225 18.5524C7.50092 18.3061 7.75454 17.6071 7.91049 17.0515C8.0128 16.6957 7.95177 16.3961 8.13937 16.0866C8.32698 15.7796 8.44165 15.5091 8.48293 15.3214C8.53111 15.1509 7.98663 16.0719 7.98663 16.0719Z" fill="#F2E8B0"/>
<path fill-rule="evenodd" clip-rule="evenodd" d="M9.87292 15.8029C9.87292 15.8029 9.6683 15.8639 9.57079 15.9711C9.4733 16.0735 9.43186 16.1587 9.30032 16.3317C9.16877 16.5047 9.16139 16.646 9.0541 16.8629C8.94696 17.0749 8.71054 17.3939 8.68129 17.5085C8.65206 17.623 8.6034 18.1591 8.54253 18.4125C8.48888 18.6659 8.6034 18.9778 8.6034 18.9778L8.74217 18.9485C8.74217 18.9485 8.74217 19.1288 8.8811 19.2507C9.01988 19.3701 9.0443 18.8461 9.0443 18.8461L9.56325 17.0943L10.3453 16.5631L10.4306 16.1343L9.87292 15.8029Z" fill="#F5EEC0"/>
<path fill-rule="evenodd" clip-rule="evenodd" d="M10.2572 16.5971C10.2572 16.5971 9.88923 16.6213 9.70901 16.7531C9.63593 16.8066 9.6067 16.8504 9.5288 16.9163C9.38505 17.0355 9.23873 17.1453 9.16821 17.3017C9.09016 17.4576 9.00487 17.694 8.9464 18.1398C8.92198 18.3274 8.92199 18.5004 8.90497 18.6516C8.88055 18.8561 8.84409 19.0193 8.86352 19.1335C8.88794 19.3672 9.12918 19.4891 9.15264 19.7547L9.65216 19.5013L10.1224 17.647L11.1215 17.0207L10.5561 16.3872L10.2572 16.5971Z" fill="#E6DB9D"/>
<path fill-rule="evenodd" clip-rule="evenodd" d="M7.61436 29.0831C7.61644 29.0649 7.61854 29.0465 7.62063 29.0278C7.69355 28.4013 7.70592 27.9265 7.75939 27.6292C7.8373 27.2078 7.89094 27.0511 7.87874 26.8932C7.86171 26.64 7.84228 26.4548 7.8667 26.2598C7.90315 26.0015 8.15661 25.6946 8.14938 25.4826C8.14439 25.3144 8.05911 25.2049 7.98603 25.1026C7.91294 25.0002 7.85448 24.915 7.85448 24.915C7.85448 24.915 8.354 24.5714 8.34919 23.1874C8.35938 23.1903 8.3692 23.1943 8.37842 23.1996L8.62447 23.8987L8.79265 24.1034L9.43833 25.3071L10.2692 26.1137L11.4971 26.9395L12.2671 27.7775L12.345 30.0119L11.3387 31.3178L11.1739 31.6162C9.86472 30.9589 8.6643 30.1047 7.61436 29.0831Z" fill="#E5CB7A"/>
<path fill-rule="evenodd" clip-rule="evenodd" d="M10.692 31.2214C10.692 31.2214 10.709 30.9436 10.9381 30.7634C10.9747 30.8242 10.9989 30.8828 10.9917 30.9264C11.0331 30.8536 11.3231 30.3857 11.9785 30.2638C12.634 30.1445 12.7924 29.667 12.7924 29.667L14.1835 28.4024L15.7745 26.938L17.7092 26.2582L18.6133 26.0363C18.6133 26.0363 18.6303 26.1022 18.5962 26.2483C18.7643 26.2364 19.1371 26.1511 19.5244 26.0145C19.6804 25.9536 19.8268 25.9292 19.9046 26.0097C20.0191 26.1169 20.0362 26.3703 20.0434 26.5213C20.231 26.4799 20.4479 26.2996 20.6216 26.3167C20.8995 26.3459 21.1456 26.6725 21.4283 26.6725C21.801 26.6725 21.9691 26.4434 22.2299 26.263C22.3859 26.1558 22.61 26.022 22.7367 25.9316C23.0387 25.7099 26.2355 24.7328 26.2355 24.7328L27.3563 24.8058L27.5367 26.0095L27.4403 29.156C27.4285 29.1674 27.4165 29.1793 27.4045 29.1907L22.3085 31.8523L15.2445 32.9352C13.6622 32.6767 12.1352 32.1514 10.7286 31.3818L10.692 31.2214Z" fill="#D8C173"/>
<path fill-rule="evenodd" clip-rule="evenodd" d="M8.04766 29.4873C8.14803 29.2774 8.23831 29.1019 8.25421 29.039C8.26674 29.1656 8.2897 29.4434 8.33595 29.7386C8.23883 29.6561 8.14273 29.5723 8.04766 29.4873Z" fill="#F1D789"/>
<path fill-rule="evenodd" clip-rule="evenodd" d="M13.2063 32.4448L14.1199 32.1907L14.1978 32.2151C14.1978 32.2151 14.2392 32.2396 14.2392 32.3223C14.3537 32.2565 14.4512 32.2686 14.5219 32.2249C14.5583 32.3028 14.5948 32.5612 14.7557 32.5928C14.9237 32.6294 15.1041 32.5197 15.2869 32.3809C15.4671 32.2371 15.6724 32.0567 15.8277 31.9837C15.8847 32.0885 15.9352 32.1967 15.9789 32.3077C16.1835 32.1445 16.5392 31.4817 17.046 31.4938C17.1924 31.1477 17.4371 30.8521 17.7499 30.6435C18.2201 30.3243 18.5149 30.2999 18.8829 30.3292C19.029 30.1393 19.209 29.9782 19.4139 29.8541C19.4748 29.8785 19.643 29.9808 19.8526 29.8834C20.0646 29.786 20.3033 29.4082 20.6176 29.3595C20.787 29.3363 20.9593 29.3724 21.1049 29.4618C21.1049 29.4618 22.0205 28.5529 22.6522 28.2508C22.6278 28.1777 22.5791 27.9025 23.3197 27.2932C23.3612 27.3298 23.3319 27.4321 23.3612 27.4378C23.3731 27.4378 23.5539 27.3598 23.7826 27.1843C24.0653 26.9724 24.4038 26.7506 24.6084 26.6897C24.9939 26.5753 25.4028 26.8091 25.4028 26.8091C25.4376 26.7847 25.4764 26.7666 25.5173 26.7554C25.6147 26.7384 25.6854 26.7262 25.7391 26.7073C25.7342 26.834 25.8049 27.0509 25.7391 27.2385C25.8153 27.2814 25.8961 27.3156 25.9799 27.3407C25.9387 27.4308 25.8485 27.6599 25.6975 27.7696C25.8239 27.8304 25.841 27.9011 26.0214 27.9623C25.9483 28.0646 25.8287 28.2402 25.7753 28.3479C25.7217 28.4623 25.5292 28.9375 25.4439 29.1176C25.3537 29.298 25.232 29.6294 25.1734 29.6959C25.1147 29.7624 24.9028 30.0442 24.7396 30.183C24.8842 30.1294 25.4756 29.9491 25.7265 29.8809C25.6518 29.9904 25.2732 30.5521 24.9093 31.0923C23.1667 32.1368 21.2215 32.7978 19.2032 33.0315C17.1851 33.2652 15.1403 33.0659 13.2052 32.4473L13.2063 32.4448Z" fill="#E0CD81"/>
<path fill-rule="evenodd" clip-rule="evenodd" d="M10.3157 16.5277C10.3157 16.5277 10.1039 16.5277 10.0624 16.557C10.021 16.5863 10.2744 16.6473 10.3523 16.6765C10.4302 16.7056 10.5984 16.8396 10.6423 16.9469C10.6837 17.0492 12.1651 17.646 12.1651 17.646L13.2128 17.5925L13.574 17.0934L12.8869 16.4915L13.3687 15.0711L12.7304 15.1734L11.1954 16.0889L10.4254 16.3838L10.3157 16.5277Z" fill="#DFC57C"/>
<path fill-rule="evenodd" clip-rule="evenodd" d="M12.6116 17.0006C12.6267 17.0251 12.6481 17.0452 12.6734 17.0589C12.6988 17.0726 12.7273 17.0793 12.7561 17.0785C12.973 17.0785 13.1726 17.1321 13.2555 17.2417C13.3944 17.4172 13.7794 17.9777 13.7794 17.9777L14.7004 18.3089L14.7598 17.2245L13.7536 16.5254L12.6084 16.9468V17.0004L12.6116 17.0006Z" fill="#E5CC7C"/>
<path fill-rule="evenodd" clip-rule="evenodd" d="M12.4341 17.4051C12.4341 17.4051 12.6021 17.4174 12.8141 17.3394C13.0261 17.2613 13.3745 17.0933 13.5257 17.1591C13.7375 17.2492 13.6937 17.5318 13.9229 17.7856C14.0616 17.9414 14.3151 17.9367 14.4588 18.1048C14.6026 18.273 15.0971 18.1949 15.0971 18.1949L15.2847 19.2068L14.5319 20.1717L14.2857 21.3705H13.2677L12.3377 21.0015L11.8797 19.8933L12.1087 18.7725L12.4341 17.4051Z" fill="#D2C281"/>
<path fill-rule="evenodd" clip-rule="evenodd" d="M14.4034 17.4549C14.4286 17.4627 14.4549 17.4668 14.4813 17.4671C14.4521 17.4915 14.391 17.545 14.4154 17.6839C14.4399 17.8229 14.5178 17.9983 14.4521 18.1053C14.5045 18.1628 14.5436 18.231 14.5666 18.3051C14.608 18.4247 14.6202 18.5342 14.8905 18.5514C14.8515 18.5754 14.8156 18.6041 14.7834 18.6367C14.7834 18.6367 14.971 18.7999 15.0661 18.9509C15.1634 18.9467 15.4217 18.8664 15.4217 18.8664L15.4753 18.903L15.5899 18.8548C15.5899 18.8548 15.4827 18.8134 15.5606 18.5527C15.6337 18.3236 15.6996 18.3358 15.7052 18.3189C15.7109 18.3019 15.7589 18.0606 15.7589 17.9631C15.7952 17.8365 15.8245 17.4515 15.8245 17.4515L15.7467 16.6012L15.3082 16.3355L14.9516 15.9914L14.6153 16.6248L14.3938 16.8457L14.3767 17.3939L14.4034 17.4549Z" fill="#E2C270"/>
<path fill-rule="evenodd" clip-rule="evenodd" d="M15.4572 16.7439C15.4572 16.7439 15.5351 16.9655 15.5645 17.136C15.5749 17.1029 15.5806 17.0684 15.5816 17.0337C15.5816 17.0337 15.6425 17.3701 15.6544 17.509C15.6788 17.504 15.7027 17.4968 15.7081 17.5211C15.7136 17.5453 15.7691 17.816 15.7564 17.9669C15.8578 17.7996 15.9982 17.6591 16.1656 17.5577C16.263 17.4967 16.3776 17.4309 16.4971 17.4259C16.6847 17.4211 16.821 17.5455 17.0452 17.5455C17.586 17.5455 18.0759 17.1482 18.4365 17.0265C18.7021 16.9362 18.931 16.8706 19.0919 16.7242C19.1699 16.6586 19.3089 16.5124 19.4355 16.2954C19.6035 16.0063 19.7789 15.7545 19.9545 15.7229C19.8751 15.7375 19.7943 15.7432 19.7136 15.74C19.7136 15.74 19.7672 15.6863 19.8582 15.6132C19.9491 15.5402 20.058 15.45 20.2137 15.45C20.4916 15.45 20.6304 15.4914 20.7864 15.4914C20.9424 15.4865 21.0324 15.45 21.0324 15.45C21.0324 15.45 21.1958 15.5646 21.5636 15.5646C21.9316 15.5694 22.1776 15.601 22.3701 15.6182C22.5627 15.6354 23.2083 15.5646 23.3935 15.5701C23.5142 15.5747 23.6328 15.6037 23.742 15.6553L23.145 13.9207L21.0005 12.0463L19.7237 12.9502L17.7597 14.9141L15.8592 15.6182L15.4621 16.0641V16.7439H15.4572Z" fill="#CCB360"/>
<path fill-rule="evenodd" clip-rule="evenodd" d="M19.7213 15.745C19.7213 15.745 19.775 15.6915 19.8649 15.6184C19.9549 15.5453 20.0648 15.4551 20.2207 15.4551C20.4984 15.4551 20.6373 15.4965 20.7932 15.4965C20.9492 15.4917 21.0393 15.4551 21.0393 15.4551C21.0393 15.4551 21.2028 15.5695 21.5705 15.5695C21.9385 15.5742 22.1845 15.6059 22.3771 15.6229C22.5697 15.6399 23.2152 15.5695 23.4004 15.5747C23.5211 15.5793 23.6396 15.6083 23.7487 15.66L23.4784 14.8778L23.1641 14.281L22.2674 13.2989C22.2674 13.2989 21.1912 12.6655 21.1831 12.6606C21.1783 12.6558 20.8103 12.5583 20.8103 12.5583L19.8356 13.148L18.9514 15.4359L18.9343 15.9178L19.5067 16.1883C19.6505 15.9473 19.809 15.7546 19.9576 15.7302C19.8234 15.7449 19.7213 15.745 19.7213 15.745Z" fill="#D5B457"/>
<path fill-rule="evenodd" clip-rule="evenodd" d="M19.7074 15.9124C19.6222 15.9172 19.5517 15.9002 19.532 15.8393C19.459 15.6347 19.4006 15.6054 19.3393 15.6054C19.2782 15.6054 19.1955 15.737 19.1466 15.7491C19.0977 15.7611 19.0394 15.598 19.0394 15.598L18.9859 15.5736C18.9859 15.5736 18.6715 15.7783 18.4498 16.0196C18.2282 16.2608 17.8651 16.6702 17.7019 16.7431C17.5387 16.8161 16.9781 16.8406 16.7863 16.882C16.5946 16.9235 16.3819 17.0624 16.3527 17.0941C16.3234 17.1257 16.4381 17.1598 16.4551 17.1914C16.4722 17.2207 16.2674 17.2085 16.2503 17.2396C16.2383 17.264 16.2985 17.4028 16.3284 17.4735C16.3807 17.4475 16.4381 17.4333 16.4965 17.432C16.6841 17.4272 16.8205 17.5515 17.0446 17.5515C17.5855 17.5515 18.0753 17.1543 18.4359 17.0324C18.7016 16.9423 18.9305 16.8764 19.0914 16.7303C19.1693 16.6645 19.3082 16.5182 19.435 16.3014C19.5274 16.1529 19.6172 16.0147 19.7074 15.9124Z" fill="#D2B257"/>
<path fill-rule="evenodd" clip-rule="evenodd" d="M11.9509 27.9665C11.9509 27.9665 11.9027 27.7861 11.4562 27.3207C11.3295 27.1893 11.2516 27.0799 11.1663 27.0017C10.9543 26.8016 10.83 26.7482 10.679 26.6337C10.3477 26.3876 9.98707 26.3876 9.70936 26.0854C9.43166 25.7834 9.10802 25.2061 8.88315 24.6162C8.6615 24.0266 8.60047 23.839 8.60047 23.8219C8.60047 23.8049 8.6615 23.6903 8.7394 23.7074C8.81731 23.7244 8.81731 23.8754 8.83689 23.912C8.87571 23.9717 8.91973 24.028 8.96844 24.08C9.08296 24.2117 9.24615 24.3691 9.32903 24.604C9.312 24.4042 9.24374 24.1824 9.24374 24.1824C9.24374 24.1824 9.67259 24.453 10.038 24.7354C10.406 25.0181 10.5569 25.1156 10.6644 25.2959C10.7719 25.4761 11.025 25.9513 11.1462 26.0903C11.2675 26.2292 12.9291 26.7529 12.9291 26.7529L13.7195 27.3423L14.1119 28.2024L13.8048 28.6842L13.2152 28.811L12.2576 28.3821L11.9509 27.9665Z" fill="#D2B159"/>
<path fill-rule="evenodd" clip-rule="evenodd" d="M9.82231 25.0073C9.82231 25.0073 10.0221 25.3264 10.5094 25.6286C10.9481 25.8942 11.6424 26.1355 12.2614 26.2793C12.6171 26.3646 12.9728 26.4303 13.292 26.4353C14.1521 26.4472 14.7441 26.2013 15.4776 26.1209C15.8749 26.0795 16.3621 26.0478 16.8689 25.9282C17.5194 25.7722 17.9044 25.5967 18.4283 25.3499C18.8084 25.1745 19.1568 25.043 19.4394 24.8748C19.8367 24.6409 20.1265 24.3802 20.4629 24.3024C20.4214 24.4168 20.3776 24.6215 20.0462 24.8335C20.2216 24.8285 20.4629 24.8165 20.4629 24.8165C20.4629 24.8165 20.2289 24.9553 19.8171 25.2672C19.5637 25.46 19.2275 25.7861 18.8839 26.003C18.6622 26.1419 18.421 26.2439 18.2626 26.3272C17.877 26.5392 17.7216 26.6462 17.4684 26.9053C17.5585 26.9005 17.5658 26.9053 17.5658 26.9053C17.5658 26.9053 17.2465 26.9468 17.0176 27.0685C16.9694 27.0685 16.886 27.0515 16.7397 27.0929C16.6253 27.1294 16.474 27.2125 16.3183 27.2561C16.0965 27.322 16.0235 27.2928 16.0235 27.2928L16.06 27.3658C16.06 27.3658 15.771 27.3608 15.6745 27.3707C15.6916 27.3754 15.6867 27.3829 15.6867 27.3829C15.6698 27.3856 15.6535 27.3914 15.6386 27.3998C15.5922 27.43 15.5412 27.4522 15.4876 27.4655C15.4584 27.4704 15.4339 27.4704 15.3973 27.4777C15.4095 27.507 15.5046 27.6705 15.5485 27.7669C15.512 27.7913 14.9637 28.2055 14.9637 28.2055C14.9807 28.2322 14.9946 28.261 15.0051 28.2909C15.0221 28.3443 15.0295 28.4223 15.0465 28.4588C15.0878 28.5319 15.1122 28.5441 15.1122 28.5441C15.1122 28.5441 15.0465 28.5563 14.9319 28.5855C14.8345 28.6099 14.715 28.6513 14.5464 28.6757C14.4946 28.6824 14.4426 28.6864 14.3904 28.6879C14.4148 28.7415 14.522 28.9462 14.3246 29.1823C14.1272 29.4186 14.0663 29.453 14.0054 29.604C13.9748 29.5808 13.9422 29.5604 13.9079 29.543C13.8422 29.5137 13.752 29.4701 13.7203 29.4114C13.7019 29.4896 13.6774 29.5661 13.6472 29.6405C13.5864 29.8037 13.4963 29.9647 13.4792 30.0864C13.4134 30.0133 13.2916 29.8695 13.1235 29.8988C12.9553 29.9279 12.8213 30.157 12.7921 30.2228C12.7921 30.1814 12.7629 30.1498 12.7557 30.1984C12.7507 30.2521 12.6582 30.8123 12.1416 31.2656C12.1368 31.151 12.1368 30.8976 12.1246 30.8149C12.0764 30.8631 12.0175 30.9342 11.6665 31.0854C11.323 31.2363 11.3774 31.3875 11.3774 31.3875C11.3774 31.3875 11.3482 31.1466 11.5334 30.8929C11.721 30.6395 11.8355 30.52 11.8355 30.5006C11.8325 30.4808 11.824 30.4623 11.8111 30.4469C11.7867 30.4225 11.738 30.3933 11.738 30.3738C11.7672 30.3618 12.0571 30.2228 12.0401 29.9353C12.0231 29.6771 11.9136 29.543 11.8355 29.448C11.8234 29.4358 11.9502 29.3457 11.933 29.3166C11.9208 29.2995 11.765 29.1848 11.7454 29.1238C11.75 29.0874 11.7582 29.0514 11.7698 29.0166C11.7868 28.963 11.799 28.9264 11.7942 28.8899C11.782 28.829 11.7161 28.6608 11.6967 28.6438C11.7137 28.6486 11.8355 28.6438 11.8355 28.6438C11.8355 28.6438 11.7382 28.4879 11.721 28.4149C11.7038 28.3418 11.6673 28.1492 11.6479 28.1127C11.6893 28.1176 11.7916 28.1248 11.7916 28.1127C11.7966 28.0761 11.7015 28.0152 11.7435 27.9681C11.7727 27.973 11.8287 27.9974 11.8822 28.0656C11.853 27.9876 11.8043 27.8366 11.7019 27.7757C11.75 27.7588 11.9139 27.7147 12.0576 27.7999C12.2014 27.8852 12.2504 28.0046 12.2504 28.0046C12.2504 28.0046 12.3356 28.0705 12.4673 28.1679C12.6183 28.2873 12.8107 28.4571 13.1178 28.5771C13.1837 28.6139 13.3517 28.6139 13.4736 28.5893C13.5267 28.5767 13.5776 28.5563 13.6246 28.5285C13.6416 28.5185 13.6595 28.5104 13.6782 28.5041C13.652 28.4516 13.6219 28.4009 13.5881 28.3529C13.6296 28.3529 13.6782 28.3579 13.6782 28.3579C13.6782 28.3579 13.7075 28.2921 13.5759 28.1652C13.6052 28.1359 13.6418 28.117 13.6418 28.0677C13.6003 28.0629 13.5273 28.002 13.5102 27.9776C13.5345 27.9605 13.5711 27.9045 13.6126 27.8875C13.5759 27.8583 13.4858 27.7363 13.4444 27.7244C13.484 27.7097 13.5223 27.6917 13.5589 27.6707C13.5589 27.6707 13.3543 27.6171 13.2884 27.5731C13.2226 27.525 13.1252 27.4417 13.0668 27.4173C13.0057 27.3929 12.8986 27.3808 12.8548 27.332C12.896 27.3442 12.9619 27.332 13.0107 27.332C13.0472 27.332 13.0644 27.3367 13.0764 27.3367C13.0716 27.3198 13.0716 27.283 13.1667 27.2711C13.2124 27.2641 13.2568 27.2502 13.2982 27.2296C13.2982 27.2296 13.208 27.2248 13.1055 27.1273C13.003 27.0298 12.9179 26.9519 12.8594 26.9397C12.7985 26.9275 12.684 26.9812 12.6134 26.9762C12.5159 26.9641 12.4744 26.9153 12.4744 26.9153C12.4744 26.9153 12.1505 26.9446 11.4317 26.506C10.8103 26.1259 10.5398 25.7897 10.5398 25.7897C10.4816 25.7685 10.4254 25.7424 10.3718 25.7116C10.1379 25.5898 9.8138 25.3364 9.8236 25.0049L9.82231 25.0073Z" fill="#C2A44D"/>
<path fill-rule="evenodd" clip-rule="evenodd" d="M18.7848 10.382C18.8411 10.4003 18.8912 10.4341 18.9294 10.4794C19.0438 10.611 19.117 10.8595 18.8563 11.1252C18.9585 11.1617 19.0007 11.1733 19.0901 11.1617C18.9999 11.2688 18.7954 11.4979 18.7832 11.6977C18.7709 11.8609 18.8732 11.9097 18.8732 11.9097C18.8732 11.9097 18.7174 12.09 18.71 12.3916C18.7837 12.3086 18.8643 12.2319 18.951 12.1625C19.1314 12.0189 19.3799 11.8557 19.5479 11.7533C19.5457 11.7962 19.5515 11.8391 19.565 11.88C19.565 11.88 19.8792 11.6216 20.1433 11.7363C20.2626 11.79 20.2089 11.958 20.2089 11.958C20.2089 11.958 20.3722 11.8971 20.4868 12.0115C20.6013 12.1261 20.7632 12.4215 20.8462 12.5361C20.8827 12.5897 20.9778 12.6919 21.0752 12.8504C21.2081 13.0721 21.3192 13.3062 21.4067 13.5495C21.4114 13.4228 21.4432 13.2255 21.8038 13.3497C22.1645 13.4765 22.5737 13.7421 22.9173 14.2652C23.2609 14.7884 23.3459 15.3789 23.5189 15.6038C23.6943 15.8206 23.8747 16.1812 23.8869 16.3323C23.8991 16.4836 23.8333 16.9707 24.1938 18.2888C24.2961 17.8796 24.4521 16.9707 24.4521 16.9707L24.5374 16.169L24.6349 13.6886L22.0448 11.5369L20.0201 10.0675L18.7019 10.1942L18.7848 10.382Z" fill="#CAA13E"/>
<path fill-rule="evenodd" clip-rule="evenodd" d="M23.599 14.0751C23.599 14.0751 23.5624 13.8343 22.9534 13.4247C22.3441 13.0202 21.869 13.0202 21.4305 12.6766C21.0942 12.4062 20.7434 11.7848 20.515 11.5801C20.2931 11.3779 20.2567 10.7932 20.2567 10.7932L21.0047 10.1667L22.1171 8.55882L23.0575 7.5233L23.5083 8.14975L24.1346 8.88549L24.4831 10.3621L24.6098 12.5233L23.599 14.0751Z" fill="#B59544"/>
<path fill-rule="evenodd" clip-rule="evenodd" d="M24.3548 16.6621C24.3731 16.3344 24.3327 16.006 24.2352 15.6924C24.0747 15.193 23.7237 14.306 23.5606 13.9739C23.4948 13.6059 23.5436 13.5767 23.6143 13.5352C23.685 13.4938 23.9507 13.3425 24.0962 12.8117C24.2417 12.2809 24.6931 12.2634 24.6931 12.2634L24.9708 12.0589L25.3925 13.1138L25.7602 14.0666L25.8748 14.7951L25.9601 15.4164L25.7602 16.7298L24.7737 17.6215L24.3548 16.6621Z" fill="#C89D3A"/>
<path fill-rule="evenodd" clip-rule="evenodd" d="M10.5828 31.2995V31.2725C10.6033 31.2597 10.6214 31.2433 10.6363 31.2243C10.6533 31.1999 10.6657 31.1707 10.6777 31.1634C10.7021 31.1512 10.8167 31.1153 10.8775 31.1268C10.9384 31.1384 11.0993 31.2048 11.1846 31.1999C11.36 31.1951 11.5647 31.061 11.8888 31.122C12.3761 31.2121 12.4906 31.5435 12.7733 31.7311C12.966 31.8628 13.1655 31.8042 13.1948 31.8042H13.2604C13.2727 31.8042 13.3628 31.7019 13.4116 31.7068C13.5091 31.7116 13.5187 31.7921 13.5796 31.797C13.7234 31.8139 14.0012 31.7239 14.1401 31.7605C14.1814 31.7734 14.2188 31.7961 14.2494 31.8265C14.2799 31.8571 14.3026 31.8944 14.3155 31.9356C14.3448 32.0258 14.3204 32.1403 14.2497 32.2062C14.0987 32.345 13.955 32.4767 13.9257 32.5916C13.9629 32.62 13.9986 32.6503 14.0327 32.6823C12.8271 32.375 11.6672 31.9093 10.5828 31.2995Z" fill="#CEB052"/>
<path fill-rule="evenodd" clip-rule="evenodd" d="M23.561 26.4346C23.561 26.4346 23.9409 25.9278 24.0726 25.6768C24.2042 25.4181 23.6561 22.1416 23.6561 22.1416L24.7573 18.5331L24.728 17.3586C24.728 17.3586 24.7816 16.2743 24.9083 15.8041C25.0595 16.0745 25.5298 16.401 25.6321 16.5741C25.6803 16.2425 25.8439 15.5434 25.8198 14.7978C25.9097 14.9365 26.1266 16.3328 26.1266 16.3328L26.3435 17.2732L26.6262 18.2722L26.9405 19.3273L27.128 20.0558L27.2352 20.2312L27.3255 20.5382L27.4107 20.8698L27.6569 21.647L27.8014 22.2852L27.9158 23.4426C27.9408 23.5313 27.9587 23.6217 27.9695 23.7131C27.9744 23.8399 27.9526 23.9129 27.9526 23.935C27.9526 23.9569 27.9939 24.2126 27.977 24.4052C27.9526 24.5979 27.9526 24.7488 27.8014 24.8871C27.6503 25.0253 27.5553 25.8519 27.5553 25.8519L27.2848 25.6717C27.2848 25.6717 27.3385 25.4255 27.2117 25.2014C27.085 24.9773 26.839 24.9309 26.7001 24.9676C26.5613 24.9967 26.2835 25.0404 26.1933 25.1185C26.108 25.1964 25.8986 25.4377 25.706 25.5474C25.465 25.6919 25.0725 25.7034 24.8631 25.752C24.6511 25.8002 24.4172 25.9447 24.171 26.1125C23.9779 26.2376 23.7731 26.3458 23.561 26.4346Z" fill="#CCA847"/>
<path fill-rule="evenodd" clip-rule="evenodd" d="M23.561 31.7564C23.561 31.7564 23.577 31.7668 23.6079 31.7839C25.3391 30.9728 26.89 29.8233 28.1696 28.4029C28.1555 27.9098 28.1374 27.4043 28.1175 27.2171C28.0762 26.8199 28.1054 26.4154 28.0932 26.1816C28.081 25.9477 27.9494 24.995 27.8886 24.7488C27.8227 24.5028 27.6958 24.381 27.6765 24.381C27.6596 24.3858 27.557 24.8439 27.557 24.9591C27.557 25.0743 27.5326 25.3515 27.5326 25.4221C27.5157 25.4171 27.5085 25.374 27.5085 25.3563C27.484 25.4171 27.4548 25.5245 27.4426 25.5367C27.4304 25.5489 27.4596 25.4343 27.4426 25.4099C27.4256 25.3855 27.3943 25.3977 27.4012 25.3368C27.4041 25.3008 27.4097 25.265 27.4181 25.2298C27.4181 25.2298 27.345 25.3368 27.2916 25.6097C27.238 25.8803 27.238 25.8876 27.2185 25.9119C27.2015 25.9413 27.104 26.0386 27.099 26.0752C27.0942 26.1409 27.1893 26.2068 27.1965 26.2433C27.2014 26.3043 27.1112 26.5869 27.082 26.7251C27.0527 26.8634 27.0649 27.1343 27.0338 27.2733C27.0094 27.4 26.9857 27.4731 26.9022 27.5266C26.9631 27.5388 27.0216 27.5559 27.0216 27.5559C27.0216 27.5559 27.1069 27.9164 26.89 28.2235C26.8121 28.3306 26.7927 28.3795 26.7098 28.477C26.5464 28.6571 26.4197 28.8624 26.4075 28.9959C26.3991 28.9565 26.3935 28.9166 26.3906 28.8765C26.3906 28.8765 26.1372 29.1713 26.0299 29.3395C25.8911 29.5563 25.6987 29.5441 25.6445 29.5978C25.5903 29.6514 25.5786 29.7487 25.5963 29.8267C25.548 29.8388 25.4575 29.856 25.3965 30.0436C25.3673 30.1409 25.2942 30.2363 25.1797 30.3019C25.0651 30.3674 24.9262 30.3872 24.8555 30.4042C24.9163 30.4213 24.9407 30.4212 24.97 30.4407C24.9335 30.5016 24.7655 30.5966 24.5779 30.7186C24.3903 30.8331 24.3 31.001 24.2537 31.1107C24.2055 31.213 24.1343 31.2789 24.0198 31.2911C24.068 31.3204 24.1393 31.3884 24.1758 31.4105C24.1221 31.4227 24.0312 31.4227 23.8689 31.5616C23.6982 31.7029 23.639 31.7442 23.561 31.7564Z" fill="#C39D3C"/>
<path fill-rule="evenodd" clip-rule="evenodd" d="M20.1664 32.8891C20.2598 32.8238 20.3608 32.7701 20.4673 32.7296C20.8473 32.5786 21.2492 32.5495 21.4077 32.5008C21.5589 32.4525 21.6781 32.3861 21.8657 32.3496C21.8607 32.3923 21.8565 32.4324 21.8521 32.4703C21.299 32.6443 20.7365 32.7842 20.1664 32.8891Z" fill="#D2BA6B"/>
<path fill-rule="evenodd" clip-rule="evenodd" d="M27.1753 22.8901C27.1753 22.8901 27.0973 23.3116 26.9584 23.5773C26.8195 23.8428 26.6694 24.2107 26.6694 24.2107C26.6703 24.1278 26.68 24.0453 26.6985 23.9644C26.5232 24.0668 26.0967 24.313 25.9758 24.4226C25.8612 24.5249 25.6686 24.7053 25.62 24.7906C25.7345 24.4543 25.8539 24.1522 25.8734 24.0132C25.698 24.14 24.8792 24.815 24.453 25.2608L23.125 26.3354C22.9718 26.418 22.814 26.4919 22.6523 26.5567C22.4234 26.6541 22.1529 26.7368 21.9531 26.8149C22.0067 26.6712 22.0919 26.5442 22.2114 26.4225C22.3381 26.3032 22.7182 25.8914 22.7766 25.6997C22.8302 25.4999 22.8424 25.3807 22.7719 25.2125C22.706 25.2295 22.555 25.2369 22.4527 25.2661C22.3503 25.2953 22.2407 25.4048 22.2407 25.4048C22.2407 25.4048 22.3186 24.959 22.4867 24.5375C22.36 24.5423 22.1432 24.5788 22.1432 24.5788C22.1432 24.5788 22.4453 24.072 22.9624 23.7188C22.804 23.7526 22.6491 23.8007 22.4994 23.8625C22.1972 23.9892 21.866 24.1768 21.6199 24.2792C21.7587 24.0863 22.7333 22.6954 23.3133 21.3991C23.8915 20.1054 24.1076 19.774 24.2343 19.0797C24.2999 18.7361 24.2824 18.2284 24.2999 17.7736C24.3169 17.3229 24.373 16.9184 24.3365 16.6479C24.4875 16.8355 25.0529 17.3642 25.0724 18.5461C25.0893 19.7278 24.5316 21.3238 23.9394 22.1837C24.0839 22.2252 24.4585 22.274 24.8433 21.6054C25.2281 20.937 25.2235 20.7503 25.3624 20.4724C25.3795 20.6114 25.3745 20.66 25.3745 20.66C25.3745 20.66 25.935 19.9803 26.2005 19.1251C26.2542 19.4931 26.4125 19.8171 26.1639 20.4921C25.9422 21.1011 25.6524 21.2499 25.6524 21.2499C25.6524 21.2499 25.796 21.2255 26.0079 21.0988C26.0445 21.1889 26.0373 21.2915 26.0982 21.3278C26.159 21.364 26.242 21.4253 26.2542 21.4837C26.3199 21.3862 26.4221 21.262 26.454 21.1695C26.4296 21.3622 26.4125 22.2049 26.5021 22.6337C26.6899 22.6167 26.8823 22.6045 27.0139 22.2657C26.9238 22.5973 26.9238 22.7969 26.9846 23.0797C27.0845 23.0116 27.1753 22.8901 27.1753 22.8901Z" fill="#C0993A"/>
<path fill-rule="evenodd" clip-rule="evenodd" d="M20.8498 9.45914C20.8498 9.45914 20.6622 9.53694 20.343 9.53694C20.0653 9.53694 20.1432 9.42988 19.7096 9.42988C19.0421 9.42988 16.7103 9.81533 16.3008 9.80982C16.0351 9.8051 17.1974 9.92435 17.1974 9.92435L20.1676 9.96581L20.7646 9.91766L20.9863 9.46635L20.8498 9.45914Z" fill="#A88F33"/>
<path fill-rule="evenodd" clip-rule="evenodd" d="M13.1447 15.2683C13.1447 15.2683 12.7645 15.5583 12.6038 15.78C12.443 16.0018 12.3577 16.1478 12.1749 16.3282C12.2178 16.3298 12.2607 16.324 12.3016 16.3112C12.3016 16.3112 12.3016 16.3593 12.2724 16.3721C12.2977 16.3693 12.3232 16.3721 12.3472 16.3804C12.3713 16.3887 12.3931 16.4024 12.4112 16.4202C12.3575 16.4495 12.2114 16.5957 12.3259 16.7688C12.4112 16.9004 12.5916 16.9123 12.5916 16.9123C12.5916 16.9123 12.5501 17.0318 12.7231 17.0196C13.0959 17.0027 13.5125 16.8392 13.705 16.8807C13.8977 16.929 14.0072 16.9466 14.1436 17.183C14.2881 17.4169 14.4141 17.4535 14.4141 17.4535C14.4141 17.4535 14.4994 17.2365 14.4799 16.9126C14.5499 16.738 14.5886 16.5523 14.5944 16.3643L14.4677 15.4311L13.9147 14.7319L13.1984 15.129L13.1447 15.2683Z" fill="#E3C571"/>
<path fill-rule="evenodd" clip-rule="evenodd" d="M13.8271 15.1271C13.8271 15.1271 13.8807 15.2538 14.1049 15.2659C14.0805 15.3196 14.0805 15.3269 14.0879 15.3681C14.0927 15.4095 14.1 15.4704 14.1 15.4704C14.1246 15.4585 14.147 15.4422 14.1658 15.4223C14.178 15.4759 14.1536 15.5611 14.1658 15.6221C14.1733 15.6592 14.1856 15.6952 14.2023 15.7293C14.2058 15.7209 14.2099 15.7127 14.2145 15.705C14.2193 15.6928 14.2627 15.8365 14.3826 15.9459C14.3825 15.9291 14.3867 15.9125 14.3947 15.8977C14.3965 15.9283 14.4066 15.9577 14.4239 15.983C14.4149 15.9787 14.4067 15.9729 14.3997 15.9659C14.3997 15.9659 14.4117 16.3514 14.4776 16.5508C14.4886 16.538 14.4984 16.524 14.5068 16.5094C14.5068 16.4973 14.502 16.6167 14.4898 16.7021C14.4728 16.7874 14.485 16.9067 14.485 16.9067C14.5289 16.8721 14.5772 16.8435 14.6285 16.8215C14.7016 16.7921 14.8213 16.7019 14.8942 16.5021C14.9365 16.3889 14.9691 16.2724 14.9917 16.1537C15.0153 16.1991 15.0315 16.2479 15.0399 16.2983C15.0449 16.3591 15.1594 16.3275 15.1594 16.3275L15.1838 16.0618L15.3283 15.4601L15.4599 15.0872L16.0934 14.1006L17.2379 13.2191L18.237 13.4482L19.0799 12.303L17.6277 11.4307L16.2536 11.5743L15.0063 13.3018L14.0074 14.8686L13.8271 15.1271Z" fill="#D8B65B"/>
<path fill-rule="evenodd" clip-rule="evenodd" d="M21.0202 12.627C21.0202 12.627 20.9349 12.6441 20.6888 12.7716C20.4428 12.8991 20.2723 12.9397 20.1772 13.1273C20.082 13.3149 20.0748 13.4635 20.0748 13.4635C20.0748 13.4635 20.243 13.3904 20.3405 13.366C20.4428 13.3418 20.5574 13.349 20.5452 13.3904C20.5333 13.4189 20.5171 13.4451 20.4969 13.4684C20.4969 13.4684 20.6896 13.4635 20.6845 13.5586C20.6794 13.6537 20.648 13.7584 20.6115 13.8048C20.5749 13.8529 20.4239 13.9241 20.407 13.9803C20.3656 14.0948 20.4241 14.0995 20.402 14.192C20.385 14.2824 20.3047 14.4577 20.0414 14.7647C19.771 15.0718 19.6559 15.2887 19.6559 15.2887C19.6559 15.2887 19.5243 15.0426 19.4561 14.8306C19.408 14.8548 19.1493 14.9986 19.1493 14.9986L18.5498 12.9105L18.5618 12.7716C18.5618 12.7716 18.6154 12.7059 18.6276 12.584C18.5375 12.5547 18.5253 12.5303 18.4059 12.4161C18.2864 12.3017 18.189 12.1626 17.9894 12.0675C17.9601 12.0138 17.9235 11.9409 17.7773 11.9115C17.6312 11.8821 17.5436 11.858 17.5436 11.858C17.5436 11.858 17.6214 11.8286 17.658 11.7677C17.5677 11.7799 17.4949 11.8092 17.2974 11.8044C17.0976 11.7994 17.0756 11.7921 16.966 11.8092C16.8565 11.8262 16.7252 11.875 16.6761 11.7068C16.6226 11.6655 16.508 11.7021 16.4106 11.8456C16.313 11.9893 16.279 12.1039 16.0914 12.16C16.0781 12.2426 16.0493 12.3221 16.0061 12.3939C15.9524 12.4841 15.8672 12.5741 15.7526 12.7081C15.5722 12.9202 15.6015 13.2686 15.314 13.5342C15.0241 13.7998 15.3622 12.7982 15.3622 12.7982L15.825 11.69L17.1433 10.401L19.1899 10.2622L19.3897 11.3224L20.3888 11.6659L21.0202 12.627Z" fill="#D3AE4D"/>
<path fill-rule="evenodd" clip-rule="evenodd" d="M21.3449 12.8601L20.4848 11.62L19.883 11.157C19.883 11.157 19.4541 10.3677 19.4249 10.3433C19.4005 10.3263 18.996 10.2824 18.7378 10.2654L18.7859 10.3848C18.8424 10.403 18.8923 10.4369 18.9305 10.4822C19.0451 10.6137 19.1181 10.8622 18.8574 11.1279C18.9598 11.1643 19.002 11.176 19.0912 11.1643C19.0011 11.2716 18.7966 11.5007 18.7844 11.7005C18.7722 11.8637 18.8744 11.9124 18.8744 11.9124C18.8744 11.9124 18.7185 12.0927 18.7113 12.3941C18.7849 12.3111 18.8655 12.2345 18.9522 12.1651C19.1326 12.0206 19.381 11.8581 19.5492 11.7557C19.5469 11.7986 19.5526 11.8417 19.5662 11.8825C19.5662 11.8825 19.8804 11.6242 20.1445 11.7387C20.2637 11.7924 20.2101 11.9605 20.2101 11.9605C20.2101 11.9605 20.3735 11.8997 20.4879 12.0142C20.6025 12.1287 20.7657 12.4234 20.8486 12.5381C20.8851 12.5917 20.9802 12.6941 21.0775 12.8523C21.2104 13.074 21.3215 13.3083 21.4089 13.5515C21.4138 13.4541 21.4333 13.3177 21.6018 13.3177L21.3449 12.8601Z" fill="#CAA13E"/>
<path fill-rule="evenodd" clip-rule="evenodd" d="M8.45163 16.3859C8.45163 16.3859 8.39075 16.2348 8.45163 15.94C8.5125 15.6453 8.60759 15.5064 8.63924 15.0726C8.67087 14.639 8.95355 14.098 8.95355 14.098L9.7356 13.7425L10.2888 13.8935L10.4519 14.6342L9.75263 15.0196C9.75263 15.0196 9.71617 15.1828 9.51876 15.3144C9.32137 15.4459 9.04848 15.5482 8.98279 15.6823C8.94352 15.7644 8.91486 15.8513 8.8975 15.9406C8.8975 15.9406 8.6977 15.8992 8.57836 16.0307C8.45163 16.1648 8.45644 16.2836 8.45163 16.3859Z" fill="#F4EFC8"/>
<path fill-rule="evenodd" clip-rule="evenodd" d="M10.0322 16.1872C10.0322 16.1872 9.96635 16.2286 9.91768 16.3317C9.8695 16.2538 9.75434 15.7908 9.74951 15.3741C9.7447 14.9575 9.7198 14.8542 9.81617 14.7107C9.91255 14.567 10.2905 14.4158 10.2368 14.1572C10.1832 13.9111 9.95897 13.8087 9.68367 13.8794C9.49093 13.9276 9.3475 14.3376 9.14769 14.5421C8.99655 14.6981 8.81633 14.6737 8.76767 14.759C8.70181 14.8735 8.76268 14.988 8.74325 15.0611C8.73828 15.0855 8.67741 15.2171 8.5677 15.3755C8.34605 15.6945 7.97085 16.1454 7.92202 16.5499C7.93904 16.3208 7.927 16.316 7.98787 16.0625L7.95125 16.0016L8.19217 15.2123L8.34813 14.5618L8.69668 13.4725L9.31055 12.359L9.90756 11.6914L10.5288 11.7328L10.6019 12.666L10.9577 14.418L11.7057 15.339L10.5068 16.1457L10.0322 16.1872Z" fill="#EBCC73"/>
<path fill-rule="evenodd" clip-rule="evenodd" d="M10.4038 16.5137C10.4038 16.5137 10.3015 16.5381 10.2649 16.5187C10.2283 16.4993 10.192 16.4772 10.204 16.4528C10.2161 16.4284 10.2819 16.3871 10.2819 16.3676C10.2833 16.3498 10.2777 16.3323 10.2663 16.3186C10.255 16.305 10.2387 16.2963 10.2211 16.2945C10.165 16.2873 10.148 16.3237 10.148 16.3237C10.148 16.3237 10.0943 16.2824 10.0506 16.2755C10.0765 16.2723 10.1025 16.2707 10.1286 16.2705C10.0612 16.24 9.9898 16.2196 9.91654 16.2096C9.97742 16.1731 10.0969 16.0659 10.1748 16.0659C10.2527 16.0659 10.3015 16.0539 10.2893 16.0124C10.2771 15.971 10.2163 15.9101 10.1506 15.8857C10.1748 15.8564 10.192 15.8126 10.1335 15.693C10.0725 15.5736 10.0969 15.4931 10.1165 15.464C10.1335 15.4274 10.1944 15.3618 10.2236 15.3204C10.2529 15.2789 10.2773 15.2229 10.3259 15.1936C10.3504 15.1766 10.4283 15.1453 10.5063 15.1157C10.5916 15.0864 10.6623 15.0498 10.7109 15.0864C10.7646 15.1229 10.7402 15.1717 10.7402 15.1717C10.7402 15.1717 10.9083 15.1107 11.0593 15.1888C11.2105 15.2617 11.5784 15.3082 11.5784 15.3082L11.7103 15.5738L10.838 16.3218L10.4774 16.5022L10.4038 16.5137Z" fill="#E5C66B"/>
<path fill-rule="evenodd" clip-rule="evenodd" d="M11.6196 15.2957C11.6196 15.2957 11.3491 15.4761 11.2883 15.5417C11.3247 15.5467 11.3856 15.5711 11.3612 15.6075C11.332 15.644 11.1566 15.7707 11.0591 15.8903C10.9568 16.0096 10.8593 16.1608 10.8252 16.2339C10.7887 16.2995 10.5109 16.492 10.416 16.5163C10.6158 16.5163 11.0178 16.2703 11.1688 16.2703C11.1639 16.3434 11.2102 16.4262 11.2955 16.4334C11.3808 16.4407 11.6269 16.4871 11.9582 16.2825C12.2896 16.0827 12.18 15.9339 12.3188 15.8366C12.5844 15.6611 12.6916 15.5051 12.8377 15.4077C12.9839 15.3104 13.0595 15.2882 13.0595 15.2882C13.0595 15.2882 13.0644 15.2151 13.1077 15.2226C13.1196 15.2239 13.1309 15.2285 13.1403 15.2359C13.1498 15.2431 13.1571 15.2529 13.1614 15.2641C13.1614 15.2641 13.4148 15.0837 13.7396 15.035C13.732 15.0316 13.726 15.0256 13.7226 15.0179C13.7226 15.0179 13.7468 15.0057 13.7518 14.9935C13.7518 14.9935 13.7688 14.9691 13.781 14.9813C13.7933 14.9935 13.8103 15.0837 13.8347 15.1203C13.8883 15.0959 13.9906 14.8668 13.9906 14.8668L14.2369 14.1627V13.5194L14.0441 13.556L12.5986 14.1699L11.7213 15.0788L11.6196 15.2957Z" fill="#E6BD62"/>
<path fill-rule="evenodd" clip-rule="evenodd" d="M15.78 12.14C15.8582 12.1211 15.9331 12.0907 16.0023 12.0497C15.9731 12.1278 15.9731 12.2131 15.8464 12.3983C15.7196 12.5836 15.7149 12.6103 15.6126 12.8028C15.5102 13.0026 15.498 13.2901 15.4005 13.4167C15.4442 13.3954 15.4911 13.3815 15.5393 13.3753C15.5393 13.3753 15.442 13.4606 15.4005 13.5507C15.3591 13.6409 15.286 13.8285 15.1058 13.9431C14.9256 14.0578 14.6964 14.1307 14.4503 14.4013C14.2041 14.6667 13.9508 15.0031 13.8239 15.124C13.8898 15.0095 13.9799 14.7804 14.0043 14.6294C14.0287 14.4784 13.9993 14.2979 14.0408 14.0983C14.0822 13.8987 14.0822 13.7547 14.2817 13.4062C14.4812 13.0577 14.8226 11.8468 14.8226 11.8468L15.5584 11.6129L15.78 12.14Z" fill="#B6933F"/>
<path fill-rule="evenodd" clip-rule="evenodd" d="M15.2416 11.6976C15.2416 11.6976 15.02 12.0168 14.9591 12.2993C14.8982 12.5821 14.9541 12.5577 14.9176 12.6966C14.8958 12.7813 14.8958 12.8702 14.9176 12.9548C14.9944 12.8312 15.0995 12.7276 15.2243 12.6525C15.4339 12.526 15.6044 12.4358 15.7061 12.3286C15.8085 12.2141 15.8937 12.0265 16.1153 11.8827C16.0252 11.8705 15.8985 11.8291 15.8745 11.8345C15.9647 11.7322 16.235 11.5763 16.5079 11.3887C16.7784 11.196 16.7613 11.1182 17.2 10.9257C17.0563 10.9501 16.988 10.9135 16.8685 10.9257C16.9167 10.8234 17.0854 10.7746 17.254 10.6067C17.4227 10.4386 17.1468 10.19 17.1468 10.19L15.8619 10.9672L15.2416 11.6976Z" fill="#C49937"/>
<path fill-rule="evenodd" clip-rule="evenodd" d="M11.7572 11.1169L11.7864 10.883L12.1544 10.2934L12.5394 9.25792V7.8422L12.5101 7.02355L12.571 6.48749L12.6173 6.31706L12.6661 6.2512L12.9803 6.41441L13.4141 7.004L13.4555 8.14198L13.0339 9.93763L11.8302 11.251L11.7572 11.1169Z" fill="#DFC068"/>
<path fill-rule="evenodd" clip-rule="evenodd" d="M12.7139 6.18193C12.7139 6.18193 12.5212 6.18692 12.4801 6.98851C12.439 7.79011 12.4191 8.21164 12.3898 8.60876C12.3606 9.00602 12.2925 9.24702 12.2583 9.48107C12.2241 9.71513 12.2046 10.0341 12.0951 10.2291C12.0469 10.3191 11.9439 10.6019 11.7027 10.8139C11.4322 11.0478 11.0281 11.2111 10.9669 11.2233C10.8596 11.2476 10.3163 11.3013 10.0946 11.4231C10.0167 11.4646 9.88259 11.5133 9.73402 11.6522C9.43913 11.9176 9.0469 12.3928 8.76421 12.9653C8.33055 13.8206 7.89689 16.2352 7.89689 16.2352L7.99438 16.072C7.99438 16.072 8.00658 15.8552 8.22342 15.475C8.43543 15.095 8.37455 14.6685 8.66928 13.94C8.7838 13.6622 8.92756 13.3017 9.10296 12.9946C9.38081 12.4951 9.71699 12.0663 10.0557 11.8323C10.6087 11.4524 11.218 11.3695 11.218 11.3695L11.8734 10.9358C11.8734 10.9358 11.9879 10.7142 12.1391 10.4607C12.3509 10.105 12.6209 9.70791 12.6799 9.13053C12.7702 8.27514 12.5532 7.71481 12.5654 7.208C12.5776 6.70133 12.5824 6.32848 12.6849 6.23821C12.7873 6.14795 12.7139 6.18193 12.7139 6.18193Z" fill="#A88F33"/>
<path fill-rule="evenodd" clip-rule="evenodd" d="M12.7188 10.0072C12.7188 10.0072 13.0079 9.29563 13.1403 8.66459C13.1647 8.53786 13.2134 8.41138 13.2256 8.30905C13.2864 7.71199 13.3035 7.466 13.2256 7.13946C13.1647 6.89845 12.9308 6.68133 12.8089 6.513C12.6896 6.33747 12.6335 6.27213 12.658 6.23513C12.6824 6.19814 12.7773 6.13779 12.8698 6.145C12.9682 6.14789 13.0649 6.17072 13.1541 6.21217C13.2434 6.2535 13.3233 6.31267 13.3889 6.38601C13.5765 6.60274 13.7251 7.33874 13.7251 7.33874L13.8814 8.30984L14.2786 9.53297L12.7188 10.0072Z" fill="#C99E3D"/>
<path fill-rule="evenodd" clip-rule="evenodd" d="M15.437 9.26931C15.437 9.26931 15.3833 9.29358 15.286 9.26931C15.2901 9.30907 15.2832 9.34921 15.266 9.38529C15.2488 9.42137 15.222 9.45207 15.1885 9.47385C15.0862 9.43252 14.1284 9.5153 14.1284 9.5153C14.1284 9.5153 13.6826 9.43724 13.5436 8.84766C13.4463 8.45525 13.6167 7.91447 13.5607 7.55867C13.4754 7.03481 13.356 6.93235 13.3438 6.76927C13.3316 6.6062 13.3194 6.56461 13.3194 6.46228C13.2658 6.45008 13.2341 6.43316 13.1806 6.43316C13.1684 6.38488 13.1927 6.34289 13.1392 6.25749C13.1684 6.26982 13.3682 6.29422 13.6021 6.51581C13.7948 6.6962 13.7948 6.76193 13.8239 6.79853C13.8604 6.835 14.1553 7.08755 14.282 7.33945C14.4087 7.59134 14.6548 8.39438 14.7108 8.52597C14.7278 8.57963 14.7645 8.63328 14.8554 8.75503C14.9967 8.93057 15.2031 9.22117 15.437 9.26931Z" fill="#B58634"/>
<path fill-rule="evenodd" clip-rule="evenodd" d="M13.8585 6.8103C14.0061 7.04881 14.1387 7.29611 14.2555 7.55115C14.3993 7.87507 14.4846 8.14074 14.6649 8.35761C14.5674 8.07501 14.3945 7.51941 14.2921 7.32209C14.1776 7.11323 13.9438 6.88823 13.8585 6.8103Z" fill="#A88F33"/>
<path fill-rule="evenodd" clip-rule="evenodd" d="M12.1969 10.8152C12.1969 10.8152 11.9509 10.8761 11.4928 11.1173C11.3416 11.1953 11.198 11.261 11.0591 11.322C10.6982 11.4852 10.3111 11.6359 10.004 11.7191C10.0284 11.7484 10.0405 11.7604 10.0405 11.7604C10.0405 11.7604 10.0405 11.88 10.1063 11.948C10.0699 11.9847 9.5824 12.316 9.72631 13.4246C9.82364 13.3882 9.93816 13.3394 9.95519 13.3394C9.98458 13.3444 9.99181 13.4246 10.0283 13.4246C10.0647 13.4246 10.1842 13.3764 10.311 13.2126C10.3061 13.2785 10.2331 13.9412 10.6253 14.3871C10.6984 14.3017 10.8835 14.0191 10.8835 14.0191L10.8884 13.929C10.8884 13.929 10.9054 13.6146 11.0079 13.3272C11.1103 13.0396 11.31 12.8276 11.31 12.8276L12.3526 11.3388L12.1969 10.8152Z" fill="#E6C367"/>
<path fill-rule="evenodd" clip-rule="evenodd" d="M11.2226 13.0037C11.1749 13.0374 11.1223 13.0636 11.0667 13.0816C11.0496 13.0207 11.0252 12.8111 11.169 12.6066C11.3371 12.3603 11.7049 12.0411 11.8073 11.7874C11.8731 11.624 11.8439 11.2147 12.4287 10.6909C13.0135 10.1669 13.2424 9.98673 13.2424 9.98673L14.1878 9.51155L15.35 9.96968L14.7726 12.2328L14.3243 13.2928L12.5414 12.9566L11.2226 13.0037Z" fill="#DCBA5A"/>
<path fill-rule="evenodd" clip-rule="evenodd" d="M11.9047 12.3853L12.1265 12.1075V11.9101C12.1265 11.9101 12.3726 11.8442 12.6381 11.5738C12.9036 11.3033 13.2715 10.7843 13.5957 10.8161C13.9198 10.8527 13.9514 11.5202 13.9636 11.7079C13.9758 11.8957 14.0173 12.3218 14.083 12.551C14.156 12.78 13.2935 13.6474 13.2935 13.6474L12.7078 14.0933L11.9047 12.3853Z" fill="#E9CE77"/>
<path fill-rule="evenodd" clip-rule="evenodd" d="M12.5927 14.7027C12.5927 14.7027 12.773 14.42 12.6408 14.3591C12.7187 14.1837 12.8625 13.9986 12.8625 13.9986C12.8625 13.9986 12.9648 13.7452 13.2962 13.4334C13.6275 13.1214 13.8323 12.9142 13.8859 12.7047C13.919 12.5683 13.937 12.4286 13.9396 12.2882C13.9754 12.3174 14.0137 12.3434 14.0541 12.366C14.1078 12.3904 14.361 12.5999 14.3246 13.0216C14.2881 13.4431 14.1318 13.6185 14.1318 13.6185C14.1318 13.6185 13.9809 13.7695 13.8737 13.8476C13.7591 13.9255 13.7178 14.0155 13.5252 14.023C13.545 14.0072 13.5672 13.9949 13.591 13.9864C13.591 13.9864 13.3912 13.9621 13.2839 14.0594C13.1767 14.1568 12.9486 14.4566 12.8341 14.5468C12.7195 14.6199 12.5927 14.7027 12.5927 14.7027Z" fill="#CDAE50"/>
<path fill-rule="evenodd" clip-rule="evenodd" d="M20.6946 9.95812C20.4067 9.85317 20.1042 9.794 19.798 9.78272C19.2862 9.76566 18.5383 9.79492 17.8049 9.79964C17.0155 9.8045 16.2991 9.52925 15.3051 9.48058C15.1419 9.3831 14.7268 8.95659 13.4313 9.86052C13.5092 9.85579 14.3719 9.66071 14.6714 10.0361C14.9735 10.4089 14.8883 11.0424 14.847 11.1933C14.7689 11.5297 14.5155 12.0195 14.4133 12.3629C14.3112 12.7065 14.3353 12.887 14.2622 13.128C14.1891 13.3689 14.0283 13.4886 14.1232 13.7663C14.25 13.6884 14.316 13.6884 14.5277 13.2133C14.7394 12.7381 14.6958 12.3994 15.0468 11.9974C15.3903 11.5929 15.9623 11.0398 16.1798 10.9009C16.3972 10.762 18.1241 9.86537 19.9321 10.7206C20.3682 10.6744 20.6946 9.95812 20.6946 9.95812Z" fill="#D2A83E"/>
<path fill-rule="evenodd" clip-rule="evenodd" d="M14.1567 9.62994C14.1549 9.6117 14.1509 9.5936 14.1447 9.57628C14.1278 9.54072 14.1056 9.50779 14.0788 9.4788C14.0788 9.4788 13.65 9.40087 13.4331 9.42514C13.053 9.4666 12.7094 9.93693 12.5486 10.1782C12.3878 10.4193 12.188 10.7921 11.9712 10.9846C11.9736 10.9659 11.9693 10.9469 11.959 10.931C11.959 10.931 11.9712 10.948 11.947 10.9724C11.9227 10.9969 11.9225 11.0088 11.9347 11.0206L11.9714 11.0571C11.9834 11.0571 12.3197 10.9059 12.7778 10.4788C13.2651 10.033 13.6379 9.80429 13.8329 9.72584C13.9369 9.68163 14.0454 9.64948 14.1567 9.62994Z" fill="#C29637"/>
<path fill-rule="evenodd" clip-rule="evenodd" d="M22.4759 7.79619C22.4759 7.79619 22.3978 7.89354 22.3003 8.00072C22.0834 8.22979 21.8007 8.48797 21.5595 8.75364C21.3307 9.00698 21.0723 9.20443 20.7823 9.53583C20.4922 9.86709 20.1558 10.235 20.0707 10.3423C19.9929 10.4496 19.932 10.625 19.932 10.715C19.8905 10.6859 19.8419 10.6541 19.8419 10.6541C19.8623 10.6924 19.8869 10.7284 19.9149 10.7614C19.9758 10.8467 20.0707 10.9542 20.1196 11.0198C20.1794 11.1032 20.2225 11.1975 20.2461 11.2975C20.2753 11.3022 20.4629 11.3388 20.697 10.9539C20.931 10.5688 21.2378 10.1475 21.2378 10.1475L21.725 9.42365L22.0322 8.8098L22.4176 8.12273L22.4759 7.79619Z" fill="#AC8132"/>
<path fill-rule="evenodd" clip-rule="evenodd" d="M22.9766 7.30343C22.9766 7.30343 22.6817 7.54431 22.5672 7.68888C22.4526 7.83346 22.1817 8.21287 22.1817 8.21287L22.2792 8.20067L22.7739 7.76209L22.9666 7.41862L22.9766 7.30343Z" fill="#A88F33"/>
<path fill-rule="evenodd" clip-rule="evenodd" d="M22.8838 26.6665C22.8838 26.6665 22.8791 26.4667 22.9912 26.3473C23.1057 26.2278 23.3956 26.0525 23.6784 25.3945C23.9609 24.7366 23.9924 24.5881 23.9924 24.5881C23.9924 24.5881 23.4858 25.0217 23.1733 25.124C23.2463 24.9729 23.2878 24.8658 23.3244 24.7878C23.2831 24.7513 23.1077 24.7098 23.0906 24.6904C23.1879 24.5929 23.2416 24.354 23.4389 24.1957C23.6924 24.003 24.1554 23.6718 24.5151 23.3765C24.8748 23.0813 25.5822 22.3946 25.6725 22.1948C25.7262 22.2728 25.7382 22.3214 25.7382 22.3214C25.7382 22.3214 25.3826 22.7846 25.1975 23.0792C25.0341 23.3327 25.0463 23.4765 25.0463 23.4765L25.3826 23.3319C25.3826 23.3319 25.4799 23.6924 25.039 24.2408C25.2318 24.1677 25.3095 24.2116 25.419 24.1506C25.2386 24.2652 24.9902 24.4212 24.7564 24.8498C24.5273 25.2787 24.2153 25.7783 23.6892 26.09C23.1774 26.4189 22.8825 26.665 22.8825 26.665L22.8838 26.6665Z" fill="#A67A2E"/>
<path fill-rule="evenodd" clip-rule="evenodd" d="M21.5624 10.2144C21.5624 10.2144 21.3626 10.6308 21.3334 10.955C21.3285 11.033 21.309 11.0939 21.309 11.1841C21.3041 11.474 21.326 11.798 21.2608 11.949C21.2364 11.8882 21.2242 11.8467 21.1998 11.8224C21.1633 11.9248 21.0975 12.244 21.0438 12.3632C21.0195 12.2853 20.9659 12.0149 20.9709 11.6957C20.9759 11.3766 20.9829 11.3155 20.9829 11.2499C20.9709 11.3473 20.905 11.4788 20.8806 11.5568C20.8441 11.4912 20.8027 11.4058 20.7539 11.3352C20.7246 11.3833 20.6881 11.4544 20.6565 11.4912C20.6515 11.4619 20.6395 11.3839 20.6321 11.2743C20.6273 11.1476 20.6199 10.9844 20.6273 10.9501C20.6393 10.8844 20.7418 10.6262 20.9587 10.3898C21.217 10.1071 21.4827 9.56394 21.5605 9.39574C21.6384 9.22755 21.9698 8.52842 21.9698 8.52842H22.2232L21.8552 9.36649C21.8552 9.36649 21.6335 9.82462 21.519 9.99294C21.4046 10.1613 21.1633 10.6435 21.056 10.8311C21.1339 10.7288 21.1998 10.6752 21.2779 10.5777C21.3533 10.5095 21.5624 10.2144 21.5624 10.2144Z" fill="#8C6228"/>
<path fill-rule="evenodd" clip-rule="evenodd" d="M22.9765 7.27517C22.9351 7.40269 22.8696 7.52089 22.7837 7.62375C22.6325 7.80414 22.3085 8.04528 22.1503 8.23761C22.0057 8.42521 21.7165 8.937 21.848 9.54365C21.8961 9.41206 21.9869 9.15138 22.2282 8.85645C22.4695 8.56166 22.7277 8.22304 22.8545 7.95987C22.9811 7.6942 22.9982 7.48481 22.9982 7.48481L23.0463 7.42394L23.0171 7.285L22.9765 7.27517Z" fill="#CBA94C"/>
<path fill-rule="evenodd" clip-rule="evenodd" d="M27.9135 23.4386C27.9135 23.4386 27.8159 23.1731 27.7868 22.9319C27.7576 22.6907 27.835 22.6428 27.7454 22.3666C27.6917 22.1986 27.5943 22.2222 27.5699 22.1986C27.5455 22.1749 27.5285 21.9208 27.5333 21.7819C27.5381 21.6429 27.5285 21.4627 27.5041 21.3846C27.4676 21.3554 27.4432 21.331 27.3896 21.1508C27.3287 20.9704 27.2994 20.8803 27.2702 20.8268C27.241 20.7734 27.1555 20.7245 27.1555 20.6709C27.1555 20.5636 27.253 20.5077 27.253 20.4781C27.2483 20.4172 27.1752 20.4661 27.1555 20.4489C27.1312 20.4197 27.2165 20.2443 27.1849 20.2199C27.1727 20.2078 27.0874 20.3101 27.0654 20.2809C27.041 20.2515 27.0118 19.9616 26.9679 19.7692C26.9267 19.5816 26.8826 19.4452 26.8779 19.3892C26.873 19.3355 26.5415 18.3901 26.4612 18.161C26.3964 17.9675 26.342 17.7707 26.298 17.5715C26.2736 17.4569 26.2566 17.2229 26.2444 17.2473C26.2322 17.2717 26.2395 17.3911 26.22 17.3862C26.2029 17.3812 26.142 16.9648 26.1226 16.899C26.1056 16.8331 26.0031 16.6098 25.978 16.4483C25.9536 16.285 25.9001 15.8585 25.8635 15.5685C25.8269 15.2787 25.8098 15.1593 25.8098 15.0868C25.8159 14.9091 25.806 14.7314 25.7807 14.5556C25.7324 14.2484 25.6361 13.8757 25.5517 13.659C25.3884 13.2495 24.9546 12.2018 24.8771 11.9411C24.8771 11.8754 24.9623 11.912 24.9623 11.912C24.9623 11.912 25.1742 12.4431 25.3301 12.8524C25.4813 13.2617 25.625 13.6224 25.6616 13.659C25.6908 13.6955 25.9199 14.0974 26.0222 14.7554C26.1246 15.4132 26.161 16.02 26.2221 16.4243C26.2513 16.617 26.2757 16.8216 26.3366 17.0262C26.4022 17.2479 26.5045 17.477 26.6387 17.8278C26.7531 18.1227 26.8385 18.3687 26.8847 18.5807C26.9384 18.8513 26.9384 19.0559 26.97 19.19C26.9994 19.3045 27.0431 19.5333 27.1455 19.8646C27.248 20.1957 27.3989 20.6224 27.5012 20.8879C27.7011 21.419 27.7904 21.8624 27.8205 22.099C27.8472 22.3426 27.9379 23.1853 27.9135 23.4386Z" fill="#A88F33"/>
<path fill-rule="evenodd" clip-rule="evenodd" d="M22.9941 7.24892L22.9819 7.27817C22.9819 7.27817 23.0184 7.29038 23.0112 7.33918C23.0117 7.40609 23.0076 7.47274 22.999 7.53899C22.9869 7.62427 22.9625 7.68999 22.9576 7.74365C22.9576 7.85819 22.9747 7.98977 22.8132 8.31632C22.7649 8.40631 22.7353 8.48425 22.7109 8.5379C22.65 8.66949 22.6378 8.68904 22.5841 8.74991C22.6694 8.70176 22.9765 8.50904 23.1323 8.5379C23.0252 8.59878 22.8619 8.7183 22.7595 8.87429C22.7839 8.87901 22.8863 8.89869 23.0486 8.87429C23.3191 8.83283 23.6212 8.73535 23.8868 8.75477C24.1768 8.77182 24.0623 8.40631 24.0623 8.40631L23.7275 7.67058L23.0941 7.22491L22.9941 7.24892Z" fill="#BE9C44"/>
<path fill-rule="evenodd" clip-rule="evenodd" d="M24.6421 12.7546C24.6421 12.7546 24.3594 12.472 24.2448 11.5018C24.1303 10.5272 24.1547 9.09256 24.1547 9.09256L23.9256 8.53223C23.9256 8.53223 23.8775 8.15938 23.7576 8.02057C23.6375 7.8819 23.4019 7.64785 23.2946 7.53331C23.1873 7.41878 23.0655 7.26279 22.9925 7.23839C23.0289 7.17752 23.1923 6.83405 23.8185 6.8292C24.4445 6.82434 24.6375 7.17279 24.703 7.2994C24.7683 7.42613 25.0635 7.974 25.173 9.01804C25.2754 10.0608 25.2804 10.1388 25.2633 10.4995C25.2511 10.6993 25.1852 11.1622 25.0706 11.6566C24.9659 12.0759 24.8517 12.5427 24.6421 12.7546Z" fill="#A17C34"/>
<path fill-rule="evenodd" clip-rule="evenodd" d="M23.7591 13.5866C23.8533 13.5935 23.9475 13.5722 24.0296 13.5256C24.1197 13.5208 24.4463 13.5622 24.6971 13.243C24.7142 13.316 24.7581 13.5136 24.6435 13.689C24.7045 13.628 24.7946 13.6037 24.8068 13.5866C24.8117 13.6768 24.8969 13.9544 24.5364 14.6294C24.6336 14.5222 24.7482 14.527 24.8505 14.5148C24.8555 14.6416 24.9236 15.0678 24.7434 15.297C24.624 15.453 24.4291 15.4042 24.4291 15.4042C24.432 15.3701 24.432 15.3358 24.4291 15.3019C24.4242 15.236 24.3998 15.1703 24.417 15.1265C24.3228 15.0834 24.237 15.024 24.1636 14.9509C23.9515 14.7511 23.6763 14.4101 23.6569 14.1567C23.6323 13.8739 23.8858 13.8131 23.8858 13.8131C23.8646 13.7941 23.8465 13.7719 23.8322 13.7472C23.82 13.706 23.8078 13.6402 23.7591 13.5866Z" fill="#8C6228"/>
<path fill-rule="evenodd" clip-rule="evenodd" d="M21.8768 10.5196C21.8768 10.5196 21.8646 10.5025 21.7989 10.5804C21.8111 10.5025 21.8233 10.4293 21.8281 10.3586C21.8592 10.2931 21.8994 10.2325 21.9475 10.1784C21.9109 10.2513 21.8865 10.3171 21.8865 10.3171C21.8865 10.3171 21.9768 10.1491 22.1084 10.0467C22.1985 9.97366 22.313 9.93955 22.3617 9.87133C22.4154 9.79825 22.403 9.78605 22.4154 9.77385C22.4154 9.77385 22.5348 9.69592 22.7176 9.46672C22.7418 9.43746 22.7785 9.40585 22.8029 9.37659C22.8441 9.35954 22.9416 9.31572 23.0561 9.25707C23.1756 9.19134 23.3096 9.10134 23.3925 9.06435C23.5557 8.99127 23.7289 8.99862 23.8092 8.88395C23.8701 8.8669 23.9356 8.68415 23.9237 8.52842C24.0137 8.56489 24.4767 8.85234 24.6352 9.48102C24.7497 9.92682 24.5449 10.614 24.4596 10.9455C24.3744 11.2771 24.3623 11.5229 24.2428 11.6739C24.0916 11.8739 23.6045 12.1558 23.485 12.2953C23.3827 12.4098 23.0758 12.6997 23.0879 12.9093C23.1001 13.0651 23.2924 13.1501 23.334 13.1797C23.3756 13.2092 23.3753 13.2455 23.4534 13.2278C23.5314 13.2102 23.5606 13.1743 23.5923 13.1743C23.6288 13.179 23.6288 13.1865 23.6458 13.1865C23.6582 13.1861 23.6704 13.1844 23.6824 13.1815C23.6824 13.1815 23.6702 13.4032 23.1512 13.4705C23.1146 13.4755 23.0782 13.4876 23.0317 13.4949C23.0927 13.4658 23.1292 13.4658 23.1951 13.3757C23.122 13.3635 22.9125 13.3513 22.8588 13.3342C22.8757 13.3049 22.9319 13.2269 22.9781 13.1904C23.0195 13.1539 22.9733 13.1423 22.9369 13.1612C22.874 13.2039 22.8138 13.2502 22.7565 13.3C22.6956 13.3536 22.6419 13.4267 22.5445 13.4927C22.5152 13.3952 22.5201 13.2101 22.6347 13.0761C22.6053 13.0809 22.5493 13.1661 22.4958 13.1492C22.4861 13.0603 22.4919 12.9704 22.5128 12.8835C22.542 12.7737 22.7005 12.5814 22.7005 12.5814L23.4654 11.2144L23.6287 10.1788L21.8768 10.5196Z" fill="#92723A"/>
<path fill-rule="evenodd" clip-rule="evenodd" d="M21.8371 10.5812C21.8371 10.5812 21.7956 10.6104 21.8785 10.6664C21.8663 10.6835 21.8371 10.7444 21.8005 10.7857C21.7591 10.834 21.7152 10.8637 21.6981 10.9052C21.6617 10.9905 21.6324 11.049 21.6324 11.0856C21.6324 11.1222 21.6202 11.3561 21.5179 11.5071C21.4813 11.5608 21.4398 11.6508 21.4106 11.7117C21.3497 11.8188 21.2962 11.9044 21.2838 11.9527C21.2597 12.0379 21.2426 12.2717 21.2426 12.2717C21.2426 12.2717 21.2963 12.2059 21.3157 12.1817C21.2863 12.2426 21.2547 12.3082 21.2084 12.357C21.2376 12.3326 21.3229 12.2717 21.4667 12.145C21.6665 11.9771 21.9784 11.6943 22.3586 11.4705C22.2439 11.5118 22.1466 11.5118 22.0686 11.524C22.1295 11.4632 22.6778 10.8199 22.9652 10.7591C22.9827 10.737 22.9913 10.7092 22.9896 10.681L22.7434 10.6567L22.2439 10.7639L22.171 10.3785L21.8371 10.5812Z" fill="#B18E3E"/>
<path fill-rule="evenodd" clip-rule="evenodd" d="M22.6304 12.7722C22.6304 12.7722 22.5645 12.8379 22.5037 13.0012C22.4568 12.9523 22.4167 12.8973 22.3843 12.8379C22.2941 12.6869 22.1553 12.4943 21.8312 12.6041C21.8264 12.5018 21.819 12.4481 21.8312 12.3751C21.8848 12.363 22.048 12.2314 22.2112 12.0388C22.3259 11.9073 22.4331 11.7562 22.5062 11.5637C22.5543 11.5271 22.6376 11.4663 22.747 11.3956C22.903 11.2885 23.0906 11.1421 23.1199 10.9789C23.0468 11.0081 22.8908 11.0812 22.6568 11.0691C22.747 11.0278 22.8858 10.9839 22.8688 10.8036C22.9054 10.7791 22.9346 10.7622 22.9346 10.7622C22.9072 10.753 22.8784 10.7488 22.8494 10.7499C22.8444 10.7329 22.8372 10.7086 22.7957 10.7207C22.7542 10.7328 22.7476 10.7329 22.742 10.7499C22.725 10.7549 22.669 10.7499 22.6275 10.7793C22.5861 10.8087 22.4717 10.9058 22.4277 10.9229C22.4448 10.8936 22.469 10.8499 22.469 10.8499C22.469 10.8499 22.3496 10.862 22.2644 10.8982C22.1084 10.9517 21.9282 11.0493 21.7455 11.1442C21.7624 11.1149 21.7699 11.096 21.782 11.0905C21.7939 11.0852 21.8233 11.0785 21.8233 11.0735C21.8233 11.0686 21.8113 11.0253 21.8186 11.0079C21.8731 10.892 21.9377 10.7812 22.0113 10.6765C22.0966 10.5618 22.1136 10.3986 22.1136 10.3986L22.4863 10.211L23.5341 9.97013L24.2139 10.0116L24.1286 10.4818L23.7272 11.3029L23.3836 12.0509L22.9912 12.5091L22.6304 12.7722Z" fill="#543E26"/>
<path fill-rule="evenodd" clip-rule="evenodd" d="M24.3254 10.7385C24.3254 10.7385 23.916 11.2453 23.8015 11.3234C23.8746 11.1674 24.3254 10.2391 24.4886 9.98073C24.4521 9.95147 24.4033 9.95147 24.5178 9.49898C24.4205 9.72779 24.3862 9.8473 24.306 9.90818C24.2257 9.96905 24.2157 9.94963 24.1614 9.94963C24.1717 9.93101 24.1759 9.90975 24.1735 9.88876C24.1735 9.88876 23.83 9.8473 23.5953 9.8473C23.3606 9.8473 22.8961 9.97404 22.6377 10.0764C22.433 10.1616 22.3185 10.1616 22.2454 10.2152C22.1723 10.2759 22.1309 10.3418 22.0943 10.3588C22.065 10.3759 21.9264 10.4197 21.8945 10.466C21.8652 10.5142 21.8165 10.5683 21.8165 10.5805C21.8165 10.5927 21.8043 10.6099 21.8409 10.5975C21.853 10.5928 21.9433 10.5439 22.0456 10.4831C22.1844 10.4051 22.3526 10.315 22.4745 10.2614C22.8228 10.1224 22.9326 10.1468 23.0883 10.1176C23.2515 10.0884 23.4856 10.0201 23.6413 10.0201C23.7973 10.0154 24.0922 10.0201 24.1605 10.0323C24.1312 10.0567 24.1068 10.0859 24.119 10.1883C24.119 10.2175 24.0946 10.2492 24.0709 10.3199C23.9979 10.5197 23.859 10.8509 23.7817 11.0191C23.6746 11.2481 23.5529 11.4407 23.4927 11.5599C23.4325 11.6793 23.2998 11.9936 23.1686 12.1618C23.0374 12.3299 22.9688 12.4322 22.9278 12.4688C22.8866 12.5056 22.5914 12.7222 22.6134 12.8002C22.6671 12.7832 23.0058 12.6556 23.2517 12.3788C23.4977 12.1019 23.5466 11.9329 23.7391 11.7818C23.9314 11.6306 24.0825 11.3773 24.1727 11.1679C24.2482 10.973 24.2305 10.9116 24.3254 10.7385Z" fill="#806031"/>
<path fill-rule="evenodd" clip-rule="evenodd" d="M15.5071 14.5214C15.5071 14.5214 15.4535 14.7431 15.3316 14.8528C15.2123 14.9601 15.0002 15.0526 14.976 15.233C14.9467 15.4131 15.188 15.5034 15.188 15.5034C15.188 15.5034 15.0563 15.7202 15.0563 15.8835C15.0563 16.0516 15.0515 16.0833 15.0685 16.244C15.0492 16.2564 15.0327 16.2728 15.0203 16.2923C15.0203 16.2923 15.0324 16.4481 15.1519 16.5455C15.2714 16.6428 15.3735 16.7014 15.4344 16.677C15.4437 16.6969 15.4518 16.7173 15.4588 16.7381C15.4588 16.7381 15.5491 16.509 15.6099 16.3092C15.6708 16.1046 15.7244 16.1336 15.7487 15.8584C15.773 15.5831 16.0378 15.1105 16.0378 15.1105L16.2185 14.7065L15.9238 14.4774L15.5071 14.5214Z" fill="#B6903C"/>
<path fill-rule="evenodd" clip-rule="evenodd" d="M16.0529 14.9203C15.9922 14.9828 15.9361 15.0495 15.8851 15.1201C15.8072 15.2274 15.7463 15.3248 15.6318 15.3664C15.5173 15.408 15.4442 15.4077 15.4514 15.5224C15.4587 15.637 15.566 15.6854 15.6269 15.744C15.6926 15.8048 15.7463 15.9072 15.7172 16.0218C15.7535 16.0048 15.8194 15.9852 15.8802 15.8536C15.9411 15.7222 16.367 14.9205 16.367 14.9205L16.0529 14.9203Z" fill="#685026"/>
<path fill-rule="evenodd" clip-rule="evenodd" d="M17.7332 13.0666C17.7332 13.0666 17.7696 12.9692 17.7332 12.8985C17.6966 12.8254 17.475 12.801 17.3653 12.7181C17.2508 12.6328 17.1118 12.5737 16.9973 12.611C17.0144 12.5696 17.0826 12.4793 17.0266 12.4599C16.9729 12.4429 16.7732 12.533 16.7196 12.5744C16.6659 12.6159 16.544 12.6644 16.5198 12.694C16.4955 12.7233 16.4539 12.7792 16.4295 12.7548C16.4051 12.7378 16.393 12.694 16.3516 12.7181C16.3101 12.7424 16.1107 12.9057 16.074 13.0008C16.0371 13.0959 15.9544 13.308 15.706 13.549C15.4575 13.7901 15.3502 13.9462 15.4232 14.0363C15.4963 14.1265 15.5305 14.0607 15.5427 14.1387C15.5521 14.2152 15.548 14.2927 15.5305 14.3677C15.5013 14.4945 15.4526 14.6137 15.5183 14.6381C15.6865 14.6918 15.8499 14.59 15.8863 14.6211C15.9594 14.6868 15.8449 14.9232 16.0178 14.9695C16.1933 15.0177 16.3664 14.9281 16.3664 14.9281L17.0047 14.5845L17.6188 14.2606L17.9328 13.6391L17.7644 13.1202L17.7332 13.0666Z" fill="#D4B968"/>
<path fill-rule="evenodd" clip-rule="evenodd" d="M17.1286 14.5488C17.1286 14.5488 17.0214 14.3856 17.153 14.2417C17.2847 14.0978 17.4722 14.037 17.5452 13.9469C17.5313 13.9298 17.5127 13.9171 17.4916 13.9104C17.5401 13.8237 17.6141 13.7539 17.7036 13.7105C17.6671 13.674 17.6183 13.6449 17.5648 13.6449C17.4454 13.6449 17.3721 13.718 17.2625 13.718C17.1555 13.718 17.1433 13.6643 17.1433 13.6643C17.1433 13.6643 17.3236 13.6472 17.3065 13.5668C17.2894 13.4814 17.2582 13.4814 17.2582 13.4814C17.2582 13.4814 17.6066 13.337 17.6675 13.2598C17.7284 13.1827 17.7212 13.0916 17.7334 13.0552C17.7746 13.0552 18.0158 12.9284 18.1133 12.9821C18.2108 13.0357 18.1426 13.1819 18.1426 13.1819C18.1426 13.1819 18.4376 12.9601 18.588 12.7427C18.7196 12.7549 18.7807 12.6525 18.8771 12.6525C18.9966 12.6525 19.1842 12.8157 19.2206 13.1641C19.2451 13.3639 19.2815 13.4784 19.2451 13.8318C19.2281 14.0316 19.2328 14.4582 19.2933 14.6699C19.3345 14.8381 19.4321 14.821 19.4321 14.821C19.4171 14.8722 19.3875 14.918 19.3467 14.9525C19.2809 15.0134 19.2736 15.1743 19.2809 15.2352C19.2906 15.2797 19.3028 15.3236 19.3175 15.3668C19.3175 15.3668 19.2396 15.4569 19.2201 15.5179C19.203 15.5788 19.1227 15.6203 19.0641 15.6203C19.0054 15.6203 19.0348 15.6153 18.9569 15.6203C18.879 15.6253 18.8546 15.6373 18.8058 15.6203C18.7569 15.6032 18.7205 15.5837 18.74 15.4276C18.7571 15.2716 18.1382 14.9085 18.1382 14.9085L17.1263 14.548L17.1286 14.5488Z" fill="#CCA849"/>
<path fill-rule="evenodd" clip-rule="evenodd" d="M15.97 16.089C15.97 16.089 16.1916 16.3838 17.103 16.3838C17.5366 16.3838 17.6877 16.3425 17.7776 16.3181C17.8751 16.2935 18.2405 16.15 18.6085 15.7161C18.9397 15.324 18.8666 15.1632 18.8666 15.1632L18.6739 15.1339L18.0476 15.2192L16.1941 16.0087L15.97 16.089Z" fill="#585136"/>
<path fill-rule="evenodd" clip-rule="evenodd" d="M16.6488 16.1649C16.6488 16.1649 15.8593 16.3405 15.8593 15.841C15.8593 15.3536 16.3467 14.842 16.4686 14.7518C16.5953 14.6616 16.8974 14.5591 16.8974 14.5591H17.6259L17.7648 14.9271L17.7039 15.7214L16.6488 16.1649Z" fill="#252211"/>
<path fill-rule="evenodd" clip-rule="evenodd" d="M17.3758 14.709C17.3758 14.709 17.2248 14.57 16.8812 14.7571C16.5376 14.9442 16.2598 15.3353 16.2429 15.6904C16.2258 16.0046 16.501 16.2387 16.9299 16.2509C17.2491 16.2628 17.4417 16.2263 17.5392 16.2026C17.5148 16.1733 17.388 16.015 17.388 16.015L17.3758 14.709Z" fill="#C3B378"/>
<path fill-rule="evenodd" clip-rule="evenodd" d="M17.2292 14.7832C17.2292 14.7832 17.1927 14.7539 17.0846 14.8124C16.9945 14.8606 16.8629 14.9879 16.7607 15.0781C16.6948 15.1317 16.6534 15.156 16.6161 15.1973C16.465 15.3777 16.3382 15.6726 16.4114 15.8188C16.4847 15.9649 16.7258 16.1331 17.3398 16.0186L17.2273 14.7833L17.2292 14.7832Z" fill="#E6D89C"/>
<path fill-rule="evenodd" clip-rule="evenodd" d="M17.027 15.0872C17.027 15.0872 16.9295 15.2384 16.9295 15.4796C16.9295 15.7256 17.0685 16.1179 17.5801 16.1472C17.9724 16.1716 18.2355 15.582 18.5205 15.3529C18.7374 15.1775 18.869 15.1725 18.869 15.1725C18.869 15.1725 18.6473 14.9316 18.0553 14.6195C17.4705 14.3052 16.815 14.2637 16.4592 14.7463C16.6274 14.7341 17.1708 14.5951 17.1708 14.5951L17.4365 14.6804L17.027 15.0872Z" fill="#252211"/>
<path fill-rule="evenodd" clip-rule="evenodd" d="M17.7955 15.4028C17.7786 15.3664 17.7664 15.3176 17.837 15.3055C17.9077 15.2934 17.9393 15.3005 17.9637 15.3536C17.9881 15.4068 18.0118 15.4511 17.9758 15.4732C17.9393 15.4926 17.8443 15.4736 17.7955 15.4028ZM17.681 15.0592C17.681 15.0592 17.6566 15.0763 17.6688 15.0422C17.6736 15.001 17.7055 14.9278 17.7833 14.9448C17.8612 14.962 17.8444 15.0472 17.8316 15.0716C17.8187 15.0961 17.7536 15.1373 17.7048 15.1199C17.6985 15.1183 17.6929 15.1153 17.6881 15.1111C17.6833 15.1067 17.6795 15.1015 17.6772 15.0956C17.6748 15.0897 17.6739 15.0833 17.6744 15.0768C17.6749 15.0705 17.6776 15.0646 17.681 15.0592Z" fill="#6F674D"/>
<path fill-rule="evenodd" clip-rule="evenodd" d="M11.0818 15.2205C11.0818 15.2205 11.2746 15.3649 11.4985 15.3594C11.7201 15.3545 12.0052 15.1255 12.1368 14.9792C12.2147 14.894 12.2813 14.8038 12.3536 14.7331C12.4146 14.6722 12.4559 14.643 12.4852 14.6015C12.5266 14.5534 12.5704 14.4629 12.5924 14.4335C12.5388 14.4749 12.4609 14.5481 12.3804 14.5968C12.3025 14.645 12.1344 14.7356 12.0661 14.76C12.0004 14.7844 11.3181 15.1455 11.3181 15.1455L11.0818 15.2205Z" fill="#AC924C"/>
<path fill-rule="evenodd" clip-rule="evenodd" d="M11.3771 13.4196C11.3771 13.4196 11.4842 13.3465 11.6914 13.3C11.8912 13.2519 12.2933 13.2148 12.2933 13.2148L12.6246 13.3593L12.7561 13.8589L12.5152 14.3779L12.2083 14.5708L11.8597 14.0103L11.3771 13.4196Z" fill="#9F8E57"/>
<path fill-rule="evenodd" clip-rule="evenodd" d="M10.9424 13.8629L10.8277 13.9484C10.8277 13.9484 10.8571 13.8948 10.8814 13.7316C10.9056 13.5685 11.0325 13.1712 11.2177 12.9422C11.4029 12.7131 11.3981 12.7253 11.3981 12.7253C11.381 12.7223 11.3635 12.7228 11.3467 12.727C11.3299 12.7312 11.3142 12.7388 11.3006 12.7496C11.325 12.6956 11.4809 12.5029 11.6369 12.4065C11.7929 12.3102 11.8537 12.2798 12.0169 12.3583C12.1801 12.4369 12.2215 12.4777 12.341 12.4729C12.4605 12.468 12.5627 12.3413 12.5627 12.3413C12.5627 12.3413 12.5871 12.4192 12.497 12.5996C12.4069 12.78 12.0511 13.1477 12.0511 13.1477L11.3104 13.6545L10.9424 13.8629Z" fill="#EAC970"/>
<path fill-rule="evenodd" clip-rule="evenodd" d="M11.494 13.3592C11.494 13.3592 12.0301 13.4323 12.1933 13.2813C12.1981 13.2983 12.2177 13.2983 12.2177 13.3105C12.2164 13.3197 12.2121 13.3282 12.2055 13.3348C12.2232 13.332 12.2412 13.3303 12.2591 13.33C12.2806 13.3364 12.3027 13.3404 12.325 13.3422C12.343 13.3418 12.3609 13.3402 12.3786 13.3372C12.3769 13.3494 12.3728 13.361 12.3665 13.3715C12.3602 13.3819 12.3519 13.3911 12.342 13.3983C12.3664 13.3983 12.3902 13.403 12.3902 13.4226C12.3902 13.442 12.395 13.5006 12.3658 13.5128C12.3416 13.5195 12.3158 13.5177 12.2927 13.5079C12.2946 13.5539 12.3072 13.599 12.3293 13.6396C12.3775 13.7296 12.4803 13.8323 12.6184 13.8026C12.6184 13.8026 12.6914 13.9781 12.3844 14.368C12.3431 14.4216 12.2991 14.4947 12.2456 14.5556C12.2245 14.6016 12.2084 14.6498 12.1975 14.6992C12.1975 14.6992 12.7166 14.4994 12.8651 14.0438C13.0163 13.5856 13.0455 13.135 13.0163 12.7136C13.0113 12.5941 12.9919 12.5089 12.9626 12.4479C12.8896 12.2968 12.6848 12.3212 12.6021 12.4065C12.4826 12.526 12.2828 12.8231 12.005 13.0277C11.7224 13.2323 11.711 13.2687 11.494 13.3592Z" fill="#D7BC6B"/>
<path fill-rule="evenodd" clip-rule="evenodd" d="M10.8509 14.0161C10.8509 14.0161 10.7486 14.0769 10.6949 14.3052C10.6413 14.539 10.7431 14.8241 10.8021 14.9142C10.861 15.0043 10.9948 15.2506 11.2723 15.2628C11.341 15.2624 11.409 15.2484 11.4721 15.2213C11.569 15.1769 11.6599 15.1205 11.7426 15.0531C11.8621 14.963 11.9594 14.8852 11.9472 14.8777C11.918 14.8655 11.2115 14.2808 11.2115 14.2808L10.9458 13.9843L10.8509 14.0161Z" fill="#585136"/>
<path fill-rule="evenodd" clip-rule="evenodd" d="M11.5157 14.985C11.5157 14.985 11.6594 14.9729 11.7447 14.9192C11.83 14.8656 11.2452 14.2858 11.2452 14.2858L11.2866 14.9123L11.5157 14.985Z" fill="#453A25"/>
<path fill-rule="evenodd" clip-rule="evenodd" d="M10.8935 13.9686C10.8935 13.9686 10.8204 14.1075 10.8204 14.1442C10.8082 14.2635 10.8448 14.6388 10.8741 14.758C10.9033 14.8847 11.0617 15.0772 11.2665 15.0772C11.393 15.0772 11.5686 14.9993 11.5686 14.9799C11.5686 14.9555 11.3882 14.9317 11.3395 14.8409C11.3103 14.7928 11.2981 14.673 11.2913 14.5519C11.2865 14.474 11.2865 14.3887 11.3158 14.359C11.3816 14.286 11.3937 14.0765 11.3937 14.0765L11.6275 13.6419H11.3199L10.952 13.871L10.8935 13.9686Z" fill="#84754B"/>
<path fill-rule="evenodd" clip-rule="evenodd" d="M10.8054 14.1024C10.8054 14.1024 11.0464 13.7834 11.2635 13.7102C11.4807 13.6368 11.5778 13.6809 11.5778 13.6809L11.4511 14.005L11.2707 14.2048L11.2829 14.3071C11.2829 14.3071 11.2536 14.5776 11.4339 14.7652C11.6143 14.9528 11.7483 14.9456 11.8263 14.9456C11.9044 14.9456 12.1284 14.8798 12.243 14.6092C12.3453 14.3559 12.4306 14.0311 12.2259 13.7053C12.026 13.3811 11.6728 13.3687 11.6045 13.3687C11.5362 13.3687 11.0003 13.3958 10.8054 14.1024Z" fill="#252211"/>
<path fill-rule="evenodd" clip-rule="evenodd" d="M16.9906 15.188C16.9006 15.1465 16.9859 14.8933 17.076 14.8152C17.166 14.7372 17.2806 14.6472 17.4805 14.6348C17.5534 14.63 17.6242 14.6763 17.6121 14.7251C17.595 14.8152 17.4683 14.942 17.3539 15.032C17.1954 15.1563 17.093 15.2343 16.9906 15.188Z" fill="#F7F7E7"/>
<path fill-rule="evenodd" clip-rule="evenodd" d="M12.1173 13.8056C12.1831 13.8008 12.2684 13.8538 12.2855 13.9251C12.3025 14.003 12.244 14.159 12.1173 14.159C12.015 14.159 11.9613 14.0323 11.9613 13.9958C11.9625 13.9657 11.9708 13.9365 11.9857 13.9105C11.9906 13.9032 12.0028 13.8178 12.1173 13.8056Z" fill="#F8F6DE"/>
<path fill-rule="evenodd" clip-rule="evenodd" d="M11.1639 13.8618C11.1639 13.8618 10.9957 13.9397 10.9179 14.1027C10.8622 14.2231 10.8454 14.3579 10.8697 14.4881C10.8819 14.549 10.9427 14.7 10.9842 14.7537C11.0256 14.8073 11.0817 14.8439 11.1231 14.8389C11.1646 14.834 11.2497 14.7244 11.2497 14.6588C11.2497 14.5931 11.2547 14.3152 11.335 14.1641C11.4057 14.0131 11.1639 13.8618 11.1639 13.8618Z" fill="#D4C38B"/>
<path fill-rule="evenodd" clip-rule="evenodd" d="M11.1936 13.851C11.1643 13.8679 11.1157 13.8923 11.1277 13.9241C11.1399 13.9532 11.2422 13.9722 11.2788 14.0435C11.3203 14.1167 11.3203 14.1945 11.3081 14.2311C11.3399 14.216 11.3688 14.1954 11.3934 14.1701C11.447 14.1092 11.5127 14.0265 11.5688 14.0265C11.6054 14.0265 11.6418 14.0435 11.6761 14.0435C11.7297 14.0435 11.7832 14.0265 11.7906 13.9704C11.8026 13.8973 11.6883 13.8315 11.6224 13.8438C11.6346 13.7955 11.6516 13.7244 11.598 13.6756C11.5443 13.6268 11.3763 13.7122 11.3397 13.7366C11.3031 13.761 11.1936 13.851 11.1936 13.851Z" fill="#E2D59D"/>
<path fill-rule="evenodd" clip-rule="evenodd" d="M15.0656 18.9688L15.4262 18.8623L15.5285 18.9353C15.5285 18.9353 15.6014 19.0913 15.7161 19.1107C15.6795 19.1887 15.5844 19.2553 15.5894 19.3105C15.5944 19.3658 15.643 19.408 15.643 19.408C15.643 19.408 15.3189 19.9441 15.9573 20.4842C15.8062 20.5451 15.6138 20.6288 15.5115 20.6769C15.5844 20.694 15.7403 20.7251 15.8062 20.7843C15.872 20.8433 15.872 20.8622 15.9329 20.8988C15.9938 20.9354 16.0303 20.9841 16.0182 21.0058C15.9767 20.9814 15.8378 20.9085 15.8137 20.9766C15.7894 21.0448 15.2118 21.018 15.2118 21.018L14.2372 21.2056C14.2372 21.2056 14.2736 21.1082 14.1713 21.018C14.052 20.911 13.9058 21.0229 13.7498 20.9035C13.5452 20.7476 13.5378 20.5673 13.4721 20.4992C13.5378 20.4577 13.6719 20.3968 13.9911 20.3546C13.9789 20.3302 13.9374 20.2571 13.9619 20.1914C13.9911 20.1061 14.1128 20.0524 14.0764 19.9505C14.13 19.9383 14.1543 19.9383 14.2884 19.7701C14.4151 19.6019 14.493 19.5655 14.5905 19.5533C14.688 19.5411 14.7465 19.5533 14.9268 19.3851C15.0534 19.2658 15.0121 19.1635 15.0121 19.1635C15.0121 19.1635 15.0947 19.137 15.0656 18.9688Z" fill="#CBAC5A"/>
<path fill-rule="evenodd" clip-rule="evenodd" d="M13.9983 19.0242C14.0031 18.9998 14.0227 18.9876 14.1543 18.9998C14.2858 19.012 15.1191 18.922 15.3457 18.9098C15.5748 18.8927 16.3813 18.9048 16.7735 18.9876C17.1659 19.0705 17.5631 19.168 17.7554 19.2166C17.9483 19.2703 18.0089 19.2896 18.0015 19.314C17.9967 19.3384 17.9534 19.3621 17.9285 19.3554C17.9042 19.3506 17.2658 19.1556 17.0685 19.1144C16.8713 19.0734 16.1888 18.9633 15.8157 18.97C15.4673 18.975 15.3284 18.9651 15.0336 18.9991C14.7388 19.0358 14.2514 19.0845 14.1053 19.065C13.9607 19.048 13.9909 19.0486 13.9983 19.0242Z" fill="#D6BC6F"/>
<path fill-rule="evenodd" clip-rule="evenodd" d="M15.963 20.9358C15.963 20.9358 16.4624 21.2063 16.6428 21.5376C16.7744 21.7837 16.5649 21.9056 16.5649 21.9056C16.5649 21.9056 16.8476 21.9056 16.811 22.0616C16.794 22.1589 16.3236 22.422 16.0093 22.5609C15.6902 22.6998 15.7024 22.6926 15.5464 22.7169C15.3953 22.7413 14.9811 22.6687 14.8958 22.79C14.8105 22.9112 14.8476 23.0362 14.8714 23.0556C14.8958 23.0727 15.0932 23.0971 15.0932 23.0971C15.0932 23.0971 15.0517 23.2116 14.6425 23.2238C14.2332 23.236 14.1308 23.265 14.1064 23.3091C14.0819 23.3504 14.1842 23.3262 14.372 23.3573C14.5596 23.3865 14.8227 23.4054 14.8227 23.4054C14.8227 23.4054 14.7374 23.4785 14.5158 23.537C14.2623 23.6027 13.8651 23.6637 13.7458 23.7368C13.8066 23.7783 13.8969 23.8391 13.9385 23.844C13.8362 23.8684 13.6923 23.922 13.668 23.9415C13.7045 23.9659 13.7533 23.9951 13.7533 23.9951C13.7533 23.9951 13.5485 24.2411 13.4292 24.3022C13.3098 24.3633 12.6227 24.6822 12.3863 24.6213C11.7967 24.4653 11.7236 23.8197 11.5799 23.771C11.363 23.698 11.2607 23.844 11.0681 23.7417C11.1534 23.6808 11.1998 23.6443 11.2899 23.6028C11.1924 23.5547 10.6881 23.2348 10.6881 23.2348C10.6354 23.1199 10.5768 23.0078 10.5127 22.8987C10.4152 22.7305 10.2718 22.5063 10.1642 22.3089C9.93032 21.8753 9.9181 21.6755 9.70609 21.4294C9.74271 21.3812 9.86927 21.3879 9.86927 21.3879L11.6457 21.9728L14.7956 22.0639L15.6147 20.8945L15.963 20.9358Z" fill="#DFC677"/>
<path fill-rule="evenodd" clip-rule="evenodd" d="M11.2954 22.7147C11.3144 22.7358 11.3366 22.7539 11.3611 22.7684C11.4222 22.8098 11.5123 22.8586 11.5731 22.9316C11.5975 22.8951 11.6584 22.8292 11.7659 22.9316C11.8733 23.0339 12.0068 22.961 12.0898 22.9852C12.1751 23.0146 12.1799 23.0266 12.1799 23.0266C12.1799 23.0266 12.2281 22.9852 12.3359 22.9413C12.4018 22.9169 12.4797 22.9 12.5649 22.8757C12.6429 22.8586 12.7281 22.8342 12.7868 22.8342C12.8404 22.8707 13.0328 23.0751 13.8052 22.7734C14.5338 22.4906 14.7018 22.459 14.8237 22.5027C14.8359 22.4734 14.8481 22.4174 15.0357 22.4248C15.0357 22.3468 14.8798 22.0812 14.8798 22.0812L14.0197 21.7865H13.5492L12.1385 22.0448L11.3568 22.4908L11.2954 22.7147Z" fill="#C4A859"/>
<path fill-rule="evenodd" clip-rule="evenodd" d="M10.8243 22.2262C10.8243 22.2262 10.8413 22.3576 11.0363 22.4965C11.229 22.6353 11.2896 22.7183 11.2896 22.7183C11.2896 22.7183 11.3262 22.6701 11.3554 22.6209C11.3847 22.5673 11.4091 22.5064 11.4578 22.4893C11.5552 22.4479 11.7769 22.5258 11.8257 22.5136C11.8672 22.5015 11.855 22.4163 11.8988 22.4163C12.0011 22.4113 12.0668 22.482 12.1034 22.482C12.1401 22.482 12.23 22.4771 12.2422 22.4577C12.2544 22.4383 12.2592 22.2359 12.3982 22.1384C12.5493 22.0313 12.7345 22.0775 12.7836 22.1019C12.7836 22.1384 12.7885 22.2286 12.886 22.2335C12.9835 22.2384 12.9931 22.2213 13.0787 22.2506C13.1643 22.2798 13.2663 22.2457 13.3126 22.3894C13.354 22.3773 13.4515 22.3651 13.4271 22.2262C13.4753 22.1897 13.5173 22.1653 13.6198 22.0215C13.6442 21.985 13.6855 21.9436 13.7173 21.8899C13.8026 21.8899 13.9049 21.8728 14.0413 21.9922C13.9998 22.0215 13.9754 22.0404 13.9634 22.0702C13.999 22.1055 14.0316 22.1438 14.0607 22.1847C14.0973 22.2328 14.1217 22.292 14.168 22.3042C14.2703 22.3333 14.4385 22.292 14.6261 22.3042C14.8065 22.3164 14.9574 22.382 15.0233 22.4235C15.0477 22.4114 15.0477 22.4065 15.1086 22.4187C15.1694 22.4309 15.2157 22.4357 15.15 22.3579C15.1865 22.3748 15.2279 22.4114 15.2645 22.3748C15.3011 22.3382 15.3302 22.2848 15.4325 22.2725C15.5348 22.2603 15.5715 22.2773 15.6129 22.1703C15.6665 22.0387 15.4814 22.0387 15.4814 22.0387C15.4814 22.0387 15.5666 21.9606 15.6617 21.8583C15.7762 21.7511 15.9078 21.6123 15.9394 21.4416C15.9931 21.1273 15.6861 21.0861 15.6861 21.0861L14.1974 21.5441L12.3773 21.4538L10.8243 22.2262Z" fill="#927D49"/>
<path fill-rule="evenodd" clip-rule="evenodd" d="M9.48743 17.9229C9.48743 17.9229 9.43925 17.9838 9.40953 18.1276C9.37982 18.2714 9.3925 18.2543 9.36809 18.3566C9.34367 18.459 9.0438 19.4774 9.15623 19.8209C9.26867 20.1645 9.46333 20.2912 9.58508 20.569C9.6095 20.6299 9.63327 20.6665 9.64596 20.7201C9.6874 20.9004 9.65094 21.0393 9.6996 21.2196C9.71663 21.2804 9.76063 21.3512 9.82634 21.4242C9.97089 21.5752 10.2065 21.719 10.3082 21.8212C10.4518 21.9724 10.6566 22.2795 10.9172 22.3086C11.0562 22.3257 11.2536 22.2672 11.4168 22.1698C11.5613 22.0795 11.6506 21.9529 11.8022 21.8807C11.9094 21.8271 12.0239 21.8076 12.1262 21.7832C12.3382 21.7417 12.5308 21.735 12.6453 21.7588C12.8207 21.7954 13.2349 21.9221 13.4645 21.9221C13.6438 21.9192 13.8221 21.8947 13.9956 21.849C14.344 21.7467 14.7655 21.5712 15.0433 21.4934C15.2065 21.4451 15.3381 21.4325 15.4722 21.4032C15.7012 21.3496 15.8936 21.2765 16.0033 21.1376C15.9302 21.0523 15.8401 20.9207 15.3527 20.9256C14.7997 20.9378 14.1612 21.2446 13.8469 21.2936C13.5326 21.3424 13.3962 21.3836 13.0453 21.2568C12.7012 21.1289 12.6898 21.0442 12.6898 21.0442C12.6898 21.0442 12.3286 20.7916 12.1774 20.1474C12.0263 19.5034 12.1774 19.0341 12.5698 18.5881C12.6721 18.4735 12.6477 18.3712 12.6477 18.3712C12.6477 18.3712 12.906 18.0229 12.8353 17.6966C12.7574 17.3726 12.2579 17.4384 12.2579 17.4384L9.48743 17.9229Z" fill="#6E6342"/>
<path fill-rule="evenodd" clip-rule="evenodd" d="M9.90527 19.0099C9.88379 19.0503 9.87369 19.0957 9.87604 19.1415C9.88086 19.2071 9.90046 19.2923 10.0977 19.4849C10.2659 19.653 10.2292 19.8406 10.2292 19.8406C10.2292 19.8406 10.3139 19.8577 10.5436 19.7502C10.7239 19.6649 10.7845 19.8161 10.7845 19.8161C10.837 19.7885 10.8939 19.7703 10.9527 19.7624C11.0059 19.7574 11.0574 19.741 11.1036 19.7141C11.1036 19.7141 11.3156 19.931 11.5008 20.0333C11.669 20.1236 11.7665 20.1845 11.8494 20.1236C11.9273 20.0699 11.9273 19.9603 11.9223 19.9116C11.903 19.8667 11.8785 19.8241 11.8494 19.7848C11.7957 19.7069 11.7104 19.6167 11.7048 19.544C11.6926 19.3759 11.8315 19.176 11.8022 19.1273C11.7728 19.0786 11.6634 19.0664 11.3929 19.1639C11.1128 19.2564 9.90527 19.0099 9.90527 19.0099Z" fill="#39331F"/>
<path fill-rule="evenodd" clip-rule="evenodd" d="M10.5446 20.0943C10.5446 20.0943 10.4058 19.9628 10.4545 19.3244C10.5134 19.3234 10.5722 19.3292 10.6299 19.3414C10.6299 19.3414 10.7055 19.8361 10.5446 20.0943Z" fill="#292311"/>
<path fill-rule="evenodd" clip-rule="evenodd" d="M9.5546 17.4391C9.57396 17.4247 9.59192 17.4085 9.60824 17.3908C9.56005 17.481 9.3376 17.8416 9.51797 18.4093C9.69835 18.9746 10.1514 19.396 10.7094 19.4156C11.2674 19.4352 11.5607 19.1621 11.8961 18.7529C12.0276 18.5897 12.1787 18.3849 12.3127 18.2462C12.5125 18.0292 12.6685 17.9683 12.6685 17.7588C12.6685 17.33 12.2298 17.1374 11.5841 16.945C10.9385 16.7526 10.3561 16.7763 10.0539 16.908C9.75922 17.0517 9.63266 17.2027 9.5546 17.4391Z" fill="#252211"/>
<path fill-rule="evenodd" clip-rule="evenodd" d="M11.6289 20.2931L11.6771 20.2687C11.6771 20.2687 11.6891 20.0759 11.7672 20.0811C11.845 20.0933 11.8817 20.1957 11.8743 20.2322C11.8695 20.2687 11.85 20.3297 11.772 20.3223C11.6697 20.3247 11.6289 20.2931 11.6289 20.2931Z" fill="#3F3824"/>
<path fill-rule="evenodd" clip-rule="evenodd" d="M11.4085 19.4708C11.4085 19.4708 11.4567 19.4537 11.5156 19.5122C11.5638 19.5122 11.7739 19.4878 11.8398 19.5293C11.9056 19.5707 11.925 19.6072 11.925 19.6072C11.925 19.6072 11.679 19.6607 11.5449 19.6072C11.4085 19.5609 11.4085 19.4708 11.4085 19.4708Z" fill="#2D2815"/>
<path fill-rule="evenodd" clip-rule="evenodd" d="M12.4939 19.51C12.4939 19.4977 12.3624 19.4076 12.2235 19.3782C12.199 19.3735 12.1941 19.3904 12.1753 19.3904C12.1631 19.3857 12.1582 19.3491 12.1582 19.3491L12.0792 19.3907C12.0792 19.3907 12.067 19.4076 12.1084 19.4388C12.1449 19.4681 12.2059 19.4925 12.223 19.5412C12.24 19.5898 12.24 19.6069 12.2474 19.6143C12.2522 19.6191 12.3375 19.6143 12.3789 19.5899C12.4204 19.5654 12.4989 19.526 12.4939 19.51Z" fill="#82764F"/>
<path fill-rule="evenodd" clip-rule="evenodd" d="M11.264 20.0026C11.264 20.0026 11.2883 19.8345 11.4516 19.8272C11.6196 19.815 11.6514 19.9782 11.6514 19.9782L11.5539 20.0757C11.5539 20.0733 11.48 19.971 11.264 20.0026Z" fill="#2D2816"/>
<path fill-rule="evenodd" clip-rule="evenodd" d="M12.3264 19.2719C12.3264 19.2719 12.2362 19.3694 12.0365 19.3986C12.0195 19.3742 11.9829 19.3256 12.0365 19.2476C12.0902 19.1698 12.1511 19.1454 12.2119 19.1696C12.2388 19.174 12.2638 19.186 12.2841 19.2041C12.3044 19.2222 12.3191 19.2458 12.3264 19.2719Z" fill="#574F35"/>
<path fill-rule="evenodd" clip-rule="evenodd" d="M12.6968 19.3976C12.7017 19.3731 12.6847 19.3684 12.6968 19.3562C12.7088 19.344 12.7748 19.3197 12.787 19.3317C12.7918 19.3367 12.787 19.3562 12.787 19.3799C12.787 19.4036 12.787 19.428 12.7748 19.4456C12.7578 19.47 12.7091 19.4822 12.6847 19.475C12.6603 19.4678 12.6555 19.4336 12.6555 19.4267C12.6675 19.422 12.6968 19.4098 12.6968 19.3976ZM13.1128 19.1344C13.1128 19.1222 13.1542 19.0978 13.1786 19.0978C13.2151 19.0978 13.2151 19.1271 13.22 19.1344C13.2321 19.1393 13.2321 19.1294 13.2443 19.1515C13.2565 19.1735 13.2737 19.2124 13.2613 19.2368C13.249 19.2612 13.2005 19.2781 13.1884 19.2732C13.1714 19.261 13.1177 19.1515 13.1128 19.1344Z" fill="#82764F"/>
<path fill-rule="evenodd" clip-rule="evenodd" d="M12.2691 19.4529C12.2691 19.4529 12.3228 19.465 12.3959 19.526C12.3714 19.543 12.3348 19.5624 12.3348 19.5624C12.3348 19.5624 12.33 19.5066 12.2691 19.4529Z" fill="#6E6342"/>
<path fill-rule="evenodd" clip-rule="evenodd" d="M12.1517 18.9137C12.1395 18.9017 12.1882 18.8724 12.2174 18.8773C12.2466 18.8821 12.2588 18.9017 12.2905 18.9065C12.3221 18.9112 12.3271 18.8943 12.3387 18.8821C12.3502 18.8699 12.3923 18.8773 12.3995 18.8821C12.404 18.8874 12.4081 18.8931 12.4117 18.899C12.4123 18.8899 12.4147 18.8808 12.4188 18.8725C12.423 18.8641 12.4289 18.8568 12.436 18.8509C12.4453 18.8441 12.4561 18.8393 12.4675 18.8372C12.4789 18.8351 12.4907 18.8357 12.5019 18.8387C12.5067 18.8557 12.5311 18.9166 12.5263 18.9288C12.5214 18.941 12.4484 18.9582 12.436 18.9459C12.4482 18.9753 12.5019 19.0361 12.5091 19.0482C12.5163 19.0601 12.4554 19.0895 12.4312 19.0848C12.3971 19.0823 12.1882 18.9599 12.1517 18.9137ZM12.4709 18.5093C12.4663 18.4971 12.4577 18.4867 12.4464 18.48C12.4294 18.4753 12.3734 18.48 12.3734 18.5093C12.3734 18.5385 12.4215 18.702 12.4757 18.7871C12.5367 18.8724 12.578 18.943 12.6194 18.9625C12.6324 18.9684 12.6472 18.9692 12.6608 18.9648C12.6743 18.9602 12.6857 18.9507 12.6925 18.9381C12.6973 18.9259 12.7095 18.8358 12.7047 18.6238C12.6999 18.4118 12.6925 18.2071 12.6803 18.1949C12.6681 18.1827 12.6194 18.1828 12.6024 18.2071C12.5854 18.2314 12.4758 18.4728 12.4709 18.5093Z" fill="#585136"/>
<path fill-rule="evenodd" clip-rule="evenodd" d="M12.2529 19.7621C12.2529 19.7621 12.1676 19.7085 12.0847 19.7451C12.0068 19.7817 12.0116 19.9255 12.0116 19.9255C12.0292 19.9323 12.0481 19.9348 12.0668 19.9327C12.0855 19.9305 12.1034 19.9239 12.1189 19.9133C12.1726 19.8768 12.2407 19.8158 12.2529 19.7621Z" fill="#574F35"/>
<path fill-rule="evenodd" clip-rule="evenodd" d="M12.4147 19.9505C12.4099 19.9022 12.3665 19.9022 12.3665 19.8774C12.3695 19.8654 12.3764 19.8548 12.3861 19.8473C12.3958 19.8399 12.4077 19.8358 12.42 19.8359C12.4444 19.8359 12.4682 19.8652 12.4981 19.8841C12.5273 19.9011 12.5711 19.9322 12.576 19.9694C12.5808 20.0065 12.5278 20.1082 12.4688 20.1082C12.4099 20.1082 12.4269 19.9991 12.4147 19.9505ZM12.885 19.8846C12.885 19.8846 12.7875 19.9139 12.7947 19.8846C12.8019 19.8553 12.8241 19.8481 12.8558 19.8481C12.8718 19.8313 12.8935 19.8208 12.9166 19.8187C12.9299 19.8181 12.9429 19.8224 12.9531 19.8309C12.9531 19.8309 13.0189 19.8017 13.0384 19.8187C13.0578 19.8358 13.0434 19.8358 13.0554 19.8553C13.0707 19.8771 13.0808 19.9021 13.0848 19.9284C13.0848 19.9478 13.0117 19.9893 12.9531 19.9821C12.885 19.9674 12.897 19.8968 12.885 19.8846ZM13.4526 19.7749C13.4526 19.7749 13.4818 19.7918 13.4576 19.8115C13.4406 19.8284 13.3553 19.8597 13.282 19.8652C13.2089 19.8652 13.1433 19.8771 13.1433 19.853C13.1433 19.8287 13.2041 19.7799 13.2406 19.7676C13.2479 19.7585 13.2572 19.751 13.2678 19.7461C13.2783 19.7409 13.2899 19.7383 13.3016 19.7385C13.3309 19.7385 13.4452 19.7262 13.477 19.7214C13.5062 19.7164 13.5307 19.7335 13.5135 19.7579C13.5062 19.7749 13.4526 19.7749 13.4526 19.7749ZM13.6208 19.0225C13.6208 19.0225 13.5841 19.1005 13.5429 19.1005C13.5014 19.0956 13.5014 19.0834 13.5014 19.0712C13.5014 19.0541 13.5429 19.0103 13.5379 18.9981C13.5258 18.9981 13.4965 18.9981 13.5014 18.9689C13.5014 18.9445 13.5429 18.9152 13.5793 18.9207C13.6069 18.898 13.6412 18.8853 13.6768 18.8842C13.7183 18.8842 13.7547 18.8963 13.7547 18.9207C13.7547 18.9451 13.7065 18.9986 13.6889 19.011C13.6694 19.0304 13.645 19.0426 13.6208 19.0225ZM13.0652 20.4625C13.0652 20.4625 13.017 20.4675 13.017 20.4916C13.017 20.5038 13.0291 20.504 13.0462 20.4966C13.0561 20.4961 13.0659 20.4944 13.0755 20.4916C13.0803 20.4966 13.0803 20.5209 13.1169 20.5209C13.147 20.5168 13.176 20.507 13.2022 20.4916C13.2314 20.4797 13.2558 20.4672 13.2558 20.4435C13.2436 20.402 13.2192 20.3825 13.1828 20.3825C13.1641 20.3813 13.1455 20.3855 13.1291 20.3947C13.1291 20.3947 13.1169 20.3703 13.0755 20.3947C13.034 20.4191 13.0389 20.4191 13.0511 20.4313C13.0729 20.4507 13.0652 20.4625 13.0652 20.4625ZM12.7899 20.716C12.7899 20.7036 12.8508 20.6792 12.8678 20.6867C12.8848 20.6914 12.9335 20.7841 12.9335 20.7938C12.9335 20.806 12.8726 20.8352 12.8482 20.8352C12.8238 20.8352 12.7825 20.7938 12.7825 20.7871C12.7825 20.7822 12.8117 20.775 12.8117 20.77C12.819 20.758 12.7899 20.7282 12.7899 20.716ZM12.5972 20.3602C12.6094 20.3553 12.6094 20.3431 12.6264 20.3309C12.6317 20.3274 12.6378 20.3252 12.6441 20.3242C12.6505 20.3234 12.6569 20.3241 12.663 20.3261C12.6673 20.3185 12.6733 20.3118 12.6804 20.3068C12.6876 20.3017 12.6958 20.2983 12.7045 20.2967C12.7337 20.2918 12.7581 20.2967 12.7526 20.3089C12.7526 20.3455 12.7771 20.3698 12.7771 20.399C12.7771 20.4283 12.76 20.4649 12.6992 20.4893C12.6383 20.5063 12.5554 20.5063 12.5432 20.5015C12.531 20.4966 12.5188 20.4478 12.531 20.4234C12.5432 20.399 12.5776 20.3724 12.5972 20.3602Z" fill="#82764F"/>
<path fill-rule="evenodd" clip-rule="evenodd" d="M12.6729 20.3794C12.6729 20.3794 12.632 20.4034 12.632 20.4154C12.6284 20.4271 12.6268 20.4393 12.6273 20.4514C12.6273 20.4586 12.6802 20.4467 12.6874 20.4394C12.6897 20.4346 12.6729 20.3918 12.6729 20.3794Z" fill="#6E6342"/>
<path fill-rule="evenodd" clip-rule="evenodd" d="M12.3139 20.2633C12.3381 20.2682 12.3796 20.2633 12.4112 20.2755C12.4356 20.2877 12.4526 20.3121 12.4282 20.3413C12.4038 20.3706 12.38 20.4144 12.3259 20.407C12.265 20.4022 12.2066 20.3706 12.2066 20.3462C12.2056 20.3307 12.2076 20.3152 12.2126 20.3006C12.2176 20.286 12.2255 20.2724 12.2358 20.2609C12.2602 20.2415 12.2724 20.2537 12.3139 20.2633Z" fill="#585136"/>
<path fill-rule="evenodd" clip-rule="evenodd" d="M12.2842 20.2883C12.2842 20.2883 12.2063 20.3491 12.1867 20.3785C12.1623 20.4078 12.0429 20.5588 12.0065 20.5904C12.0186 20.569 12.0324 20.5487 12.0478 20.5295C11.9996 20.5604 11.9635 20.6068 11.9455 20.6611C11.9162 20.7514 12.1088 20.8001 12.2354 20.8367C12.3619 20.8733 12.4109 20.8848 12.4109 20.8848C12.3643 20.8147 12.3243 20.7406 12.2914 20.6632C12.2432 20.5487 12.2183 20.5365 12.25 20.4828C12.2744 20.4292 12.311 20.3927 12.311 20.3512C12.2964 20.3127 12.2842 20.2883 12.2842 20.2883Z" fill="#574F35"/>
<path fill-rule="evenodd" clip-rule="evenodd" d="M9.50226 20.4799C9.51998 20.4832 9.53817 20.4832 9.5559 20.4799C9.59236 20.4749 9.97254 20.3353 10.3697 20.3604C10.6671 20.3783 10.9618 20.4269 11.2493 20.5049C11.7488 20.6365 12.3701 20.8972 12.7721 21.046C12.8792 21.0872 12.9841 21.1604 13.0612 21.1895C13.3683 21.309 13.3804 21.309 13.5607 21.3407C13.7727 21.3699 13.9896 21.2992 14.2162 21.2505C14.4939 21.1895 14.969 21.1603 15.3856 21.0994C15.5204 21.0808 15.6532 21.0506 15.7828 21.0093C15.7828 21.0093 15.4515 21.3407 14.6571 21.46C14.336 21.5087 14.0097 21.5129 13.6875 21.4722C13.434 21.4478 13.266 21.4112 13.1393 21.3748C12.9955 21.3333 12.7006 21.2236 12.3376 21.1338C12.0842 21.0679 11.8015 21.0192 11.4775 20.9584C10.6783 20.8121 9.81129 20.643 9.50226 20.4799Z" fill="#252211"/>
<path fill-rule="evenodd" clip-rule="evenodd" d="M8.60994 18.9753C8.4172 19.1384 8.21274 19.2944 8.01308 19.4454L7.41135 19.9075C7.20672 20.0583 7.00682 20.2147 6.80204 20.3659C6.59725 20.517 6.39278 20.6607 6.17563 20.7996C6.36837 20.6364 6.57283 20.4852 6.77746 20.3366C6.98209 20.1881 7.19426 20.0425 7.39166 19.8917L7.9935 19.4287C8.20052 19.2777 8.40033 19.1215 8.60994 18.9753ZM7.54521 20.6809C7.54521 20.6809 7.76204 20.5005 8.03253 20.2473C8.36869 19.9331 8.78052 19.5308 8.91205 19.458L7.54521 20.6809Z" fill="#CFB66C"/>
<path fill-rule="evenodd" clip-rule="evenodd" d="M7.54196 20.6809C7.64925 20.5737 7.76377 20.469 7.87829 20.3665L8.05368 20.2155C8.10733 20.1674 8.16836 20.1132 8.22185 20.0595C8.32898 19.9525 8.43387 19.8378 8.54099 19.7283C8.5941 19.6732 8.65023 19.6211 8.70915 19.5723C8.73862 19.5462 8.77134 19.524 8.8065 19.5064C8.83589 19.4894 8.86753 19.4583 8.90881 19.4528C8.88455 19.4894 8.85532 19.5064 8.8309 19.538C8.80167 19.5624 8.77726 19.5917 8.75301 19.616C8.69937 19.6696 8.63849 19.7183 8.58485 19.7671C8.47033 19.8646 8.35098 19.9598 8.23646 20.0618C8.12194 20.1638 8.01481 20.2738 7.90013 20.3761C7.77598 20.4811 7.66146 20.583 7.54196 20.6809ZM8.99907 19.7062C8.99907 19.7062 8.20483 20.4836 8.04148 20.6102L8.99907 19.7062Z" fill="#CFB66C"/>
<path fill-rule="evenodd" clip-rule="evenodd" d="M8.99897 19.704C8.92753 19.7867 8.85092 19.8649 8.76961 19.938L8.52868 20.1669C8.45079 20.2448 8.37755 20.3229 8.29483 20.4008C8.20954 20.4739 8.13163 20.5454 8.04137 20.6128L8.27523 20.3838C8.35329 20.3058 8.43858 20.2402 8.52145 20.1622L8.75532 19.9331C8.83562 19.8528 8.91368 19.7748 8.99897 19.704ZM9.03543 20.1254C8.96221 20.3298 8.87595 20.5293 8.77716 20.7225C8.57253 21.132 8.2656 21.6435 8.13148 21.9043L9.03543 20.1254Z" fill="#CFB66C"/>
<path fill-rule="evenodd" clip-rule="evenodd" d="M9.034 20.1281C9.034 20.2181 9.00959 20.2961 8.98036 20.3741C8.95186 20.4521 8.91937 20.5285 8.88301 20.6031C8.8464 20.6762 8.80496 20.7543 8.76352 20.825C8.72207 20.8956 8.67342 20.9685 8.6368 21.0418L8.39073 21.4754C8.30544 21.62 8.22158 21.7654 8.13148 21.9043C8.19235 21.7483 8.27621 21.6022 8.35427 21.4584C8.43956 21.3138 8.51745 21.1694 8.5952 21.0198C8.63315 20.9453 8.6673 20.8689 8.6975 20.7909C8.73396 20.7128 8.77042 20.6397 8.79982 20.569C8.83628 20.4912 8.86551 20.4179 8.90213 20.3474C8.94341 20.2717 8.97794 20.1987 9.034 20.1281Z" fill="#CFB66C"/>
<path fill-rule="evenodd" clip-rule="evenodd" d="M9.90577 22.1289C9.90577 22.1289 9.66484 22.4481 9.68894 22.8524C9.75463 22.6407 9.83751 22.3165 9.90577 22.1289ZM10.1348 22.4489C10.1348 22.4489 10.0495 23.3162 9.97886 23.7426C10.0788 23.2497 10.0982 23.2911 10.1348 22.4489ZM11.7307 23.7939C11.7307 23.7939 11.3701 24.8539 11.3627 25.1484C11.4408 24.8455 11.5918 24.2275 11.7307 23.7939Z" fill="#DEC270"/>
<path fill-rule="evenodd" clip-rule="evenodd" d="M12.5707 22.0629C12.5707 22.0629 13.1555 23.0277 13.5941 23.8512C13.4754 23.4369 13.2024 22.6768 12.5707 22.0629Z" fill="#CBAF59"/>
<path fill-rule="evenodd" clip-rule="evenodd" d="M14.1474 23.4795C14.4685 24.0471 14.7581 24.6318 15.0148 25.2313C14.9661 24.817 14.8344 24.1081 14.1474 23.4795Z" fill="#E3C677"/>
<path fill-rule="evenodd" clip-rule="evenodd" d="M18.7666 24.9031C18.864 24.8422 19.0566 24.5107 19.2248 24.428C19.3927 24.3427 19.5194 24.3257 19.6706 24.1575C19.8216 23.9819 19.8633 23.8748 20.1943 23.7361C20.6574 23.536 20.3389 23.2778 20.3389 23.2778C20.3899 23.2277 20.4445 23.1813 20.5021 23.139C20.6216 23.0489 20.7604 22.9392 20.7483 22.7466C20.7313 22.4227 20.6704 21.9524 20.4047 21.6795C20.663 21.6258 21.1575 21.5893 21.4648 21.5114C21.8204 21.4212 21.9838 21.2944 21.9838 21.2944C21.9838 21.2944 21.7791 20.9461 22.1105 20.5953C22.4419 20.2445 22.7123 20.035 22.9121 19.6426C22.683 19.6133 22.3339 19.4916 21.4429 19.8302C21.4909 19.8527 21.5373 19.8788 21.5818 19.9081C21.5818 19.9081 21.0335 20.0592 20.8337 20.2273C20.4853 20.5221 20.4413 20.7633 20.0637 20.9437C19.6862 21.1241 19.306 21.0752 18.9918 21.2213C18.6777 21.3676 18.6312 21.4919 18.5166 21.5455C18.541 21.5748 18.5117 21.6235 18.558 21.6649C18.5288 21.7064 18.3582 21.984 18.1852 21.984C18.2022 22.0498 18.3484 22.0985 18.3484 22.0985C18.3484 22.0985 18.2412 22.1766 17.9683 22.196C18.1071 22.3406 18.2388 22.4981 18.6018 22.7272C18.5726 22.7881 18.4507 22.8783 18.4995 22.9929C18.5532 23.1074 18.6922 23.2634 19.2475 23.39C18.9649 23.4021 18.6336 23.4679 18.1874 23.407C17.7416 23.3534 17.6685 23.3218 17.3932 23.39C17.4224 23.4192 17.5003 23.4192 17.5686 23.4972C17.4955 23.502 17.0375 23.4435 16.8815 23.6483C16.7183 23.8602 16.6476 24.2088 16.6598 24.4426C16.5745 24.484 16.4916 24.5571 16.533 24.7082C16.5745 24.8594 16.7914 24.908 16.9303 25.003C17.0691 25.1052 17.0813 25.1417 17.213 25.1174C17.3517 25.0883 17.5564 24.9495 17.6759 24.9495C17.7954 24.9495 17.8805 25.0396 17.8805 25.0396C17.8805 25.0396 18.2046 24.8836 18.2362 24.9129C18.2655 24.9422 18.2411 25.1298 18.2727 25.1589C18.3048 25.1809 18.6692 24.9641 18.7666 24.9031Z" fill="#ECD592"/>
<path fill-rule="evenodd" clip-rule="evenodd" d="M25.8437 15.1533C24.3209 11.2207 20.5563 10.4922 20.5563 10.4922H9.81608L9.85751 14.4978H11.9964V23.4424H9.81592V27.4408H20.259C22.7759 27.4408 24.7934 24.9115 24.7934 24.9115C28.0243 20.3261 25.8436 15.1533 25.8436 15.1533H25.8437ZM20.315 22.2166C20.315 22.2166 19.496 23.3986 18.6047 23.3986H16.8219L16.7796 14.5075H19.0677C19.0677 14.5075 20.1277 14.7292 20.8683 16.827C20.8683 16.827 21.8502 19.8306 20.315 22.2166Z" fill="white" fill-opacity="0.8"/>
<path d="M38.5658 13.8213H42.5153C43.479 13.8213 44.3351 14.0106 45.0837 14.3892C45.8323 14.7591 46.4131 15.2883 46.8261 15.9767C47.2391 16.6564 47.4456 17.4437 47.4456 18.3386C47.4456 19.2335 47.2391 20.0251 46.8261 20.7134C46.4131 21.3932 45.8323 21.9224 45.0837 22.301C44.3351 22.671 43.479 22.856 42.5153 22.856H38.5658V13.8213ZM42.4378 21.4362C43.1004 21.4362 43.6812 21.3115 44.1803 21.0619C44.6879 20.8038 45.0751 20.4424 45.3419 19.9778C45.6172 19.5045 45.7549 18.9581 45.7549 18.3386C45.7549 17.7191 45.6172 17.177 45.3419 16.7124C45.0751 16.2391 44.6879 15.8777 44.1803 15.6282C43.6812 15.3701 43.1004 15.241 42.4378 15.241H40.2437V21.4362H42.4378ZM53.4495 22.985C52.5288 22.985 51.6985 22.7871 50.9585 22.3913C50.2185 21.9869 49.6377 21.4319 49.2161 20.7263C48.7945 20.0122 48.5837 19.2163 48.5837 18.3386C48.5837 17.461 48.7945 16.6693 49.2161 15.9638C49.6377 15.2496 50.2185 14.6946 50.9585 14.2988C51.6985 13.8944 52.5288 13.6922 53.4495 13.6922C54.3702 13.6922 55.2005 13.8944 55.9405 14.2988C56.6805 14.6946 57.2613 15.2453 57.6829 15.9509C58.1045 16.6564 58.3153 17.4523 58.3153 18.3386C58.3153 19.2249 58.1045 20.0208 57.6829 20.7263C57.2613 21.4319 56.6805 21.9869 55.9405 22.3913C55.2005 22.7871 54.3702 22.985 53.4495 22.985ZM53.4495 21.5137C54.0518 21.5137 54.5939 21.3803 55.0757 21.1136C55.5576 20.8382 55.9362 20.4596 56.2115 19.9778C56.4869 19.4873 56.6245 18.9409 56.6245 18.3386C56.6245 17.7363 56.4869 17.1942 56.2115 16.7124C55.9362 16.2219 55.5576 15.8433 55.0757 15.5766C54.5939 15.3012 54.0518 15.1636 53.4495 15.1636C52.8472 15.1636 52.3051 15.3012 51.8232 15.5766C51.3414 15.8433 50.9628 16.2219 50.6875 16.7124C50.4121 17.1942 50.2744 17.7363 50.2744 18.3386C50.2744 18.9409 50.4121 19.4873 50.6875 19.9778C50.9628 20.4596 51.3414 20.8382 51.8232 21.1136C52.3051 21.3803 52.8472 21.5137 53.4495 21.5137ZM66.2632 18.2354H67.8508V21.8363C67.3861 22.2063 66.844 22.4903 66.2245 22.6882C65.605 22.8861 64.9683 22.985 64.3143 22.985C63.3936 22.985 62.5633 22.7871 61.8233 22.3913C61.0833 21.9869 60.5025 21.4319 60.0809 20.7263C59.6593 20.0208 59.4485 19.2249 59.4485 18.3386C59.4485 17.4523 59.6593 16.6564 60.0809 15.9509C60.5025 15.2453 61.0833 14.6946 61.8233 14.2988C62.5719 13.8944 63.4108 13.6922 64.3401 13.6922C65.0973 13.6922 65.7857 13.817 66.4052 14.0665C67.0247 14.316 67.5453 14.6817 67.9669 15.1636L66.9086 16.1961C66.2202 15.5077 65.3899 15.1636 64.4176 15.1636C63.7808 15.1636 63.2129 15.2969 62.7139 15.5637C62.2234 15.8304 61.8362 16.2047 61.5523 16.6865C61.2769 17.1684 61.1393 17.7191 61.1393 18.3386C61.1393 18.9409 61.2769 19.483 61.5523 19.9649C61.8362 20.4467 62.2234 20.8253 62.7139 21.1006C63.2129 21.376 63.7765 21.5137 64.4047 21.5137C65.1102 21.5137 65.7298 21.3588 66.2632 21.049V18.2354ZM76.8398 21.4491V22.856H70.0638V13.8213H76.6591V15.2281H71.7416V17.5771H76.1041V18.9581H71.7416V21.4491H76.8398Z" fill="white"/>
</svg>
