<svg width="82" height="38" viewBox="0 0 82 38" fill="none" xmlns="http://www.w3.org/2000/svg">
<rect x="0.128784" y="0.571533" width="81.7425" height="36.569" rx="6.45336" fill="#282A3F"/>
<path d="M17.4103 12.0831L13.7811 22.7166H15.9133L16.9385 19.6137H19.8872L20.9397 22.7166H23.1172L19.488 12.0831H17.4103ZM19.3791 17.8535H17.4738L18.2632 15.5127C18.3176 15.3494 18.3721 15.1951 18.4174 15.0318C18.4719 15.1951 18.5172 15.3585 18.5807 15.5218L19.3791 17.8535Z" fill="white"/>
<path d="M26.7101 17.8811C25.7302 17.4909 25.6214 17.3095 25.6214 17.0282C25.6214 16.6744 25.9208 16.4476 26.4016 16.4476C26.9823 16.4476 27.4269 16.6744 27.6446 16.8105L28.062 17.0736L28.6154 15.386L28.3705 15.2227C27.8896 14.9052 27.1638 14.7237 26.4289 14.7237C24.7866 14.7237 23.5981 15.758 23.5981 17.1915C23.5981 18.5071 24.7594 19.2057 25.7393 19.5596C26.7101 19.9225 26.7918 20.1765 26.7918 20.485C26.7918 21.0657 26.1748 21.1564 25.821 21.1564C25.2584 21.1564 24.6506 20.9115 24.3058 20.7119L23.8884 20.4669L23.344 22.1907L23.6072 22.345C24.206 22.6988 24.9953 22.8984 25.7937 22.8984C27.5993 22.8984 28.815 21.8823 28.815 20.3762C28.815 18.8428 27.6083 18.2168 26.7101 17.8811Z" fill="white"/>
<path d="M32.0178 13.0358L29.9855 13.6527V14.8685H28.8967V16.6196H29.9946V20.0945C29.9946 21.0653 30.1942 21.7549 30.5934 22.2176C30.9835 22.6531 31.5823 22.889 32.2628 22.889C32.8798 22.889 33.3243 22.762 33.533 22.6894L33.8052 22.5896L33.6963 20.8294L33.2336 20.9746C33.0884 21.0109 32.9342 21.0472 32.5985 21.0472C32.3535 21.0472 32.0178 21.0472 32.0178 20.0582V16.6196H33.8596V14.8685H32.0269L32.0178 13.0358Z" fill="white"/>
<path d="M38.8043 14.7963L38.4323 14.7509C38.3234 14.7328 38.2145 14.7237 38.0694 14.7237C37.4252 14.7237 36.8354 14.9868 36.3818 15.4495L36.3637 14.8689H34.4583L34.4856 15.2771C34.5218 15.876 34.5491 16.5746 34.5491 17.4637V22.7261H36.6086V18.5616C36.6086 18.362 36.6268 18.1714 36.6449 18.0263C36.7992 17.2097 37.3072 16.7016 37.9877 16.7016C38.151 16.7016 38.2508 16.7016 38.3416 16.7197L38.8043 16.8196V14.7963Z" fill="white"/>
<path d="M42.5606 14.7237C40.2651 14.7237 38.6592 16.4203 38.6592 18.861C38.6592 21.229 40.2107 22.8894 42.4336 22.8894C44.3207 22.8894 46.344 21.5919 46.344 18.743C46.3622 16.375 44.8016 14.7237 42.5606 14.7237ZM44.2754 18.7793C44.2754 20.1493 43.5314 21.1474 42.5152 21.1474C41.4991 21.1474 40.7641 20.1584 40.7641 18.8156C40.7641 17.9446 41.1452 16.4657 42.5515 16.4657C43.9125 16.4566 44.2754 17.9718 44.2754 18.7793Z" fill="white"/>
<path d="M53.1125 12.927C52.432 12.3191 51.4158 12.0106 50.0912 12.0106C49.202 12.0106 48.3582 12.0741 47.587 12.2102L47.2695 12.2647V22.7258H49.3109V18.8335C49.5196 18.8517 49.7373 18.8607 49.946 18.8607C51.3251 18.8607 52.4955 18.4343 53.2395 17.6631C53.8201 17.0734 54.1105 16.2749 54.1105 15.286C54.1014 14.3333 53.7566 13.4986 53.1125 12.927ZM52.06 15.3495C52.06 16.8375 50.7535 17.0552 49.9732 17.0552C49.7101 17.0552 49.4923 17.0461 49.3018 17.0189V13.8252C49.5014 13.798 49.7736 13.7889 50.1184 13.7889C51.0075 13.798 52.06 14.0702 52.06 15.3495Z" fill="white"/>
<path d="M60.3707 20.6393V17.99C60.3707 15.876 59.2729 14.7237 57.295 14.7237C56.3787 14.7237 55.4169 14.9777 54.7455 15.3951L54.4915 15.5584L55.0449 17.1915L55.4714 16.9012C55.8978 16.6109 56.5148 16.4385 57.1226 16.4385C57.5309 16.4294 57.8394 16.5292 58.039 16.7288C58.2023 16.8921 58.3021 17.1371 58.3384 17.4456C56.7325 17.491 55.553 17.8811 54.8453 18.5888C54.3463 19.0787 54.0923 19.7138 54.0923 20.4669C54.0923 21.6645 54.9633 22.8894 56.6418 22.8894C57.3585 22.8894 58.0299 22.6626 58.5562 22.2543L58.6106 22.717H60.5613L60.4978 22.2724C60.398 21.846 60.3707 21.2925 60.3707 20.6393ZM56.9412 21.1655C56.6327 21.1655 56.1246 21.0566 56.1246 20.3217C56.1246 20.0405 56.2063 19.8227 56.3877 19.6413C56.6327 19.4054 57.1589 19.1332 58.3566 19.1059V19.9497C58.3566 20.0132 58.3475 20.1221 58.3203 20.2401C58.166 20.6665 57.7214 21.1655 56.9412 21.1655Z" fill="white"/>
<path d="M66.0322 14.8683L64.5442 19.2868C64.5079 19.3957 64.4716 19.5136 64.4353 19.6225C64.399 19.5136 64.3627 19.4047 64.3174 19.3049L62.6933 14.8683H60.4432L63.2558 21.918L63.2649 21.9361C63.3103 22.0268 63.3284 22.0813 63.3284 22.0994C63.3103 22.1357 63.2831 22.2083 63.2649 22.2537C63.0199 22.7799 62.657 23.2608 62.2941 23.5511L62.285 23.5602C61.8767 23.9049 61.4503 24.0683 61.287 24.1136L60.9241 24.2316L61.4503 25.9917L61.786 25.9282C61.9947 25.8919 62.7205 25.7195 63.5553 25.0209C64.5533 24.1408 65.2156 22.7255 66.0866 20.43L68.2188 14.8592L66.0322 14.8683Z" fill="white"/>
<path d="M21.3026 15.0137C22.6272 13.6618 24.8773 12.8543 27.3179 12.8543C28.2706 12.8543 29.196 12.9723 30.067 13.2173L30.1396 13.2354L31.7093 12.7636L31.0016 12.5005C29.6678 11.9924 28.1254 11.7202 26.5467 11.7202C24.2513 11.7202 22.1191 12.2737 20.5132 13.2808L20.3408 13.3896L21.0032 15.3222L21.3026 15.0137Z" fill="#FF0000"/>
</svg>
