<svg width="82" height="38" viewBox="0 0 82 38" fill="none" xmlns="http://www.w3.org/2000/svg">
<rect x="0.0152588" y="0.571533" width="81.7425" height="36.569" rx="6.45336" fill="#009640"/>
<path fill-rule="evenodd" clip-rule="evenodd" d="M0.0152588 7.56274H81.7578V30.1495H0.0152588V7.56274Z" fill="#009640"/>
<path fill-rule="evenodd" clip-rule="evenodd" d="M3.52393 25.5646H15.1117C15.5449 25.5626 15.9597 25.3848 16.2653 25.0701C16.5709 24.7555 16.7425 24.3296 16.7425 23.8856V12.1628H5.15474C4.72411 12.1648 4.31157 12.3405 4.00637 12.6519C3.70117 12.9632 3.52785 13.3852 3.52393 13.8266V25.5646ZM6.64341 23.4255L13.5183 22.1912V14.8233L6.64341 16.0653V23.4255Z" fill="#363E92"/>
<path fill-rule="evenodd" clip-rule="evenodd" d="M51.7309 17.5831C52.8306 17.5831 53.7133 18.5645 53.7133 20.1132C53.7133 21.6619 52.8306 22.6816 51.7309 22.6816C51.4489 22.6867 51.1698 22.6234 50.9163 22.4968C50.6627 22.3702 50.442 22.184 50.2721 21.9532C49.9468 21.4758 49.7839 20.902 49.8083 20.3202C49.7471 19.683 49.8748 19.0417 50.1749 18.4801C50.3407 18.2095 50.57 17.9857 50.8417 17.829C51.1135 17.6724 51.4191 17.5878 51.7309 17.5831ZM49.8682 14.0256V17.2918C50.2647 16.8412 50.7826 16.5213 51.3566 16.3726C51.9305 16.2238 52.5346 16.2529 53.0924 16.4561C54.5287 16.8624 55.3366 18.2424 55.3366 20.1438C55.3758 20.6498 55.3125 21.1585 55.1506 21.6382C54.9888 22.1178 54.7318 22.5579 54.396 22.9309C54.0602 23.3039 53.6527 23.6016 53.1992 23.8055C52.7457 24.0093 52.256 24.1148 51.7608 24.1153C51.2741 24.1417 50.7875 24.0616 50.3333 23.8803C49.8791 23.699 49.4678 23.4206 49.1267 23.0638C48.7857 22.707 48.5226 22.2798 48.3551 21.8107C48.1875 21.3416 48.1194 20.8414 48.1551 20.3432V14.0256H49.8682ZM46.7188 16.042H47.22V17.7824H46.7188C46.3596 17.7865 46.0163 17.935 45.763 18.196C45.5097 18.4571 45.3667 18.8097 45.3647 19.1778V23.9696H43.6741V19.1701C43.6731 18.7601 43.7512 18.3539 43.9038 17.9748C44.0565 17.5958 44.2807 17.2514 44.5637 16.9614C44.8466 16.6714 45.1826 16.4416 45.5525 16.2852C45.9223 16.1287 46.3187 16.0487 46.7188 16.0497V16.042ZM40.0534 20.9872H37.5922C37.6106 21.0744 37.6382 21.1592 37.6745 21.2402C37.8177 21.5977 38.0512 21.9097 38.3509 22.1441C38.6507 22.3786 39.0059 22.527 39.3801 22.5743L39.7018 22.6126C39.8064 22.6205 39.9114 22.6205 40.016 22.6126C40.6477 22.6184 41.2705 22.4601 41.8263 22.1526C41.8724 22.537 41.8724 22.9258 41.8263 23.3103C41.6842 24.0386 40.3975 24.077 39.9262 24.077C39.7766 24.077 39.627 24.077 39.4774 24.077C39.324 24.0684 39.1714 24.0479 39.021 24.0156C38.1183 23.8505 37.3092 23.3431 36.7548 22.5945C36.2004 21.8458 35.9412 20.9107 36.0287 19.9752C36.0188 19.1894 36.2535 18.4209 36.6988 17.7812C37.144 17.1414 37.7767 16.6638 38.5049 16.4177C39.0347 16.2448 39.5989 16.2139 40.1437 16.328C40.6885 16.4421 41.1957 16.6973 41.6169 17.0694C41.7567 17.2049 41.8891 17.3482 42.0134 17.4988C42.1295 17.6555 42.2321 17.8222 42.3201 17.9971C42.5094 18.3049 42.6248 18.6544 42.6567 19.0168C42.6562 19.39 42.5381 19.753 42.3201 20.0518C42.1183 20.3088 41.8626 20.5159 41.572 20.6575C41.1045 20.8834 40.5926 20.9962 40.0758 20.9872H40.0534ZM37.5548 19.6685H40.1282C40.6967 19.6685 41.355 19.3695 41.0259 18.5951C40.9867 18.5102 40.9417 18.4282 40.8912 18.3498C40.8306 18.2579 40.7603 18.1731 40.6818 18.0968C40.4624 17.8535 40.1785 17.6811 39.8649 17.6007C39.5513 17.5204 39.2216 17.5356 38.9163 17.6444C38.8053 17.6837 38.6977 17.7324 38.5946 17.7901C38.4915 17.843 38.3959 17.9101 38.3104 17.9894C37.8814 18.4422 37.6173 19.0323 37.5623 19.6608L37.5548 19.6685ZM33.1337 14.1023V16.1417H35.924L35.8642 16.7934C35.7968 17.3684 35.4752 17.5601 34.8393 17.5601H33.1337V21.2632C33.1223 21.4163 33.1223 21.5701 33.1337 21.7232C33.2459 22.2983 33.5676 22.4516 34.0987 22.4899C34.714 22.5621 35.3373 22.494 35.924 22.2906C35.9913 22.9269 35.924 23.7703 35.55 23.9083C35.0627 24.0435 34.5583 24.103 34.0538 24.0846C33.8154 24.0777 33.5778 24.052 33.3431 24.008C32.8769 23.8913 32.4454 23.6597 32.0864 23.3333C31.632 22.7587 31.4002 22.0326 31.4355 21.2939V14.1023H33.1337ZM26.4608 16.042H27.0742C27.8824 16.042 28.6576 16.3706 29.2298 16.9555C29.802 17.5405 30.1244 18.3342 30.1264 19.1625V23.9696H28.4432V19.1701C28.435 18.8023 28.2906 18.4515 28.0393 18.1888C27.7851 17.9278 27.4414 17.7792 27.0817 17.7748H26.4683C26.1086 17.7792 25.7649 17.9278 25.5108 18.1888C25.3847 18.3174 25.2847 18.4704 25.2167 18.6388C25.1486 18.8072 25.1138 18.9878 25.1143 19.1701V23.9696H23.4161V19.1701C23.4151 18.7601 23.4932 18.3539 23.6459 17.9748C23.7985 17.5958 24.0228 17.2514 24.3057 16.9614C24.5886 16.6714 24.9247 16.4416 25.2945 16.2852C25.6643 16.1287 26.0607 16.0487 26.4608 16.0497V16.042ZM20.2144 13.949H21.9275V23.9696H20.2144V13.949ZM66.3932 16.042H66.9992C67.4 16.041 67.7971 16.1209 68.1678 16.2772C68.5384 16.4335 68.8754 16.6631 69.1596 16.9528C69.4437 17.2426 69.6693 17.5869 69.8236 17.966C69.9779 18.3451 70.0578 18.7517 70.0588 19.1625V23.9696H68.3233V19.1701C68.3258 18.9868 68.2911 18.805 68.2216 18.6361C68.1521 18.4672 68.0492 18.3149 67.9193 18.1888C67.7942 18.0585 67.6452 17.9549 67.4808 17.8839C67.3165 17.8128 67.1401 17.7757 66.9618 17.7748H66.3558C66.1773 17.7749 66.0007 17.8116 65.8363 17.8827C65.6718 17.9538 65.5229 18.0579 65.3983 18.1888C65.2698 18.316 65.1679 18.4685 65.0984 18.6371C65.029 18.8058 64.9936 18.9871 64.9943 19.1701V23.9696H63.3037V19.1701C63.2965 18.7577 63.3707 18.348 63.5216 17.9656C63.6726 17.5832 63.8973 17.236 64.1822 16.9447C64.4672 16.6533 64.8065 16.4239 65.18 16.2701C65.5535 16.1164 65.9534 16.0414 66.3558 16.0497L66.3932 16.042ZM71.4353 13.949H73.1558V23.9696H71.4353V13.949ZM77.9286 16.4101H76.2304L73.1185 19.9828L76.5596 23.9543H78.2577L74.8241 19.9828L77.9062 16.4101H77.9286ZM60.7228 20.5349V20.4965C60.3492 20.5226 59.9743 20.5226 59.6007 20.4965C59.1289 20.4624 58.6557 20.5384 58.2167 20.7189C58.0659 20.7872 57.9341 20.8932 57.8335 21.0271C57.7329 21.161 57.6666 21.3186 57.6407 21.4856V21.5392C57.6161 21.671 57.618 21.8065 57.6461 21.9375C57.6742 22.0685 57.7281 22.1923 57.8043 22.3013C57.8806 22.4103 57.9777 22.5023 58.0898 22.5716C58.2018 22.6409 58.3265 22.6862 58.4561 22.7046C58.9827 22.7942 59.5233 22.7249 60.0121 22.5053C60.1702 22.4083 60.3056 22.277 60.409 22.1207C60.5124 21.9645 60.5812 21.7869 60.6106 21.6006C60.6706 21.2488 60.6957 20.8918 60.6854 20.5349H60.7228ZM58.6282 16.1187C59.5138 15.9935 60.4142 16.1916 61.1716 16.6784C61.4513 16.9072 61.6764 17.1982 61.8299 17.5294C62.0003 17.9506 62.0941 18.4001 62.1067 18.8558V21.1559C62.1604 21.7081 62.0453 22.2637 61.7772 22.7458C61.5091 23.228 61.1015 23.6128 60.6106 23.847C60.2152 24.0191 59.7908 24.1103 59.3613 24.1153C57.4462 24.1613 55.9949 23.1723 56.1446 21.3629C56.2343 20.0595 57.3265 19.4998 58.5982 19.4078C59.1967 19.3618 60.2515 19.4998 60.633 19.4078C60.6541 19.0026 60.5903 18.5974 60.446 18.2194C60.3975 18.0811 60.3202 17.9553 60.2194 17.8507C60.1186 17.7461 59.9968 17.6652 59.8625 17.6138C59.4172 17.4619 58.9453 17.4096 58.4786 17.4604C57.8781 17.4813 57.2932 17.6609 56.7804 17.9818V17.3071C56.7723 17.0892 56.8187 16.8728 56.9151 16.6784C57.1694 16.2644 58.0671 16.134 58.6057 16.0957L58.6282 16.1187Z" fill="white"/>
</svg>
