<svg width="83" height="38" viewBox="0 0 83 38" fill="none" xmlns="http://www.w3.org/2000/svg">
<rect x="0.799072" y="0.571533" width="81.7425" height="36.569" rx="6.45336" fill="#9BB6BA"/>
<path d="M32.5281 18.0649C32.5281 26.0842 26.0272 32.585 18.008 32.585C9.98883 32.585 3.48797 26.0842 3.48797 18.0649C3.48797 10.0457 9.98883 3.54486 18.008 3.54486C26.0272 3.54486 32.5281 10.0457 32.5281 18.0649Z" fill="#9BB6BA" stroke="white" stroke-width="1.07556"/>
<path opacity="0.6" d="M18.485 15.8567L12.6644 18.5007L18.485 21.9443L24.3125 18.5007L18.485 15.8567Z" fill="black"/>
<path opacity="0.45" d="M12.6644 18.5008L18.4855 21.9444V8.83643L12.6644 18.5008Z" fill="black"/>
<path opacity="0.8" d="M18.486 8.83643V21.9444L24.3141 18.5008L18.486 8.83643Z" fill="black"/>
<path opacity="0.45" d="M12.6644 19.6099L18.4855 27.8155V23.0464L12.6644 19.6099Z" fill="black"/>
<path opacity="0.8" d="M18.486 23.0464V27.8155L24.3141 19.6099L18.486 23.0464Z" fill="black"/>
<path d="M38.1295 8.45665V10.7153H41.1626V12.148H38.1295V14.5357H41.5498V16.0071H36.3225V6.98529H41.5498V8.45665H38.1295ZM49.3225 6.9982V8.45665H46.9219V16.0071H45.1149V8.45665H42.7143V6.9982H49.3225ZM58.1139 6.9982V16.0071H56.307V12.1738H52.4479V16.0071H50.6409V6.9982H52.4479V10.7024H56.307V6.9982H58.1139Z" fill="white"/>
<path d="M43.4261 28.298V29.7048H36.6501V20.6701H43.2454V22.077H38.3279V24.426H42.6904V25.807H38.3279V28.298H43.4261ZM51.2078 29.7048L49.3622 27.059C49.2847 27.0676 49.1686 27.0719 49.0137 27.0719H46.9744V29.7048H45.2966V20.6701H49.0137C49.7967 20.6701 50.4765 20.7992 51.053 21.0573C51.6381 21.3155 52.0855 21.6855 52.3953 22.1673C52.705 22.6492 52.8599 23.2214 52.8599 23.8839C52.8599 24.5637 52.6921 25.1488 52.3565 25.6392C52.0296 26.1297 51.5563 26.4954 50.9368 26.7363L53.0148 29.7048H51.2078ZM51.1691 23.8839C51.1691 23.3074 50.9798 22.8643 50.6012 22.5545C50.2226 22.2448 49.6676 22.0899 48.9363 22.0899H46.9744V25.6908H48.9363C49.6676 25.6908 50.2226 25.536 50.6012 25.2262C50.9798 24.9078 51.1691 24.4604 51.1691 23.8839ZM58.9189 29.8339C58.0068 29.8339 57.1808 29.636 56.4408 29.2402C55.7094 28.8358 55.1329 28.2808 54.7113 27.5752C54.2983 26.8697 54.0918 26.0737 54.0918 25.1875C54.0918 24.3012 54.3026 23.5053 54.7242 22.7997C55.1458 22.0942 55.7223 21.5435 56.4537 21.1477C57.1937 20.7433 58.0197 20.5411 58.9318 20.5411C59.6718 20.5411 60.3472 20.6701 60.9582 20.9283C61.5691 21.1864 62.0853 21.5607 62.507 22.0512L61.4228 23.0708C60.7689 22.3652 59.9643 22.0124 59.0092 22.0124C58.3897 22.0124 57.8347 22.1501 57.3443 22.4254C56.8538 22.6922 56.4709 23.0665 56.1956 23.5483C55.9202 24.0302 55.7826 24.5766 55.7826 25.1875C55.7826 25.7984 55.9202 26.3448 56.1956 26.8266C56.4709 27.3085 56.8538 27.6871 57.3443 27.9624C57.8347 28.2292 58.3897 28.3625 59.0092 28.3625C59.9643 28.3625 60.7689 28.0055 61.4228 27.2913L62.507 28.3238C62.0853 28.8143 61.5648 29.1886 60.9452 29.4467C60.3343 29.7048 59.6589 29.8339 58.9189 29.8339ZM69.95 28.2851V29.7048H63.2901V28.582L66.8782 25.1746C67.2826 24.7874 67.5537 24.4518 67.6913 24.1679C67.8376 23.8753 67.9107 23.5871 67.9107 23.3031C67.9107 22.8815 67.7688 22.5588 67.4848 22.3351C67.2009 22.1114 66.7835 21.9995 66.2329 21.9995C65.3122 21.9995 64.6066 22.3136 64.1162 22.9417L62.9417 22.0382C63.2944 21.565 63.7677 21.1993 64.3614 20.9412C64.9637 20.6744 65.6349 20.5411 66.3748 20.5411C67.3557 20.5411 68.1388 20.7734 68.7239 21.238C69.309 21.7027 69.6015 22.3351 69.6015 23.1353C69.6015 23.6258 69.4983 24.0861 69.2918 24.5163C69.0852 24.9466 68.6894 25.437 68.1043 25.9877L65.6908 28.2851H69.95ZM74.6493 29.8339C73.9266 29.8339 73.2812 29.6532 72.7133 29.2918C72.1454 28.9218 71.698 28.3883 71.371 27.6914C71.0441 26.9858 70.8806 26.1512 70.8806 25.1875C70.8806 24.2238 71.0441 23.3935 71.371 22.6965C71.698 21.9909 72.1454 21.4574 72.7133 21.0961C73.2812 20.7261 73.9266 20.5411 74.6493 20.5411C75.3721 20.5411 76.0175 20.7261 76.5854 21.0961C77.1619 21.4574 77.6136 21.9909 77.9406 22.6965C78.2675 23.3935 78.431 24.2238 78.431 25.1875C78.431 26.1512 78.2675 26.9858 77.9406 27.6914C77.6136 28.3883 77.1619 28.9218 76.5854 29.2918C76.0175 29.6532 75.3721 29.8339 74.6493 29.8339ZM74.6493 28.3754C75.2947 28.3754 75.8023 28.1087 76.1723 27.5752C76.5509 27.0417 76.7402 26.2458 76.7402 25.1875C76.7402 24.1291 76.5509 23.3332 76.1723 22.7997C75.8023 22.2663 75.2947 21.9995 74.6493 21.9995C74.0126 21.9995 73.505 22.2663 73.1264 22.7997C72.7564 23.3332 72.5714 24.1291 72.5714 25.1875C72.5714 26.2458 72.7564 27.0417 73.1264 27.5752C73.505 28.1087 74.0126 28.3754 74.6493 28.3754Z" fill="white"/>
</svg>
