<svg width="83" height="38" viewBox="0 0 83 38" fill="none" xmlns="http://www.w3.org/2000/svg">
<rect x="0.685547" y="0.571533" width="81.7425" height="36.569" rx="6.45336" fill="#345D9D"/>
<path d="M17.8945 3.7981C9.57898 3.7981 2.83667 10.5404 2.83667 18.8559C2.83667 27.1714 9.57898 33.9138 17.8945 33.9138C26.2099 33.9138 32.9523 27.1714 32.9523 18.8559C32.9349 10.5404 26.2099 3.7981 17.8945 3.7981Z" fill="white"/>
<path d="M17.8945 3.7981C9.57898 3.7981 2.83667 10.5404 2.83667 18.8559C2.83667 27.1714 9.57898 33.9138 17.8945 33.9138C26.2099 33.9138 32.9523 27.1714 32.9523 18.8559C32.9349 10.5404 26.2099 3.7981 17.8945 3.7981Z" fill="#345D9D"/>
<path d="M3.91223 18.8559C3.91223 11.1344 10.173 4.87365 17.8945 4.87365C25.6136 4.87365 31.8601 11.1324 31.8768 18.8572C31.8761 26.5781 25.6155 32.8382 17.8945 32.8382C10.173 32.8382 3.91223 26.5774 3.91223 18.8559Z" stroke="white" stroke-width="2.15112"/>
<path d="M16.5633 24.6298L18.1192 19.3398L20.505 18.6136L21.0236 16.8675L18.6379 17.611L21.2137 8.93236C21.2829 8.65568 21.0928 8.37915 20.7988 8.37915H17.566C17.3068 8.37915 17.082 8.552 17.0128 8.79402L13.9701 19.0631L11.5671 19.8065L11.0485 21.5353L13.4341 20.7919L11.2732 28.1047H24.0662C24.3256 28.1047 24.5504 27.9318 24.6194 27.6898L25.3455 25.183C25.4148 24.9065 25.2246 24.6298 24.9306 24.6298H16.5633Z" fill="white"/>
<path d="M42.8212 13.8213H44.4991V21.4362H49.2229V22.856H42.8212V13.8213ZM51.5359 15.241H48.5415V13.8213H56.2081V15.241H53.2137V22.856H51.5359V15.241ZM61.523 22.985C60.611 22.985 59.7849 22.7871 59.0449 22.3913C58.3136 21.9869 57.7371 21.4319 57.3154 20.7263C56.9024 20.0208 56.6959 19.2249 56.6959 18.3386C56.6959 17.4523 56.9067 16.6564 57.3283 15.9509C57.75 15.2453 58.3265 14.6946 59.0578 14.2988C59.7978 13.8944 60.6239 13.6922 61.5359 13.6922C62.2759 13.6922 62.9514 13.8213 63.5623 14.0794C64.1732 14.3375 64.6895 14.7118 65.1111 15.2023L64.0269 16.2219C63.373 15.5163 62.5685 15.1636 61.6134 15.1636C60.9939 15.1636 60.4389 15.3012 59.9484 15.5766C59.458 15.8433 59.0751 16.2176 58.7997 16.6995C58.5244 17.1813 58.3867 17.7277 58.3867 18.3386C58.3867 18.9495 58.5244 19.4959 58.7997 19.9778C59.0751 20.4596 59.458 20.8382 59.9484 21.1136C60.4389 21.3803 60.9939 21.5137 61.6134 21.5137C62.5685 21.5137 63.373 21.1566 64.0269 20.4424L65.1111 21.4749C64.6895 21.9654 64.1689 22.3397 63.5494 22.5978C62.9385 22.856 62.263 22.985 61.523 22.985Z" fill="white"/>
</svg>
