<svg width="83" height="37" viewBox="0 0 83 37" fill="none" xmlns="http://www.w3.org/2000/svg">
<rect x="0.458252" width="81.7425" height="36.569" rx="6.45336" fill="#39A5DB"/>
<path d="M68.0022 19.5603C67.738 19.5478 67.5345 19.5317 67.331 19.5317C64.8014 19.5317 62.2718 19.5317 59.7421 19.5495C59.3726 19.5495 59.2816 19.4353 59.2958 19.0871C59.3244 18.4336 59.3333 17.7766 59.3065 17.1231C59.2941 16.7946 59.378 16.7036 59.7118 16.7071C61.2703 16.725 62.8305 16.7161 64.389 16.7071C66.749 16.7071 69.1073 16.7071 71.4655 16.6875C71.7726 16.6875 71.835 16.775 71.8225 17.0607C71.8029 17.8587 71.7922 18.6586 71.8225 19.4567C71.8376 19.6364 71.8071 19.8171 71.7338 19.9819C71.6604 20.1467 71.5467 20.2903 71.403 20.3994C69.4393 22.0866 67.4756 23.7917 65.5226 25.4879C64.8085 26.1074 64.0944 26.7287 63.3946 27.3519C63.3322 27.4072 63.234 27.4483 63.25 27.5929C63.4344 27.6317 63.624 27.6383 63.8106 27.6125C66.3652 27.6125 68.9216 27.6125 71.4762 27.5982C71.7315 27.5982 71.8226 27.6589 71.8154 27.9232C71.7958 28.657 71.794 29.3908 71.8047 30.1246C71.8047 30.3639 71.7369 30.4406 71.4941 30.4389C67.5666 30.421 63.6351 30.4091 59.6993 30.4031C59.4101 30.4031 59.2905 30.3335 59.2994 30.0104C59.3226 29.1337 59.319 28.2535 59.2994 27.3768C59.2998 27.2799 59.3243 27.1846 59.3708 27.0995C59.4172 27.0144 59.4841 26.9422 59.5654 26.8894L67.8523 19.7174C67.8933 19.6959 67.9201 19.6531 68.0022 19.5603Z" fill="#222121"/>
<path d="M36.3648 20.9579C36.3648 22.1773 36.3916 23.395 36.3648 24.6126C36.2934 27.3265 34.5582 29.7386 32.025 30.392C27.4567 31.5704 24.1095 28.6173 23.9292 24.7822C23.8042 22.1416 23.8899 19.4902 23.8756 16.8442C23.8756 16.655 23.9399 16.5907 24.1255 16.5925C24.911 16.5925 25.6983 16.5925 26.4838 16.5925C26.7891 16.5925 26.7319 16.7925 26.7319 16.9674C26.7319 18.8528 26.7319 20.74 26.7319 22.6272C26.7319 23.4646 26.648 24.3073 26.8123 25.1358C26.9797 25.937 27.4312 26.6506 28.0835 27.145C28.7357 27.6395 29.5447 27.8814 30.3613 27.8261C31.1778 27.7709 31.9469 27.4222 32.5266 26.8444C33.1063 26.2667 33.4576 25.4987 33.5157 24.6823C33.5782 23.3218 33.5496 21.9577 33.5549 20.5954C33.5549 19.3635 33.5549 18.1315 33.5549 16.8996C33.5549 16.6532 33.6246 16.5853 33.862 16.5871C34.5957 16.5978 35.3294 16.5961 36.0631 16.5764C36.3291 16.5764 36.3916 16.6657 36.3898 16.9174C36.3791 18.2654 36.3898 19.6152 36.3898 20.965L36.3648 20.9579Z" fill="#222121"/>
<path d="M4.66469 26.0005C4.66469 24.7168 4.66469 23.4313 4.66469 22.1475C4.65041 19.5123 7.06935 16.6877 10.1702 16.4574C13.1337 16.2378 15.4383 17.6447 16.5969 20.3639C16.9001 21.0784 17.0515 21.8481 17.0415 22.6243C17.0331 25.1667 17.0248 27.708 17.0165 30.248C17.0165 30.4409 16.9736 30.5426 16.7594 30.5408C15.9989 30.5408 15.2402 30.5301 14.4797 30.5408C14.1584 30.5408 14.2512 30.3212 14.2494 30.1605C14.2369 27.7377 14.2226 25.3131 14.2226 22.8903C14.253 21.9772 13.9338 21.087 13.33 20.4014C12.8861 19.9094 12.3086 19.5572 11.6679 19.3879C11.0272 19.2186 10.3512 19.2395 9.72215 19.448C8.47251 19.8658 7.47459 21.1066 7.41925 22.4046C7.32106 24.7346 7.36569 27.0682 7.35855 29.4C7.35855 29.6874 7.34605 29.9766 7.35855 30.2641C7.36926 30.4676 7.30321 30.5462 7.09613 30.5426C6.36241 30.5337 5.6287 30.5283 4.89498 30.5426C4.61828 30.5426 4.65219 30.373 4.65219 30.207V26.0005H4.66469Z" fill="#222121"/>
<path d="M57.0301 23.534C57.0301 25.7497 57.0301 27.9636 57.0301 30.1776C57.0301 30.4525 56.9586 30.5454 56.6819 30.5346C55.9679 30.5204 55.2681 30.5239 54.5593 30.5346C54.3344 30.5346 54.2344 30.4882 54.2362 30.2329C54.2446 25.7527 54.2475 21.2725 54.2452 16.7922C54.2452 16.5815 54.3308 16.553 54.5004 16.5548C55.2342 16.5637 55.9697 16.5815 56.7016 16.5637C56.9979 16.5637 57.039 16.6708 57.0372 16.9208C57.0372 19.1222 57.0372 21.3236 57.0372 23.5268L57.0301 23.534Z" fill="#222121"/>
<path d="M21.8897 23.5663C21.8897 25.7659 21.8897 27.9656 21.8897 30.1724C21.8897 30.4634 21.8201 30.5616 21.522 30.5527C20.8543 30.533 20.1848 30.5223 19.519 30.5527C19.1619 30.5687 19.0869 30.4313 19.0887 30.1045C19.1012 27.3032 19.0994 24.5001 19.0994 21.6987C19.0994 20.1133 19.0994 18.5296 19.0834 16.9441C19.0834 16.6817 19.1244 16.5763 19.4136 16.5871C20.1206 16.6037 20.8281 16.6007 21.5362 16.5781C21.8433 16.5781 21.9343 16.662 21.9325 16.9745C21.92 19.1741 21.9325 21.3738 21.9325 23.5806L21.8897 23.5663Z" fill="#222121"/>
<path d="M27.0007 10.2366C27.0007 10.8224 26.9917 11.2153 27.0007 11.6081C27.0007 11.8492 26.9007 11.9403 26.6703 11.9242C26.5789 11.9153 26.4868 11.9153 26.3953 11.9242C26.0382 11.9689 25.9543 11.7885 25.9757 11.4599C26.0254 10.7413 26.0368 10.0206 26.0097 9.30083C25.9904 8.99806 25.8593 8.71326 25.6418 8.50172C25.4244 8.29019 25.1361 8.16701 24.8329 8.15611C24.3365 8.14539 23.7116 8.80258 23.6937 9.38298C23.6723 10.0973 23.6937 10.7974 23.708 11.5046C23.708 11.935 23.6794 11.9439 23.158 11.9689C22.8152 11.985 22.742 11.8457 22.7473 11.5314C22.7652 10.392 22.7473 9.25083 22.7652 8.11146C22.7652 7.59535 22.908 7.4757 23.3491 7.52213C23.4598 7.53464 23.5723 7.56499 23.6116 7.66857C23.7687 8.08646 23.9241 7.89895 24.1598 7.71501C25.1472 6.93995 26.5186 7.43463 26.8757 8.67043C27.0417 9.24547 26.9667 9.84016 27.0007 10.2366Z" fill="white"/>
<path d="M76.3721 19.5315C77.231 19.5422 78.0149 20.3994 78.0078 21.3173C78.0078 22.1192 77.0721 23.0103 76.265 22.9907C75.4579 22.971 74.658 22.0638 74.658 21.1923C74.6837 20.7511 74.8742 20.3356 75.1916 20.028C75.5091 19.7205 75.9303 19.5433 76.3721 19.5315Z" fill="white"/>
<path d="M74.6614 28.5699C74.6653 28.1209 74.8424 27.6908 75.1558 27.3693C75.4693 27.0478 75.8947 26.8599 76.3434 26.8447C77.188 26.8447 77.988 27.668 78.0023 28.5663C78.0165 29.3824 77.1398 30.2843 76.322 30.2968C75.5042 30.3093 74.6703 29.4396 74.6614 28.5699Z" fill="white"/>
<path d="M29.5102 9.49042C29.5352 9.94403 29.4959 10.3637 29.5745 10.778C29.6477 11.1638 29.8424 11.3281 30.2191 11.2995C30.3977 11.2852 30.637 11.1459 30.6977 11.4441C30.7136 11.5085 30.7161 11.5755 30.7051 11.6409C30.6941 11.7063 30.6697 11.7687 30.6336 11.8243C30.5974 11.8799 30.5502 11.9275 30.4949 11.9641C30.4395 12.0007 30.3773 12.0255 30.312 12.037C30.1183 12.1008 29.9127 12.1196 29.7107 12.092C29.5087 12.0644 29.3156 11.991 29.1462 11.8775C28.9768 11.7641 28.8355 11.6135 28.733 11.4372C28.6306 11.2609 28.5697 11.0635 28.5549 10.8602C28.4996 10.1556 28.4871 9.44827 28.5174 8.74215C28.5174 8.41713 28.4889 8.16711 28.0675 8.18676C27.8889 8.19569 27.7996 8.05817 27.7871 7.87423C27.7746 7.65636 27.9228 7.58493 28.0835 7.5885C28.5424 7.59921 28.6531 7.34563 28.6621 6.94381C28.671 6.542 28.8228 6.45092 29.2174 6.47771C29.4102 6.49021 29.5102 6.56521 29.5049 6.76344C29.5049 6.8813 29.5049 6.99917 29.5049 7.12061C29.4834 7.44742 29.6084 7.61886 29.962 7.56886C30.0809 7.56054 30.2002 7.56054 30.3191 7.56886C30.5691 7.56886 30.6173 7.71529 30.6155 7.92602C30.6137 8.13675 30.5673 8.29212 30.312 8.27426H30.2727C29.5067 8.28855 29.5067 8.28855 29.5156 9.06182C29.512 9.21183 29.5102 9.36898 29.5102 9.49042Z" fill="white"/>
<path fill-rule="evenodd" clip-rule="evenodd" d="M41.5548 17.767C41.4425 17.8648 41.3016 17.9237 41.1531 17.9349C41.1531 17.4929 41.1521 17.0521 41.1511 16.6124C41.1486 15.4855 41.1461 14.3654 41.1602 13.2481C41.1602 13.016 41.1174 12.9268 40.8621 12.9268C40.1034 12.9375 39.343 12.9375 38.5825 12.9375H38.5824C38.395 12.9375 38.3093 12.9696 38.3093 13.1964V23.7304C38.2942 24.7447 38.5232 25.7477 38.977 26.6549C40.7318 30.0615 43.5203 31.1149 47.0353 30.4579C50.3754 29.8401 52.739 26.2978 52.2909 22.8769C52.1529 21.6967 51.7176 20.5708 51.0258 19.6047C50.3339 18.6387 49.4083 17.864 48.3354 17.3534C47.2626 16.8428 46.0777 16.6129 44.8917 16.6852C43.7058 16.7576 42.5576 17.1298 41.5548 17.767ZM48.7853 26.011C49.2466 25.3217 49.4918 24.5104 49.4895 23.681C49.4907 22.5939 49.0657 21.5498 48.3057 20.7727C47.5457 19.9955 46.5113 19.5474 45.4246 19.5245C44.5956 19.5039 43.7792 19.7311 43.0799 20.1771C42.3807 20.623 41.8303 21.2674 41.4992 22.0279C41.1682 22.7884 41.0714 23.6303 41.2214 24.4461C41.3714 25.2619 41.7612 26.0143 42.3411 26.6073C42.921 27.2002 43.6646 27.6067 44.4767 27.7747C45.2888 27.9428 46.1326 27.8647 46.9001 27.5505C47.6677 27.2363 48.324 26.7003 48.7853 26.011Z" fill="#222121"/>
<path d="M15.8247 9.97617H15.814C15.814 9.30826 15.814 8.64036 15.814 7.97245C15.814 7.78137 15.8551 7.53314 15.5712 7.52064C15.314 7.50992 14.9837 7.42599 14.8926 7.80637C14.8266 8.07603 14.7141 7.99567 14.5694 7.88495C14.3516 7.72065 14.1641 7.50456 13.8838 7.44027C12.9588 7.2349 12.1482 7.46527 11.5464 8.18854C11.2501 8.52535 11.0585 8.94128 10.9951 9.38538C10.9317 9.82947 10.9991 10.2824 11.1893 10.6887C11.7018 11.9013 13.5106 12.5103 14.5427 11.4995C14.7944 11.253 14.9426 11.3084 14.9426 11.6084C14.9426 12.1835 14.7855 12.6978 14.2284 13.0014C13.6713 13.305 13.1088 13.3478 12.5571 12.9907C12.3785 12.8746 12.291 12.671 12.1517 12.5156C12.0124 12.3603 11.5285 12.3746 11.3357 12.5889C11.1429 12.8032 11.3589 12.9317 11.4643 13.0567C11.7956 13.4439 12.2117 13.7494 12.6803 13.9497C13.7427 14.4211 15.8694 13.6818 15.8301 11.9335C15.814 11.287 15.8247 10.6316 15.8247 9.97617ZM13.3445 11.2084C12.4856 11.2084 11.9071 10.5959 11.916 9.69044C11.9232 9.30134 12.0779 8.92949 12.3487 8.65004C12.6195 8.37058 12.9862 8.20436 13.3749 8.18497C14.2677 8.18497 14.8926 8.8118 14.898 9.71901C14.8948 9.91912 14.8519 10.1166 14.7719 10.3C14.6919 10.4835 14.5763 10.6492 14.4318 10.7877C14.2874 10.9262 14.1169 11.0347 13.9303 11.1069C13.7436 11.1791 13.5446 11.2136 13.3445 11.2084Z" fill="white"/>
<path d="M10.4552 11.5439C9.80409 9.77951 9.15353 8.01509 8.50357 6.25068C8.45 6.10067 8.39822 5.92566 8.20716 5.93101C7.7554 5.94351 7.30007 5.85779 6.85366 5.98816C6.79925 6.05983 6.75257 6.13705 6.71439 6.21853C6.05014 8.00438 5.39303 9.80094 4.72343 11.5904C4.63236 11.8332 4.65915 11.935 4.93235 11.9118C5.0252 11.9118 5.11091 11.9118 5.20733 11.9118C5.56445 12.0011 5.77873 11.8779 5.83765 11.4939C5.86265 11.3296 5.96443 11.1778 6.0055 11.0135C6.07514 10.726 6.23048 10.6189 6.54118 10.6331C7.15543 10.6617 7.77147 10.6528 8.38572 10.6581C9.08032 10.6581 9.09996 10.6581 9.27853 11.3225C9.48209 12.0368 9.35531 11.9547 10.1445 11.9707C10.6035 11.9707 10.6177 11.9547 10.4552 11.5439ZM7.17507 6.05245C7.13168 6.04287 7.08737 6.03808 7.04294 6.03816C7.08749 6.03219 7.13283 6.0371 7.17507 6.05245ZM8.46071 9.85987C8.13573 9.85987 7.80539 9.85987 7.47863 9.85987C7.30899 9.85987 7.13936 9.85987 6.96973 9.85987C6.41083 9.87951 6.38762 9.85987 6.58046 9.34376C6.87233 8.63144 7.12449 7.90349 7.33578 7.16325C7.36256 7.05788 7.36078 6.89537 7.51434 6.8918C7.6679 6.88823 7.6929 7.02931 7.73754 7.13646C8.09466 7.90616 8.35715 8.71336 8.6607 9.50449C8.72498 9.68664 8.68213 9.85808 8.46071 9.85987Z" fill="white"/>
<path d="M32.8301 10.0146H34.3604C34.8854 10.0146 35.4086 10.0039 35.9335 10.0146C36.1978 10.0235 36.3032 9.95388 36.2907 9.65743C36.2496 8.64128 35.7068 7.94659 34.8497 7.5287C33.9926 7.11081 33.1712 7.30904 32.4427 7.84837C32.0036 8.16903 31.6932 8.63572 31.5672 9.16464C31.4412 9.69356 31.5079 10.2501 31.7552 10.7343C31.993 11.2291 32.3939 11.627 32.8904 11.8611C33.3869 12.0952 33.9488 12.1514 34.4818 12.0201C35.034 11.8845 35.529 11.5775 35.896 11.1432C36.1246 10.8772 36.0639 10.72 35.7443 10.6593C35.6021 10.6359 35.4563 10.646 35.3187 10.6888C35.1811 10.7315 35.0553 10.8058 34.9514 10.9057C34.1015 11.5915 33.048 11.3754 32.5802 10.4289C32.4177 10.1075 32.4694 10.0164 32.8301 10.0146ZM32.5748 8.92523C32.6925 8.68916 32.8732 8.49029 33.097 8.35065C33.3208 8.21101 33.5788 8.13606 33.8426 8.1341C34.1363 8.14622 34.4222 8.23227 34.6737 8.3843C34.9253 8.53634 35.1345 8.74942 35.2818 9.00381C35.3907 9.16811 35.3586 9.30562 35.1157 9.30562L32.7676 9.31633C32.4462 9.31812 32.4677 9.12882 32.5748 8.92523Z" fill="white"/>
<path d="M18.1606 10.0146H19.6927C20.2158 10.0146 20.7408 10.0039 21.264 10.0146C21.53 10.0235 21.6336 9.95388 21.6211 9.65743C21.5818 8.64128 21.0372 7.94659 20.1801 7.5287C19.323 7.11081 18.5017 7.30904 17.7749 7.84837C17.3353 8.16854 17.0243 8.63512 16.8979 9.16416C16.7716 9.6932 16.8382 10.25 17.0857 10.7343C17.3235 11.2291 17.7243 11.627 18.2208 11.8611C18.7173 12.0952 19.2793 12.1514 19.8123 12.0201C20.3644 11.8845 20.8595 11.5775 21.2265 11.1432C21.4568 10.8772 21.3961 10.72 21.0747 10.6593C20.9325 10.636 20.7868 10.6462 20.6492 10.689C20.5116 10.7317 20.3859 10.8059 20.2819 10.9057C19.432 11.5915 18.3784 11.3754 17.9106 10.4289C17.7463 10.1075 17.7981 10.0164 18.1606 10.0146ZM17.9053 8.92523C18.0229 8.68916 18.2037 8.49029 18.4275 8.35065C18.6512 8.21101 18.9093 8.13606 19.173 8.1341C19.465 8.1475 19.7489 8.23419 19.9985 8.38618C20.2482 8.53817 20.4556 8.75058 20.6015 9.00381C20.7105 9.16811 20.6783 9.30562 20.4355 9.30562L18.0874 9.31633C17.7749 9.31812 17.7963 9.12882 17.9053 8.92523Z" fill="white"/>
</svg>
