<svg width="83" height="37" viewBox="0 0 83 37" fill="none" xmlns="http://www.w3.org/2000/svg">
<g clip-path="url(#clip0_107_10191)">
<rect x="0.572021" width="81.7425" height="36.569" rx="6.45336" fill="#004E97"/>
<path d="M51.4776 26.2095C51.7278 25.4017 51.9527 24.6585 52.195 23.9186C52.7229 22.3031 53.2551 20.6902 53.7914 19.08C53.8215 18.9912 53.9229 18.8636 53.9926 18.8619C54.9238 18.8474 55.8566 18.8522 56.8053 18.8522C56.3904 20.0865 55.9865 21.2756 55.589 22.4743C54.7591 24.9784 53.9303 27.4836 53.1025 29.9899C53.1025 29.9996 53.0946 30.0109 53.0898 30.0206C52.8903 30.6199 52.8903 30.6183 52.2853 30.6232C51.8783 30.6232 51.4697 30.6587 51.0658 30.6232C50.8791 30.6072 50.7041 30.5242 50.5717 30.3889C48.8549 28.3452 47.1524 26.2903 45.4451 24.2385C45.1854 23.9251 44.9209 23.6133 44.62 23.2562C44.5186 23.6359 44.4474 23.9622 44.3444 24.2757C43.7838 25.9752 43.2195 27.6732 42.6514 29.3695C42.5374 29.7088 42.4376 30.0545 42.3046 30.3857C42.265 30.4842 42.1383 30.6119 42.048 30.6135C41.1801 30.6312 40.3059 30.6264 39.4428 30.6248C39.4031 30.6181 39.3643 30.6067 39.3271 30.5909C39.5156 30.0303 39.7041 29.4745 39.8894 28.9171C40.979 25.6505 42.067 22.3838 43.1535 19.1172C43.2136 18.9346 43.296 18.8377 43.5003 18.8409C44.0277 18.8409 44.5551 18.8264 45.084 18.8409C45.2439 18.8453 45.3964 18.9104 45.5117 19.0235C47.3773 21.2691 49.2414 23.5115 51.1038 25.7507C51.2226 25.8912 51.3351 26.0382 51.4776 26.2095Z" fill="white"/>
<path d="M8.1295 25.8969C7.69714 27.2055 7.30754 28.3945 6.9116 29.5803C6.79915 29.918 6.75323 30.3655 6.52042 30.5497C6.28761 30.7338 5.8695 30.6207 5.53216 30.624C4.91609 30.624 4.30001 30.624 3.68552 30.624C3.57941 30.624 3.4733 30.6111 3.36877 30.6046C3.74095 29.5012 4.10838 28.4268 4.46631 27.3492C5.34792 24.69 6.22954 22.0282 7.11115 19.3636C7.32496 18.7173 7.25052 18.8547 7.81275 18.8514C8.66797 18.8514 9.52319 18.8514 10.4687 18.8514C9.99356 20.2844 9.53427 21.6819 9.04331 23.1601L10.5906 22.2086C12.3391 21.1315 14.0896 20.0545 15.8423 18.9775C15.9845 18.894 16.1455 18.8494 16.3095 18.8482C17.7935 18.8321 19.2774 18.8288 20.7614 18.824C20.7788 18.824 20.7962 18.8417 20.8659 18.8789L11.3112 24.4784L17.7238 30.6175C17.5448 30.6337 17.4324 30.6514 17.3199 30.6514C15.9025 30.6514 14.485 30.6514 13.066 30.6514C12.9053 30.6514 12.7497 30.5942 12.6257 30.4899C11.2584 29.135 9.90276 27.7741 8.55869 26.4074C8.41299 26.2684 8.29896 26.1069 8.1295 25.8969Z" fill="white"/>
<path d="M38.7401 21.5475C38.7987 21.3149 38.8336 21.1711 38.8795 20.9885H33.7403C33.5993 21.4312 33.4599 21.8642 33.3095 22.3343C33.5914 22.3343 33.8321 22.3343 34.0713 22.3343C35.7548 22.3472 37.4367 22.3343 39.1186 22.3828C40.0942 22.407 40.6248 23.1227 40.3587 24.0678C40.0926 25.0129 39.7775 25.8998 39.4322 26.7948C39.0379 27.8175 38.2428 28.3135 37.1849 28.3845C36.8333 28.4088 36.4817 28.4185 36.1301 28.4185C34.3152 28.4185 32.5002 28.4185 30.6852 28.3959C30.3591 28.3824 30.0377 28.3119 29.735 28.1874C29.5536 28.1301 29.3971 28.0107 29.2919 27.8495C29.1866 27.6883 29.1389 27.495 29.1569 27.3021C29.1791 26.9677 29.1965 26.6301 29.2424 26.2989C29.3058 25.8465 29.4277 25.7383 29.8854 25.6866C30.2687 25.6446 30.652 25.6139 31.0352 25.5767C31.2839 25.5509 31.5325 25.5202 31.8144 25.4879L31.7416 26.1115C31.8445 26.1115 31.93 26.1308 32.014 26.1308C33.6532 26.1308 35.2923 26.1308 36.9236 26.1405C37.1833 26.1405 37.3512 26.0856 37.424 25.7851C37.5127 25.42 37.6679 25.071 37.8089 24.6704H37.4082C35.5932 24.6558 33.7799 24.6478 31.9649 24.6138C31.7025 24.5946 31.4472 24.5186 31.2158 24.3909C31.0658 24.3265 30.9393 24.2159 30.8541 24.0745C30.7689 23.9331 30.7292 23.7681 30.7407 23.6025C30.758 23.1465 30.826 22.6939 30.9434 22.2535C31.1707 21.5065 31.454 20.7785 31.7907 20.0758C31.9651 19.7075 32.24 19.3984 32.5825 19.1857C32.925 18.9731 33.3205 18.8659 33.7213 18.877C35.8878 18.8587 38.0523 18.8587 40.2146 18.877C41.0951 18.8883 41.6257 19.6428 41.4356 20.5233C41.4053 20.6773 41.3614 20.8281 41.3042 20.974C41.2694 21.0564 41.1933 21.1711 41.1221 21.1824C40.3571 21.3165 39.5795 21.4215 38.7401 21.5475Z" fill="white"/>
<path d="M58.4037 26.1316H65.4402C65.2708 26.6631 65.1156 27.1672 64.9461 27.6664C64.6943 28.4031 64.6895 28.4031 63.9309 28.4047L55.621 28.4224H54.9875C55.1459 27.9507 55.2853 27.542 55.4231 27.13C56.3005 24.5031 57.1757 21.8751 58.0489 19.2461C58.1487 18.9424 58.2786 18.8503 58.6064 18.8503C61.6076 18.86 64.6072 18.8503 67.6084 18.8325C67.6674 18.8365 67.7262 18.8446 67.7842 18.8568C67.6258 19.3673 67.4674 19.8632 67.3011 20.3544C67.1032 20.9392 67.0984 20.9392 66.5235 20.9392C64.5011 20.9392 62.4786 20.9392 60.4562 20.9392C60.1965 20.9392 60.0682 20.9861 60.0128 21.2801C59.9211 21.654 59.8058 22.0215 59.6675 22.3803H63.7282C63.5049 23.0604 63.3069 23.6986 63.0725 24.3189C63.0393 24.4062 62.8176 24.4595 62.6829 24.4611C61.5506 24.4708 60.4182 24.474 59.2874 24.4611C59.0498 24.4611 58.9326 24.529 58.8645 24.7664C58.7299 25.2059 58.5684 25.6437 58.4037 26.1316Z" fill="white"/>
<path d="M69.6292 28.4123C70.4575 25.9324 71.2715 23.4978 72.1061 21.005H68.0597C68.2988 20.299 68.5095 19.6527 68.7439 19.0178C68.7749 18.9722 68.816 18.9347 68.8639 18.9084C68.9118 18.882 68.965 18.8675 69.0194 18.866C72.0201 18.853 75.0218 18.846 78.0246 18.845H79.5513C79.3153 19.5283 79.1047 20.1826 78.8529 20.8208C78.8133 20.921 78.5852 20.992 78.4443 20.9937C77.3357 21.0082 76.227 21.013 75.1184 20.9937C75.0655 20.9834 75.0112 20.984 74.9586 20.9954C74.9059 21.0068 74.856 21.0288 74.8118 21.0601C74.7676 21.0914 74.7299 21.1313 74.701 21.1776C74.6721 21.2239 74.6524 21.2756 74.6433 21.3297C73.9042 23.5915 73.1525 25.8532 72.3881 28.115C72.3469 28.2346 72.198 28.3977 72.0966 28.401C71.2858 28.422 70.4733 28.4123 69.6292 28.4123Z" fill="white"/>
<path d="M44.7719 11.7407C44.7719 9.842 44.8289 7.98206 44.8289 6.08496C45.2249 6.08496 46.0043 6.09789 46.0043 6.09789C46.0043 6.09789 47.5741 8.47654 48.222 9.52043C48.2763 9.59931 48.3345 9.67535 48.3963 9.74828V6.08819H49.5796V11.7439C49.1868 11.7439 48.325 11.7343 48.325 11.7343C48.325 11.7343 48.2173 11.5727 48.1555 11.4757C47.5219 10.4641 46.8935 9.45094 46.2704 8.43614C46.2134 8.34403 46.1437 8.26 46.0376 8.11295V11.7391L44.7719 11.7407Z" fill="white"/>
<path d="M32.3508 7.97702H31.1231C31.0797 7.83821 31.0267 7.70268 30.9647 7.57142C30.5845 6.8184 29.3251 6.85072 28.815 7.57142C28.305 8.29213 28.3271 9.61396 28.8309 10.3169C29.4091 11.1249 30.7873 10.9762 31.1817 10.0729C31.2533 9.92918 31.2999 9.77391 31.3195 9.61396C31.0154 9.61396 30.3041 9.61396 29.9841 9.61396V8.70904H32.3951V11.7486C32.1227 11.7486 31.7615 11.7486 31.4732 11.7486C31.4732 11.5547 31.4732 11.3075 31.4621 11.1119C31.4209 11.1653 31.3401 11.2848 31.3148 11.3188C30.6241 12.2059 29.1651 12.0475 28.4095 11.5127C27.459 10.8404 27.0915 9.85958 27.1597 8.74135C27.2278 7.62313 27.6634 6.64065 28.7644 6.15587C29.8653 5.67109 31.3338 5.87308 32.0546 7.11896C32.2123 7.3801 32.3133 7.67269 32.3508 7.97702Z" fill="white"/>
<path d="M37.6787 10.7262C38.6086 10.7262 40.7392 10.7165 40.7392 10.7165V11.7636C40.6378 11.7733 36.4257 11.783 36.4257 11.783C36.4257 11.783 36.4257 11.7087 36.4257 11.4598C36.4352 9.74372 36.4257 8.0276 36.4257 6.30986C36.4257 6.14827 36.4257 6.03516 36.4257 6.03516L40.3178 6.04324C40.417 6.03757 40.5164 6.03757 40.6156 6.04324C40.6156 6.40359 40.6156 6.78333 40.6156 7.16146H37.704V8.33786H38.9856C39.3705 8.33786 40.3891 8.34917 40.3891 8.34917C40.3891 8.34917 40.3891 9.05048 40.3891 9.31873C40.2307 9.33165 37.6961 9.3365 37.6961 9.3365C37.6961 9.3365 37.6787 10.3287 37.6787 10.7262Z" fill="white"/>
<path d="M63.534 10.7262C64.4623 10.7262 66.5945 10.7165 66.5945 10.7165V11.7636C66.4932 11.7733 62.281 11.783 62.281 11.783C62.281 11.783 62.281 11.7087 62.281 11.4598C62.2905 9.74372 62.281 8.0276 62.281 6.30986C62.281 6.14827 62.281 6.03516 62.281 6.03516L66.1732 6.04324C66.2724 6.03756 66.3718 6.03756 66.471 6.04324C66.471 6.40359 66.471 6.78333 66.471 7.16146H63.561V8.33786H64.8441C65.229 8.33786 66.2476 8.34917 66.2476 8.34917C66.2476 8.34917 66.2476 9.05048 66.2476 9.31873C66.0892 9.33165 63.5546 9.3365 63.5546 9.3365C63.5546 9.3365 63.534 10.3287 63.534 10.7262Z" fill="white"/>
<path d="M53.6145 6.07251H58.2496V7.14872H56.5958C56.5958 7.59148 56.6069 11.7703 56.6069 11.7703H55.3396V7.15842H53.6113C53.6113 7.15842 53.6145 6.35368 53.6145 6.07251Z" fill="white"/>
<path d="M28.946 28.1483C28.569 26.5026 28.1911 24.8558 27.812 23.2079C27.5048 21.8649 27.2018 20.5223 26.903 19.1803C26.8491 18.9364 26.7557 18.8201 26.4833 18.8346C25.9559 18.8605 25.4269 18.8669 24.8995 18.8346C24.7648 18.8249 24.6298 18.8493 24.5066 18.9056C24.3833 18.962 24.2757 19.0486 24.1932 19.1577C23.3633 20.112 22.5266 21.0614 21.6829 22.0059C20.1773 23.699 18.6691 25.39 17.1582 27.0788C16.7844 27.4988 16.4202 27.9286 16.0005 28.41C16.8842 28.41 17.6729 28.3971 18.4616 28.4181C18.5702 28.4245 18.6786 28.4038 18.7774 28.3576C18.8763 28.3114 18.9625 28.2412 19.0286 28.1531C19.434 27.6685 19.849 27.1838 20.2449 26.6991C20.3093 26.6109 20.3944 26.5406 20.4923 26.4946C20.5903 26.4485 20.698 26.4283 20.8056 26.4358C22.3545 26.4358 23.9049 26.4358 25.4538 26.4229C25.6375 26.4229 25.6993 26.4762 25.731 26.6555C25.8149 27.1305 25.9353 27.5974 26.0129 28.0723C26.0541 28.3341 26.1633 28.4262 26.4231 28.4229C27.1817 28.4116 27.9403 28.4229 28.6989 28.4229C28.7933 28.4157 28.887 28.4011 28.9792 28.3793C28.965 28.2808 28.9602 28.2097 28.946 28.1483ZM22.4115 24.2193L24.7253 21.5746L24.814 21.6166L25.2527 24.2193H22.4115Z" fill="white"/>
<path d="M21.2271 6.44465C21.1019 6.09561 21.0893 6.06006 21.0893 6.06006H19.7523L19.6556 6.32992C19.3119 7.27847 18.9539 8.22864 18.6022 9.18365C18.2854 10.0288 17.9844 10.8739 17.6517 11.7805C18.0446 11.7805 18.9079 11.795 18.9079 11.795C18.9079 11.795 19.0774 11.2585 19.182 11.0032C19.2248 10.9014 19.3784 10.4958 19.3784 10.4958L20.4271 10.5055C21.4346 10.5216 21.3649 10.5184 21.3649 10.5184L21.8528 11.795H23.1201C23.0916 11.7239 21.848 8.18178 21.2271 6.44465ZM19.6952 9.56016C19.9249 8.89278 20.142 8.26742 20.359 7.63882L20.4461 7.62913L21.0702 9.56824L19.6952 9.56016Z" fill="white"/>
<path d="M86.2059 14.511H-3.3197V16.2202H86.2059V14.511Z" fill="url(#paint0_radial_107_10191)"/>
</g>
<defs>
<radialGradient id="paint0_radial_107_10191" cx="0" cy="0" r="1" gradientUnits="userSpaceOnUse" gradientTransform="translate(41.4431 15.3656) scale(31.6574 32.2933)">
<stop offset="0.28" stop-color="#EFD002"/>
<stop offset="1" stop-color="#EFD002" stop-opacity="0"/>
</radialGradient>
<clipPath id="clip0_107_10191">
<rect x="0.572021" width="81.7425" height="36.569" rx="6.45336" fill="white"/>
</clipPath>
</defs>
</svg>
