<svg width="82" height="37" viewBox="0 0 82 37" fill="none" xmlns="http://www.w3.org/2000/svg">
<rect x="0.128784" width="81.7425" height="36.569" rx="6.45336" fill="#00B0EF"/>
<path d="M31.6373 17.5485C31.6373 12.9327 25.902 9.16968 18.8265 9.16968C11.7517 9.16968 6.01633 12.9327 6.01633 17.5485C6.01633 17.6682 6.01489 17.9976 6.01489 18.0394C6.01489 22.9364 11.0279 26.9027 18.825 26.9027C26.6704 26.9027 31.6373 22.9379 31.6373 18.0402C31.6373 17.8693 31.6373 17.7706 31.6373 17.5485Z" fill="#253E8B"/>
<path d="M31.1463 17.5436C31.1463 21.8955 25.6315 25.4236 18.8285 25.4236C12.0255 25.4236 6.51074 21.8955 6.51074 17.5436C6.51074 13.1909 12.0255 9.66284 18.8285 9.66284C25.6315 9.66284 31.1463 13.1909 31.1463 17.5436Z" fill="#00AEEF"/>
<path d="M14.7402 15.0582C14.7337 15.0705 14.6111 15.1981 14.6904 15.2997C14.8851 15.5484 15.4856 15.6904 16.0926 15.5542C16.4537 15.4735 16.9172 15.1051 17.3664 14.7482C17.8522 14.3619 18.3352 13.9755 18.8204 13.8212C19.3337 13.6575 19.6631 13.7282 19.8808 13.7938C20.1194 13.8644 20.3998 14.0216 20.8475 14.3575C21.6902 14.9912 25.0791 17.9497 25.6645 18.4608C26.1366 18.2474 28.2323 17.3456 31.0805 16.7177C30.8332 15.1995 29.909 13.8097 28.5084 12.6721C26.5562 13.4925 24.1701 13.9207 21.8373 12.781C21.825 12.7759 20.562 12.1783 19.3171 12.2078C17.4651 12.2504 16.6635 13.052 15.815 13.8998L14.7402 15.0582Z" fill="white"/>
<path d="M25.527 18.7835C25.4874 18.7482 21.542 15.2959 20.6488 14.6248C20.1312 14.2369 19.8436 14.1374 19.5415 14.0992C19.3844 14.0783 19.1666 14.1079 19.0153 14.1497C18.5993 14.2629 18.0558 14.6262 17.5728 15.009C17.0732 15.4069 16.6017 15.7818 16.1649 15.8798C15.6062 16.0053 14.9242 15.8568 14.6128 15.647C14.4867 15.5619 14.398 15.4639 14.3555 15.3644C14.2401 15.0977 14.4521 14.8843 14.4874 14.849L15.5759 13.671C15.7028 13.5449 15.8297 13.4187 15.9602 13.294C15.6091 13.3401 15.284 13.4295 14.9682 13.5175C14.5739 13.6285 14.1947 13.7337 13.8105 13.7337C13.6504 13.7337 12.7919 13.5932 12.6289 13.5485C11.6435 13.2789 10.7784 13.0165 9.48732 12.4131C7.93958 13.5658 6.90439 15.0061 6.60522 16.5928C6.82798 16.6519 7.18626 16.7586 7.33692 16.7917C10.839 17.5703 11.9297 18.3726 12.1279 18.5406C12.342 18.302 12.6513 18.1513 12.9966 18.1513C13.3837 18.1521 13.7333 18.346 13.9453 18.6473C14.1457 18.4887 14.4225 18.3539 14.7801 18.3539C14.9423 18.3539 15.1109 18.3842 15.2811 18.4418C15.6761 18.5774 15.8801 18.8405 15.9861 19.0784C16.1187 19.0186 16.2817 18.9746 16.4734 18.9753C16.6623 18.9753 16.8584 19.0178 17.0559 19.1036C17.7018 19.3804 17.802 20.0148 17.7436 20.4928C17.7898 20.4877 17.8359 20.4856 17.8828 20.4856C18.6483 20.4863 19.2712 21.1084 19.2712 21.8747C19.2712 22.1119 19.2106 22.3346 19.1047 22.53C19.313 22.6475 19.8443 22.9121 20.3107 22.8529C20.6834 22.8061 20.8247 22.6785 20.8751 22.6071C20.9097 22.5581 20.9465 22.5004 20.9126 22.4593L19.9243 21.3614C19.9243 21.3614 19.7614 21.2072 19.8154 21.1481C19.871 21.0868 19.9719 21.1747 20.0425 21.2338C20.5457 21.6541 21.1599 22.2878 21.1599 22.2878C21.17 22.295 21.2111 22.375 21.4382 22.4161C21.6335 22.4507 21.9795 22.4305 22.2189 22.2337C22.2794 22.184 22.34 22.122 22.3904 22.0578C22.3868 22.0607 22.3832 22.0657 22.3796 22.0672C22.6319 21.7435 22.3515 21.4162 22.3515 21.4162L21.1974 20.1208C21.1974 20.1208 21.033 19.968 21.0885 19.9067C21.139 19.8533 21.245 19.9341 21.3178 19.9939C21.6825 20.2996 22.1987 20.8172 22.6939 21.3016C22.7898 21.373 23.2252 21.6419 23.8005 21.2634C24.1501 21.0342 24.2201 20.753 24.21 20.5403C24.1862 20.2592 23.9663 20.0588 23.9663 20.0588L22.3904 18.4743C22.3904 18.4743 22.2239 18.3323 22.283 18.2602C22.3313 18.1996 22.4395 18.2869 22.5101 18.346C23.0118 18.7662 24.3714 20.0127 24.3714 20.0127C24.3909 20.0264 24.8602 20.3608 25.4405 19.991C25.6481 19.8584 25.7808 19.6587 25.7923 19.4259C25.8118 19.0229 25.527 18.7835 25.527 18.7835Z" fill="white"/>
<path d="M17.8846 20.7908C17.6402 20.7879 17.3726 20.9329 17.338 20.912C17.3186 20.899 17.3525 20.8009 17.3755 20.744C17.3993 20.6877 17.7209 19.7193 16.9364 19.3826C16.3358 19.1252 15.9688 19.4151 15.8426 19.5463C15.8094 19.5809 15.795 19.578 15.7907 19.534C15.7791 19.3595 15.7005 18.888 15.1828 18.7293C14.4423 18.5029 13.9657 19.0199 13.8445 19.2067C13.7905 18.7841 13.4342 18.4568 12.9966 18.4561C12.5214 18.4561 12.1364 18.8404 12.1364 19.3156C12.1356 19.79 12.5207 20.175 12.9958 20.175C13.2266 20.1758 13.4357 20.0835 13.59 19.9357C13.595 19.94 13.5972 19.9479 13.5943 19.9645C13.5583 20.1765 13.4919 20.9495 14.301 21.2646C14.6254 21.39 14.9016 21.2963 15.1302 21.1362C15.1979 21.0879 15.2095 21.1081 15.1994 21.1723C15.1705 21.3713 15.2073 21.7967 15.8044 22.0382C16.2579 22.2228 16.5268 22.0339 16.7028 21.8717C16.7792 21.8017 16.8001 21.8126 16.8037 21.9207C16.8254 22.4961 17.3034 22.9525 17.8831 22.9533C18.4809 22.9533 18.9655 22.4702 18.9655 21.8731C18.9662 21.2754 18.4823 20.7973 17.8846 20.7908Z" fill="white"/>
<path d="M17.8802 22.8757C17.3388 22.8749 16.8984 22.454 16.8782 21.9183C16.8775 21.8722 16.8724 21.7496 16.7693 21.7496C16.7261 21.7496 16.6893 21.7756 16.6468 21.8138C16.5279 21.9241 16.3765 22.0366 16.1552 22.0366C16.0542 22.0366 15.9454 22.0128 15.8308 21.9659C15.2584 21.7345 15.2504 21.3416 15.2735 21.1838C15.28 21.1412 15.2822 21.0972 15.2533 21.0634L15.218 21.0324H15.1827C15.1538 21.0324 15.1236 21.0439 15.0832 21.0727C14.9174 21.1888 14.7588 21.245 14.5973 21.245C14.5087 21.245 14.4178 21.227 14.3263 21.1917C13.5737 20.899 13.6335 20.1882 13.6703 19.9748C13.6753 19.9309 13.6645 19.8977 13.6371 19.8753L13.5838 19.8314L13.534 19.879C13.3877 20.0202 13.1952 20.0981 12.9941 20.0981C12.5623 20.0974 12.2112 19.747 12.2119 19.3159C12.2119 18.8841 12.5637 18.5345 12.9948 18.5345C13.3848 18.5345 13.7164 18.8279 13.7661 19.2172L13.7928 19.427L13.9082 19.2496C13.9211 19.2287 14.2369 18.7508 14.8179 18.7515C14.9282 18.7515 15.0421 18.7688 15.1574 18.8048C15.6203 18.9461 15.6988 19.3657 15.7111 19.5409C15.719 19.6425 15.7918 19.6475 15.8062 19.6475C15.8459 19.6475 15.8755 19.6223 15.8964 19.6C15.9836 19.5091 16.1739 19.3577 16.4716 19.3577C16.6079 19.3577 16.7535 19.3902 16.9027 19.4543C17.6387 19.7701 17.305 20.7051 17.3014 20.7152C17.2379 20.8702 17.235 20.9387 17.2949 20.9783L17.3237 20.992H17.3453C17.3785 20.992 17.4196 20.9776 17.4874 20.9545C17.5876 20.9199 17.7389 20.868 17.8802 20.868H17.881C18.4346 20.8745 18.8851 21.325 18.8851 21.8729C18.8844 22.4258 18.4339 22.8757 17.8802 22.8757ZM25.6773 18.3687C24.4619 17.3083 21.6533 14.8666 20.8928 14.295C20.4581 13.9684 20.1618 13.7954 19.9016 13.7183C19.7848 13.6829 19.6226 13.6426 19.4143 13.6426C19.2211 13.6426 19.0135 13.6772 18.7965 13.7464C18.3048 13.9021 17.8154 14.2914 17.341 14.6677L17.3165 14.6871C16.8753 15.0382 16.4197 15.4008 16.0744 15.4779C15.9237 15.5118 15.7688 15.5291 15.6145 15.5291C15.2274 15.5291 14.8806 15.4174 14.7501 15.2516C14.7285 15.2235 14.7422 15.1795 14.7927 15.1153L14.7999 15.1067L15.869 13.9547C16.7059 13.117 17.4967 12.327 19.3177 12.2851C19.3472 12.2844 19.3782 12.2837 19.4085 12.2837C20.5417 12.2844 21.6743 12.7919 21.8011 12.8503C22.8637 13.3686 23.9609 13.6318 25.0631 13.6325C26.2122 13.6332 27.3981 13.3485 28.6445 12.7746C28.5054 12.6578 28.3605 12.5439 28.2112 12.4322C27.1162 12.9065 26.0731 13.1466 25.0667 13.1466C24.038 13.1452 23.0115 12.8986 22.0138 12.412C21.9612 12.3868 20.7104 11.7971 19.4085 11.7964C19.3746 11.7964 19.34 11.7971 19.3061 11.7978C17.7771 11.8332 16.9157 12.3767 16.3361 12.8525C15.7731 12.8662 15.2865 13.0017 14.8547 13.1228C14.4683 13.2295 14.1352 13.3225 13.8101 13.3225C13.676 13.3225 13.4353 13.3102 13.4136 13.3095C13.0402 13.298 11.1565 12.8366 9.65854 12.2693C9.50571 12.3774 9.35865 12.4892 9.21519 12.6031C10.7802 13.2446 12.6848 13.7406 13.286 13.7795C13.4533 13.7911 13.6313 13.8098 13.8094 13.8098C14.2073 13.8098 14.6038 13.6988 14.988 13.5914C15.2144 13.5272 15.4645 13.458 15.7284 13.4076C15.6577 13.4768 15.5878 13.5467 15.5172 13.6166L14.4315 14.7917C14.3457 14.8782 14.1597 15.1089 14.2823 15.3922C14.3313 15.5068 14.4301 15.6164 14.5685 15.7094C14.8266 15.8838 15.2901 16.0013 15.7212 16.002C15.8841 16.002 16.0391 15.9854 16.1811 15.9537C16.636 15.8514 17.1139 15.4707 17.62 15.0685C18.023 14.7484 18.5954 14.3418 19.0344 14.2222C19.1569 14.189 19.3076 14.1681 19.428 14.1681C19.464 14.1688 19.4986 14.1695 19.5303 14.1746C19.8201 14.2106 20.0998 14.3094 20.6001 14.685C21.4919 15.3547 25.4373 18.8063 25.4762 18.8409C25.4784 18.843 25.73 19.0593 25.7127 19.4205C25.7033 19.6216 25.5915 19.8004 25.3976 19.9244C25.2289 20.0311 25.0552 20.0851 24.88 20.0851C24.6162 20.0851 24.4345 19.9611 24.4223 19.9532C24.4078 19.9409 23.0562 18.7017 22.5588 18.2851C22.4795 18.2195 22.4023 18.1604 22.3245 18.1604C22.2834 18.1604 22.2466 18.1777 22.2214 18.2094C22.1435 18.306 22.2308 18.4393 22.3346 18.5273L23.9133 20.114C23.9155 20.1161 24.1101 20.2985 24.131 20.5422C24.144 20.8053 24.0178 21.0252 23.7562 21.1967C23.5702 21.3193 23.3813 21.382 23.1968 21.382C22.9545 21.382 22.7837 21.271 22.7462 21.245L22.5198 21.0216C22.1061 20.6143 21.6786 20.1933 21.3657 19.9323C21.2893 19.8689 21.2078 19.8105 21.13 19.8105C21.0918 19.8105 21.0572 19.8242 21.0305 19.8523C20.9952 19.8919 20.9699 19.9633 21.0593 20.0815C21.0954 20.1298 21.1386 20.1702 21.1386 20.1702L22.2913 21.4649C22.3007 21.4764 22.5285 21.7475 22.3173 22.0171L22.2762 22.0683C22.2423 22.1065 22.2048 22.1418 22.1695 22.1721C21.9727 22.3336 21.7103 22.3509 21.6065 22.3509C21.551 22.3509 21.4969 22.3458 21.4508 22.3372C21.3369 22.317 21.2605 22.2853 21.223 22.2413L21.2093 22.2269C21.1466 22.162 20.5655 21.5687 20.0847 21.1679C20.022 21.1145 19.9427 21.0475 19.8612 21.0475C19.8209 21.0475 19.7848 21.0634 19.7567 21.0944C19.6615 21.1982 19.8043 21.3539 19.8648 21.4116L20.8481 22.495C20.8467 22.5044 20.8344 22.5268 20.8106 22.5614C20.7753 22.6097 20.6564 22.7293 20.2995 22.774C20.257 22.7798 20.213 22.782 20.169 22.782C19.8014 22.782 19.4092 22.6032 19.2074 22.4965C19.2997 22.3018 19.3472 22.0877 19.3472 21.8736C19.3472 21.0641 18.6905 20.4059 17.8817 20.4059C17.8644 20.4059 17.8464 20.4059 17.8291 20.4066C17.855 20.0375 17.8031 19.3383 17.0851 19.0305C16.8782 18.9411 16.672 18.8957 16.4723 18.8957C16.3152 18.8957 16.1645 18.9223 16.0232 18.9764C15.874 18.6873 15.6275 18.4768 15.3052 18.3673C15.1272 18.306 14.9498 18.2743 14.779 18.2743C14.4798 18.2743 14.2052 18.3622 13.9593 18.5367C13.7243 18.2447 13.3689 18.071 12.9948 18.071C12.6675 18.071 12.3525 18.2022 12.1196 18.4336C11.8133 18.2 10.6 17.4287 7.3517 16.6912C7.19455 16.6559 6.83411 16.5521 6.6128 16.4879C6.57603 16.6631 6.54792 16.8411 6.52917 17.0206C6.52917 17.0206 7.12823 17.1641 7.24646 17.1908C10.5647 17.9275 11.6604 18.6938 11.8464 18.8387C11.783 18.9894 11.7505 19.1516 11.7505 19.3159C11.7498 20.0008 12.3078 20.5595 12.9934 20.5602C13.0705 20.5602 13.1469 20.553 13.2212 20.5393C13.325 21.0439 13.6551 21.4267 14.159 21.6228C14.3068 21.679 14.456 21.7086 14.6024 21.7086C14.6968 21.7086 14.7927 21.697 14.8857 21.6732C14.9787 21.9097 15.1884 22.2045 15.657 22.3948C15.8214 22.4612 15.9857 22.4958 16.1451 22.4958C16.2755 22.4958 16.4031 22.4727 16.525 22.428C16.7492 22.9752 17.2841 23.337 17.8795 23.337C18.2746 23.3378 18.6537 23.177 18.9306 22.8922C19.167 23.0242 19.6666 23.2621 20.1712 23.2628C20.2368 23.2628 20.2981 23.2577 20.3594 23.2505C20.8611 23.1878 21.0939 22.991 21.2014 22.8389C21.2208 22.8122 21.2381 22.7841 21.2533 22.7546C21.3715 22.7892 21.5012 22.8166 21.6505 22.8173C21.9244 22.8173 22.1875 22.7236 22.4528 22.5296C22.7138 22.3422 22.899 22.0719 22.9257 21.8419C22.9264 21.8383 22.9272 21.8354 22.9279 21.8318C23.0151 21.8498 23.1059 21.8592 23.196 21.8592C23.4779 21.8592 23.7547 21.7713 24.02 21.5975C24.5311 21.263 24.6198 20.8255 24.6119 20.5386C24.7005 20.5573 24.7921 20.5667 24.8829 20.5667C25.1475 20.5667 25.4077 20.4874 25.655 20.3295C25.9722 20.1269 26.1625 19.817 26.1913 19.4558C26.2115 19.2107 26.1509 18.9634 26.0212 18.7508C26.8776 18.3817 28.8348 17.668 31.1395 17.1482C31.1258 16.9695 31.0998 16.7928 31.0681 16.6169C28.2797 17.2362 26.1985 18.1366 25.6773 18.3687Z" fill="#253E8B"/>
<path d="M74.1452 15.5357C73.9209 15.8335 73.6001 15.982 73.1804 15.982C72.7615 15.982 72.4384 15.8335 72.2128 15.5357C71.9863 15.2379 71.8739 14.8139 71.8739 14.2652C71.8739 13.7165 71.9863 13.2939 72.2128 12.9976C72.4384 12.7019 72.7615 12.5534 73.1804 12.5534C73.6001 12.5534 73.9209 12.7019 74.1452 12.9976C74.3694 13.2939 74.4826 13.7165 74.4826 14.2652C74.4826 14.8139 74.3694 15.2379 74.1452 15.5357ZM75.2917 12.2109C74.8287 11.6319 74.1272 11.342 73.1847 11.342C72.2438 11.342 71.5415 11.6319 71.0793 12.2109C70.6163 12.7906 70.3849 13.4749 70.3849 14.2652C70.3849 15.0692 70.6163 15.7563 71.0793 16.3281C71.5415 16.8978 72.2438 17.184 73.1847 17.184C74.1272 17.184 74.8287 16.8978 75.2917 16.3281C75.7546 15.7563 75.9853 15.0692 75.9853 14.2652C75.9853 13.4749 75.7546 12.7906 75.2917 12.2109Z" fill="#253E8B"/>
<path d="M62.7441 14.859C62.7347 15.34 62.597 15.6717 62.3323 15.8527C62.0677 16.0344 61.7786 16.1259 61.4649 16.1259C61.2666 16.1259 61.0986 16.0704 60.9602 15.9615C60.8217 15.8519 60.7532 15.6746 60.7532 15.4287C60.7532 15.154 60.8657 14.9506 61.0921 14.8187C61.227 14.7422 61.4462 14.6759 61.7533 14.6233L62.0807 14.5627C62.2436 14.5317 62.372 14.4985 62.4657 14.4632C62.5609 14.4286 62.6525 14.3824 62.7441 14.3247V14.859ZM63.473 11.7268C63.0036 11.4896 62.4672 11.3691 61.8629 11.3691C60.9342 11.3691 60.2788 11.6114 59.8973 12.0952C59.6572 12.4053 59.5231 12.7997 59.4914 13.2807H60.8787C60.9133 13.0687 60.9811 12.9007 61.0835 12.7766C61.227 12.6086 61.4699 12.5243 61.8139 12.5243C62.1211 12.5243 62.354 12.5661 62.5126 12.6533C62.6705 12.7384 62.7498 12.8942 62.7498 13.1191C62.7498 13.3044 62.6474 13.44 62.4398 13.528C62.3244 13.5784 62.1333 13.6203 61.8651 13.6542L61.3733 13.7147C60.8152 13.7847 60.3905 13.9029 60.1036 14.068C59.5779 14.3709 59.3162 14.859 59.3162 15.5354C59.3162 16.056 59.4784 16.4591 59.805 16.7432C60.131 17.0272 60.5456 17.1462 61.046 17.17C64.1833 17.3099 64.1479 15.5166 64.1768 15.1431V13.0788C64.1768 12.4168 63.9417 11.9662 63.473 11.7268Z" fill="#253E8B"/>
<path d="M56.3189 12.5974C56.678 12.5974 56.9412 12.7084 57.1114 12.9298C57.2282 13.0934 57.301 13.2788 57.3291 13.4835H58.8772C58.7921 12.7026 58.5189 12.1575 58.0574 11.8482C57.5945 11.541 57.0025 11.386 56.2778 11.386C55.4248 11.386 54.7557 11.6477 54.2719 12.1705C53.7873 12.694 53.545 13.4251 53.545 14.3654C53.545 15.1975 53.7642 15.876 54.2026 16.3995C54.641 16.9215 55.3253 17.1833 56.2555 17.1833C57.1864 17.1833 57.8887 16.8703 58.3624 16.243C58.6588 15.8544 58.8253 15.4419 58.8606 15.0064H57.3183C57.2866 15.2941 57.1965 15.5292 57.0472 15.7101C56.8987 15.8904 56.6477 15.9813 56.293 15.9813C55.794 15.9813 55.4537 15.7541 55.2727 15.297C55.1739 15.054 55.1242 14.7317 55.1242 14.33C55.1242 13.909 55.1739 13.5715 55.2727 13.317C55.4609 12.8382 55.8099 12.5974 56.3189 12.5974Z" fill="#253E8B"/>
<path d="M53.1331 11.386C49.9539 11.386 50.1421 14.201 50.1421 14.201V17.06H51.5842V14.3784C51.5842 13.9392 51.6398 13.6133 51.7501 13.4021C51.9476 13.0271 52.3348 12.8389 52.9117 12.8389C52.955 12.8389 53.0119 12.8411 53.0826 12.8447C53.1525 12.8476 53.2326 12.8541 53.3241 12.8649V11.3968C53.26 11.3925 53.2189 11.391 53.2008 11.3889C53.1821 11.3874 53.1597 11.386 53.1331 11.386Z" fill="#253E8B"/>
<path d="M45.8962 12.88C46.0995 12.6716 46.3844 12.5671 46.7514 12.5671C47.0903 12.5671 47.3729 12.6651 47.6015 12.8627C47.8294 13.0588 47.957 13.348 47.9829 13.728H45.5148C45.566 13.371 45.6936 13.0891 45.8962 12.88ZM47.8351 15.5659C47.7746 15.6525 47.7097 15.7267 47.6376 15.7844C47.4342 15.9524 47.1573 16.0029 46.8314 16.0029C46.5228 16.0029 46.282 15.956 46.0635 15.8183C45.7037 15.5977 45.5011 15.2234 45.4794 14.6733H49.4712C49.477 14.2003 49.4611 13.8383 49.4229 13.5859C49.3565 13.1569 49.2109 12.7783 48.9866 12.4531C48.7379 12.084 48.4213 11.8136 48.0392 11.642C47.6577 11.4711 47.2287 11.386 46.7514 11.386C45.9474 11.386 45.2948 11.6391 44.7916 12.1453C44.2883 12.6522 44.0359 13.3797 44.0359 14.3286C44.0359 15.3424 44.3149 16.0736 44.873 16.5228C45.4304 16.972 46.0743 17.1977 46.8033 17.1977C47.6866 17.1977 48.3737 16.9309 48.8648 16.398C49.1294 16.1175 49.2953 15.8399 49.3652 15.5659H47.8351Z" fill="#253E8B"/>
<path d="M43.4552 17.0578H42.1374V13.7403C42.1374 13.4376 42.0379 12.7167 41.1686 12.7167C40.589 12.7167 40.1701 13.1348 40.1701 13.7403V17.0578H38.8516V13.7403C38.8516 13.4376 38.7615 12.7167 37.8929 12.7167C37.3032 12.7167 36.8937 13.1348 36.8937 13.7403V17.0578H35.5759V13.772C35.5759 12.4024 36.4842 11.3665 37.8929 11.3665C38.5921 11.3665 39.1609 11.6606 39.5307 12.1313C39.92 11.6606 40.4989 11.3665 41.1686 11.3665C42.6067 11.3665 43.4552 12.3606 43.4552 13.772V17.0578Z" fill="#253E8B"/>
<path d="M68.2262 15.5456C68.0157 15.8476 67.7064 15.9983 67.3013 15.9983C66.8954 15.9983 66.5934 15.8462 66.3944 15.5434C66.1955 15.2392 66.096 14.798 66.096 14.292C66.096 13.8227 66.1933 13.4298 66.3894 13.1133C66.5847 12.7969 66.8918 12.6383 67.3114 12.6383C67.586 12.6383 67.8275 12.7248 68.0359 12.8992C68.374 13.1876 68.5434 13.7045 68.5434 14.3749C68.5434 14.8535 68.4374 15.2443 68.2262 15.5456ZM69.9563 9.6538C69.9563 9.6538 68.503 9.49881 68.503 10.6659L68.5023 12.2108C68.3415 11.9527 68.1325 11.7501 67.8744 11.6052C67.617 11.4596 67.3222 11.3861 66.9892 11.3861C66.269 11.3861 65.6944 11.6543 65.2634 12.1906C64.8323 12.7269 64.6182 13.4997 64.6182 14.4347C64.6182 15.2457 64.8366 15.9104 65.2734 16.4287C65.711 16.9456 66.5689 17.1726 67.3301 17.1726C69.9859 17.1726 69.9549 14.8946 69.9549 14.8946L69.9563 9.6538Z" fill="#253E8B"/>
<path d="M48.5247 22.3089C48.5247 21.7653 48.4187 21.3472 48.206 21.0538C47.9941 20.7618 47.6906 20.614 47.2941 20.614C46.9135 20.614 46.6158 20.7618 46.4031 21.0538C46.2063 21.3191 46.1075 21.7386 46.1075 22.3089C46.1075 22.8409 46.2128 23.2366 46.4255 23.5019C46.6367 23.7953 46.9416 23.9417 47.3367 23.9417C47.7043 23.9417 47.9941 23.7953 48.206 23.5019C48.4187 23.2092 48.5247 22.8127 48.5247 22.3089ZM46.1075 26.2117C46.1075 26.4064 46.0369 26.5743 45.8942 26.7135C45.7536 26.8533 45.5842 26.9232 45.3859 26.9232H44.6658V21.9109C44.6658 20.9363 44.9938 20.3264 45.5344 19.9133C45.892 19.6409 46.424 19.3806 47.4217 19.3806C48.095 19.3806 48.8837 19.6423 49.3097 20.1613C49.7877 20.7453 49.9866 21.3962 49.9866 22.2461C49.9866 23.1256 49.7747 23.835 49.3515 24.3807C48.9276 24.9112 48.3827 25.1751 47.718 25.1751C47.3648 25.1751 47.0541 25.1124 46.7859 24.9877C46.5019 24.8478 46.2769 24.6315 46.1075 24.3381V26.2117Z" fill="white"/>
<path d="M57.1703 22.3099C57.1703 23.2715 57.4486 23.8043 58.0037 23.9095C58.558 24.0126 58.9682 23.8836 59.2321 23.5217C59.3575 23.3696 59.4469 23.1281 59.5031 22.8015C59.5579 22.4742 59.5622 22.1498 59.5132 21.8298C59.4656 21.5083 59.3503 21.2228 59.1694 20.9719C58.9899 20.7218 58.7253 20.5956 58.3785 20.5956C57.9064 20.5956 57.5877 20.7708 57.4205 21.1175C57.2532 21.4664 57.1703 21.8637 57.1703 22.3099ZM59.5449 24.7133V24.3594C59.2955 24.7501 58.9574 24.9923 58.5343 25.0903C58.1111 25.1877 57.6908 25.1531 57.2756 24.9851C56.8582 24.8186 56.5006 24.5086 56.2022 24.0559C55.9038 23.6017 55.7552 23.0063 55.7552 22.2674C55.7552 21.4045 55.9528 20.7038 56.3478 20.1674C56.7436 19.6311 57.3794 19.386 58.2538 19.3622C59.1153 19.3391 59.6163 19.5345 60.1072 19.9057C60.6436 20.313 60.9608 20.9373 60.9608 21.9127V24.8611C60.9629 25.799 60.3084 27.5377 58.2538 27.3907C56.9808 27.2984 56.2743 26.7758 55.88 25.5928H57.4003C57.5113 25.7874 57.6807 25.9367 57.9107 26.0405C58.1385 26.1464 58.3692 26.1738 58.5963 26.1248C58.8255 26.0758 59.0338 25.9395 59.2227 25.7175C59.4094 25.4948 59.5168 25.1595 59.5449 24.7133Z" fill="white"/>
<path d="M53.7929 22.8922C53.7835 23.3732 53.6458 23.7041 53.3819 23.8859C53.1173 24.0668 52.8281 24.1577 52.5145 24.1577C52.3154 24.1577 52.1474 24.1029 52.0097 23.994C51.8713 23.8851 51.802 23.707 51.802 23.4612C51.802 23.1864 51.9153 22.9831 52.1417 22.8519C52.2765 22.7747 52.4957 22.7084 52.8022 22.6557L53.1295 22.5952C53.2932 22.5642 53.4215 22.531 53.5146 22.4957C53.6097 22.4611 53.7013 22.4156 53.7929 22.3579V22.8922ZM54.5219 19.76C54.0525 19.5228 53.516 19.4023 52.9125 19.4023C51.983 19.4023 51.3283 19.6446 50.9462 20.1284C50.7068 20.4378 50.5719 20.8322 50.5409 21.3139H51.929C51.9628 21.1011 52.0306 20.9331 52.133 20.8091C52.2765 20.6411 52.5195 20.5575 52.8627 20.5575C53.1713 20.5575 53.4035 20.5993 53.5614 20.6858C53.7193 20.7716 53.7994 20.9274 53.7994 21.1523C53.7994 21.3369 53.6963 21.4732 53.4893 21.5612C53.3747 21.6117 53.1829 21.6535 52.9146 21.6874L52.4229 21.7472C51.8648 21.8179 51.4401 21.9361 51.1531 22.1005C50.6275 22.4034 50.365 22.8922 50.365 23.5679C50.365 24.0885 50.5279 24.4915 50.8546 24.7756C51.1805 25.059 51.5951 25.1794 52.0955 25.2025C55.2314 25.3424 55.1968 23.5484 55.2256 23.1756V21.1112C55.2256 20.4493 54.9913 19.9994 54.5219 19.76Z" fill="white"/>
<path d="M65.2704 23.5379C65.0462 23.8364 64.7246 23.985 64.3056 23.985C63.886 23.985 63.563 23.8364 63.338 23.5379C63.1109 23.2408 62.9984 22.8176 62.9984 22.2689C62.9984 21.7201 63.1109 21.2976 63.338 21.0012C63.563 20.7049 63.886 20.5578 64.3056 20.5578C64.7246 20.5578 65.0462 20.7049 65.2704 21.0012C65.4947 21.2976 65.6071 21.7201 65.6071 22.2689C65.6071 22.8176 65.4947 23.2408 65.2704 23.5379ZM66.4169 20.2146C65.954 19.6348 65.2517 19.3457 64.3093 19.3457C63.369 19.3457 62.666 19.6348 62.2038 20.2146C61.7409 20.7936 61.5094 21.4779 61.5094 22.2689C61.5094 23.0728 61.7409 23.7593 62.2038 24.3311C62.666 24.9007 63.369 25.187 64.3093 25.187C65.2517 25.187 65.954 24.9007 66.4169 24.3311C66.8791 23.7593 67.1091 23.0728 67.1091 22.2689C67.1091 21.4779 66.8791 20.7936 66.4169 20.2146Z" fill="white"/>
</svg>
