<svg width="83" height="37" viewBox="0 0 83 37" fill="none" xmlns="http://www.w3.org/2000/svg">
<rect x="0.355835" width="81.7425" height="36.569" rx="6.45336" fill="#FF0000"/>
<path d="M20.0171 17.912H10.9133V16.7853C10.9223 16.633 10.9902 16.4902 11.1026 16.3874C11.215 16.2845 11.363 16.2298 11.515 16.2347H19.4019C19.5541 16.2294 19.7023 16.284 19.8148 16.3869C19.9273 16.4898 19.995 16.6328 20.0036 16.7853L20.0171 17.912Z" fill="white"/>
<path d="M16.6877 22.2834C16.6238 22.2834 16.9165 22.0541 16.9165 22.0541C16.9165 22.0541 16.7329 22.0995 16.6877 22.0541C16.6426 22.0087 16.9408 21.884 16.9165 21.8247C16.8921 21.7655 16.1927 21.6887 16.1929 21.6246C16.1929 21.6246 14.9623 21.2211 16.0016 21.5954C17.0408 21.9697 16.4121 21.6396 16.459 21.5954C16.5033 21.5486 7.03975 18.664 7.34649 22.5874C7.65322 26.5108 7.88427 23.1252 7.88427 23.1252C7.88427 23.1252 31.0412 22.6849 31.0088 22.5874C30.7801 21.8994 31.245 23.334 31.0088 23.1252C27.3128 20.3273 26.4694 16.4561 26.4694 13.5646C26.4709 12.5538 26.6028 11.5474 26.8621 10.5706C26.8724 10.4789 26.8774 10.3868 26.8771 10.2946C26.8771 9.5813 26.5945 8.89726 26.0915 8.39291C25.5885 7.88856 24.9063 7.60522 24.195 7.60522H12.2842C6.90645 7.60522 2.50647 11.8738 2.50647 17.0911C2.50647 22.3083 6.90946 26.5769 12.2842 26.5769H29.7863C30.3688 26.5768 30.6799 26.3599 31.0978 25.953C31.5156 25.5461 8.42205 27.9652 7.88427 23.1252L16.6877 22.2834Z" fill="#FF0000"/>
<path d="M20.0171 17.912H10.9133V16.7853C10.9223 16.633 10.9902 16.4902 11.1026 16.3874C11.215 16.2845 11.363 16.2298 11.515 16.2347H19.4019C19.5541 16.2294 19.7023 16.284 19.8148 16.3869C19.9273 16.4898 19.995 16.6328 20.0036 16.7853L20.0171 17.912Z" fill="white"/>
<path d="M9.0756 24.3974C9.01167 24.3974 8.94836 24.3847 8.88931 24.3601C8.83027 24.3356 8.77664 24.2995 8.7315 24.2541C8.68636 24.2087 8.6506 24.1549 8.62627 24.0956C8.60195 24.0363 8.58952 23.9728 8.58972 23.9087C8.59035 23.8441 8.604 23.7804 8.62986 23.7213C8.65571 23.6622 8.69323 23.609 8.74015 23.5648C8.78442 23.518 8.83756 23.4806 8.89646 23.4547C8.95535 23.4288 9.01882 23.4149 9.08312 23.414H31.8321C31.7035 23.1257 31.5148 22.8686 31.2786 22.6598C27.5826 19.8619 26.4694 16.4561 26.4694 13.5646C26.4709 12.5538 26.6028 11.5474 26.862 10.5706C26.8724 10.4789 26.8774 10.3868 26.8771 10.2946C26.8771 9.5813 26.5945 8.89726 26.0915 8.39291C25.5885 7.88856 24.9063 7.60522 24.195 7.60522H12.2842C6.90645 7.60522 2.50647 11.8738 2.50647 17.0911C2.50647 22.3083 6.90946 26.5769 12.2842 26.5769H29.7863C30.3688 26.5768 30.9284 26.3491 31.3462 25.9422C31.7641 25.5353 32.0075 24.9812 32.0247 24.3974H9.0756ZM15.4642 9.07282C15.8417 9.08555 16.2071 9.20942 16.5149 9.42899C16.8227 9.64856 17.0592 9.95411 17.1949 10.3075C17.3307 10.661 17.3597 11.0467 17.2783 11.4165C17.1969 11.7864 17.0088 12.124 16.7373 12.3874C16.4658 12.6507 16.1231 12.8281 15.7517 12.8974C15.3804 12.9668 14.9969 12.9249 14.6491 12.7772C14.3013 12.6295 14.0046 12.3824 13.7959 12.0667C13.5872 11.751 13.4758 11.3807 13.4756 11.002C13.4797 10.7443 13.5344 10.49 13.6366 10.2536C13.7388 10.0172 13.8865 9.80328 14.0711 9.62412C14.2558 9.44495 14.4739 9.30405 14.713 9.20945C14.952 9.11486 15.2073 9.06843 15.4642 9.07282ZM8.50699 15.4213C8.50699 14.545 9.27868 13.8301 10.2188 13.8301H20.7111C21.6513 13.8301 22.4214 14.545 22.4214 15.4213V20.8513C22.4214 21.7261 21.6513 22.4426 20.7111 22.4426H19.977C19.9033 22.4417 19.8313 22.4201 19.7693 22.3801C19.7073 22.3401 19.6577 22.2835 19.6263 22.2166C19.5949 22.1497 19.583 22.0753 19.5918 22.0019C19.6006 21.9285 19.6298 21.8591 19.6762 21.8016C19.8955 21.5336 20.0161 21.198 20.0176 20.8513V20.34H10.9183V20.8483C10.9195 21.1988 11.0423 21.538 11.2658 21.8076C11.4388 22.0806 11.3109 22.4396 10.9003 22.4396H10.2234C9.28319 22.4396 8.5115 21.7231 8.5115 20.8483L8.50699 15.4213Z" fill="white"/>
<path d="M48.1456 7.82238C47.9852 7.67038 47.7728 7.58569 47.5521 7.58569C47.3313 7.58569 47.119 7.67038 46.9585 7.82238C46.8792 7.90099 46.817 7.99518 46.7758 8.09903C46.7345 8.20288 46.7151 8.31416 46.7188 8.42588C46.7145 8.5369 46.7337 8.64757 46.775 8.75066C46.8163 8.85375 46.8788 8.94693 46.9585 9.02413C47.1208 9.17249 47.3325 9.25474 47.5521 9.25474C47.7717 9.25474 47.9834 9.17249 48.1456 9.02413C48.2275 8.9482 48.292 8.85543 48.3347 8.75217C48.3774 8.64891 48.3974 8.5376 48.3932 8.42588C48.3969 8.31345 48.3767 8.20151 48.3341 8.09748C48.2914 7.99344 48.2272 7.89967 48.1456 7.82238ZM48.29 10.6653C48.2351 10.5541 48.1521 10.4592 48.0494 10.3899C47.9481 10.3242 47.8348 10.2792 47.7161 10.2575C47.5953 10.234 47.4726 10.2223 47.3495 10.2224C47.2271 10.2224 47.1081 10.2285 46.9926 10.2399C46.9345 10.2398 46.8769 10.2496 46.822 10.2689V15.9758C46.8242 16.1492 46.8087 16.3223 46.7757 16.4925C46.75 16.6287 46.6898 16.7559 46.6007 16.8618C46.503 16.9676 46.3802 17.047 46.2438 17.0925C46.0563 17.1532 45.8615 17.1878 45.6646 17.1951V17.2872C45.653 17.5468 45.7044 17.8054 45.8142 18.0407C45.9131 18.2285 46.1318 18.3232 46.4677 18.3232C46.66 18.3195 46.851 18.29 47.0355 18.2355C47.2562 18.1728 47.4615 18.0646 47.6382 17.9179C47.8489 17.7406 48.0177 17.5186 48.1325 17.2679C48.2836 16.9252 48.3654 16.5558 48.3731 16.1811C48.3801 16.0662 48.3845 15.9539 48.3845 15.8408V11.1303C48.3898 10.97 48.3574 10.8107 48.29 10.6653ZM53.8557 14.375V12.2118C53.8601 11.8988 53.821 11.5868 53.7393 11.2846C53.6712 11.0343 53.5388 10.8062 53.3553 10.6232C53.1576 10.4371 52.9172 10.3028 52.6554 10.232C52.3131 10.1409 51.9597 10.0984 51.6056 10.1057C51.3205 10.1049 51.0359 10.1298 50.7553 10.1803C50.5133 10.2239 50.2758 10.2897 50.0458 10.3768C49.8685 10.4393 49.7036 10.5325 49.5585 10.6522C49.5092 10.6875 49.4681 10.7331 49.4379 10.7857C49.4077 10.8384 49.3892 10.897 49.3835 10.9574C49.3947 11.0794 49.4279 11.1983 49.4815 11.3083C49.5451 11.4646 49.6318 11.6104 49.7387 11.7408C49.982 11.6038 50.2329 11.4808 50.4902 11.3724C50.7683 11.2612 51.0656 11.2064 51.365 11.211C51.7149 11.211 51.9695 11.2724 52.1287 11.3952C52.2836 11.518 52.3632 11.725 52.3632 12.0162V12.2241H52.1174C52.0299 12.2241 51.9424 12.2285 51.847 12.2355C51.5431 12.254 51.2403 12.2883 50.9398 12.3381C50.621 12.389 50.3116 12.4877 50.0222 12.6311C49.7458 12.7678 49.5045 12.9665 49.317 13.2118C49.1281 13.4583 49.0353 13.7767 49.0353 14.168C49.0267 14.4435 49.0818 14.7173 49.1963 14.968C49.2915 15.1728 49.4325 15.3529 49.6084 15.4943C49.7752 15.6247 49.9665 15.7201 50.1709 15.775C50.3729 15.8325 50.5819 15.8621 50.792 15.8627C51.1373 15.8727 51.4809 15.8102 51.8007 15.6794C52.0501 15.5755 52.2765 15.4228 52.4664 15.2302C52.4946 15.413 52.5913 15.578 52.7368 15.6916C52.8779 15.7975 53.0864 15.8507 53.3623 15.8513C53.487 15.8518 53.6116 15.8401 53.7341 15.8162C53.8651 15.7898 53.9936 15.7519 54.1181 15.703C53.9431 15.4188 53.8557 14.9776 53.8557 14.3794M52.3868 14.218C52.3811 14.2932 52.3503 14.3642 52.2993 14.4197C52.2338 14.4999 52.1548 14.5679 52.0658 14.6206C51.9574 14.6848 51.8412 14.7349 51.7202 14.7697C51.5862 14.8094 51.447 14.8289 51.3073 14.8276C51.0177 14.8276 50.8104 14.753 50.6879 14.603C50.5642 14.4484 50.4991 14.2548 50.5042 14.0566C50.4972 13.8886 50.5458 13.7229 50.6424 13.5855C50.7361 13.4609 50.8578 13.3602 50.9976 13.2916C51.1558 13.215 51.3239 13.161 51.4971 13.1311C51.6852 13.096 51.875 13.0711 52.0658 13.0566C52.1184 13.0484 52.1717 13.0446 52.225 13.0452H52.3859L52.3864 13.6316L52.3868 14.218ZM36.3317 21.7913H39.2238V18.6729L39.4189 18.65L39.6079 18.6264C39.6709 18.6192 39.7343 18.6154 39.7977 18.615C39.9077 18.616 40.0172 18.6277 40.1249 18.65C40.2414 18.6721 40.3523 18.7171 40.4512 18.7825C40.5542 18.8511 40.6389 18.9438 40.6979 19.0527C40.7696 19.1951 40.8034 19.3538 40.7959 19.5132V26.3702H39.2212V23.0369H36.3317V26.3702H34.757V18.6729L34.9634 18.65L35.1384 18.6264C35.1935 18.6192 35.249 18.6154 35.3046 18.615C35.4221 18.6151 35.5393 18.6269 35.6545 18.65C35.7713 18.6721 35.8825 18.7171 35.9817 18.7825C36.0845 18.8513 36.1691 18.944 36.2284 19.0527C36.2994 19.1954 36.3329 19.3539 36.3255 19.5132L36.3317 21.7913ZM45.2138 20.9167L45.3966 20.8992C45.5121 20.8878 45.6223 20.8825 45.7299 20.8825C45.8593 20.8823 45.9882 20.8976 46.114 20.9281C46.2336 20.956 46.3467 21.0067 46.4473 21.0772C46.547 21.1513 46.6276 21.2481 46.6826 21.3597C46.7474 21.502 46.7774 21.6578 46.7701 21.8141V26.3702H45.7299C45.5384 26.3702 45.4176 26.3184 45.3686 26.2149C45.3116 26.0706 45.2863 25.9156 45.2943 25.7605C45.1321 25.9638 44.9287 26.1304 44.6976 26.2491C44.4294 26.3988 44.0657 26.4737 43.6067 26.4737C43.0638 26.4737 42.6622 26.3664 42.4021 26.1518C42.1403 25.9352 41.9619 25.6341 41.8973 25.3C41.8573 25.1108 41.8324 24.9187 41.823 24.7255C41.8107 24.5176 41.8055 24.3149 41.8055 24.1114V20.9167C41.864 20.9183 41.9226 20.9142 41.9804 20.9044C42.0347 20.8974 42.0898 20.8921 42.1475 20.8878C42.2053 20.8834 42.2604 20.8825 42.3137 20.8825C42.5798 20.8719 42.8432 20.9396 43.0713 21.0772C43.2696 21.2076 43.3691 21.4416 43.3697 21.779V24.0456C43.3697 24.2211 43.3749 24.3816 43.3863 24.5237C43.393 24.6508 43.4226 24.7756 43.4738 24.8921C43.5252 24.9972 43.6102 25.0821 43.7152 25.1333C43.8611 25.1986 44.0202 25.2286 44.1797 25.2211C44.434 25.2293 44.6857 25.1687 44.9085 25.0456C45.1114 24.9272 45.2129 24.7825 45.2129 24.6026L45.2138 20.9167ZM52.2465 25.036V22.8728C52.2516 22.5599 52.213 22.2478 52.1319 21.9456C52.0635 21.6954 51.9311 21.4675 51.7479 21.2842C51.5503 21.098 51.3099 20.9636 51.048 20.893C50.7057 20.8018 50.3523 20.7592 49.9982 20.7667C49.7134 20.7657 49.4291 20.7907 49.1488 20.8413C48.9062 20.8848 48.6681 20.9506 48.4375 21.0378C48.2603 21.1003 48.0954 21.1935 47.9503 21.3132C47.901 21.3485 47.8598 21.3941 47.8297 21.4467C47.7995 21.4994 47.7809 21.558 47.7753 21.6184C47.7874 21.7402 47.8205 21.859 47.8733 21.9693C47.9379 22.1263 48.0264 22.2722 48.1357 22.4018C48.3788 22.265 48.6294 22.142 48.8863 22.0334C49.1645 21.9224 49.4618 21.8675 49.7612 21.872C50.1111 21.872 50.3657 21.9334 50.5249 22.0562C50.6841 22.179 50.7623 22.386 50.7593 22.6772V22.8851H50.5135C50.426 22.8851 50.3385 22.8895 50.2432 22.8965C49.9395 22.9153 49.637 22.9499 49.3369 23C49.0177 23.0507 48.708 23.1495 48.4183 23.293C48.1409 23.4288 47.8979 23.6262 47.7079 23.8702C47.5219 24.117 47.4286 24.4357 47.428 24.8263C47.4202 25.1016 47.4746 25.3751 47.5872 25.6263C47.6833 25.8313 47.8252 26.0114 48.0019 26.1526C48.1683 26.2832 48.3594 26.3786 48.5635 26.4333C48.765 26.4908 48.9734 26.5203 49.1829 26.5211C49.5285 26.5312 49.8724 26.4687 50.1925 26.3377C50.4419 26.2339 50.6682 26.0812 50.8582 25.8886C50.8864 26.0713 50.9831 26.2364 51.1285 26.35C51.2697 26.4559 51.4782 26.5091 51.754 26.5097C51.8788 26.5102 52.0033 26.4985 52.1258 26.4746C52.2575 26.4482 52.3866 26.4103 52.5116 26.3614C52.3367 26.0772 52.2492 25.636 52.2492 25.0377M50.7803 24.8763C50.7749 24.9516 50.7441 25.0228 50.6929 25.0781C50.6263 25.1583 50.5464 25.2263 50.4566 25.279C50.349 25.344 50.233 25.3941 50.112 25.4281C49.9779 25.4677 49.8388 25.4872 49.699 25.486C49.4074 25.486 49.201 25.4111 49.0797 25.2614C48.9555 25.107 48.8904 24.9132 48.896 24.7149C48.8886 24.5469 48.9372 24.3811 49.0342 24.2439C49.1267 24.1202 49.2465 24.0197 49.3841 23.95C49.5427 23.8736 49.7111 23.8196 49.8845 23.7895C50.0723 23.7545 50.2618 23.7296 50.4523 23.7149C50.5055 23.7067 50.5594 23.7029 50.6132 23.7035H50.7733L50.7803 24.8763ZM54.8299 26.3702H53.2552V20.9316L53.3926 20.9079C53.4389 20.9009 53.4923 20.8956 53.5535 20.8913C53.6148 20.8869 53.6874 20.886 53.7714 20.886C53.9909 20.8807 54.2087 20.9257 54.4083 21.0176C54.4979 21.0624 54.5754 21.1283 54.6343 21.2095C54.6933 21.2907 54.7318 21.3849 54.7468 21.4842C54.909 21.2807 55.1124 21.1139 55.3434 20.9948C55.6111 20.8451 55.9745 20.7702 56.4335 20.7702C56.9765 20.7702 57.3783 20.8778 57.639 21.093C57.8999 21.31 58.0781 21.6105 58.1438 21.9439C58.1834 22.1335 58.2083 22.3259 58.2181 22.5193C58.2292 22.7263 58.2348 22.9296 58.2348 23.129V26.3746H56.6776V23.1948C56.6776 23.0263 56.6714 22.8684 56.6601 22.7228C56.6542 22.5939 56.6245 22.4672 56.5726 22.3491C56.5211 22.2441 56.4366 22.159 56.332 22.107C56.1857 22.0422 56.0264 22.0122 55.8666 22.0193C55.6127 22.0115 55.3613 22.0721 55.1387 22.1948C54.9358 22.3117 54.8343 22.4594 54.8343 22.6377L54.8299 26.3702ZM61.9895 25.3807C62.1442 25.3823 62.2983 25.3631 62.4479 25.3237C62.5754 25.2894 62.6987 25.2408 62.8154 25.179C62.9135 25.1279 63.0059 25.0664 63.0909 24.9956C63.1533 24.9445 63.2118 24.8888 63.2659 24.829C63.318 24.8822 63.364 24.941 63.4033 25.0044C63.4502 25.0782 63.4923 25.1549 63.5292 25.2342C63.5644 25.3105 63.5937 25.3894 63.6167 25.4702C63.6385 25.5371 63.6503 25.6068 63.6517 25.6772C63.6514 25.7543 63.636 25.8306 63.6062 25.9018C63.5603 25.9916 63.493 26.0688 63.4102 26.1263C63.2195 26.2559 63.0108 26.3567 62.7909 26.4254C62.4602 26.5264 62.1154 26.5729 61.7699 26.5632C61.4682 26.5597 61.1679 26.5212 60.875 26.4483C60.5486 26.3685 60.2433 26.2188 59.98 26.0097C59.6847 25.7696 59.4487 25.4643 59.2907 25.1176C59.1081 24.7374 59.0166 24.2404 59.016 23.6263C59.016 23.0415 59.1113 22.5658 59.3021 22.1992C59.4709 21.857 59.7143 21.5572 60.0142 21.322C60.2825 21.1177 60.5893 20.97 60.9161 20.8878C61.1953 20.8123 61.4826 20.7717 61.7717 20.7667C62.0665 20.7637 62.3605 20.7985 62.6465 20.8702C62.8797 20.9264 63.1024 21.0197 63.3061 21.1465C63.4236 21.2138 63.527 21.3031 63.6106 21.4097C63.6692 21.4982 63.6997 21.6025 63.6981 21.7088C63.6907 21.8466 63.6556 21.9815 63.5948 22.1053C63.5277 22.2606 63.4394 22.4059 63.3324 22.5369C63.1732 22.3799 62.9912 22.248 62.7926 22.1456C62.5496 22.014 62.2771 21.9467 62.0009 21.95C61.4964 21.95 61.1369 22.1053 60.9222 22.4158C60.7076 22.7263 60.6006 23.1234 60.6012 23.607C60.5996 23.839 60.6228 24.0704 60.6703 24.2974C60.7106 24.4991 60.7903 24.6907 60.9047 24.8614C61.015 25.0215 61.1628 25.1519 61.3352 25.2412C61.5388 25.3401 61.7634 25.3879 61.9895 25.3807ZM68.668 25.036V22.8728C68.6733 22.56 68.635 22.2479 68.5543 21.9456C68.4852 21.6955 68.3525 21.4676 68.1693 21.2842C67.9718 21.098 67.7313 20.9636 67.4695 20.893C67.1272 20.8018 66.7738 20.7592 66.4197 20.7667C66.1348 20.7657 65.8505 20.7907 65.5702 20.8413C65.3276 20.8848 65.0896 20.9506 64.859 21.0378C64.6816 21.1005 64.5164 21.1937 64.3708 21.3132C64.3216 21.3486 64.2805 21.3941 64.2503 21.4468C64.2201 21.4994 64.2015 21.558 64.1958 21.6184C64.2074 21.7402 64.2403 21.859 64.293 21.9693C64.358 22.126 64.4465 22.2719 64.5554 22.4018C64.7984 22.2648 65.049 22.1418 65.306 22.0334C65.5842 21.9224 65.8815 21.8675 66.1808 21.872C66.5308 21.872 66.7871 21.9334 66.9446 22.0562C67.102 22.179 67.1799 22.386 67.1799 22.6772V22.8851H66.9323C66.8448 22.8851 66.7574 22.8895 66.662 22.8965C66.3586 22.9154 66.0564 22.9499 65.7565 23C65.4374 23.0507 65.1277 23.1495 64.838 23.293C64.5616 23.4301 64.3201 23.6287 64.132 23.8737C63.9459 24.1205 63.8526 24.4392 63.852 24.8298C63.8439 25.1053 63.8989 25.3791 64.013 25.6298C64.1079 25.8351 64.2493 26.0153 64.4259 26.1561C64.5923 26.2868 64.7833 26.3823 64.9876 26.4368C65.1891 26.4943 65.3975 26.5238 65.607 26.5246C65.9531 26.5347 66.2975 26.4722 66.6183 26.3412C66.8667 26.2365 67.0923 26.0839 67.2822 25.8921C67.3112 26.0746 67.4077 26.2393 67.5526 26.3535C67.6937 26.4594 67.9019 26.5126 68.1772 26.5132C68.3023 26.5139 68.4271 26.5021 68.5499 26.4781C68.6812 26.4517 68.81 26.4138 68.9348 26.3649C68.7598 26.0807 68.6724 25.6395 68.6724 25.0412M67.2044 24.8798C67.1984 24.955 67.1676 25.0259 67.1169 25.0816C67.0504 25.1618 66.9705 25.2298 66.8807 25.2825C66.6516 25.4192 66.3897 25.4908 66.1231 25.4895C65.8315 25.4895 65.625 25.4146 65.5037 25.2649C65.3799 25.1104 65.3151 24.9166 65.3209 24.7184C65.3133 24.5506 65.3613 24.385 65.4574 24.2474C65.5519 24.1229 65.6741 24.0223 65.8143 23.9535C65.9723 23.8771 66.1401 23.8231 66.3129 23.793C66.5007 23.758 66.6903 23.7331 66.8807 23.7184C66.934 23.7103 66.9878 23.7065 67.0417 23.707H67.2026L67.2044 24.8798ZM72.5706 27.314C72.4398 27.7846 72.1746 28.2066 71.8077 28.5281C71.452 28.8304 70.9641 28.9819 70.3442 28.9825C70.0537 28.9924 69.7643 28.9413 69.4947 28.8324C69.3933 28.7938 69.3065 28.7241 69.2469 28.6333C69.1872 28.5424 69.1576 28.435 69.1623 28.3263C69.1667 28.2028 69.1965 28.0816 69.2497 27.9702C69.3185 27.8189 69.3971 27.6724 69.4851 27.5316C69.5874 27.6019 69.6998 27.6563 69.8184 27.693C69.9595 27.7393 70.1073 27.7624 70.2558 27.7614C70.4671 27.7699 70.6746 27.7028 70.8411 27.5719C70.9944 27.4456 71.1245 27.2213 71.2312 26.8991L71.4263 26.3237C71.4263 26.3237 70.8139 26.5649 70.5944 25.9605C70.4859 25.6649 68.9479 21.0079 68.9479 21.0079C69.0842 20.9644 69.2242 20.9336 69.3661 20.9158C69.5165 20.8941 69.6682 20.8826 69.8201 20.8816C70.023 20.8791 70.2216 20.9404 70.3879 21.057C70.5619 21.1865 70.6856 21.3726 70.7378 21.5834L71.771 25.1263L72.6196 22.0316C72.6628 21.8794 72.7145 21.7298 72.7744 21.5834C72.8275 21.4527 72.8991 21.3304 72.987 21.2202C73.0713 21.1164 73.177 21.032 73.2967 20.9728C73.4372 20.9091 73.5905 20.8791 73.7446 20.8851C73.8754 20.8836 74.006 20.8969 74.1339 20.9246C74.2513 20.9526 74.3666 20.9892 74.4786 21.0342L72.5706 27.314ZM79.9472 23.7342V23.507C79.9402 23.1761 79.8923 22.8472 79.8046 22.5281C79.7156 22.1966 79.5596 21.8869 79.3462 21.6184C79.1238 21.3484 78.8404 21.1355 78.5194 20.9974C78.1293 20.8336 77.7088 20.7549 77.2859 20.7667C76.8726 20.7574 76.4621 20.8361 76.0813 20.9974C75.7524 21.1384 75.4601 21.353 75.2266 21.6246C74.998 21.8946 74.8244 22.2069 74.7157 22.5439C74.5986 22.9026 74.5395 23.2778 74.5407 23.6553C74.5395 24.0265 74.5899 24.3962 74.6903 24.7535C74.7823 25.0896 74.9422 25.4031 75.1601 25.6746C75.3853 25.9472 75.6704 26.164 75.9929 26.3079C76.7954 26.6223 77.687 26.6201 78.4879 26.3018C78.8147 26.1542 79.1035 25.9337 79.3321 25.657C79.5527 25.383 79.7128 25.0652 79.8019 24.7246C79.8892 24.4015 79.9371 24.0689 79.9445 23.7342M78.327 24.2649C78.2997 24.4593 78.2405 24.6478 78.152 24.8228C78.0714 24.9831 77.9509 25.1196 77.8021 25.2193C77.6322 25.3255 77.4343 25.3778 77.2343 25.3693C77.038 25.3767 76.8441 25.3244 76.6779 25.2193C76.5291 25.1196 76.4085 24.9831 76.328 24.8228C76.2414 24.647 76.1824 24.4588 76.153 24.2649C76.1185 24.0597 76.1012 23.852 76.1014 23.6439C76.1008 23.4393 76.1198 23.2351 76.1583 23.0342C76.1914 22.8466 76.2552 22.6658 76.3472 22.4991C76.4331 22.3435 76.5552 22.2111 76.7033 22.1132C76.8695 22.0083 77.0634 21.956 77.2597 21.9632C77.4532 21.9561 77.6445 22.0061 77.81 22.107C77.9556 22.201 78.0758 22.3297 78.1599 22.4816C78.2495 22.6481 78.3087 22.8293 78.3348 23.0167C78.3664 23.2198 78.3819 23.4251 78.3812 23.6307C78.3805 23.8431 78.3632 24.0552 78.3296 24.2649H78.327Z" fill="white"/>
<path d="M45.708 14.3229V12.0825C45.7124 11.7584 45.6736 11.4352 45.5928 11.1223C45.5254 10.8629 45.3942 10.6267 45.2125 10.4372C45.0168 10.2445 44.7788 10.1053 44.5196 10.0321C44.1807 9.93768 43.8308 9.89364 43.4802 9.90123C43.1979 9.90036 42.9162 9.9262 42.6383 9.97845C42.3987 10.0237 42.1636 10.0918 41.9358 10.182C41.7604 10.2467 41.5971 10.3433 41.4534 10.4672C41.4046 10.5038 41.3639 10.551 41.334 10.6055C41.3041 10.6601 41.2857 10.7207 41.2802 10.7834C41.2912 10.9097 41.3241 11.0328 41.3772 11.1468C41.4401 11.3086 41.526 11.4596 41.6318 11.5947C41.8727 11.4528 42.1211 11.3254 42.3759 11.2131C42.6512 11.098 42.9456 11.0412 43.242 11.0459C43.5885 11.0459 43.8405 11.1095 43.9982 11.2367C44.1515 11.3639 44.2303 11.5783 44.2303 11.8799V12.0953H43.9869C43.9003 12.0953 43.8137 12.0998 43.7193 12.1071C43.4183 12.1262 43.1185 12.1617 42.8211 12.2134C42.5054 12.266 42.1991 12.3683 41.9125 12.5168C41.6388 12.6584 41.3999 12.8642 41.2143 13.1182C41.0272 13.3735 40.9354 13.7033 40.9354 14.1085C40.9269 14.3939 40.9815 14.6775 41.0948 14.9371C41.189 15.1492 41.3286 15.3358 41.5028 15.4822C41.668 15.6172 41.8574 15.7161 42.0597 15.7729C42.2598 15.8325 42.4667 15.8631 42.6747 15.8637C43.0165 15.8741 43.3567 15.8094 43.6734 15.6739C43.9204 15.5663 44.1444 15.4081 44.3325 15.2087C44.3604 15.3979 44.4561 15.5689 44.6001 15.6866C44.7399 15.7962 44.9463 15.8513 45.2195 15.8519C45.343 15.8525 45.4663 15.8403 45.5876 15.8156C45.7173 15.7883 45.8446 15.749 45.9678 15.6984C45.7946 15.404 45.708 14.9471 45.708 14.3275M44.2537 14.1603C44.2481 14.2382 44.2175 14.3118 44.1671 14.3692C44.1022 14.4523 44.0239 14.5227 43.9358 14.5773C43.8285 14.6438 43.7135 14.6957 43.5937 14.7317C43.461 14.7728 43.3232 14.793 43.1848 14.7917C42.8981 14.7917 42.6929 14.7145 42.5716 14.5591C42.4491 14.3989 42.3846 14.1984 42.3897 13.9931C42.3828 13.8191 42.4309 13.6476 42.5266 13.5053C42.6193 13.3762 42.7398 13.2719 42.8782 13.2009C43.0349 13.1215 43.2014 13.0656 43.3728 13.0347C43.559 12.9983 43.7469 12.9725 43.9358 12.9574C43.988 12.949 44.0407 12.945 44.0934 12.9456H44.2528L44.2533 13.553L44.2537 14.1603Z" fill="white"/>
<path d="M40.15 15.4459C40.2298 15.3943 40.3047 15.3356 40.374 15.2705C40.446 15.2022 40.5087 15.1247 40.5603 15.0398C40.6004 14.9615 40.6202 14.8743 40.618 14.7863C40.6158 14.7067 40.5971 14.6284 40.5629 14.5565C40.523 14.4687 40.4768 14.384 40.4247 14.3029C40.3706 14.2195 40.3122 14.139 40.2497 14.0617C40.1876 13.9845 40.1351 13.9196 40.0888 13.8661C40.0197 13.9275 39.9339 13.9968 39.8307 14.0845C39.7155 14.1776 39.5923 14.2601 39.4624 14.331C39.3111 14.4136 39.1512 14.4792 38.9856 14.5266C38.7937 14.582 38.5948 14.6092 38.3951 14.6073C38.0424 14.62 37.6925 14.5408 37.3794 14.3775C37.1135 14.229 36.8873 14.0183 36.7198 13.7635C36.5455 13.497 36.4245 13.1991 36.3637 12.8863C36.2941 12.5454 36.2595 12.1983 36.2605 11.8503C36.2605 11.5161 36.2951 11.1827 36.3637 10.8556C36.4254 10.5474 36.5422 10.2528 36.7084 9.9863C36.8777 9.71257 37.117 9.48929 37.4015 9.33965C37.6859 9.19002 38.0052 9.11951 38.326 9.13543C38.5293 9.13293 38.7321 9.15801 38.9287 9.20999C39.0952 9.25498 39.2567 9.3167 39.4108 9.3942C39.5476 9.46415 39.6764 9.54886 39.7948 9.64683C39.9097 9.74332 40.0129 9.83748 40.1045 9.92929C40.2428 9.79838 40.3695 9.65574 40.4833 9.50297C40.5907 9.37302 40.6522 9.21111 40.6583 9.04245C40.659 8.94544 40.633 8.85012 40.583 8.76701C40.5366 8.68537 40.4776 8.61165 40.4081 8.54859C40.3225 8.47587 40.2325 8.40849 40.1386 8.34684C39.9979 8.25494 39.8481 8.17792 39.6916 8.11702C39.4868 8.0359 39.2755 7.97222 39.06 7.92667C38.2596 7.76712 37.4302 7.84516 36.6734 8.15123C36.2407 8.34322 35.8578 8.63257 35.5545 8.99684C35.2466 9.37568 35.0183 9.81312 34.8835 10.2828C34.7298 10.8077 34.6543 11.3524 34.6596 11.8995C34.6544 12.4412 34.7238 12.9811 34.866 13.5038C34.9907 13.9669 35.2116 14.3982 35.5143 14.7696C35.8163 15.1325 36.1997 15.4183 36.6332 15.6038C37.1421 15.8142 37.6891 15.9161 38.2394 15.9029C38.5263 15.9062 38.8129 15.8812 39.095 15.8284C39.3115 15.7881 39.5243 15.7294 39.731 15.6529C39.8774 15.5985 40.0178 15.5292 40.15 15.4459Z" fill="white"/>
</svg>
