<svg width="52" height="19" viewBox="0 0 52 19" fill="none" xmlns="http://www.w3.org/2000/svg">
<path d="M23.373 6.81445H24.4644V11.0499H27.0702V11.9782H23.373V6.81445Z" fill="#E0E0F6"/>
<path fill-rule="evenodd" clip-rule="evenodd" d="M29.6493 9.5698C29.519 9.6164 29.3834 9.64601 29.2458 9.65791L28.8928 9.69604C28.5828 9.72183 28.2802 9.80518 28 9.94193C27.6314 10.1514 27.4471 10.4911 27.4471 10.961C27.4284 11.2794 27.5552 11.5887 27.791 11.8C28.0358 12.0033 28.3455 12.109 28.6618 12.0971C28.9206 12.1016 29.1761 12.0372 29.4028 11.9104C29.582 11.8085 29.7451 11.6799 29.8868 11.5291C29.8946 11.6159 29.9037 11.6921 29.9154 11.7605C29.9296 11.8347 29.9509 11.9074 29.979 11.9775H31.0768V11.8302C31.018 11.806 30.9669 11.766 30.9289 11.7145C30.8869 11.6335 30.8659 11.543 30.8679 11.4515V11.0097V9.25816C30.8679 8.79793 30.7031 8.48497 30.3735 8.31929C30.0205 8.14839 29.633 8.0633 29.2419 8.07076C28.5895 8.06989 28.1297 8.23776 27.8624 8.57439C27.6856 8.8122 27.5862 9.09991 27.5782 9.39755H28.5528C28.5687 9.2699 28.6185 9.14902 28.6968 9.04777C28.7967 8.93074 28.968 8.87288 29.2094 8.87288C29.3776 8.86307 29.5457 8.89371 29.6999 8.9623C29.8142 9.02679 29.8795 9.154 29.8661 9.28578C29.8639 9.41866 29.7757 9.53427 29.6493 9.5698ZM29.6678 10.219C29.7361 10.1938 29.8018 10.1616 29.8638 10.123V10.4886C29.856 10.8226 29.7595 11.0527 29.5744 11.1789C29.3947 11.3032 29.182 11.3693 28.9645 11.3683C28.837 11.372 28.712 11.3317 28.6102 11.2539C28.5058 11.1617 28.4517 11.0241 28.4648 10.8844C28.4561 10.7082 28.5493 10.5428 28.7036 10.461C28.8503 10.3929 29.0066 10.3485 29.1669 10.3295L29.3966 10.2874C29.4888 10.2725 29.5795 10.2496 29.6678 10.219Z" fill="#E0E0F6"/>
<path fill-rule="evenodd" clip-rule="evenodd" d="M35.4079 10.0209C35.4079 9.44842 35.2638 8.98117 34.9757 8.61912C34.6811 8.25765 34.2348 8.0591 33.7728 8.08394C33.528 8.07417 33.2855 8.1348 33.0733 8.25883C32.9064 8.36402 32.762 8.50221 32.6489 8.66514V6.82422H31.6406V11.9762H32.6269V11.4962C32.7286 11.6495 32.8564 11.7831 33.0045 11.8907C33.2407 12.0284 33.511 12.0941 33.7831 12.0801C34.2525 12.1005 34.7005 11.8806 34.9757 11.4949C35.2752 11.0648 35.427 10.5469 35.4079 10.0209ZM34.3495 10.1252C34.3627 10.4145 34.287 10.7007 34.1328 10.9444H34.1289C33.9925 11.1469 33.7633 11.2645 33.5216 11.2561C33.2568 11.274 33.0017 11.1522 32.8467 10.9339C32.6917 10.6929 32.6146 10.4088 32.6261 10.1213C32.6182 9.88986 32.6544 9.65905 32.7326 9.44147C32.8511 9.12511 33.1598 8.92442 33.493 8.94705C33.8264 8.92629 34.1328 9.13254 34.2431 9.45199C34.3206 9.66748 34.3567 9.896 34.3495 10.1252Z" fill="#E0E0F6"/>
<path d="M36.7937 10.7596C36.7996 10.8974 36.8482 11.0299 36.9326 11.1383C37.058 11.2706 37.2903 11.3368 37.6294 11.3368C37.7922 11.344 37.9544 11.3144 38.1044 11.25C38.2044 11.2075 38.2721 11.1115 38.2796 11.0019C38.287 10.8923 38.2328 10.7879 38.1394 10.7319C38.0447 10.6728 37.693 10.5728 37.0831 10.4295C36.6445 10.3234 36.3356 10.1893 36.1565 10.0271C35.9702 9.85058 35.8716 9.59873 35.8879 9.34073C35.8877 8.98919 36.0418 8.65577 36.3084 8.43079C36.5887 8.17832 36.9832 8.05077 37.4919 8.05077C37.9036 8.03347 38.3119 8.13224 38.6715 8.33611C38.9752 8.52634 39.1482 8.85508 39.1906 9.32232H38.181C38.1736 9.21269 38.1358 9.10741 38.072 9.01857C37.9604 8.88707 37.7709 8.81475 37.5036 8.81475C37.3402 8.80125 37.1764 8.83644 37.0325 8.916C36.9492 8.96637 36.8965 9.05583 36.8923 9.15401C36.8877 9.26019 36.9466 9.35878 37.0416 9.40385C37.1415 9.45776 37.4919 9.54981 38.0953 9.67999C38.4295 9.73895 38.7426 9.88536 39.0037 10.1047C39.1998 10.2898 39.308 10.5512 39.3009 10.8227C39.3073 11.1803 39.149 11.5206 38.8726 11.7431C38.5889 11.9825 38.1485 12.1021 37.5516 12.1021C36.9546 12.1021 36.5056 11.9754 36.2046 11.7221C35.9217 11.4829 35.7617 11.1262 35.7698 10.753L36.7937 10.7596Z" fill="#E0E0F6"/>
<path d="M23.8706 12.8636C24.2963 12.4363 24.877 12.2056 25.4759 12.2258C26.341 12.2258 26.976 12.5107 27.3809 13.0806C27.5884 13.3608 27.7126 13.6951 27.7391 14.0444H26.6477C26.5999 13.8398 26.5087 13.6482 26.3804 13.4829C26.1866 13.2594 25.8989 13.1476 25.5174 13.1476C25.1508 13.1359 24.8037 13.315 24.5973 13.6223C24.3733 13.9379 24.2612 14.3854 24.2612 14.9649C24.2612 15.5443 24.3797 15.9783 24.6168 16.2667C24.8338 16.5463 25.1677 16.7065 25.5187 16.6993C25.8455 16.7192 26.1625 16.5818 26.3739 16.3285C26.504 16.1498 26.596 15.9456 26.6438 15.7289H27.7274C27.6524 16.257 27.3993 16.7425 27.0111 17.103C26.6037 17.463 26.0757 17.6512 25.5356 17.629C24.7915 17.629 24.2076 17.391 23.7837 16.9149C23.3597 16.4389 23.1473 15.7815 23.1465 14.9425C23.1465 14.0457 23.3879 13.3528 23.8706 12.8636Z" fill="#E0E0F6"/>
<path fill-rule="evenodd" clip-rule="evenodd" d="M31.6517 14.3103C31.4868 14.0615 31.2555 13.8654 30.9846 13.7449C30.6974 13.6238 30.3886 13.5642 30.0775 13.57C29.5659 13.5484 29.0676 13.7382 28.6968 14.096C28.3429 14.4484 28.166 14.9555 28.166 15.6174C28.166 16.324 28.362 16.8337 28.7539 17.1467C29.1402 17.4574 29.6207 17.6232 30.1139 17.6161C30.7359 17.6161 31.22 17.4307 31.566 17.0599C31.7612 16.8769 31.8923 16.6346 31.9398 16.3695H30.9094C30.8586 16.4707 30.7879 16.5602 30.7017 16.6325C30.5412 16.7552 30.3433 16.817 30.1424 16.8074C29.9472 16.8137 29.7543 16.764 29.5857 16.6641C29.3314 16.5089 29.1977 16.2407 29.1821 15.858H31.993C32.0018 15.6046 31.9905 15.3509 31.9592 15.0993C31.9183 14.8157 31.8131 14.5457 31.6517 14.3103ZM29.207 15.2001C29.2309 14.9786 29.3252 14.771 29.4757 14.6084C29.6386 14.4556 29.8561 14.3767 30.0778 14.3901C30.2953 14.3832 30.5079 14.4566 30.676 14.5966C30.845 14.751 30.9428 14.9697 30.946 15.2001H29.207Z" fill="#E0E0F6"/>
<path d="M34.6574 13.5786H34.7444V14.6016C34.6808 14.5937 34.6237 14.5898 34.5744 14.5872H34.4537C34.048 14.5872 33.7754 14.7187 33.6362 14.9816C33.5454 15.1959 33.5054 15.4287 33.5194 15.6615V17.4866H32.502V13.6733H33.4662V14.3386C33.5732 14.1426 33.7103 13.965 33.8723 13.8127C34.0831 13.6488 34.3441 13.5654 34.6094 13.5773L34.6574 13.5786Z" fill="#E0E0F6"/>
<path d="M35.0039 14.4152V13.7038H35.5412V12.6387H36.5404V13.7038H37.1672V14.4152H36.5404V16.4336C36.5404 16.5901 36.5599 16.6874 36.6001 16.7255C36.6403 16.7637 36.7636 16.7834 36.9686 16.7834H37.066H37.1672V17.5303L36.6883 17.5474C36.2116 17.5631 35.8859 17.4812 35.7112 17.3015C35.5877 17.1561 35.5265 16.9668 35.5412 16.7755V14.4152H35.0039Z" fill="#E0E0F6"/>
<path fill-rule="evenodd" clip-rule="evenodd" d="M37.7598 13.2134H38.7837V12.293H37.7598V13.2134ZM38.7838 13.6699H37.7599V17.4832H38.7838V13.6699Z" fill="#E0E0F6"/>
<path d="M41.2472 12.2754L41.4587 12.2912V13.1052C41.3643 13.0949 41.2695 13.0897 41.1745 13.0894C41.0741 13.074 40.9723 13.106 40.8981 13.1762C40.8491 13.233 40.8219 13.3058 40.8216 13.3813V13.7035H41.4847V14.4083H40.8216V17.4879H39.8197V14.4083H39.2578V13.7035H39.8093V13.4589C39.8093 13.0495 39.879 12.7681 40.0183 12.6147C40.1653 12.3859 40.5183 12.2715 41.0772 12.2715C41.1369 12.2715 41.1953 12.2728 41.2472 12.2754Z" fill="#E0E0F6"/>
<path fill-rule="evenodd" clip-rule="evenodd" d="M41.9297 13.2134H42.9523V12.293H41.9297V13.2134ZM42.9525 13.6699H41.9299V17.4832H42.9525V13.6699Z" fill="#E0E0F6"/>
<path fill-rule="evenodd" clip-rule="evenodd" d="M47.0416 14.3103C46.8768 14.0615 46.6454 13.8654 46.3746 13.7449C46.0869 13.6239 45.7777 13.5644 45.4662 13.57C44.955 13.5484 44.4571 13.7383 44.0867 14.096C43.732 14.4484 43.5547 14.9555 43.5547 15.6174C43.5547 16.324 43.7511 16.8337 44.1438 17.1467C44.5302 17.4574 45.0107 17.6232 45.5038 17.6161C46.1259 17.6161 46.6099 17.4307 46.956 17.0599C47.1511 16.8769 47.2823 16.6346 47.3297 16.3695H46.2993C46.2482 16.4704 46.1776 16.5598 46.0917 16.6325C45.9305 16.755 45.7323 16.8168 45.5311 16.8074C45.3359 16.8136 45.143 16.764 44.9744 16.6641C44.7209 16.5098 44.5864 16.2411 44.5708 15.858H47.3816C47.3908 15.6046 47.3799 15.3509 47.3492 15.0993C47.3083 14.8157 47.203 14.5457 47.0416 14.3103ZM44.5957 15.1982C44.6207 14.977 44.7148 14.7697 44.8643 14.6065C45.0277 14.4535 45.2457 14.3746 45.4678 14.3882C45.6852 14.3816 45.8978 14.4549 46.066 14.5947C46.2351 14.7488 46.3326 14.9678 46.3346 15.1982H44.5957Z" fill="#E0E0F6"/>
<path fill-rule="evenodd" clip-rule="evenodd" d="M50.4312 14.1513C50.321 13.9752 50.1688 13.83 49.9887 13.7292C49.7969 13.6251 49.582 13.5726 49.3645 13.5766C48.8941 13.5592 48.4431 13.7672 48.1472 14.1381C47.8444 14.5116 47.693 15.024 47.693 15.6753C47.6729 16.1817 47.8384 16.6777 48.1576 17.0678C48.4361 17.4141 48.855 17.613 49.2957 17.6083C49.7791 17.6409 50.2379 17.3892 50.4753 16.9613V17.4873H51.4564V12.3301H50.4312V14.1513ZM50.4603 15.6324C50.4732 15.9217 50.395 16.2076 50.2371 16.449C50.0868 16.6608 49.84 16.7798 49.583 16.7646C49.3296 16.7806 49.0865 16.6602 48.9433 16.4477C48.6647 15.9277 48.6647 15.3003 48.9433 14.7803C49.0835 14.558 49.3323 14.431 49.5921 14.449C49.7781 14.4458 49.959 14.5102 50.1021 14.6304C50.3409 14.8312 50.4603 15.1652 50.4603 15.6324Z" fill="#E0E0F6"/>
<path d="M30.0775 0.426141V1.37159C29.96 1.12639 29.7855 0.913837 29.5688 0.752247C29.1225 0.426839 28.5833 0.258286 28.0336 0.272292C27.3238 0.272292 26.7736 0.44718 26.3946 0.790381C26.231 0.938732 26.0967 1.11722 25.9988 1.31636V0.430085H21.4023V1.75687H22.9596V6.0883H24.4403V1.75292H25.847C25.8244 1.8712 25.8131 1.99142 25.8133 2.1119C25.8133 2.69574 26.0183 3.13362 26.4219 3.4137C26.6516 3.57544 27.0461 3.71614 27.6301 3.84763L28.1933 3.97255C28.4227 4.01215 28.645 4.08663 28.8525 4.19346C28.9369 4.24067 28.9873 4.33259 28.9823 4.43015C28.9823 4.57217 28.9446 4.74969 28.6501 4.85357C28.4641 4.90956 28.2704 4.93487 28.0765 4.92852C27.7014 4.92852 27.4406 4.84305 27.2978 4.67474C27.2086 4.54453 27.1557 4.39235 27.1447 4.23423L27.1201 4.0646H25.7328V4.26184C25.7102 4.82394 25.9567 5.36255 26.3946 5.70828C26.819 6.04885 27.403 6.22111 28.1284 6.22111C28.8538 6.22111 29.4079 6.04491 29.8089 5.69513C30.2098 5.36635 30.4402 4.86985 30.4344 4.34731C30.4344 3.82133 30.2527 3.40318 29.8959 3.11784C29.6046 2.90855 29.2721 2.76547 28.9213 2.69837L28.0129 2.4814C27.7921 2.4409 27.5769 2.3738 27.3718 2.28153C27.2772 2.23723 27.2179 2.13988 27.2213 2.03432C27.2152 1.90587 27.2803 1.78469 27.39 1.72005C27.5656 1.61794 27.7666 1.56953 27.9688 1.58066C28.1612 1.57395 28.3526 1.61219 28.5281 1.69243C28.7218 1.78595 28.8439 1.98525 28.8408 2.20263L28.8525 2.38804H30.28L30.2722 2.18422C30.2679 2.039 30.2496 1.89455 30.2177 1.75292H31.6452V6.08436H33.1272V1.75292H34.6844V0.426141H30.0775Z" fill="#E0E0F6"/>
<path d="M0.586702 9.13934C0.586702 9.13934 5.17151 10.499 7.98365 12.2952C7.98365 12.2952 11.8768 9.84153 23.9455 9.13934V9.62193C23.9455 9.62193 14.3853 12.1203 7.63716 16.7226C7.63716 16.7226 4.02693 12.574 0.716473 9.40233C0.32716 9.02494 0.586702 9.13934 0.586702 9.13934Z" fill="url(#paint0_linear_107_9923)"/>
<path d="M20.5712 2.17182C20.5712 2.17182 10.2608 5.60515 4.59375 13.3633C4.59375 13.3633 5.45673 14.3193 6.0394 14.9334C6.48192 15.4002 7.63688 16.7243 7.63688 16.7243C7.63688 16.7243 10.9681 9.22914 20.4414 2.43481C20.9942 2.03901 20.7334 2.11791 20.5712 2.17182Z" fill="url(#paint1_linear_107_9923)"/>
<defs>
<linearGradient id="paint0_linear_107_9923" x1="1.40166" y1="16.5133" x2="23.5562" y2="16.5133" gradientUnits="userSpaceOnUse">
<stop stop-color="#F7EE68"/>
<stop offset="0.27" stop-color="#D3922A"/>
<stop offset="0.29" stop-color="#85878A"/>
<stop offset="1" stop-color="white"/>
</linearGradient>
<linearGradient id="paint1_linear_107_9923" x1="13.5574" y1="19.1626" x2="23.5" y2="6.13902" gradientUnits="userSpaceOnUse">
<stop stop-color="#F7EE68"/>
<stop offset="1" stop-color="#D58E29"/>
</linearGradient>
</defs>
</svg>
