<svg width="81" height="14" viewBox="0 0 81 14" fill="none" xmlns="http://www.w3.org/2000/svg">
<path fill-rule="evenodd" clip-rule="evenodd" d="M21.6231 9.17299C21.8493 9.22183 22.0189 9.25826 22.1997 9.29722C22.3303 9.76916 22.3178 10.2237 22.2078 10.7399C21.4034 10.8208 20.6217 10.7968 19.8557 10.7612C19.6419 10.3739 19.7386 10.0149 19.735 9.67429C19.7217 8.38129 19.7286 7.08801 19.7296 5.79486C19.7297 5.45195 19.6919 5.11639 19.3436 4.96392C18.9876 4.80792 18.6836 4.9563 18.4079 5.20307C18.0026 5.56602 17.8198 6.04897 17.7991 6.57371C17.7658 7.41736 17.7902 8.26369 17.7902 9.05356C17.9521 9.33336 18.2184 9.16085 18.4103 9.35312C18.5282 9.76323 18.5021 10.2171 18.4299 10.7355C17.4059 10.8192 16.4201 10.8006 15.4047 10.7553C15.2841 10.271 15.3285 9.83212 15.3517 9.43317C15.4647 9.18908 15.7015 9.28649 15.8732 9.13614V5.06218C15.798 4.83785 15.4909 5.01149 15.3626 4.78689V3.46114H17.6348C17.8245 3.56476 17.7364 3.80546 17.8716 3.97853C19.1023 3.00656 20.3094 2.75344 21.3902 4.22587C21.681 3.99731 21.9327 3.75859 22.2195 3.58071C23.7555 2.62822 25.4055 3.55078 25.45 5.39901C25.4799 6.64148 25.4557 7.88549 25.4557 9.15562C25.6569 9.21223 25.8223 9.25854 26.0118 9.31176C26.0757 9.76831 26.0672 10.2058 26.0043 10.7383C25.2223 10.8234 24.4473 10.8079 23.6381 10.7369C23.5073 10.0214 23.5782 9.34282 23.5703 8.66956C23.5591 7.72921 23.5705 6.78858 23.5649 5.84809C23.5628 5.48372 23.506 5.12006 23.1367 4.95884C22.7383 4.78491 22.4355 5.02166 22.1663 5.29088C21.7847 5.67289 21.6357 6.1629 21.6266 6.6947C21.6131 7.49345 21.6231 8.29263 21.6231 9.17299Z" fill="white"/>
<path fill-rule="evenodd" clip-rule="evenodd" d="M56.3268 5.75384C55.9477 7.36999 55.5686 8.986 55.1893 10.6036C54.6721 10.7922 54.1819 10.6908 53.6386 10.6857C53.0957 8.66878 52.5615 6.68375 52.0236 4.68559C51.8148 4.63816 51.6213 4.59425 51.4368 4.55232C51.3167 4.19713 51.3273 3.87836 51.428 3.50129H53.934C54.1731 3.81046 54.0206 4.1641 54.0465 4.46028C53.848 4.70648 53.5581 4.53524 53.3317 4.79641C53.6573 6.18936 53.9949 7.63257 54.3325 9.07564C54.378 9.07395 54.4236 9.07225 54.469 9.07056C54.8823 7.23037 55.2955 5.39032 55.7155 3.52035C56.1736 3.39711 56.6153 3.43155 57.1112 3.51174C57.5235 5.36138 57.9353 7.20905 58.3471 9.05658C58.8254 7.63116 59.1933 6.20461 59.4434 4.79994C59.2529 4.54738 59.0015 4.66964 58.8128 4.51152C58.7313 4.21224 58.7703 3.89065 58.7977 3.50482H61.3582C61.5196 3.84434 61.4637 4.1648 61.4143 4.46592C61.2589 4.68658 61.0035 4.55938 60.7455 4.78328C60.2464 6.66286 59.719 8.64902 59.19 10.641C58.6564 10.7579 58.1699 10.7452 57.6344 10.6319C57.2463 9.00011 56.8587 7.37013 56.471 5.74015C56.4229 5.74481 56.3749 5.74933 56.3268 5.75384Z" fill="#8A93C2"/>
<path fill-rule="evenodd" clip-rule="evenodd" d="M34.7247 2.27659C34.5297 2.22351 34.363 2.17805 34.1936 2.13203C34.1023 1.65966 34.1256 1.2216 34.1907 0.708297C34.9705 0.596206 35.748 0.659169 36.6051 0.669616V9.17387C36.8436 9.22271 37.0112 9.25688 37.2141 9.29838V10.7386H34.2175C34.0791 10.2596 34.1337 9.80434 34.16 9.41894C34.3191 9.16314 34.5588 9.30826 34.7247 9.11316V2.27659Z" fill="white"/>
<path fill-rule="evenodd" clip-rule="evenodd" d="M71.9278 10.6814H69.0307C68.9485 10.3138 68.9443 9.97671 69.0408 9.60119C69.2433 9.56209 69.4385 9.52439 69.7009 9.47357V4.75755C69.5219 4.53281 69.2365 4.6984 69.0468 4.50203C68.9696 4.20077 68.9614 3.88228 69.0692 3.50733C69.7289 3.38183 70.398 3.46229 71.0359 3.45524C71.295 3.82737 71.1066 4.205 71.27 4.6737C71.8542 3.59853 72.6165 2.98301 73.8145 3.38211C73.9232 3.82243 73.9236 4.23253 73.8371 4.62443C73.7612 4.66452 73.7223 4.70306 73.6837 4.70278C71.9178 4.68909 71.1996 5.41641 71.1925 7.23344C71.1898 7.95822 71.192 8.68301 71.192 9.31913C71.4164 9.62858 71.6995 9.4668 71.907 9.65173C72.0479 9.93097 71.9928 10.2514 71.9278 10.6814Z" fill="#8A93C2"/>
<mask id="mask0_107_9955" style="mask-type:luminance" maskUnits="userSpaceOnUse" x="0" y="3" width="8" height="11">
<path fill-rule="evenodd" clip-rule="evenodd" d="M0.5 3.26758H7.95715V13.2576H0.5V3.26758Z" fill="white"/>
</mask>
<g mask="url(#mask0_107_9955)">
<path fill-rule="evenodd" clip-rule="evenodd" d="M5.47697 6.88906C5.43137 7.35818 5.32338 7.81063 5.0614 8.20662C4.71901 8.72374 4.23137 8.90839 3.64243 8.82736C3.08966 8.75141 2.74755 8.41429 2.56611 7.88193C2.35451 7.26133 2.36693 6.63509 2.55082 6.01576C2.75287 5.33587 3.31669 4.90685 3.96625 4.90431C4.59751 4.90177 5.07997 5.28152 5.30837 5.99473C5.40011 6.28117 5.51014 6.57142 5.47697 6.88906ZM7.86423 3.4595H5.53372C5.50068 3.64712 5.46983 3.82274 5.42205 4.0945C5.22369 3.95276 5.11406 3.87257 5.00266 3.79507C3.76785 2.9373 2.29986 3.13946 1.32744 4.30089C0.223413 5.61931 0.224369 8.15872 1.32922 9.47643C2.22505 10.5448 3.6271 10.7899 4.78833 10.0987C5.01236 9.96531 5.15802 9.69271 5.45754 9.65953C5.52143 10.5001 5.48485 11.2665 4.6159 11.6396C3.76321 12.0055 3.01195 11.7471 2.22887 10.8107C1.72799 10.8822 1.18451 10.7104 0.633925 10.9267C0.76198 11.9402 1.29481 12.5643 2.14014 12.9683C2.8772 13.3207 3.65085 13.2641 4.41836 13.2367C6.28007 13.1701 7.29276 12.0686 7.29481 10.1432C7.29645 8.4974 7.29372 6.85146 7.29604 5.20567C7.29618 5.1396 7.32867 5.07353 7.33959 5.0316C7.50997 4.85965 7.77577 5.034 7.92526 4.7782C7.95215 4.36908 8.00362 3.92975 7.86423 3.4595Z" fill="white"/>
</g>
<path fill-rule="evenodd" clip-rule="evenodd" d="M31.7568 8.26872C31.5037 8.99632 31.0338 9.32765 30.3159 9.2925C29.6204 9.25848 29.1755 8.90682 28.9809 8.21196C28.7671 7.44893 28.7728 6.68207 29.0099 5.92525C29.2329 5.21345 29.7294 4.84937 30.433 4.85756C31.1077 4.86546 31.5344 5.21331 31.778 5.9292C32.045 6.71398 32.027 7.49227 31.7568 8.26872ZM33.7232 5.76985C33.1754 3.39123 30.6802 2.35615 29.0671 3.9106C29.0448 3.93206 28.9861 3.91329 28.8508 3.91329V0.693275C27.9952 0.629888 27.2342 0.611536 26.4306 0.707533C26.364 1.2118 26.3491 1.66666 26.4228 2.06858C26.6156 2.2898 26.8853 2.11785 27.0539 2.39497V5.71479V9.17677C26.7965 9.22068 26.6055 9.25329 26.3929 9.28943C26.3589 9.79003 26.2965 10.2481 26.4378 10.7487H28.6074C28.8698 10.6054 28.696 10.358 28.8797 10.1829C30.6733 11.6707 32.6758 10.8497 33.4052 9.28477C33.932 8.15468 33.9967 6.9581 33.7232 5.76985Z" fill="white"/>
<path fill-rule="evenodd" clip-rule="evenodd" d="M39.498 6.1151C39.5976 5.31705 40.0593 4.8924 40.8384 4.8756C41.6186 4.85866 42.0135 5.20015 42.1942 6.1151H39.498ZM41.2061 3.19172C39.3246 2.95596 37.5923 4.50364 37.4097 6.5834C37.2003 8.96922 38.5758 10.8265 40.6568 10.9561C42.1603 11.0497 44.0373 10.0702 44.0913 8.29822H42.3451C41.6173 9.2805 41.1376 9.50694 40.3637 9.24577C39.7274 9.03105 39.3919 8.46452 39.348 7.47349H44.2175C44.5037 5.37736 43.1107 3.4303 41.2061 3.19172Z" fill="white"/>
<path fill-rule="evenodd" clip-rule="evenodd" d="M10.9296 9.50571C10.4838 9.44571 10.1467 9.21955 10.0816 8.73335C10.0184 8.26141 10.2222 7.9089 10.6632 7.73822C11.2645 7.50543 11.8877 7.39913 12.5765 7.43145C12.7493 8.78784 12.0425 9.65549 10.9296 9.50571ZM14.4081 9.02155C14.4081 8.02755 14.4152 6.97116 14.4058 5.91476C14.3983 5.05347 14.1566 4.2948 13.4333 3.77981C12.34 3.00152 10.4312 3.02397 9.37764 3.85096C8.79976 4.30454 8.39471 4.87037 8.50692 5.73293H10.1469C10.6362 4.7923 11.131 4.53564 12.0153 4.76223C12.5887 4.90919 12.6058 5.38296 12.6512 5.93015C12.1239 6.00723 11.678 6.09151 11.2284 6.13287C10.7487 6.17706 10.292 6.31315 9.83716 6.45376C8.74092 6.79272 8.10215 7.61222 8.11948 8.62471C8.13778 9.68972 8.88535 10.5521 9.97491 10.8483C10.9901 11.1243 11.8353 10.7746 12.611 10.1562C12.8082 10.3343 12.6268 10.6158 12.8298 10.7323H14.9615V9.40258C14.8219 9.16272 14.5168 9.33721 14.4081 9.02155Z" fill="white"/>
<path fill-rule="evenodd" clip-rule="evenodd" d="M64.8056 9.72892C64.198 9.89 63.581 9.57815 63.3612 8.99906C63.1566 8.45992 63.3664 7.90794 63.9716 7.61994C64.6702 7.28762 65.4186 7.13501 66.1838 7.14715C66.475 8.49832 65.9656 9.42145 64.8056 9.72892ZM68.4435 9.59833C68.2309 9.55809 68.0129 9.51687 67.8126 9.47904C67.6433 9.22069 67.6951 8.95486 67.6931 8.70174C67.686 7.71452 67.6951 6.72702 67.6856 5.73979C67.6723 4.36195 66.9964 3.54696 65.684 3.32489C64.9555 3.20165 64.2306 3.23045 63.5278 3.47806C62.5101 3.83678 61.9921 4.58048 62.0676 5.57872H63.323C63.9783 4.44905 64.6806 4.13734 65.5987 4.54872C66.1636 4.80184 66.3635 5.3119 66.1861 6.08298C65.7867 6.2394 65.3491 6.21173 64.9262 6.27286C64.2048 6.37719 63.4908 6.50015 62.8276 6.83642C62.2875 7.11016 61.9094 7.52535 61.7751 8.13874C61.5913 8.97745 61.7337 9.75051 62.3902 10.3165C63.1498 10.9715 64.0253 11.0674 64.9558 10.7276C65.4247 10.5563 65.8032 10.2244 66.2085 9.95931C66.3949 10.1824 66.2263 10.4704 66.4814 10.6971C67.1166 10.7096 67.8063 10.7615 68.4836 10.6553C68.5774 10.2583 68.5737 9.93926 68.4435 9.59833Z" fill="#8A93C2"/>
<path fill-rule="evenodd" clip-rule="evenodd" d="M47.7591 9.73879C47.164 9.90382 46.5344 9.58434 46.3153 9.00596C46.1078 8.45807 46.323 7.94716 46.9195 7.62331C47.5971 7.25556 48.3485 7.23918 49.1085 7.0918C49.4329 8.46428 48.9127 9.41875 47.7591 9.73879ZM51.3842 9.58399C51.1614 9.54898 50.9408 9.51425 50.7272 9.48065C50.6021 9.21383 50.6397 8.95139 50.6393 8.69615C50.6373 7.70921 50.6369 6.72227 50.6459 5.73562C50.655 4.75546 50.3164 3.96503 49.4143 3.57455C48.2412 3.06689 47.0509 3.1146 45.9376 3.76019C45.2974 4.13133 44.9234 4.72892 44.9674 5.55379C45.4296 5.64795 45.8545 5.6351 46.3087 5.57101C46.8182 4.50219 47.4735 4.17919 48.4047 4.49796C49.0945 4.73414 49.3087 5.18787 49.1344 6.0702C48.804 6.22252 48.4348 6.19372 48.0808 6.25429C47.4992 6.35381 46.9056 6.42129 46.3444 6.5955C45.0135 7.00857 44.3972 8.08516 44.722 9.32748C45.0166 10.4545 46.2578 11.0992 47.5145 10.8442C48.1582 10.7137 48.6361 10.2897 49.1655 9.96826C49.3272 10.2061 49.1747 10.491 49.4398 10.705C50.0582 10.684 50.7306 10.7857 51.4447 10.6429C51.4712 10.2738 51.5571 9.93466 51.3842 9.58399Z" fill="#8A93C2"/>
<mask id="mask1_107_9955" style="mask-type:luminance" maskUnits="userSpaceOnUse" x="73" y="3" width="8" height="8">
<path fill-rule="evenodd" clip-rule="evenodd" d="M73.9648 3.24219H80.4619V10.9085H73.9648V3.24219Z" fill="white"/>
</mask>
<g mask="url(#mask1_107_9955)">
<path fill-rule="evenodd" clip-rule="evenodd" d="M77.4747 4.55968C78.3465 4.62264 78.8371 5.25044 78.7802 6.27634H75.6113C75.7084 5.18945 76.485 4.48825 77.4747 4.55968ZM80.3811 7.40573C80.5664 6.78923 80.3892 6.28722 80.2876 5.79678C79.786 3.37157 77.0541 2.43221 75.2251 4.04172C74.0245 5.09826 73.6268 7.10362 74.2711 8.76889C74.5995 9.61805 75.1497 10.2403 75.9527 10.6152C77.7664 11.4619 79.955 10.3894 80.21 8.50377C79.7438 8.40805 79.2829 8.40975 78.8388 8.51549C78.2697 9.60802 77.8271 9.78096 76.7741 9.52388C75.9855 9.33118 75.4925 8.47017 75.5255 7.40573H80.3811Z" fill="#8A93C2"/>
</g>
</svg>
