<svg width="65" height="33" viewBox="0 0 65 33" fill="none" xmlns="http://www.w3.org/2000/svg">
<path fill-rule="evenodd" clip-rule="evenodd" d="M12.1974 6.4397C6.71253 6.4397 2.25 10.8433 2.25 16.2564C2.25 21.6694 6.71253 26.0734 12.1974 26.0734H53.6599C59.1444 26.0734 63.6071 21.6694 63.6071 16.2564C63.6071 10.8433 59.1444 6.4397 53.6599 6.4397H12.1974Z" fill="#FEFEFE"/>
<mask id="mask0_107_9986" style="mask-type:luminance" maskUnits="userSpaceOnUse" x="1" y="5" width="64" height="22">
<path fill-rule="evenodd" clip-rule="evenodd" d="M1.40234 5.60376H64.4541V26.9098H1.40234V5.60376Z" fill="white"/>
</mask>
<g mask="url(#mask0_107_9986)">
<path fill-rule="evenodd" clip-rule="evenodd" d="M12.1974 6.4397C6.71253 6.4397 2.25 10.8433 2.25 16.2564C2.25 21.6694 6.71253 26.0734 12.1974 26.0734H53.6599C59.1444 26.0734 63.6071 21.6694 63.6071 16.2564C63.6071 10.8433 59.1444 6.4397 53.6599 6.4397H12.1974ZM53.6595 26.9098H12.197C6.24481 26.9098 1.40234 22.1305 1.40234 16.2566C1.40234 10.3827 6.24481 5.60376 12.197 5.60376H53.6595C59.6117 5.60376 64.4541 10.3827 64.4541 16.2566C64.4541 22.1305 59.6117 26.9098 53.6595 26.9098Z" fill="#C6C7C9"/>
</g>
<path fill-rule="evenodd" clip-rule="evenodd" d="M48.6872 14.6471C47.8615 14.6471 47.1914 13.9869 47.1914 13.1718C47.1914 12.356 47.8615 11.6956 48.6872 11.6956C49.5129 11.6956 50.1832 12.356 50.1832 13.1718C50.1832 13.9869 49.5129 14.6471 48.6872 14.6471ZM48.6862 10.2952C47.0767 10.2952 45.7715 11.5834 45.7715 13.1726C45.7715 14.7609 47.0767 16.0481 48.6862 16.0481C50.2968 16.0481 51.6012 14.7609 51.6012 13.1726C51.6012 11.5834 50.2968 10.2952 48.6862 10.2952Z" fill="#231F20"/>
<path fill-rule="evenodd" clip-rule="evenodd" d="M35.317 14.6471C34.4921 14.6471 33.8223 13.9869 33.8223 13.1718C33.8223 12.356 34.4921 11.6956 35.317 11.6956C36.1437 11.6956 36.813 12.356 36.813 13.1718C36.813 13.9869 36.1437 14.6471 35.317 14.6471ZM35.3169 10.2952C33.7073 10.2952 32.4023 11.5834 32.4023 13.1726C32.4023 14.7609 33.7073 16.0481 35.3169 16.0481C36.9274 16.0481 38.2328 14.7609 38.2328 13.1726C38.2328 11.5834 36.9274 10.2952 35.3169 10.2952Z" fill="#231F20"/>
<path fill-rule="evenodd" clip-rule="evenodd" d="M45.5837 14.7288C45.3995 14.7817 45.1175 14.8339 45.0102 14.8339C44.512 14.8339 44.4035 14.6644 44.4035 14.1939V11.5362H45.5953V10.4256H44.4035V8.85571H43.0625L42.7807 10.4256H41.8465V10.4264H41.7706C41.0066 10.43 40.4304 10.89 40.0608 11.6104L39.5946 10.4256H38.6329V15.9454H40.2764V13.5438C40.2764 12.3334 41.0011 11.5601 41.8602 11.5362H42.7592V14.2803C42.7592 15.5719 43.4301 16.0523 44.5226 16.0523C45.0864 16.0523 45.5185 15.9348 45.7778 15.85L45.5837 14.7288Z" fill="#231F20"/>
<path fill-rule="evenodd" clip-rule="evenodd" d="M53.5919 12.1724V15.9458H51.9941V10.426H52.9639L53.2888 11.2691" fill="#231F20"/>
<path fill-rule="evenodd" clip-rule="evenodd" d="M53.2832 11.2746C53.769 10.7184 54.4336 10.2971 55.2121 10.2971C56.5433 10.2971 57.0909 11.3443 57.0909 12.3156V15.946H55.4456V12.3623C55.4456 11.8891 55.0466 11.6323 54.6136 11.6323C54.1528 11.6323 53.8566 11.8927 53.5963 12.1708" fill="#231F20"/>
<path fill-rule="evenodd" clip-rule="evenodd" d="M25.9922 8.42798H27.8236L30.3385 13.155V8.42798H31.8554V15.9468H30.1961L27.5097 10.7492V15.9468H25.9922V8.42798Z" fill="#231F20"/>
<path fill-rule="evenodd" clip-rule="evenodd" d="M25.5352 22.6083L25.9153 22.0248C26.2241 22.25 26.6876 22.4591 27.2528 22.4591C27.8022 22.4591 28.1413 22.2135 28.1413 21.787C28.1413 21.2964 27.7128 21.1665 27.0086 20.9246C26.3771 20.7057 25.7562 20.3913 25.7562 19.5085C25.7562 18.6812 26.4173 18.2307 27.3066 18.2307C27.8979 18.2307 28.3335 18.3456 28.6844 18.5495L28.3802 19.1703C28.0858 19.0193 27.7341 18.9168 27.3209 18.9168C26.8253 18.9168 26.5283 19.1013 26.5283 19.4891C26.5283 19.9446 26.8727 20.0603 27.5204 20.2704C28.1959 20.4866 28.9393 20.7949 28.9393 21.773C28.9393 22.6004 28.34 23.146 27.2646 23.146C26.4665 23.146 25.8804 22.8741 25.5352 22.6083Z" fill="#A6A8AB"/>
<path fill-rule="evenodd" clip-rule="evenodd" d="M30.3809 18.3069H33.2602V18.9673H31.2003V20.2714H32.8271V20.9176H31.2003V22.4248H33.3854V23.0842H30.3809V18.3069Z" fill="#A6A8AB"/>
<path fill-rule="evenodd" clip-rule="evenodd" d="M34.5586 20.6994C34.5586 19.3053 35.235 18.2327 36.5851 18.2327C37.1897 18.2327 37.6676 18.4215 38.004 18.8083L37.5262 19.3539C37.2372 19.0748 36.9922 18.938 36.5985 18.938C35.8059 18.938 35.44 19.578 35.44 20.7604C35.44 21.8702 35.8262 22.4326 36.6056 22.4326C37.0385 22.4326 37.3427 22.2082 37.6095 21.9293L38.0918 22.4598C37.7409 22.8687 37.3017 23.1468 36.5985 23.1468C35.2063 23.1468 34.5586 22.0995 34.5586 20.6994Z" fill="#A6A8AB"/>
<path fill-rule="evenodd" clip-rule="evenodd" d="M39.4257 21.2559V18.3069H40.2514V21.3874C40.2514 22.0442 40.4161 22.4741 41.1185 22.4741C41.8146 22.4741 41.9871 22.0442 41.9871 21.3874V18.3069H42.8209V21.2559C42.8209 22.4396 42.3593 23.147 41.1122 23.147C39.8856 23.147 39.4257 22.4396 39.4257 21.2559Z" fill="#A6A8AB"/>
<path fill-rule="evenodd" clip-rule="evenodd" d="M46.0132 20.4353C46.627 20.4353 46.9427 20.2384 46.9427 19.6866C46.9427 19.1561 46.6207 18.967 46.0614 18.967H45.2832V20.4353H46.0132ZM47.8726 23.085H46.977L46.0474 21.0588H45.2825V23.085H44.4629V18.3069H46.0422C47.0198 18.3069 47.7832 18.6529 47.7832 19.7C47.7832 20.4144 47.3492 20.7729 46.866 20.9433L47.8726 23.085Z" fill="#A6A8AB"/>
<path fill-rule="evenodd" clip-rule="evenodd" d="M49.2754 18.3069H52.1546V18.9673H50.094V20.2714H51.7188V20.9176H50.094V22.4248H52.2779V23.0842H49.2754V18.3069Z" fill="#A6A8AB"/>
<path fill-rule="evenodd" clip-rule="evenodd" d="M54.8225 22.4255C55.9527 22.4255 56.3392 21.9108 56.3392 20.6791C56.3392 19.5984 56.0358 18.967 54.9245 18.967H54.4844V22.4255H54.8225ZM53.6621 18.3069H54.8708C56.4491 18.3069 57.2075 19.15 57.2075 20.6784C57.2075 22.2357 56.4356 23.085 54.9126 23.085H53.6621V18.3069Z" fill="#A6A8AB"/>
<mask id="mask1_107_9986" style="mask-type:luminance" maskUnits="userSpaceOnUse" x="0" y="4" width="24" height="24">
<path fill-rule="evenodd" clip-rule="evenodd" d="M0.5 4.76392H23.7946V27.7518H0.5V4.76392Z" fill="white"/>
</mask>
<g mask="url(#mask1_107_9986)">
<path fill-rule="evenodd" clip-rule="evenodd" d="M12.147 8.40063C10.0212 8.40063 8.02156 9.21828 6.51583 10.7024C5.01194 12.1873 4.18359 14.1606 4.18359 16.2585C4.18359 18.3559 5.01194 20.3293 6.51583 21.8152C8.02055 23.2983 10.0202 24.1159 12.147 24.1167C14.2726 24.1159 16.2723 23.2983 17.778 21.8142C19.2801 20.3293 20.1086 18.3559 20.1094 16.2585C20.1086 14.1606 19.2801 12.1873 17.7772 10.7016C16.2715 9.21828 14.2718 8.40063 12.147 8.40063ZM12.1478 27.7518C5.72585 27.7518 0.5 22.5947 0.5 16.2575C0.5 9.92001 5.72585 4.76392 12.1478 4.76392C18.5689 4.76392 23.7936 9.92001 23.7946 16.2575C23.7936 22.5947 18.5689 27.7518 12.1478 27.7518Z" fill="#FEC10E"/>
</g>
<mask id="mask2_107_9986" style="mask-type:luminance" maskUnits="userSpaceOnUse" x="0" y="1" width="65" height="27">
<path fill-rule="evenodd" clip-rule="evenodd" d="M0.5 27.7514H64.4545V1.20728H0.5V27.7514Z" fill="white"/>
</mask>
<g mask="url(#mask2_107_9986)">
<path fill-rule="evenodd" clip-rule="evenodd" d="M24.8359 3.88867H25.7439V2.99243H24.8359V3.88867Z" fill="#FEC10E"/>
<path fill-rule="evenodd" clip-rule="evenodd" d="M24.8359 2.10532H25.7439V1.20728H24.8359V2.10532Z" fill="#FEC10E"/>
<path fill-rule="evenodd" clip-rule="evenodd" d="M22.2793 4.75804H23.1273V3.88306H22.2793V4.75804Z" fill="#FEC10E"/>
<path fill-rule="evenodd" clip-rule="evenodd" d="M20.5977 6.4387H21.453V5.60181H20.5977V6.4387Z" fill="#231F20"/>
<path fill-rule="evenodd" clip-rule="evenodd" d="M23.127 5.60116H24.078V4.75806H23.127V5.60116Z" fill="#231F20"/>
<path fill-rule="evenodd" clip-rule="evenodd" d="M19.7461 5.60088H20.5978V4.79907H19.7461V5.60088Z" fill="#231F20"/>
<path fill-rule="evenodd" clip-rule="evenodd" d="M22.2793 6.4387H23.1273V5.60181H22.2793V6.4387Z" fill="#231F20"/>
<path fill-rule="evenodd" clip-rule="evenodd" d="M23.9375 2.99393H24.8359V2.10571H23.9375V2.99393Z" fill="#231F20"/>
<path fill-rule="evenodd" clip-rule="evenodd" d="M22.2793 3.88226H23.936V2.99243H22.2793V3.88226Z" fill="#231F20"/>
<path fill-rule="evenodd" clip-rule="evenodd" d="M21.4531 5.60115H22.2788V3.88306H21.4531V5.60115Z" fill="#231F20"/>
<path fill-rule="evenodd" clip-rule="evenodd" d="M21.4533 6.43774V7.28105H20.5979V6.43774H19.179V7.04526H18.4185V7.79474H19.2676V8.63002H18.4185V7.79474H17.5158V9.10501H16.6623V9.9411H16.096V10.7808H15.4731C14.7735 11.8076 13.0199 15.0082 12.4905 16.3112C10.5794 13.6873 9.09603 12.6473 7.92757 12.2711C7.29773 12.0839 6.53827 12.7612 7.58482 13.8268C9.98878 16.4357 10.7458 18.5959 11.4766 20.3192C11.8633 21.2279 13.5961 21.3693 13.9442 20.4438C14.6841 18.4883 15.7569 16.291 17.0274 14.4863V13.5513H17.7056V12.708H18.4185V11.7308H19.2702V10.7886H18.4087V9.93228H19.2702V10.7886H20.113L20.1113 9.9411H20.7867V8.91794H21.5472V8.21419H22.279V6.43774H21.4533Z" fill="#231F20"/>
</g>
</svg>
