<svg width="25" height="25" viewBox="0 0 25 25" fill="none" xmlns="http://www.w3.org/2000/svg">
<g clip-path="url(#clip0_107_10066)">
<path d="M13.6336 11.2913C14.6366 11.2913 15.0425 10.8846 15.0425 9.71207C15.0425 8.49174 14.6366 8.13281 13.6336 8.13281C12.6306 8.13281 12.2246 8.49174 12.2246 9.71207C12.2246 10.8846 12.6306 11.2913 13.6336 11.2913Z" fill="url(#paint0_linear_107_10066)"/>
<path d="M13.6346 12.99C12.4644 12.99 12.0585 13.5164 12.0585 14.665C12.0585 15.8135 12.4644 16.2682 13.6346 16.2682C14.8047 16.2682 15.2107 15.8135 15.2107 14.665C15.2107 13.5164 14.7809 12.99 13.6346 12.99Z" fill="url(#paint1_linear_107_10066)"/>
<path d="M18.0997 2.24566C17.6699 1.83888 17.1445 1.69531 16.5475 1.69531H8.45197C7.85496 1.69531 7.32958 1.81495 6.89973 2.24566L2.79227 6.4331C2.29078 6.93559 2.07585 7.50987 2.07585 8.17986V16.1958C2.05197 16.8658 2.29078 17.3683 2.74451 17.8469L6.80421 21.9147C7.28182 22.3932 7.80719 22.6086 8.45197 22.6086H16.5475C17.1923 22.6086 17.7176 22.3932 18.1953 21.9147L22.255 17.8469C22.7326 17.3922 22.9236 16.8897 22.9236 16.2197V13.4441C22.8997 13.2048 22.7803 13.0851 22.5415 13.0851H21.3236V13.9466C21.3236 14.5926 21.2281 14.9037 20.6788 14.9037H20.1296C19.5803 14.9037 19.4848 14.5687 19.4848 13.9466V13.0851H18.649C18.0042 13.0851 17.6938 12.9894 17.6938 12.4391V11.8648C17.6938 11.3145 18.0281 11.2187 18.649 11.2187H19.5087V10.3573C19.5087 9.71126 19.6042 9.4002 20.1535 9.4002H20.7027C21.252 9.4002 21.3475 9.73519 21.3475 10.3573V11.2187H22.5654C22.8281 11.2187 22.9475 11.0752 22.9475 10.812V8.17986C22.9475 7.50987 22.7087 6.93559 22.2311 6.4331L18.0997 2.24566ZM13.6341 17.9904C10.8878 17.9426 10.1953 16.9376 10.1953 14.9276C10.1953 13.5637 10.2908 12.5348 11.5087 12.0562C10.4818 11.3145 10.4818 10.5488 10.4818 9.92662V9.30448C10.5535 7.22273 11.246 6.45703 13.6341 6.45703C16.0221 6.45703 16.6908 7.24666 16.8102 9.30448V9.92662C16.8102 10.5488 16.7863 11.3145 15.7833 12.0562C17.0012 12.5348 17.0967 13.5637 17.0967 14.9276C17.0729 16.9376 16.3564 17.9186 13.6341 17.9904Z" fill="url(#paint2_linear_107_10066)"/>
<path d="M7.87838 6.64844H6.23061C5.58584 6.64844 5.27539 6.76808 5.27539 7.2945V7.8927C5.27539 8.41913 5.60972 8.53877 6.23061 8.53877H6.6127C6.85151 8.53877 6.94703 8.65841 6.94703 9.04126V16.8897C6.94703 17.5358 7.06644 17.8468 7.59181 17.8468H8.2127C8.73808 17.8468 8.85748 17.5118 8.85748 16.8897V7.2945C8.8336 6.76808 8.49927 6.64844 7.87838 6.64844Z" fill="white"/>
<path d="M19.1985 1.19347C18.4821 0.499548 17.5985 0.140625 16.5239 0.140625H8.47612C7.40149 0.140625 6.49403 0.499548 5.80149 1.19347L1.52687 5.45269C0.858209 6.12268 0.5 7.00802 0.5 7.98908V16.1965C0.5 17.3211 0.88209 18.2064 1.64627 18.9482L5.70597 23.016C6.49403 23.8056 7.40149 24.1885 8.54776 24.1646H16.5C17.5985 24.1646 18.506 23.8296 19.3418 23.016L23.4015 18.9482C24.1418 18.2064 24.5478 17.3211 24.5478 16.1965V7.98908C24.5478 7.00802 24.1896 6.12268 23.5209 5.45269L19.1985 1.19347ZM22.9239 10.7887C22.9239 11.0519 22.8045 11.1955 22.5418 11.1955H21.3239V10.334C21.3239 9.68798 21.2284 9.37692 20.6791 9.37692H20.1299C19.5806 9.37692 19.4851 9.71191 19.4851 10.334V11.1955H18.6493C18.0045 11.1955 17.694 11.2912 17.694 11.8415V12.4158C17.694 12.9661 18.0284 13.0619 18.6493 13.0619H19.509V13.9233C19.509 14.5693 19.6045 14.8804 20.1537 14.8804H20.703C21.2522 14.8804 21.3478 14.5454 21.3478 13.9233V13.0619H22.5657C22.8045 13.0619 22.9239 13.1815 22.9478 13.4208V16.1965C22.9478 16.8664 22.7567 17.3689 22.2791 17.8236L18.2194 21.8914C17.7418 22.3699 17.2164 22.5853 16.5716 22.5853H8.45224C7.80746 22.5853 7.28209 22.3699 6.80448 21.8914L2.74478 17.8236C2.26716 17.345 2.05224 16.8664 2.07612 16.1965V8.1805C2.07612 7.51051 2.29104 6.93624 2.79254 6.43375L6.9 2.24631C7.32985 1.83953 7.85522 1.69596 8.45224 1.69596H16.5478C17.1448 1.69596 17.6701 1.8156 18.1 2.24631L22.2313 6.43375C22.709 6.93624 22.9478 7.51051 22.9478 8.1805V10.7887H22.9239Z" fill="white"/>
<path d="M15.7604 12.0328C16.7872 11.291 16.7872 10.5253 16.7872 9.90318V9.28105C16.6678 7.22322 15.9992 6.43359 13.6111 6.43359C11.2231 6.43359 10.5544 7.22322 10.435 9.28105V9.90318C10.435 10.5253 10.4589 11.291 11.4619 12.0328C10.244 12.5114 10.1484 13.5403 10.1484 14.9042C10.1484 16.9141 10.8649 17.9191 13.5872 17.967C16.3335 17.9191 17.026 16.9141 17.026 14.9042C17.0738 13.5403 16.9783 12.5114 15.7604 12.0328ZM13.635 8.1325C14.638 8.1325 15.044 8.49142 15.044 9.71176C15.044 10.8842 14.638 11.291 13.635 11.291C12.632 11.291 12.226 10.8842 12.226 9.71176C12.226 8.49142 12.632 8.1325 13.635 8.1325ZM13.635 16.2681C12.4649 16.2681 12.0589 15.8135 12.0589 14.6649C12.0589 13.5163 12.4649 12.9899 13.635 12.9899C14.8052 12.9899 15.2111 13.5163 15.2111 14.6649C15.2111 15.8135 14.7813 16.2681 13.635 16.2681Z" fill="white"/>
</g>
<defs>
<linearGradient id="paint0_linear_107_10066" x1="12.2264" y1="9.70882" x2="15.0221" y2="9.70882" gradientUnits="userSpaceOnUse">
<stop stop-color="#E73E24"/>
<stop offset="0.3314" stop-color="#E53D24"/>
<stop offset="0.618" stop-color="#DD3A23"/>
<stop offset="0.8869" stop-color="#D13522"/>
<stop offset="1" stop-color="#CA3222"/>
</linearGradient>
<linearGradient id="paint1_linear_107_10066" x1="12.046" y1="14.6197" x2="15.2046" y2="14.6197" gradientUnits="userSpaceOnUse">
<stop stop-color="#E73E24"/>
<stop offset="0.3314" stop-color="#E53D24"/>
<stop offset="0.618" stop-color="#DD3A23"/>
<stop offset="0.8869" stop-color="#D13522"/>
<stop offset="1" stop-color="#CA3222"/>
</linearGradient>
<linearGradient id="paint2_linear_107_10066" x1="2.07798" y1="12.1453" x2="22.9195" y2="12.1453" gradientUnits="userSpaceOnUse">
<stop stop-color="#E73E24"/>
<stop offset="0.3314" stop-color="#E53D24"/>
<stop offset="0.618" stop-color="#DD3A23"/>
<stop offset="0.8869" stop-color="#D13522"/>
<stop offset="1" stop-color="#CA3222"/>
</linearGradient>
<clipPath id="clip0_107_10066">
<rect width="24" height="24" fill="white" transform="translate(0.5 0.140625)"/>
</clipPath>
</defs>
</svg>
